<?xml version="1.0" encoding="utf-8"?>
<!-- Generator: Adobe Illustrator 18.1.1, SVG Export Plug-In . SVG Version: 6.00 Build 0)  -->
<svg version="1.1" id="Layer_1" xmlns="http://www.w3.org/2000/svg" xmlns:xlink="http://www.w3.org/1999/xlink" x="0px" y="0px"
	 viewBox="0 0 960 560" enable-background="new 0 0 960 560" xml:space="preserve">
<path d="M480,0C288.9,0,134.1,105.5,134.1,235.5c0,83,63.1,155.9,158.1,197.8l-39.1,126.8l154-94.3c23.4,3.3,47.7,5.3,72.8,5.3
	c191.1,0,345.9-105.4,345.9-235.5S671,0,480,0z M310,292.8c-31.6,0-57.3-25.7-57.3-57.3s25.7-57.3,57.3-57.3s57.3,25.7,57.3,57.3
	C367.3,267.2,341.6,292.8,310,292.8z M480,292.8c-31.6,0-57.3-25.7-57.3-57.3s25.7-57.3,57.3-57.3s57.3,25.7,57.3,57.3
	C537.3,267.2,511.6,292.8,480,292.8z M650,292.8c-31.6,0-57.3-25.7-57.3-57.3s25.7-57.3,57.3-57.3s57.3,25.7,57.3,57.3
	C707.3,267.2,681.6,292.8,650,292.8z"/>
</svg>
