<?xml version="1.0" encoding="utf-8"?>
<!-- Generator: Adobe Illustrator 18.1.1, SVG Export Plug-In . SVG Version: 6.00 Build 0)  -->
<svg version="1.1" id="Layer_1" xmlns="http://www.w3.org/2000/svg" xmlns:xlink="http://www.w3.org/1999/xlink" x="0px" y="0px"
	 viewBox="0 0 960 560" enable-background="new 0 0 960 560" xml:space="preserve">
<path d="M454.7,433.5c-49.4-7.3-54.2-23.4-94,16.5c-28,28-94,100.7-100.7,107.5c-6.7,6.7-21.9,0.4-39.8-17.5
	c-18-18-24.2-33.3-17.5-39.9c6.7-6.7,79.5-72.7,107.5-100.7c39.8-39.8,23.8-44.6,16.5-94L454.7,433.5z M681.1,357.4
	c-49.5,49.5-111.8,76.2-170.7,78.6c-10.5,0.4-19.7,0.3-28.1,0L323.9,277.7c-0.4-8.4-0.5-17.6-0.1-28.1c2.4-59,29.2-121.2,78.6-170.7
	c92.9-92.7,230.4-105.6,307.3-28.6C786.6,127.1,773.9,264.8,681.1,357.4z M523.1,123.6c-17.3-17.3-45.4-17.3-62.6,0
	c-17.3,17.3-17.3,45.4,0,62.6c17.3,17.3,45.4,17.3,62.6,0C540.5,169,540.5,140.9,523.1,123.6z"/>
</svg>
