<?xml version="1.0" encoding="utf-8"?>
<!-- Generator: Adobe Illustrator 18.1.1, SVG Export Plug-In . SVG Version: 6.00 Build 0)  -->
<svg version="1.1" id="Layer_1" xmlns="http://www.w3.org/2000/svg" xmlns:xlink="http://www.w3.org/1999/xlink" x="0px" y="0px"
	 viewBox="0 0 960 560" enable-background="new 0 0 960 560" xml:space="preserve">
<g>
	<polygon points="488.8,149.8 481.5,119 482.1,119 512.9,153.4 531.7,155.9 520.8,107.5 503.9,104.5 511.1,135.3 511.1,135.3 
		480.3,100.3 461,97.3 472.4,148 	"/>
	<path d="M697.8,439.8l-84-395.7L319,0l84,396.3l232,34.4l-272.4,58l-74.9-353.4l36.9-7.9l-4.2-20.5L262.8,119l84,395.1l296,45.9
		l-22.4-104.5L697.8,439.8z M420.5,377.6L346.2,25.4l250.1,37.5L671.2,415L420.5,377.6z"/>
	<path d="M559.4,268.2l48.3-3.6l-53.2-17.5c-1.2-3-3.6-5.4-5.4-8.5l6-23l-24.2,7.9c-1.8-1.2-4.2-2.4-6-3l-21.7-51.3l-0.6,48.3
		c-2.4,0.6-4.2,1.2-6,1.8L465.2,203l19.3,30.8c0,1.2-0.6,2.4-0.6,3l-49.5,3.6l54.4,18.1c0.6,1.2,1.2,2.4,2.4,3.6l-7.2,27.8l27.2-8.5
		c2.4,1.2,4.8,2.4,7.2,3.6l21.7,51.3l0.6-48.3c1.8,0,3-0.6,4.8-1.2l29.6,15.7l-16.9-27.2C558.2,273.7,559.4,270.6,559.4,268.2z
		 M525.6,272.4c-11.5-1.8-22.4-11.5-24.8-22.4c-2.4-10.9,4.8-18.7,16.3-16.9c11.5,1.8,22.4,11.5,24.8,22.4
		C544.3,266.4,537.1,274.3,525.6,272.4z"/>
</g>
</svg>
