<?xml version="1.0" encoding="iso-8859-1"?>
<!-- Generator: Adobe Illustrator 18.1.1, SVG Export Plug-In . SVG Version: 6.00 Build 0)  -->
<svg version="1.1" baseProfile="tiny" id="Layer_1" xmlns="http://www.w3.org/2000/svg" xmlns:xlink="http://www.w3.org/1999/xlink"
	 x="0px" y="0px" viewBox="0 0 35.094 50" xml:space="preserve" preserveAspectRatio="none">
<g>
	<path fill="#E4F5FD" d="M17.803,29.038c-16.722,0-25.556-21.125-27.157-25.36L-10,1.968v-38.43h55.099V1.705l-0.478,1.49
		C43.773,5.84,35.812,29.038,17.803,29.038z"/>
	<path fill="#565F65" d="M35.099-26.462V0.141c0,0-6.061,18.897-17.296,18.897C7.144,19.038,0,0.141,0,0.141v-26.603H35.099
		 M55.099-46.462h-20H0h-20v20V0.141v3.654l1.292,3.418c0.43,1.137,2.784,7.127,6.921,13.394
		c10.055,15.233,21.641,18.43,29.59,18.43c15.812,0,25.504-11.863,29.874-18.934c4.002-6.475,6.088-12.677,6.466-13.854l0.956-2.979
		V0.141v-26.603V-46.462L55.099-46.462z"/>
</g>
</svg>
