<?xml version="1.0" encoding="iso-8859-1"?>
<!-- Generator: Adobe Illustrator 18.1.1, SVG Export Plug-In . SVG Version: 6.00 Build 0)  -->
<svg version="1.1" xmlns="http://www.w3.org/2000/svg" xmlns:xlink="http://www.w3.org/1999/xlink" x="0px" y="0px"
	 viewBox="0 0 1263 581" style="enable-background:new 0 0 1263 581;" xml:space="preserve">
<g id="Layer_2" style="display:none;">
	<g id="cLBRAx_1_" style="display:inline;">
		<g>
			<g>
				<g>
					<path d="M-464.582,217.058c-0.753-0.943-4.306-0.75-5.373-0.844c-1.906-0.168-3.817-0.273-5.724-0.423
						c-20.709-1.624-41.424-3.2-62.164-4.372c-2.635-0.149-5.318-0.226-7.929-0.64c-0.64-0.102-6.234-0.612-6.344-0.196
						c-0.412,1.559-0.814,2.807-0.977,4.447c-2.042,20.591-4.201,41.17-6.356,61.749c-0.238,2.269-3.268,26.871-2.647,26.977
						c7.456,1.275,15.051,1.888,22.587,2.623c4.031,0.393,8.062,0.787,12.094,1.18c10.336,1.008,20.673,2.017,31.009,3.025
						c5.168,0.504,10.336,1.008,15.504,1.513c2.506,0.245,5.242,0.852,7.755,0.757c0.659-0.025,0.991-0.046,1.173-0.229
						c0.182-0.184,0.213-0.533,0.27-1.215c0.099-1.183,0.019-2.36,0.225-3.538c1.705-9.775,1.805-20.095,2.554-30.026
						c0.782-10.364,1.563-20.728,2.345-31.092c0.391-5.184,0.782-10.369,1.173-15.553c0.196-2.592,0.391-5.184,0.587-7.777
						c0.101-1.34,0.283-2.702,0.305-4.045C-464.509,219.014-464.355,217.343-464.582,217.058z M-520.62,306.195
						c-3.45-0.162-7.476-0.333-8.033-0.384c-3.376-0.305-6.747-0.675-10.109-1.11c-1.084-0.14-7.546-0.281-7.918-1.502
						c-0.51-1.675,0.111-3.913,0.887-5.425c0.647-1.261,1.557-1.888,2.8-2.452c0.51-0.231,2.934-1.583,3.423-1.042
						c1.985,2.193,4.657,2.857,7.237,3.761c0.587,0.206,1.25,0.307,1.875,0.312c0.628,0.006,1.232,0.096,1.833-0.083
						c2.628-0.785,5.502-0.912,7.975-2.558c0.104-0.102,0.225-0.182,0.356-0.244c0.736-0.546,1.539,0.589,2,1.019
						c0.231,0.216,0.464,0.433,0.657,0.683c0.285,0.369,0.477,0.8,0.665,1.227c0.403,0.915,0.807,1.855,0.874,2.853
						c0.121,1.824,0.241,3.429,0.581,5.242C-515.528,306.444-517.894,306.323-520.62,306.195z M-516.625,270.938
						c0.013,0.203,0.104,0.938,0.11,1.263c0.075,0.522,0.18,1.038,0.313,1.55c-0.157-0.603-2.595,0.017-2.986,0.201
						c-1.154,0.539-2.542,1.227-3.304,2.279c0.427-0.59-0.753-3.235-1.065-3.799c-0.641-1.157-1.632-2.129-2.908-2.548
						c-3.314-1.087-7.888,0.746-9.421,3.841c-2.437,4.922,0.253,12.018,6.379,11.626c1.757-0.112,3.441-0.768,4.987-1.613
						c0.813-0.445,1.06-0.373,1.711,0.019c0.526,0.317,1.398,1.52,1.883,1.887c0.803,0.607,1.546,1.043,2.178,1.107
						c-0.666,2.784-1.367,4.424-1.927,6.765c-0.444,1.853-5.319,2.498-6.768,2.587c-1.957,0.121-4.183,0.53-6.086-0.129
						c-0.912-0.316-1.599-0.941-2.377-1.499c-0.654-0.469-2.548-1.34-2.87-2.042c-1.282-2.802-2.894-6.053-3.261-9.676
						c-0.393-3.883-0.138-7.849,1.3-11.436c1.233-3.077,2.579-6.807,5.268-8.914c3.149-2.466,7.63-3.967,11.372-2.033
						c1.927,0.996,3.971,2.556,5.264,4.316c0.495,0.675,1.991,2.375,1.991,3.187l0.219,1.75 M-534.656,278.125
						c0.052-0.892,0.041-2.002,0.447-2.729c0.688-1.771,2.151-3.049,3.846-3.376c0.214-0.123,0.483-0.127,0.758-0.145
						c0.833-0.053,1.802,0.125,2.521,0.5c0.638,0.333,1.103,0.708,1.604,1.229c0.208,0.312,0.528,0.756,0.708,1
						c0.358,0.483,0.508,0.906,0.583,1.458c0.254,1.853,0.527,3.189-0.3,4.971c-0.391,0.843-0.945,1.549-1.581,1.706
						c-3.497,0.864-8.182,0.594-8.557-4.135C-534.637,278.545-534.66,278.195-534.656,278.125z M-517.198,284.954
						c-1.388-0.041-2.766-0.795-3.696-1.801c-1.293-1.399-1.159-2.714-0.829-4.463c0.032-0.168,0.064-0.339,0.142-0.492
						c0.063-0.123,0.153-0.23,0.242-0.335c1.379-1.633,3.137-2.966,5.244-1.763c1.497,0.934,2.433,2.846,2.523,4.576
						C-513.459,282.863-514.822,285.025-517.198,284.954z M-473.384,237.705c-0.16,2.135-0.159,6.872-1.896,8.468
						c-0.612,0.561-1.286,0.289-2.115,0.29c-0.376,0-3.91,0.149-3.95,0c0.347,1.292,1.157,2.478,0.493,3.812
						c-0.28,0.562-0.708,1.034-1.131,1.498c-0.993,1.09-2.024,2.216-3.282,3.007c-1.267,0.796-2.613,0.705-3.895,1.317
						c-1.093,0.521-2.015,1.293-2.695,2.297c-1.054-1.386-0.24-2.368,1.054-3.347c1.213-0.918,2.378-1.9,3.488-2.94
						c1.578-1.479,1.69-4.169,2.18-6.193c-3.267-0.197-6.384-1.008-9.637-1.387c-3.167-0.369-6.36-0.482-9.547-0.498
						c-5.455-0.026-10.822-0.444-16.279-0.643c-3.267-0.119-6.537-0.094-9.805-0.197c-4.211-0.133-8.411-0.481-12.61-0.829
						c-0.41-0.034-0.828-0.07-1.208-0.229c-0.488-0.205-0.871-0.597-1.206-1.006c-2.366-2.882-2.748-7.869-2.927-11.447
						c-0.201-4.023,0.267-8.366,2.501-11.822c0.204-0.316,0.488-0.544,0.826-0.706c1.2,0,2.518-0.327,3.792-0.312
						c1.307,0.015,2.623,0.055,3.944,0.142c3.107,0.207,6.214,0.415,9.321,0.624c6.214,0.418,12.428,0.84,18.641,1.266
						c5.178,0.355,10.355,0.713,15.533,1.074c4.755,0.331,9.892,0.15,14.551,1.06c3.126,0.611,5.094,1.586,5.363,4.933
						C-473.569,229.806-473.094,233.831-473.384,237.705z"/>
				</g>
				<g>
					<g>
						<path style="fill:none;" d="M-165.153,272.684c-1.07-0.885-2.589-1.12-3.942-1.312c0.032-0.332,0.141-0.667,0.363-1.014
							c0.281-0.281,0.518-0.641,0.853-0.821c0.203-0.109,0.429-0.174,0.673-0.233c-0.034,0.333,0.161,0.654,0.421,0.854
							c1.182-0.434,2.39-0.729,3.63-0.887c-0.004-0.016-0.003-0.032-0.009-0.049c-0.785-2.438-2.846-6.113-5.955-4.82
							c-1.133,0.472-2,1.404-2.828,2.309c-0.731,0.798-1.462,1.597-2.193,2.395c-2.05,2.239,1.48,2.485,2.394,3.024
							c0.662,0.39,1.204,0.952,1.737,1.506c0.372,0.386,3.561,6.051,2.862,6.109c1.481-0.103,2.231-0.33,2.897-0.663
							c0.417-0.5,0.582-0.586,0.792-0.995c0.229-0.206,0.401-0.481,0.484-0.828c0.201-0.846-0.191-1.76-0.58-2.492
							C-163.953,274.018-164.492,273.23-165.153,272.684z"/>
						<path style="fill:none;" d="M-183.642,268.992c-1.57-0.918-1.949-1.722-3.921-1.609c-1.637,0.094-3.435,0.646-4.687,1.736
							c-1.782,1.553-0.904,3.405-1.41,5.398c-0.013,0.052-0.041,0.092-0.047,0.149c-0.26,2.368,2.421,5.014,4.681,5.745
							c0.724,0.36,1.504,0.582,2.319,0.579c2.257-0.008,3.97-2.058,4.859-4.056c0.115-0.257,0.215-0.514,0.302-0.765
							c0.742-2.153,0.512-5.098-1.334-6.65C-183.108,269.328-183.367,269.154-183.642,268.992z"/>
						<path style="fill:none;" d="M-191.193,263.17c0.391-3.127-1.377-6.275-3.774-8.174c-3.745-2.968-7.947-1.433-12.315-1.865
							c-0.096-0.332-0.325-0.616-0.691-0.717c-0.354-0.097-0.758,0.032-1.021,0.293c-0.034,0.766,0.069,1.534-0.196,2.26
							c0.02,0.029,0.033,0.064,0.055,0.09c-1.25,4.621-2.434,9.467-3.373,14.157c-0.574,2.864-0.735,5.793-0.879,8.711
							c-0.021,0.435-0.034,0.903,0.207,1.266c0.365,0.55,1.131,0.621,1.791,0.636c0.873,0.021,1.745,0.041,2.618,0.062
							c0.618,0.015,1.277,0.018,1.799-0.313c0.726-0.462,0.945-1.404,1.094-2.252c0.282-1.605,0.534-3.216,0.755-4.831
							c0.051-0.373,1.255-3.702,2.093-3.069C-199.304,272.241-191.699,267.222-191.193,263.17z"/>
						<path style="fill:none;" d="M-142.5,266.333c-1.124-0.458-3.262-0.602-4.4-1.065c0.424-2.421,0.793-4.533,1.149-6.569
							c-1.852-1.16-3.619-1.649-5.55-1.03c-0.407,2.312-0.8,4.544-1.22,6.925c-0.113,0.641-5.184-1.102-5.188,1.136
							c0,0.004,0,4.534,0,4.534h4.286c0.485,0.508,0.846,0.886,1.128,1.182c-0.737,2.527-1.449,4.965-2.171,7.439
							c0.092-0.316,3.989,0.176,4.431,0c1.292-0.514,0.749-1.078,0.763-2.58c0.011-1.221,0.127-2.51,0.686-3.617
							c0.672-1.332,0.478-1.059,1.752-1.522c1.158-0.421,3.282,0.241,3.662,0.201c0.244-0.026,0.406-0.31,0.583-1.287
							C-142.481,269.488-141.892,266.581-142.5,266.333z"/>
						<g>
							<path style="fill:none;" d="M-165.153,272.684c-1.07-0.885-2.589-1.12-3.942-1.312c0.032-0.332,0.141-0.667,0.363-1.014
								c0.281-0.281,0.518-0.641,0.853-0.821c0.203-0.109,0.429-0.174,0.673-0.233c-0.034,0.333,0.161,0.654,0.421,0.854
								c1.182-0.434,2.39-0.729,3.63-0.887c-0.004-0.016-0.003-0.032-0.009-0.049c-0.785-2.438-2.846-6.113-5.955-4.82
								c-1.133,0.472-2,1.404-2.828,2.309c-0.731,0.798-1.462,1.597-2.193,2.395c-2.05,2.239,1.48,2.485,2.394,3.024
								c0.662,0.39,1.204,0.952,1.737,1.506c0.372,0.386,3.561,6.051,2.862,6.109c1.481-0.103,2.231-0.33,2.897-0.663
								c0.417-0.5,0.582-0.586,0.792-0.995c0.229-0.206,0.401-0.481,0.484-0.828c0.201-0.846-0.191-1.76-0.58-2.492
								C-163.953,274.018-164.492,273.23-165.153,272.684z"/>
							<path style="fill:none;" d="M-191.193,263.17c0.391-3.127-1.377-6.275-3.774-8.174c-2.948-2.336-6.18-1.884-9.552-1.796
								c-0.078,0.066-0.178,0.112-0.313,0.106c-1.396-0.061-2.785-0.025-4.171,0.111c0.002,0.527-0.004,1.049-0.187,1.55
								c0.02,0.029,0.033,0.064,0.055,0.09c-1.25,4.621-2.434,9.467-3.373,14.157c-0.574,2.864-0.735,5.793-0.879,8.711
								c-0.021,0.435-0.034,0.903,0.207,1.266c0.365,0.55,1.131,0.621,1.791,0.636c0.873,0.021,1.745,0.041,2.618,0.062
								c0.618,0.015,1.277,0.018,1.799-0.313c0.726-0.462,0.945-1.404,1.094-2.252c0.282-1.605,0.534-3.216,0.755-4.831
								c0.051-0.373,1.255-3.702,2.093-3.069C-199.304,272.241-191.699,267.222-191.193,263.17z"/>
							<path style="fill:none;" d="M-183.642,268.992c-1.57-0.918-1.949-1.722-3.921-1.609c-1.637,0.094-3.435,0.646-4.687,1.736
								c-1.782,1.553-0.904,3.405-1.41,5.398c-0.013,0.052-0.041,0.092-0.047,0.149c-0.26,2.368,2.421,5.014,4.681,5.745
								c0.724,0.36,1.504,0.582,2.319,0.579c2.257-0.008,3.97-2.058,4.859-4.056c0.115-0.257,0.215-0.514,0.302-0.765
								c0.742-2.153,0.512-5.098-1.334-6.65C-183.108,269.328-183.367,269.154-183.642,268.992z"/>
							<path style="fill:none;" d="M-142.5,266.333c-1.124-0.458-3.262-0.602-4.4-1.065c0.424-2.421,0.793-4.533,1.149-6.569
								c-1.852-1.16-3.619-1.649-5.55-1.03c-0.407,2.312-0.8,4.544-1.22,6.925c-0.113,0.641-5.184-1.102-5.188,1.136
								c0,0.004,0,4.534,0,4.534h4.286c0.485,0.508,0.846,0.886,1.128,1.182c-0.737,2.527-1.449,4.965-2.171,7.439
								c0.092-0.316,3.989,0.176,4.431,0c1.292-0.514,0.749-1.078,0.763-2.58c0.011-1.221,0.127-2.51,0.686-3.617
								c0.672-1.332,0.478-1.059,1.752-1.522c1.158-0.421,3.282,0.241,3.662,0.201c0.244-0.026,0.406-0.31,0.583-1.287
								C-142.481,269.488-141.892,266.581-142.5,266.333z"/>
							<path d="M-138.875,291.715c4.119-0.379,8.187-1.78,8.205-6.837c0.022-5.912,0.024-11.824,0.022-17.736
								c-0.001-2.975-0.002-5.95-0.005-8.926c-0.002-2.372,0.369-4.638-1.019-6.72c-2.203-3.305-4.934-4.5-8.818-4.413
								c-1.583,0.035-3.171,0-4.755,0c-4.586,0-9.172,0-13.759,0c-11.485,0-22.971,0-34.456,0c-8.184,0-16.368,0-24.552,0
								c-0.67,0-1.34,0-2.01,0c-1.873,0-4.728,2.522-5.732,3.969c-1.622,2.339-0.853,6.033-0.856,8.723
								c-0.009,7.96-0.023,15.92,0.037,23.88c0.021,2.831,0.921,5.358,3.723,6.793c0.263,0.135,0.486,0.345,0.688,0.565
								c0.973,0.192,1.933,0.437,2.885,0.705c0,0,28.106,0,34.225,0c0.158-5.062,1.47-10.798,4.089-14.845
								c1.381-2.135,4.294-4.27,6.798-3.497c1.599,0.494,2.425,0.666,3.574,2.025c1.764,2.085,2.743,4.691,2.949,7.413
								c0.661,2.975-0.388,6.007-0.491,9.037c8.519,0,17.037,0,25.556,0C-141.417,291.852-140.144,291.832-138.875,291.715z
								 M-203.75,269.25c0,0-0.865,2.793-0.917,3.167c-0.222,1.615-0.929,3.3-1.211,4.906c-0.149,0.848-0.368,1.79-1.094,2.252
								c-0.522,0.332-1.181,0.328-1.799,0.313c-0.873-0.021-1.745-0.041-2.618-0.062c-0.66-0.016-1.426-0.086-1.791-0.636
								c-0.241-0.363-0.229-0.831-0.207-1.266c0.143-2.918,0.305-5.846,0.879-8.711c0.535-2.669,1.175-5.315,1.827-7.958
								c0.617-2.502,1.686-5.245,1.678-7.839c0.029-0.225,5.273-0.242,5.709-0.258c2.939-0.103,5.894-0.092,8.328,1.837
								c2.397,1.9,4.164,5.048,3.774,8.174C-191.699,267.222-199.428,271.073-203.75,269.25z M-181.546,276.17
								c-0.087,0.251-0.187,0.508-0.302,0.765c-0.889,1.998-2.602,4.048-4.859,4.056c-0.815,0.003-1.595-0.219-2.319-0.579
								c-1.692-0.843-3.222-1.745-4.154-3.489c-1.031-1.929-0.8-6.296,0.93-7.803c1.251-1.09,3.049-1.642,4.687-1.736
								c1.701-0.098,3.432,1.085,4.684,2.137C-181.034,271.072-180.804,274.018-181.546,276.17z M-157.708,265.731
								c0.003-2.237,5.075-0.495,5.188-1.136c0.419-2.381,0.812-4.614,1.22-6.925c1.931-0.619,3.697-0.13,5.55,1.03
								c-0.356,2.036-0.726,4.148-1.149,6.569c1.138,0.463,3.276,0.608,4.4,1.065c0.608,0.248,0.019,3.155-0.089,3.747
								c-0.177,0.977-0.338,1.262-0.583,1.287c-0.38,0.04-2.504-0.622-3.662-0.201c-1.274,0.463-1.079,0.19-1.752,1.522
								c-0.559,1.107-0.675,2.396-0.686,3.617c-0.013,1.502,0.529,2.066-0.763,2.58c-0.441,0.176-4.339-0.316-4.431,0
								c0.722-2.474,1.434-4.912,2.171-7.439c-0.283-0.296-0.644-0.674-1.128-1.182h-4.286
								C-157.708,270.265-157.708,265.735-157.708,265.731z M-170.009,273.638c-0.533-0.554-1.075-1.115-1.737-1.506
								c-0.914-0.539-4.445-0.784-2.394-3.024c0.731-0.798,1.462-1.597,2.193-2.395c0.829-0.905,1.695-1.837,2.828-2.309
								c3.109-1.294,5.17,2.382,5.955,4.82c0.005,0.016,0.004,0.032,0.009,0.049c-1.241,0.158-2.448,0.453-3.63,0.887
								c-0.259-0.199-0.454-0.52-0.421-0.854c-0.244,0.058-0.47,0.124-0.673,0.233c-0.335,0.179-0.572,0.54-0.853,0.821
								c-0.223,0.347-0.331,0.681-0.363,1.014c1.353,0.192,2.872,0.426,3.942,1.312c0.66,0.546,1.2,1.334,1.599,2.085
								c0.389,0.732,0.781,1.645,0.58,2.492c-0.083,0.347-0.255,0.622-0.484,0.828c-0.21,0.409-0.376,0.495-0.792,0.995
								c-0.667,0.333-1.416,0.56-2.897,0.663C-166.448,279.689-169.637,274.024-170.009,273.638z"/>
						</g>
					</g>
				</g>
				<g>
					<g>
						<path style="fill:none;" d="M-509.094,377.095c0.796,2.217,3.238,3.128,5.067,4.391c2.401,1.657,4.517,4.077,7.501,4.642
							c0.708,0.134,1.462-0.49,1.315-1.188l0.015-0.019c-0.006-0.005-0.012-0.01-0.017-0.015c-0.026-0.102-0.071-0.204-0.138-0.306
							c-0.591-0.895-1.287-1.645-2.051-2.314c-0.006-0.217-0.075-0.441-0.237-0.647c-2.479-3.171-6.422-5.425-10.334-6.267
							c-0.616-0.133-1.161,0.242-1.28,0.794c-0.105,0.253-0.097,0.552,0.106,0.859C-509.131,377.05-509.111,377.07-509.094,377.095z
							"/>
						<path style="fill:none;" d="M-555.582,447.024c0.026,0.061,0.049,0.121,0.084,0.183c0.118,0.211,0.252,0.376,0.392,0.523
							c0.168,0.594,0.815,1.072,1.506,0.667c0.011-0.006,0.018-0.014,0.029-0.021c0.621,0.016,1.291-0.146,1.948-0.32
							c0.352,0.027,0.7,0.032,1.066-0.012c0.04-0.005,0.085-0.013,0.127-0.019c0.046,0.004,0.092,0.007,0.138,0.011
							c0.82,0.07,1.428,0.236,1.868,0.543c0.46,0.773,0.721,1.705,0.922,2.696c0.018,0.09,0.06,0.155,0.095,0.228
							c-0.413,0.934-1.234,1.662-2.304,1.673c-1.528,0.015-2.992-1.482-4.387-2.055c-0.036-0.015-0.066-0.012-0.101-0.022
							c0.048,0.406-0.162,0.718-0.485,0.878c0.604,2.556,5.763,2.794,7.574,1.286c0.784-0.652,1.831,0.056,1.815,0.809
							c1.1-1.502,1.398-3.701,1.204-5.454c-0.32-2.904-2.516-4.848-5.32-5.271c-2.491-0.376-5.44,0.02-6.467,2.626
							C-556.063,446.443-555.892,446.812-555.582,447.024z"/>
						<path style="fill:none;" d="M-558.323,440.289c-0.048-0.097-0.101-0.193-0.191-0.274c-0.249-0.222-0.491-0.452-0.732-0.682
							c0.048-0.359-0.075-0.738-0.479-0.981c-0.603-0.363-0.982-1.035-1.527-1.482c-0.763-0.626-1.646-0.74-2.522-0.268
							c-0.434,0.233-0.557,0.727-0.478,1.174c0.209,1.183,0.946,2.237,1.767,3.084c0.015,0.016,0.033,0.022,0.048,0.037
							c0.045,0.116,0.105,0.23,0.202,0.338c0.985,1.099,2.678,1.524,3.721,0.25c0.242-0.296,0.358-0.71,0.247-1.071
							c0.023-0.002,0.041-0.004,0.064-0.007C-558.245,440.366-558.282,440.329-558.323,440.289z"/>
						<path style="fill:none;" d="M-490.555,396.842c-3.002-2.784-6.21-5.113-9.975-6.807c-2.031-0.914-3.88-2.401-5.545-3.92
							c-2.088-1.905-4.454-3.408-6.994-4.361c-1.813-0.68-3.287-1.734-4.89-2.661c-0.966-0.558-1.887-1.194-3.049-1.935
							c-0.907,0.908-1.708,1.475-2.199,2.242c-2.242,3.496-4.173,7.146-6.975,10.331c-1.805,2.052-3.642,4.279-5.002,6.674
							c-2.936,5.17-6.713,9.748-10.191,14.494c-3.59,4.899-6.566,10.238-10.563,14.846c-0.526,0.606-0.593,1.602-0.904,2.406
							c-0.437,1.129-0.904,2.247-1.313,3.26c0.471,0.805,0.78,2.135,1.52,2.448c2.189,0.925,3.23,3.027,5.011,4.302
							c1.755,1.255,3.547,2.412,5.094,3.972c1.126,1.135,2.687,1.83,4.009,2.783c5.587,4.03,10.612,8.821,16.278,12.811
							c0.202,0.143,0.431,0.291,0.677,0.259c0.219-0.029,0.391-0.195,0.546-0.353c1.576-1.604,3.608-3.285,4.628-5.325
							c0.289-0.481,0.659-0.781,1.033-1.042c1.164-1.581,2.385-3.114,3.649-4.609c0.68-1.018,1.363-2.034,2.068-3.034
							c0.583-0.827,1.617-1.14,2.08-2.269c1.992-4.849,5.732-8.553,8.713-12.757c1.911-2.695,4.007-5.258,5.97-7.917
							c0.89-1.207,1.505-2.644,2.508-3.735c3.809-4.143,7.333-9.836,10.725-14.286c0.324-0.425,0.168-1.217,0.224-1.745
							C-485.701,399.204-488.611,398.644-490.555,396.842z"/>
						<path style="fill:none;" d="M-539.342,455.995c-0.135-0.154-0.303-0.287-0.507-0.373c-0.448-0.189-0.824-0.522-1.166-0.858
							c-0.245-0.24-0.523-0.321-0.786-0.295c-0.832-0.703-2.068,0.66-1.31,1.64c1.746,2.257,4.063,4.135,6.46,5.663
							c0.635,0.404,1.625-0.115,1.565-0.898C-535.247,458.77-537.337,457.001-539.342,455.995z"/>
						<g>
							<path style="fill:none;" d="M-555.582,447.024c0.026,0.061,0.049,0.121,0.084,0.183c0.118,0.211,0.252,0.376,0.392,0.523
								c0.168,0.594,0.815,1.072,1.506,0.667c0.011-0.006,0.018-0.014,0.029-0.021c0.621,0.016,1.291-0.146,1.948-0.32
								c0.352,0.027,0.7,0.032,1.066-0.012c0.04-0.005,0.085-0.013,0.127-0.019c0.046,0.004,0.092,0.007,0.138,0.011
								c0.82,0.07,1.428,0.236,1.868,0.543c0.46,0.773,0.721,1.705,0.922,2.696c0.018,0.09,0.06,0.155,0.095,0.228
								c-0.413,0.934-1.234,1.662-2.304,1.673c-1.528,0.015-2.992-1.482-4.387-2.055c-0.036-0.015-0.066-0.012-0.101-0.022
								c0.048,0.406-0.162,0.718-0.485,0.878c0.604,2.556,5.763,2.794,7.574,1.286c0.784-0.652,1.831,0.056,1.815,0.809
								c1.1-1.502,1.398-3.701,1.204-5.454c-0.32-2.904-2.516-4.848-5.32-5.271c-2.491-0.376-5.44,0.02-6.467,2.626
								C-556.063,446.443-555.892,446.812-555.582,447.024z"/>
							<path style="fill:none;" d="M-509.094,377.095c0.796,2.217,3.238,3.128,5.067,4.391c2.401,1.657,4.517,4.077,7.501,4.642
								c0.708,0.134,1.462-0.49,1.315-1.188l0.015-0.019c-0.006-0.005-0.012-0.01-0.017-0.015c-0.026-0.102-0.071-0.204-0.138-0.306
								c-0.591-0.895-1.287-1.645-2.051-2.314c-0.006-0.217-0.075-0.441-0.237-0.647c-2.479-3.171-6.422-5.425-10.334-6.267
								c-0.616-0.133-1.161,0.242-1.28,0.794c-0.105,0.253-0.097,0.552,0.106,0.859C-509.131,377.05-509.111,377.07-509.094,377.095
								z"/>
							<path style="fill:none;" d="M-558.323,440.289c-0.048-0.097-0.101-0.193-0.191-0.274c-0.249-0.222-0.491-0.452-0.732-0.682
								c0.048-0.359-0.075-0.738-0.479-0.981c-0.603-0.363-0.982-1.035-1.527-1.482c-0.763-0.626-1.646-0.74-2.522-0.268
								c-0.434,0.233-0.557,0.727-0.478,1.174c0.209,1.183,0.946,2.237,1.767,3.084c0.015,0.016,0.033,0.022,0.048,0.037
								c0.045,0.116,0.105,0.23,0.202,0.338c0.985,1.099,2.678,1.524,3.721,0.25c0.242-0.296,0.358-0.71,0.247-1.071
								c0.023-0.002,0.041-0.004,0.064-0.007C-558.245,440.366-558.282,440.329-558.323,440.289z"/>
							<path style="fill:none;" d="M-531.917,453.453c2.065,1.7,4.053,3.513,6.554,4.563c0.072-0.079,0.146-0.155,0.219-0.233
								C-527.412,456.355-529.669,454.911-531.917,453.453z"/>
							<path style="fill:none;" d="M-539.342,455.995c-0.135-0.154-0.303-0.287-0.507-0.373c-0.448-0.189-0.824-0.522-1.166-0.858
								c-0.245-0.24-0.523-0.321-0.786-0.295c-0.832-0.703-2.068,0.66-1.31,1.64c1.746,2.257,4.063,4.135,6.46,5.663
								c0.635,0.404,1.625-0.115,1.565-0.898C-535.247,458.77-537.337,457.001-539.342,455.995z"/>
							<path style="fill:none;" d="M-490.555,396.842c-3.002-2.784-6.21-5.113-9.975-6.807c-2.031-0.914-3.88-2.401-5.545-3.92
								c-2.088-1.905-4.454-3.408-6.994-4.361c-1.813-0.68-3.287-1.734-4.89-2.661c-0.966-0.558-1.887-1.194-3.049-1.935
								c-0.907,0.908-1.708,1.475-2.199,2.242c-2.242,3.496-4.173,7.146-6.975,10.331c-1.805,2.052-3.642,4.279-5.002,6.674
								c-2.936,5.17-6.713,9.748-10.191,14.494c-3.59,4.899-6.566,10.238-10.563,14.846c-0.526,0.606-0.593,1.602-0.904,2.406
								c-0.437,1.129-0.904,2.247-1.313,3.26c0.471,0.805,0.78,2.135,1.52,2.448c2.189,0.925,3.23,3.027,5.011,4.302
								c1.755,1.255,3.547,2.412,5.094,3.972c1.126,1.135,2.687,1.83,4.009,2.783c1.058,0.763,2.164,1.501,3.108,2.386
								c4.942,3.322,9.93,6.574,14.971,9.745c1.473-1.521,2.998-2.988,4.051-4.739c0.289-0.481,0.659-0.781,1.033-1.042
								c1.164-1.581,2.385-3.114,3.649-4.609c0.68-1.018,1.363-2.034,2.068-3.034c0.583-0.827,1.617-1.14,2.08-2.269
								c1.992-4.849,5.732-8.553,8.713-12.757c1.911-2.695,4.007-5.258,5.97-7.917c0.89-1.207,1.505-2.644,2.508-3.735
								c3.809-4.143,7.333-9.836,10.725-14.286c0.324-0.425,0.168-1.217,0.224-1.745
								C-485.701,399.204-488.611,398.644-490.555,396.842z"/>
							<g>
								<path style="fill:none;" d="M-558.323,440.289c-0.048-0.097-0.101-0.193-0.191-0.274c-0.249-0.222-0.491-0.452-0.732-0.682
									c0.048-0.359-0.075-0.738-0.479-0.981c-0.603-0.363-0.982-1.035-1.527-1.482c-0.763-0.626-1.646-0.74-2.522-0.268
									c-0.434,0.233-0.557,0.727-0.478,1.174c0.209,1.183,0.946,2.237,1.767,3.084c0.015,0.016,0.033,0.022,0.048,0.037
									c0.045,0.116,0.105,0.23,0.202,0.338c0.985,1.099,2.678,1.524,3.721,0.25c0.242-0.296,0.358-0.71,0.247-1.071
									c0.023-0.002,0.041-0.004,0.064-0.007C-558.245,440.366-558.282,440.329-558.323,440.289z"/>
								<path style="fill:none;" d="M-509.094,377.095c0.796,2.217,3.238,3.128,5.067,4.391c2.401,1.657,4.517,4.077,7.501,4.642
									c0.708,0.134,1.462-0.49,1.315-1.188l0.015-0.019c-0.006-0.005-0.012-0.01-0.017-0.015
									c-0.026-0.102-0.071-0.204-0.138-0.306c-0.591-0.895-1.287-1.645-2.051-2.314c-0.006-0.217-0.075-0.441-0.237-0.647
									c-2.479-3.171-6.422-5.425-10.334-6.267c-0.616-0.133-1.161,0.242-1.28,0.794c-0.105,0.253-0.097,0.552,0.106,0.859
									C-509.131,377.05-509.111,377.07-509.094,377.095z"/>
								<path style="fill:none;" d="M-555.582,447.024c0.026,0.061,0.049,0.121,0.084,0.183c0.118,0.211,0.252,0.376,0.392,0.523
									c0.168,0.594,0.815,1.072,1.506,0.667c0.011-0.006,0.018-0.014,0.029-0.021c0.621,0.016,1.291-0.146,1.948-0.32
									c0.352,0.027,0.7,0.032,1.066-0.012c0.04-0.005,0.085-0.013,0.127-0.019c0.046,0.004,0.092,0.007,0.138,0.011
									c0.82,0.07,1.428,0.236,1.868,0.543c0.46,0.773,0.721,1.705,0.922,2.696c0.018,0.09,0.06,0.155,0.095,0.228
									c-0.413,0.934-1.234,1.662-2.304,1.673c-1.528,0.015-2.992-1.482-4.387-2.055c-0.036-0.015-0.066-0.012-0.101-0.022
									c0.048,0.406-0.162,0.718-0.485,0.878c0.604,2.556,5.763,2.794,7.574,1.286c0.784-0.652,1.831,0.056,1.815,0.809
									c1.1-1.502,1.398-3.701,1.204-5.454c-0.32-2.904-2.516-4.848-5.32-5.271c-2.491-0.376-5.44,0.02-6.467,2.626
									C-556.063,446.443-555.892,446.812-555.582,447.024z"/>
								<path style="fill:none;" d="M-490.555,396.842c-3.002-2.784-6.21-5.113-9.975-6.807c-2.031-0.914-3.88-2.401-5.545-3.92
									c-2.088-1.905-4.454-3.408-6.994-4.361c-1.813-0.68-3.287-1.734-4.89-2.661c-0.966-0.558-1.887-1.194-3.049-1.935
									c-0.907,0.908-1.708,1.475-2.199,2.242c-2.242,3.496-4.173,7.146-6.975,10.331c-1.805,2.052-3.642,4.279-5.002,6.674
									c-2.936,5.17-6.713,9.748-10.191,14.494c-3.59,4.899-6.566,10.238-10.563,14.846c-0.526,0.606-0.593,1.602-0.904,2.406
									c-0.437,1.129-0.904,2.247-1.313,3.26c0.471,0.805,0.78,2.135,1.52,2.448c2.189,0.925,3.23,3.027,5.011,4.302
									c1.755,1.255,3.547,2.412,5.094,3.972c1.126,1.135,2.687,1.83,4.009,2.783c1.058,0.763,2.164,1.501,3.108,2.386
									c4.942,3.322,9.93,6.574,14.971,9.745c1.473-1.521,2.998-2.988,4.051-4.739c0.289-0.481,0.659-0.781,1.033-1.042
									c1.164-1.581,2.385-3.114,3.649-4.609c0.68-1.018,1.363-2.034,2.068-3.034c0.583-0.827,1.617-1.14,2.08-2.269
									c1.992-4.849,5.732-8.553,8.713-12.757c1.911-2.695,4.007-5.258,5.97-7.917c0.89-1.207,1.505-2.644,2.508-3.735
									c3.809-4.143,7.333-9.836,10.725-14.286c0.324-0.425,0.168-1.217,0.224-1.745
									C-485.701,399.204-488.611,398.644-490.555,396.842z"/>
								<path style="fill:none;" d="M-539.342,455.995c-0.135-0.154-0.303-0.287-0.507-0.373c-0.448-0.189-0.824-0.522-1.166-0.858
									c-0.245-0.24-0.523-0.321-0.786-0.295c-0.832-0.703-2.068,0.66-1.31,1.64c1.746,2.257,4.063,4.135,6.46,5.663
									c0.635,0.404,1.625-0.115,1.565-0.898C-535.247,458.77-537.337,457.001-539.342,455.995z"/>
								<g>
									<path style="fill:none;" d="M-558.323,440.289c-0.048-0.097-0.101-0.193-0.191-0.274c-0.249-0.222-0.491-0.452-0.732-0.682
										c0.048-0.359-0.075-0.738-0.479-0.981c-0.603-0.363-0.982-1.035-1.527-1.482c-0.763-0.626-1.646-0.74-2.522-0.268
										c-0.434,0.233-0.557,0.727-0.478,1.174c0.209,1.183,0.946,2.237,1.767,3.084c0.015,0.016,0.033,0.022,0.048,0.037
										c0.045,0.116,0.105,0.23,0.202,0.338c0.985,1.099,2.678,1.524,3.721,0.25c0.242-0.296,0.358-0.71,0.247-1.071
										c0.023-0.002,0.041-0.004,0.064-0.007C-558.245,440.366-558.282,440.329-558.323,440.289z"/>
									<path style="fill:none;" d="M-508.996,377.057c0.287,0.769,0.802,1.563,1.118,1.845c0.836,0.745,1.857,1.243,2.803,1.843
										c2.633,1.67,4.781,4.189,7.737,5.181c0.424,0.142,0.88,0.251,1.317,0.153c0.437-0.099,0.842-0.46,0.856-0.907
										c0.012-0.381-0.246-0.712-0.49-1.005c-1.698-2.037-3.22-4.221-5.399-5.744c-2.066-1.444-4.439-2.546-6.918-3.05
										C-509.358,375.074-509.374,376.044-508.996,377.057z"/>
									<path style="fill:none;" d="M-555.582,447.024c0.026,0.061,0.049,0.121,0.084,0.183c0.118,0.211,0.252,0.376,0.392,0.523
										c0.168,0.594,0.815,1.072,1.506,0.667c0.011-0.006,0.018-0.014,0.029-0.021c0.621,0.016,1.291-0.146,1.948-0.32
										c0.352,0.027,0.7,0.032,1.066-0.012c0.04-0.005,0.085-0.013,0.127-0.019c0.046,0.004,0.092,0.007,0.138,0.011
										c0.82,0.07,1.428,0.236,1.868,0.543c0.46,0.773,0.721,1.705,0.922,2.696c0.018,0.09,0.06,0.155,0.095,0.228
										c-0.413,0.934-1.234,1.662-2.304,1.673c-1.528,0.015-2.992-1.482-4.387-2.055c-0.036-0.015-0.066-0.012-0.101-0.022
										c0.048,0.406-0.162,0.718-0.485,0.878c0.604,2.556,5.763,2.794,7.574,1.286c0.784-0.652,1.831,0.056,1.815,0.809
										c1.1-1.502,1.398-3.701,1.204-5.454c-0.32-2.904-2.516-4.848-5.32-5.271c-2.491-0.376-5.44,0.02-6.467,2.626
										C-556.063,446.443-555.892,446.812-555.582,447.024z"/>
									<path style="fill:none;" d="M-539.342,455.995c-0.135-0.154-0.303-0.287-0.507-0.373c-0.448-0.189-0.824-0.522-1.166-0.858
										c-0.245-0.24-0.523-0.321-0.786-0.295c-0.832-0.703-2.068,0.66-1.31,1.64c1.746,2.257,4.063,4.135,6.46,5.663
										c0.635,0.404,1.625-0.115,1.565-0.898C-535.247,458.77-537.337,457.001-539.342,455.995z"/>
									<path style="fill:none;" d="M-490.555,396.842c-3.002-2.784-6.21-5.113-9.975-6.807c-2.031-0.914-3.88-2.401-5.545-3.92
										c-2.088-1.905-4.454-3.408-6.994-4.361c-1.813-0.68-3.287-1.734-4.89-2.661c-0.966-0.558-1.887-1.194-3.049-1.935
										c-0.907,0.908-1.708,1.475-2.199,2.242c-2.242,3.496-4.173,7.146-6.975,10.331c-1.805,2.052-3.642,4.279-5.002,6.674
										c-2.936,5.17-6.713,9.748-10.191,14.494c-3.59,4.899-6.566,10.238-10.563,14.846c-0.526,0.606-0.593,1.602-0.904,2.406
										c-0.437,1.129-0.904,2.247-1.313,3.26c0.471,0.805,0.78,2.135,1.52,2.448c2.189,0.925,3.23,3.027,5.011,4.302
										c1.755,1.255,3.547,2.412,5.094,3.972c1.126,1.135,2.687,1.83,4.009,2.783c1.058,0.763,2.164,1.501,3.108,2.386
										c4.942,3.322,9.93,6.574,14.971,9.745c1.473-1.521,2.998-2.988,4.051-4.739c0.289-0.481,0.659-0.781,1.033-1.042
										c1.164-1.581,2.385-3.114,3.649-4.609c0.68-1.018,1.363-2.034,2.068-3.034c0.583-0.827,1.617-1.14,2.08-2.269
										c1.992-4.849,5.732-8.553,8.713-12.757c1.911-2.695,4.007-5.258,5.97-7.917c0.89-1.207,1.505-2.644,2.508-3.735
										c3.809-4.143,7.333-9.836,10.725-14.286c0.324-0.425,0.168-1.217,0.224-1.745
										C-485.701,399.204-488.611,398.644-490.555,396.842z"/>
									<path d="M-469.824,396.066c-0.013-0.103-0.03-0.209-0.051-0.316c-0.239-1.206-0.652-2.475-1.539-3.325
										c-3.961-3.8-8.587-6.189-13.534-8.794c-3.681-1.938-7.237-4.102-10.819-6.216c-4.463-2.633-8.97-5.191-13.52-7.671
										c-2.23-1.216-4.47-2.413-6.721-3.592c-1.384-0.725-4.698-2.557-6.333-1.444c-3.364,2.248-6.189,5.269-8.536,8.667
										c-8.11,11.742-15.919,23.809-23.812,35.714c-1.973,2.976-3.949,5.956-5.661,9.089c-1.453,2.659-3.225,5.299-4.902,7.822
										c-2.149,3.233-5.106,6.747-5.881,10.623c-0.412,2.062-0.491,5.148,0.398,7.078c0.962,2.088,3.15,5.396,5.182,6.536
										c3.486,1.955,6.64,4.497,10.121,6.463c3.53,1.994,6.434,4.806,9.872,6.944c2.723,1.694,5.43,3.416,8.185,5.059
										c3.329,1.986,5.784,3.853,9.797,3.945c3.054,0.07,4.38-1.493,6.458-3.485c1.667-1.597,3.183-3.345,4.61-5.158
										c2.815-3.575,5.274-7.41,7.961-11.079c5.815-7.941,11.77-16.024,17.548-24.085c2.887-4.027,5.748-8.072,8.553-12.156
										c2.143-3.12,4.209-6.293,6.297-9.451c0.952-1.441,1.863-2.94,2.869-4.334C-472.244,401.467-469.596,397.89-469.824,396.066
										z M-507.974,375.372c5.368,1.157,8.897,4.413,12.157,8.624c0.38,0.49,0.774,1.151,0.456,1.684
										c-0.314,0.526-1.082,0.5-1.672,0.335c-2.922-0.818-5.049-2.612-7.593-4.265c-0.935-0.608-1.928-1.784-2.805-2.473
										c-0.472-0.371-1.659-2.064-1.78-3.115C-509.281,375.548-508.988,375.154-507.974,375.372z M-558.552,441.458
										c-0.31,0.462-0.885,0.792-1.456,0.8c-1.215,0.018-2.201-0.893-2.898-1.791c-0.58-0.747-2.248-3.123-0.868-3.866
										c2.082-1.12,3.93,1.618,4.982,3.056c0.177,0.242,0.359,0.492,0.436,0.783C-558.26,440.8-558.35,441.157-558.552,441.458z
										 M-544.235,451.714c-0.207,0.831-0.55,1.64-1.058,2.325c-1.18,1.593-2.815,1.979-4.847,2.225
										c-1.281,0.155-2.605,0.272-3.839-0.105c-2.013-0.616-6.434-6.597-2.11-6.694c1.459-0.033,2.449,1.918,3.237,2.88
										c0.434,0.529,0.957,1.151,1.647,1.337c0.925,0.249,2.244-0.419,2.928-1.023c0.778-0.687,0.814-1.911,0.481-2.824
										c-0.153-0.42-0.363-0.829-0.686-1.139c-1.633-1.569-3.658-0.049-5.459-0.212c-1.187-0.107-1.99-1.509-1.75-2.63
										c0.293-1.37,1.955-2.05,3.164-2.331c2.763-0.642,5.87,0.003,7.48,2.524C-543.991,447.702-543.761,449.811-544.235,451.714z
										 M-535.122,461.047c-0.098,0.459-0.49,0.879-0.959,0.878c-0.198,0-0.384-0.072-0.561-0.166
										c-0.086-0.046-0.17-0.097-0.252-0.148c-2.219-1.392-4.225-3.124-5.926-5.117c-0.856-1.003-0.535-2.21,0.834-2.133
										c0.948,0.053,1.89,1.065,2.648,1.552c1.56,1.003,3.197,2.092,3.978,3.774
										C-535.162,460.111-535.024,460.588-535.122,461.047z M-483.55,402.507c-0.024,0.05-0.063,0.105-0.097,0.15
										c-6.433,8.44-13.248,17.959-19.569,26.5c-2.115,2.858-4.23,5.716-6.324,8.59c-0.855,1.174-1.707,2.35-2.558,3.526
										c-1.06,1.464-2.12,2.929-3.181,4.393c-2.917,4.029-5.719,7.818-9.163,11.377c-0.957,0.987-9.071-5.483-9.963-6.126
										c-4.79-3.45-9.6-6.899-14.275-10.502c-1.435-1.106-2.958-2.162-4.256-3.423c-1.176-1.142-2.314-1.992-3.699-3.135
										c-0.62-0.511-1.049-1.643-1.52-2.447c-0.137-0.235,1.061-3.058,1.2-3.38c0.568-1.319,1.407-2.509,2.228-3.679
										c10.93-15.568,21.939-31.079,32.949-46.591c0.154-0.216,0.331-0.449,0.591-0.505c0.278-0.059,0.55,0.105,0.786,0.262
										c8.396,5.573,17.056,10.729,25.61,16.05C-492.848,394.777-482.173,399.652-483.55,402.507z"/>
								</g>
							</g>
						</g>
					</g>
				</g>
				<path d="M-219.469,160.989c-0.128-0.499-0.482-0.903-0.776-1.326c-2.323-3.332-1.073-7.976-2.391-11.818
					c-0.853-2.485-2.697-4.349-4.333-6.329c-1.777-2.15-3.027-4.628-4.497-6.984c-1.658-2.657-3.393-4.435-4.919-6.769
					c-3.114-4.763-5.599-8.896-7.641-13.962c-3.221-7.99-7.726-15.255-11.753-22.841c-3.458-6.513-6.188-13.36-9.671-19.843
					c-1.447-2.729-2.217-5.806-4.428-8.506c0.139-1.206,0.305-2.648,0.478-4.154h-2.795c-3.905,1.492-6.525,4.499-10.699,4.964
					c0.699,1.851,1.275,3.477,1.924,5.075c3.415,8.254,7.85,16.051,11.943,23.979c8.763,16.972,16.086,35.164,27.184,50.74
					c0.277,0.388,0.546,0.781,0.797,1.186c1.73,2.801,3.895,5.26,5.763,7.946c0.683,0.983,1.972,1.55,3.003,2.281
					c0.297,0.211,0.708,0.271,0.981,0.502c2.726,2.308,5.434,4.637,8.657,7.398c-2.279,0.601-4.214,1.57-6.56,0.976
					c-2.675-0.677-5.458-0.316-8.132-1.13c-2.751-0.837-5.286-2.414-7.192-4.574c-1.765-2-2.967-4.48-3.501-7.089
					c-0.283-1.385-0.382-2.811-0.272-4.222c0.099-1.27,0.623-2.817,0.375-4.068c-0.114-0.574-0.436-1.082-0.752-1.574
					c-2.433-3.793-4.867-7.586-7.3-11.379c-5.095,4.567-6.698,11.924-6.636,18.766c0.059,6.479,2.291,14.175,9.116,16.89
					c2.253,0.897,4.75,1.625,7.5,2c6.495,0.886,12.129-0.013,18.684-0.033c0.475-0.001,0.987-0.015,1.368-0.299
					c0.346-0.259,0.51-0.688,0.758-1.043c0.768-1.099,2.233-1.382,3.486-1.858C-220.451,163.416-219.136,162.288-219.469,160.989z"
					/>
				<path d="M-218.224,108.512c-0.397-2.469-1.419-4.741-3.245-6.482c-1.875-1.789-4.168-3.068-6.236-4.63
					c-2.509-1.895-4.595-3.698-7.656-4.599c-3.518-1.035-6.995-2.238-10.489-3.357c-2.295-2.655-4.559-5.878-2.042-9.224
					c1.186-1.577,2.942-2.603,4.606-3.665c4.719-3.013,9.559-6.44,13.487-10.44c0.35-0.357,2.899-3.634,3.127-3.582
					c-5.444-1.238-12.404,3.219-16.877,5.856c-3.154,1.859-6.161,3.984-9.458,5.593c-1,0.488-2.044,0.867-3.057,1.315
					c0.953,1.904,1.904,3.901,2.799,5.955c0.388,0.818,0.767,1.642,1.118,2.483c0.583,1.4,1.033,2.846,1.494,4.285
					c0.083,0.249,0.17,0.497,0.249,0.746c0.651,1.251,1.157,2.552,1.665,3.899c1.961,0.565,3.917,1.126,5.911,1.655
					c3.087,0.819,6.322,2.653,9.106,4.235c2.509,1.426,5.054,3.403,5.544,6.432c0.698,4.319-2.639,7.164-5.824,9.359
					c-0.686,0.472-1.381,0.965-2.07,1.447c1.129,2.014,2.118,4.102,3.082,6.204c0.219,0.406,0.461,0.854,0.693,1.325
					c1.085,1.684,2.03,3.447,2.764,5.311c2.553-1.295,5.101-2.538,6.966-4.777C-219.411,120.061-217.368,113.831-218.224,108.512z"
					/>
				<path d="M-295.591,251.333c-0.104-3.424-0.923-6.91-2.903-9.705c-4.356-6.149-7.999-7.849-15.006-8.628
					c-4.5-0.5-10,2.167-11.833,3.833c-3.438,3.126-6.797,7.48-5.974,12.255c-5.285,2.789-8.113,8.179-11.09,13.119
					c-3.989,6.619-8.596,12.837-12.666,19.403c-2.018,3.256-3.91,6.599-5.497,10.089c-0.689,1.515-1.93,3.556-2.085,5.225
					c-0.144,1.552,0.959,2.882,1.503,4.254c-0.405,0.491-1.071,1.022-1.355,1.711c-0.422,1.024-0.696,2.148-0.808,3.252
					c-0.134,1.318,0.038,2.665-0.054,3.991c-0.073,1.061-0.598,2.138-0.478,3.156c0.41,3.486,2.6,7.591,5.358,9.309
					c2.387,1.487,5.079,2.5,7.685,3.61c1.017,0.433,2.158,0.6,3.258,0.801c0.313,0.057,0.682-0.194,0.837-0.243v-3.161
					c-1.56,2.114-3.021,0.59-4.223,0.159c-3.656-1.311-6.993-2.651-8.745-7.18c0.179-1.749-0.583-3.083-0.583-5.417
					c0.167-4.75,2.378-7.883,4.313-11.756c-0.39-1.23-1.85-2.237-0.465-3.681c1.294,1.642,2.569,3.261,3.863,4.904h1.562
					c2.407-4.003,7.614-6.696,11.347-9.496c0.728-0.546,1.569-1.121,2.466-0.968c0.516,0.088,0.957,0.409,1.435,0.623
					c1.146,0.515,2.558,0.382,3.589-0.337c0.056,7.846-0.246,15.689-0.623,23.525c-0.162,3.365-0.068,6.52-0.715,9.765
					c-0.496,2.977-0.411,6.157-0.416,9.165c0,0.249,0,0.505,0.092,0.737c0.263,0.663,1.106,0.834,1.816,0.91
					c-0.541,0.159-1.116,0.34-1.47,0.779c-1.484,1.843,1.991,1.323,2.042,0.275c0.05-1.022,0.094-1.918,0.121-2.476
					c0.985-0.667,1.702-1.152,2.146-1.453c0.353-3.404,0.391-6.553,1.117-9.534c0.335-1.376,0.553-2.703,0.701-4.092
					c0.146-1.368,0.595-2.702,0.755-4.069c0.125-1.068,0.188-2.142,0.257-3.215c0.066-1.018,0.04-2.146,0.328-3.126
					c0.602-2.053,0.749-4.335,1.077-6.458c0.149-0.966,0.299-1.932,0.428-2.9c0.412-3.073,0.361-6.172,0.366-9.267
					c0.005-3.143-0.219-6.31-1.258-9.3c-0.542-0.276-1.068-0.773-1.469-1.206c-1.606-1.738-2.033-2.341-3.13-3.371
					c-1.486-1.394-3.094-2.682-4.64-4.01c-0.638,0.953-1.27,1.963-2.051,2.809c-0.502,0.544-1.096,0.989-1.609,1.519
					c-0.498,0.514-0.873,1.132-1.377,1.641c-0.259,0.261-0.549,0.49-0.814,0.745c-0.268,0.257-0.457,0.564-0.759,0.78
					c-0.097,0.07,3.25,4.165,3.534,4.472c0.765,0.828,1.66,1.504,2.425,2.33c0.461,0.503,0.114,1.013-0.697,1.313
					c-0.177,0.118-0.363,0.205-0.558,0.245c-0.253,0.15-0.519,0.279-0.814,0.373c-0.038,0.012-0.07,0.005-0.107,0.013
					c-0.22,0.094-0.443,0.156-0.579,0.12c-0.42-0.112-0.884-0.648-1.219-0.915c-1.028-0.82-2.031-1.674-2.968-2.599
					c-1.721-1.7-3.734-3.974-3.717-6.551c0.022-3.372,4.494-6.255,6.88-8.051c2.889-2.175,5.475-3.696,8.548-1.219
					c3.273,2.639,6.584,5.958,8.625,9.743c-0.074-0.914,0.327-0.957,1.739-1.6c1.235-0.562,2.302-1.33,3.039-2.491
					c0,0-0.539-0.871-0.572-0.995c3.379-0.685,6.961-0.27,10.423-1.153c1.438-0.367,2.869-0.833,4.129-1.618
					c1.431-0.892,2.589-2.164,3.583-3.526C-296.204,261.961-295.419,256.985-295.591,251.333z M-339.757,267.873
					c-0.399-0.441-0.861-0.836-1.172-1.326c-0.305-0.479-0.456-1.055-0.686-1.614l1.078-1.078c0.388,0.394,0.779,0.79,1.193,1.211
					C-338.979,267.063-339.317,267.432-339.757,267.873z M-323.401,270.236c-0.412-0.393-0.934-0.38-1.415-0.605
					c-0.602-0.281-1.11-0.781-1.595-1.228c-2.831-2.609-6.133-5.678-7.24-9.484c-0.304-1.046-0.463-2.253-0.122-3.312
					c0.367-1.138,1.441-1.411,2.293-2.149c0.573,0.681,0.866,1.791,1.413,2.571c0.822,1.172,1.159,2.63,1.719,3.931
					c0.655,1.522,1.353,4.616,2.833,5.541l1.182,0.915c0.75,0.583,2.156,1.87,2.461,2.418
					C-321.308,269.846-322.452,271.14-323.401,270.236z"/>
				<path d="M-475.095,99.18c-3.061,0.947-6.647,0.859-9.807,0.948c-0.353,0.01-0.719,0.016-1.045-0.12
					c-0.477-0.199-0.783-0.664-1.024-1.122c-0.899-1.71-1.277-3.639-1.606-5.543c-0.978-5.661-1.62-11.38-1.92-17.117
					c-0.224-4.279,0.196-8.571-0.243-12.842c-0.426-4.143-1.741-8.06-3.119-11.967c-0.507-1.439-1.025-2.897-1.895-4.15
					c-0.872-1.256-2.063-2.252-3.27-3.192c-2.424-1.888-4.828-3.436-7.824-4.086c-2.548-0.553-3.832-2.331-4.685-4.685h-2.028
					c0.366,0-2.067,28.947-2.281,31.387c-0.159,1.808-0.317,3.616-0.476,5.424c-0.165,1.881-0.33,3.762-0.495,5.642
					c-0.51,5.806-1.004,11.817-1.503,17.702c-0.255,3.003-0.513,6.005-0.781,9.006c-0.139,1.551-0.251,3.109-0.425,4.659
					c-0.159,1.421-0.227,2.206-1.588,2.191c-3.39-0.038-7.767-0.191-11.087,1.092c-2.342,0.905-4.303,2.661-6.11,4.428
					c-1.991,1.947-3.733,5.816-3.755,8.598c-0.02,2.459,0.936,5.065,2.527,7.221c2.37,3.211,5.916,4.28,9.534,4.483
					c5.342,0.3,12.265-0.046,16.116-4.333c3.358-3.739,3.809-9.244,3.822-14.037c0.009-3.181-0.242-6.353-0.335-9.532
					c-0.231-7.948,0.921-16.106,1.604-24.032c0.461-5.36,0.957-10.718,1.488-16.071c0.423-4.265,0.791-8.495,1.6-12.712
					c1.609,1.35,2.399,3.729,2.699,5.736c1.495,9.98,0.337,20.19,0.72,30.24c0.074,1.933,0.187,3.895,0.825,5.722
					c0.576,1.65,1.557,3.124,2.55,4.562c1.012,1.466,2.084,2.953,3.581,3.92c1.393,0.901,3.05,1.284,4.668,1.65
					c0.821,0.186,1.657,0.374,2.496,0.308c0.724-0.057,1.418-0.299,2.103-0.539c2.859-1.003,5.725-2.01,8.44-3.354
					c3.866-1.914,7.394-4.507,10.376-7.625c0.785-0.82,1.573-1.777,1.607-2.912c-2.7,2.071-5.73,3.733-8.936,4.877
					C-474.747,99.069-474.92,99.126-475.095,99.18z"/>
				<path d="M-182.671,345.461c0.002,0,0.003-0.001,0.005-0.001c8.335-0.097,16.665,0.136,24.994,0.403
					c0.036-0.768,0.32-1.732,0.299-2.126c-0.045-0.849-0.483-1.732-0.624-2.588c-0.168-1.019-0.213-2.058-0.121-3.086
					c0.312-3.485,1.849-6.221,3.568-9.157c0.687-1.174,1.374-2.347,2.061-3.521c0.45-0.768,1.132-1.387,1.534-2.185
					c0.299-0.595,0.178-1.146,0.258-1.77c0.087-0.681,0.366-1.302,0.625-1.932c0.72-1.755,1.812-3.867,1.342-5.82
					c-0.037-0.152-0.083-0.297-0.139-0.438c-0.707-1.773-2.878-2.685-4.284-3.804c-0.146-0.117-0.304-0.238-0.49-0.257
					c-0.159-0.016-0.314,0.045-0.464,0.106c-1.472,0.601-1.587-0.458-1.854-1.596c-0.695-2.969-3.299-7.766-6.948-5.161
					c-0.338,0.241-0.411,0.307-0.839,0.307c-0.531-1.173-0.75-2.5-2.02-3.444c-3.563-0.473-4.53,0.48-6.08,4.609
					c0-2.777-0.102-5.54-0.1-8.314c0.002-2.192,0.462-4.355,0.599-6.538c0.131-2.085,0.111-4.19-0.096-6.269
					c-0.083-0.832-0.292-1.485-0.712-2.217c-0.23-0.4-1.091-1.879-1.587-1.927c-0.852-0.082-1.909,0.236-3.218,1.081
					c-0.461,0.298-0.855,0.673-1.215,1.084c-3.607,4.117-2.611,10.794-3.808,15.784c-0.288,1.2-0.691,2.375-0.911,3.591
					c-0.206,1.138,0.12,2.5-0.296,3.572c-1.325,3.415-1.624,7.048-2.505,10.597c-2.33,0.761-3.32-1.393-5.132-1.776
					c-1.252-0.265-2.69-0.508-3.988-0.567c-2.128-0.096-3.474,1.206-4.302,3.055c-0.252,0.564-0.47,1.156-0.503,1.773
					c-0.113,2.12,1.456,3.767,3.192,4.678c3.021,1.584,5.777,3.759,7.733,6.553c2.19,3.128,3.288,6.869,4.904,10.328
					c0.527,1.129,1.128,2.257,1.397,3.483C-182.123,343.228-182.493,344.237-182.671,345.461z"/>
				<path d="M-307.565,418.083c1.636,6.362-4.013,15.312-5.547,21.401c0.202-0.8,10.02,0.261,10.845,0.461
					c0.548,0.133,1.124,0.309,1.492,0.737c0.491,0.57,0.469,1.406,0.421,2.157c-0.589,9.144-1.178,18.287-1.766,27.431
					c-9.015,0.359-18.041,0.451-27.062,0.277c-0.379-0.007-0.793-0.029-1.073-0.284c-0.357-0.326-0.342-0.881-0.3-1.363
					c0.432-4.967,0.864-9.934,1.296-14.901c0.371-4.271,0.159-9.098,1.361-13.224c-0.095,0.118,0.061-0.087,0.228-0.281
					c6.321-7.371,13.108-14.342,18.951-22.123C-308.605,418.218-308.251,418.245-307.565,418.083z"/>
				<path d="M-234.493,596.484c1.126,2.264,1.777,4.754,1.814,7.287c0.057,3.908-1.291,7.773-3.502,10.995
					c-1.664,2.426-3.804,4.5-6.185,6.218c-1.332,0.961-5.823,2.756-5.823,4.669c0,5.84,0,11.798,0,17.827
					c-3.178,0.383-6.5,1.085-9.689,1.13c-0.11,0.002,0.72-9.374,0.783-10.007c0.234-2.354,0.477-4.707,0.729-7.059
					c0.12-1.116,0.076-5.464,0.746-6.019c4.31-3.568,8.378-6.838,11.377-11.673c0.243-0.392,0.481-0.793,0.617-1.234
					c0.163-0.529,0.173-1.092,0.151-1.644c-0.107-2.674-0.988-5.388-2.834-7.324c-1.847-1.937-4.74-2.961-7.306-2.202
					c-3.025,0.894-4.998,4.111-5.027,7.265c-0.029,3.136-1.163,7.281-5.026,7.358c-0.201,0.004-0.406-0.006-0.596-0.073
					c-0.24-0.084-0.44-0.252-0.628-0.423c-4.294-3.909-3.206-8.347-2.185-13.384c0.537-2.649,1.17-5.4,2.974-7.506
					c1.492-1.742,3.62-2.829,5.803-3.532c5.629-1.812,12.061-1.215,17.083,1.907C-238.346,590.844-235.996,593.463-234.493,596.484z
					"/>
				<path d="M-218.876,591.044c1.091,0.149,2.102,0.737,2.913,1.492c2.14,1.991,2.994,5.038,3.103,7.959
					c0.18,4.806-1.392,9.523-3.504,13.844c-2.916,5.968-6.864,11.364-10.214,17.1c-2.481,4.249-4.645,8.718-8.248,12.118
					c-0.283,0.267-0.578,0.541-0.945,0.67c-1.594,0.558-2.568-0.53-2.781-2.029c-0.19-1.34,0.597-2.426,1.105-3.587
					c0.713-1.628,1.271-3.35,1.839-5.033c2.115-6.273,3.899-12.839,5.107-19.35c1.133-6.104,2.606-12.364,5.224-18.015
					c0.595-1.278,1.271-2.546,2.265-3.547c0.994-1,2.352-1.713,3.761-1.654C-219.124,591.016-219,591.027-218.876,591.044z"/>
				<path d="M-270.208,633.812c-0.959,3.034-1.974,5.2-4.185,7.574c-3.783,4.062-7.773,7.962-11.686,11.884
					c-1.362,1.365-1.869,0.529-3.022-0.825c-0.323-0.38-3.693-4.648-4.057-4.285c4.047-2.598,8.039-5.282,12.009-7.997
					C-277.636,637.76-274.381,634.704-270.208,633.812z"/>
				<path d="M-272.428,625.357c0.517,0.609,0.842,0.992,1.108,1.306c-0.146,0.404-0.165,0.78-0.322,0.846
					c-0.858,0.365-11.316,1.068-13.983,0.865c-1.772-0.135-15.341-1.56-15.101,1.007c-0.085-0.909-0.282-1.759-0.211-2.586
					c0.082-0.955,2.394-5.739,2.979-6.431c4.134,1.094,8.289,2.84,12.546,3.142C-281.043,623.817-276.9,625.276-272.428,625.357z"/>
				<path d="M-247.036,658.221c-0.528,1.26-1.42,2.222-2.527,3.029c-1.011,0.737-2.766,1.14-4.062,1.062
					c-1.177-0.071-2.783-0.118-3.875-0.562c-2.678-1.091-3.261-3.21-3.101-5.928c0.064-1.092,0.168-2.208,0.622-3.203
					c2.599-5.702,11.467-3.711,13.16,1.615C-246.41,655.525-246.513,656.974-247.036,658.221z"/>
				<path d="M-291.945,601.238c0.771-0.425,5.879-6.309,6.478-5.688c4.83,5.012,8.024,11.067,11.655,16.809
					c0.23,0.363,0.03,0.998,0.03,1.618c0,0-2.588,0-2.843,0c-2.455,0.001-4.374-2.112-5.859-3.816
					c-1.826-2.094-3.99-3.805-6.052-5.665C-289.635,603.504-290.554,601.801-291.945,601.238z"/>
				<path d="M-235.72,651.55c0.401,0.379,0.757,0.809,1.056,1.27c0.439,0.679,0.774,1.454,0.775,2.263
					c0.001,0.74-0.276,1.45-0.577,2.126c-0.417,0.938-0.955,1.917-1.89,2.341c-0.987,0.447-2.155,0.147-3.121-0.343
					c-1.348-0.684-2.509-1.731-3.328-3.001c-2.076-3.216,0.289-6.875,4.135-6.195C-237.559,650.206-236.543,650.772-235.72,651.55z"
					/>
				<path d="M-225.803,63.28c0-0.802,0-1.059,0-1.571c0.69-0.054,1.397-0.11,2.104-0.166c0.056,0.156,0.111,0.313,0.167,0.469
					c-0.288,0.119-0.591,0.211-0.861,0.363C-224.778,62.59-225.139,62.849-225.803,63.28z"/>
				<path d="M-525.25,291.688c-0.25-0.375-0.259-0.384-0.312-0.527c-0.121-0.328-3.134-0.381-3.557-0.452
					c-1.352-0.226-2.433-1.019-3.665-1.418c-0.024-0.02-0.05-0.027-0.075-0.042c1.071,1.445,2.352,2.638,3.962,3.592
					c0.725,0.218,1.515,0.366,2.199,0.137c0.448-0.06,0.876-0.219,1.245-0.544C-525.225,292.234-525.188,292.062-525.25,291.688z"/>
				<path d="M-526.879,278.68c-0.115-0.932-0.879-1.919-1.954-1.159c-0.344,0.243-0.522,0.7-0.434,1.112
					c0.096,0.445,0.458,0.783,0.84,1.031c0.191,0.124,0.398,0.236,0.625,0.263C-527.058,280.015-526.795,279.363-526.879,278.68z"/>
				<path d="M-517.032,280.774l0.011-0.36c0.011-0.355-0.19-0.685-0.512-0.835c-0.176-0.082-0.357-0.151-0.537-0.175
					c-0.635-0.083-1.081,0.469-0.995,1.077c0.122,0.853,1.995,1.53,2.027,0.486C-517.036,280.901-517.034,280.837-517.032,280.774z"
					/>
				<path d="M-198.186,264.838c2.009-0.481,2.659-3.099,1.637-4.815c-0.091-0.153-0.206-0.28-0.321-0.405
					c-0.067-0.068-0.137-0.137-0.203-0.203c-1.066-0.932-2.855-1.023-4.556-1.121c-0.118,0.037-0.232,0.073-0.348,0.11
					c-0.279,2.145-0.416,4.305-0.688,6.452C-201.171,264.97-199.611,265.179-198.186,264.838z"/>
				<path d="M-189.485,274.151c-0.015,0.44,0.084,0.895,0.322,1.351c0.226,0.343,0.512,0.654,0.86,0.905
					c1.088,0.782,2.52,0.85,3.273-0.394c0.891-1.474,0.748-2.937-0.495-4.078c-0.361-0.331-0.758-0.679-1.245-0.728
					c-0.456-0.045-0.895,0.186-1.26,0.463C-188.886,272.324-189.452,273.201-189.485,274.151z"/>
			</g>
		</g>
	</g>
	<path style="display:inline;" d="M-344.482,418.167c1.636,6.362-4.013,15.312-5.547,21.401c0.202-0.8,10.02,0.261,10.845,0.461
		c0.548,0.133,1.124,0.309,1.492,0.737c0.491,0.57,0.469,1.406,0.421,2.157c-0.589,9.144-1.178,18.287-1.766,27.431
		c-9.015,0.359-18.041,0.451-27.062,0.277c-0.379-0.007-0.793-0.029-1.073-0.284c-0.357-0.326-0.342-0.881-0.3-1.363
		c0.432-4.967,0.864-9.934,1.296-14.901c0.371-4.271,0.159-9.098,1.361-13.224c-0.095,0.118,0.061-0.087,0.228-0.281
		c6.321-7.371,13.108-14.342,18.951-22.123C-345.522,418.302-345.168,418.328-344.482,418.167z"/>
</g>
<g id="Circles">
	<circle style="fill:#52419A;" cx="197.5" cy="134" r="124.5"/>
	<circle style="fill:#4FBA71;" cx="482.125" cy="135" r="124.5"/>
	<path style="fill:#D04A47;" d="M883.562,134.958c0,68.759-55.741,124.5-124.5,124.5s-121.5-55.741-121.5-124.5
		s52.741-124.5,121.5-124.5S883.562,66.199,883.562,134.958z"/>
	<circle style="fill:#6D5FA9;" cx="1032" cy="134" r="124.5"/>
	<circle style="fill:#4B673A;" cx="197.125" cy="408.5" r="124.5"/>
	<circle style="fill:#215166;" cx="482.875" cy="408.583" r="124.5"/>
	<circle style="fill:#782750;" cx="761.188" cy="408.167" r="124.5"/>
	<circle style="fill:#3282C4;" cx="1031.125" cy="407.5" r="124.5"/>
	<rect id="_x3C_Slice_x3E_" x="71" y="7" style="fill:none;" width="253" height="254"/>
	<rect id="_x3C_Slice_x3E__2_" x="356" y="7" style="fill:none;" width="253" height="254"/>
	<rect id="_x3C_Slice_x3E__5_" x="635" y="7" style="fill:none;" width="253" height="254"/>
	<rect id="_x3C_Slice_x3E__7_" x="905" y="7" style="fill:none;" width="253" height="254"/>
	<rect id="_x3C_Slice_x3E__3_" x="356" y="281" style="fill:none;" width="253" height="254"/>
	<rect id="_x3C_Slice_x3E__4_" x="635" y="281" style="fill:none;" width="253" height="254"/>
	<rect id="_x3C_Slice_x3E__6_" x="905" y="281" style="fill:none;" width="253" height="254"/>
	<rect id="_x3C_Slice_x3E__1_" x="71" y="281" style="fill:none;" width="253" height="254"/>
</g>
<g id="Layer_2_copy">
	<g id="cLBRAx_2_">
		<g>
			<g>
				<g>
					<g>
						<g>
							<path style="fill:#F0F0F0;" d="M255.719,409.212c6.287-0.579,12.496-2.717,12.525-10.436
								c0.033-9.024,0.037-18.048,0.033-27.072c-0.002-4.541-0.004-9.083-0.008-13.624c-0.003-3.62,0.563-7.08-1.556-10.258
								c-3.363-5.045-7.531-6.868-13.46-6.736c-2.417,0.054-4.841,0-7.258,0c-7,0-14.001,0-21.001,0c-17.531,0-35.063,0-52.594,0
								c-12.492,0-24.984,0-37.476,0c-1.023,0-2.046,0-3.069,0c-2.859,0-7.217,3.849-8.75,6.059
								c-2.476,3.57-1.302,9.209-1.307,13.315c-0.014,12.15-0.035,24.3,0.056,36.45c0.048,6.352,4.506,11.204,10.706,12.107
								c4.542,0.662,9.425,0.226,14.011,0.238c4.85,0.013,9.7,0.025,14.55,0.037c7.404,0.018,14.808,0.042,22.212,0.042
								c0.241-7.727,4.144-16.599,8.142-22.776c2.109-3.259,6.554-6.518,10.376-5.337c2.441,0.754,3.702,1.017,5.456,3.091
								c2.692,3.183,5.046,6.201,5.36,10.356c1.009,4.541,1.157,10.041,1,14.667c13.003,0,23.397,0.087,36.4,0.087
								C251.839,409.42,253.783,409.39,255.719,409.212z M156.062,375.312l-3.312,15.812l-11.5-1c0,0,6.631-33.283,7.426-39.372
								c0.045-0.343,8.048-0.405,8.714-0.393c19.048,0.328,21.923,6.703,21.485,13.516
								C178.244,373.701,162.937,376.938,156.062,375.312z M181.812,392.375c-5.134,0.82-9.111-1.73-10.625-4.562
								c-1.674-3.133-0.967-10.948,1.665-13.586c6.398-6.414,11.621-4.511,15.335-0.601
								C191.75,377.375,190.812,390.938,181.812,392.375z M227.062,366.438l9.25-0.125c0,0,0.748-8.473,1.433-12.359
								c3.755,0.297,5.88,0.672,9.33,1.732c-0.599,3.423-1.301,7.557-2.013,11.628c1.875,0.438,8.313,1.25,8.313,1.25
								s-0.802,5.261-0.982,6.256c-0.298,1.643-0.33,2.306-0.33,2.306l-8.187-1.375l-2.25,16.875c0,0-8.845-1.532-9-1
								c1.214-4.16,2.25-14.188,2.5-16.25l-8.152-0.246L227.062,366.438z M213.437,384.875c-2.335-2.416-5.46-3.001-6.625-3.688
								c-1.608-0.947-6.924-3.805-4.625-8.625c1.938-4.062,6-7.062,9.456-7.101c5.66-0.063,9.092,4.189,10.473,8.476
								c0.009,0.029,0.008,0.057,0.015,0.086c-2.182,0.278-6.384,1.56-6.384,1.56s-0.768-1.282-0.912-1.474
								c-1.185-1.581-3.412-0.511-4.273,0.83c-0.391,0.609,1.1,2.139,1.562,2.5c2,1.562,5.052,1.564,7.187,2.75
								c2.25,1.25,3.688,2.812,3.875,5.625c0.187,2.807-0.982,3.383-1.312,3.812c-0.493,0.64-6.75,2.562-6.75,2.562l-2-5.188
								C213.125,387,215.25,386.75,213.437,384.875z"/>
						</g>
					</g>
				</g>
				<g>
					<g>
						<g>
							<g>
								<g>
									<path style="fill:#F0F0F0;" d="M555.333,381c5-8,6-11.333-2.333-17c-6.819-4.637-58.37-35.73-61.75-37.5
										c-2.08-1.089-7.878-2.304-10.515-1.011c-4.61,2.261-4.36,3.011-8.86,8.886c-13.036,17.02-61.938,91.336-65.208,96.292
										c-5.5,8.333-6.653,9.855,9.167,22.833c4.376,3.59,43.867,32.622,49.167,35.5c9.667,5.25,14-2,17.571-6.589
										C484.701,479.674,553.216,384.387,555.333,381z M504.654,342.877c7.346,2.79,12.929,6.54,18.263,12.373
										c0.629,0.688,1.163,2.313,0.686,3.113c-0.472,0.79-0.769,1.054-2.512,0.504c-4.346-1.373-11.021-6.208-13.257-7.95
										c-1.322-1.03-4.984-4.672-5.167-6.25C502.56,343.744,503.197,342.324,504.654,342.877z M429.825,442.926
										c-1.466,1.529-4.667,0.793-6.541-1.488c-0.902-1.098-3.378-4.692-1.304-5.807c3.128-1.682,5.904,2.43,7.485,4.591
										C429.731,440.586,430.742,441.969,429.825,442.926z M451.333,458.333c-0.311,1.248-0.827,2.464-1.589,3.493
										c-1.772,2.394-3.867,3.773-6.92,4.143c-1.924,0.233-4.625-0.708-6.5-1.667c-2.815-1.439-7.875-8.667-2.799-9.346
										c1.981-0.265,2.406,2.318,3.59,3.763c0.652,0.795,2.805,2.447,3.875,2.542c1.417,0.125,3.244-0.599,4.271-1.506
										c1.169-1.032,2.057-5.368-0.271-6.661c-2.974-1.651-5.532,0.633-8.238,0.389c-1.784-0.161-2.989-2.268-2.629-3.952
										c0.44-2.058,2.937-3.079,4.753-3.501c4.152-0.964,8.818,0.005,11.237,3.792C451.7,452.306,452.046,455.475,451.333,458.333
										z M465.023,472.355c-0.147,0.689-0.736,1.32-1.441,1.318c-0.297-0.001-1.098-0.395-1.221-0.472
										c-3.334-2.092-6.347-4.694-8.903-7.688c-1.286-1.506-0.738-3.731,1.254-3.205c1.238,0.327,8.488,5.702,9.954,8
										C465.045,470.903,465.17,471.665,465.023,472.355z M540.333,378.667l-62.758,85.537l-51.742-38.037
										c0,0,56.777-82.75,57.167-82.833C483.418,343.244,540.333,378.667,540.333,378.667z"/>
								</g>
							</g>
						</g>
					</g>
				</g>
				<path style="fill:#F0F0F0;" d="M526.387,202.271c0,0-1.686-3.053-2.119-3.661c-3.413-4.796-4.938-19.271-4.938-19.271
					c-3.453-5.298-25.699-37.418-40.447-62.775c-19.779-34.008-20.854-46.653-23.084-51.277c-1.137-2.357-4.937-5.691-4.839-6.637
					c0.184-1.75,0.404-3.843,0.634-6.028c0,0-13.613,5.838-19.488,7.385c0.98,2.587,9.218,29.053,29.681,63.891
					c21.613,36.794,21.75,36.417,40.579,64.322c0,0,16.151,10.295,21.35,13.578c-3.295,0.904-24.894,0.744-29.762-1.127
					c-21.582-8.29-15.457-14.843-8.821-24.332c0,0-9.502-15.524-13.082-20.987c-10.422,9.529-25.592,23.773-19.192,35.719
					C464.317,212.46,526.387,202.271,526.387,202.271z"/>
				<path style="fill:#F0F0F0;" d="M537.897,123.738c-0.733-11.118-28.638-13.971-37.482-15.813
					c-5.204-1.083-10.507-1.789-14.971-4.677c-3.101-2.006-5.517-6.249-4.761-10.21c0.913-4.788,5.256-8.314,8.804-10.997
					c4.467-3.377,22.301-17.914,23.987-18.568c-5.888,2.933-14.851,6.77-21.901,10.297c-4.746,2.375-20.326,12.717-21.787,13.38
					c1.408,2.747,9.205,19.458,9.959,21.404c2.851,0.791,29.402,6.88,31.248,16.932c1.146,6.237-10.285,13.666-11.276,14.375
					c1.664,2.903,10.094,16.201,11.185,18.892C514.586,156.84,539.049,141.204,537.897,123.738z"/>
				<path style="fill:#F0F0F0;" d="M1083.25,70c-6.785-9.319-13.97-11.214-24.75-11.5c-14.125-0.375-27.436,16.909-26.177,24.214
					c-8.085,4.267-12.411,12.512-16.965,20.069c-6.102,10.125-30.739,50.555-30.975,53.109c-0.22,2.373,1.468,4.409,2.299,6.508
					c-0.619,0.752-4.808,11.475-4.558,16.725c0.312,6.555,2.539,12.931,8,17.125c7,5.375,18.414,5.367,18.651,5.292l-0.151-3.667
					c-3.25,0.375-16.595-4.549-19.25-10.5c-3.625-8.125,1.268-19.965,2.272-21.945c0.48-0.947,3.287-4.819,2.997-5.736
					c-0.596-1.881-2.83-3.422-0.711-5.632c1.979,2.513,3.93,4.989,5.91,7.502h2.39c3.682-6.123,11.647-10.243,17.358-14.526
					c1.113-0.835,2.401-1.715,3.772-1.481c0.789,0.135,1.464,0.625,2.195,0.953c1.753,0.788,3.914,0.585,5.49-0.515
					c0.086,12.003-0.376,24.001-0.953,35.987c-0.248,5.148-1.722,24.358-1.73,28.96c-0.001,0.381,0.001,0.773,0.141,1.128
					c0.403,1.015,1.692,1.276,2.778,1.391c-0.827,0.243-1.707,0.52-2.248,1.192c-2.271,2.819,3.046,2.024,3.124,0.42
					c0.076-1.564,0.143-2.934,0.185-3.788c1.506-1.02,2.604-1.763,3.283-2.222c0.54-5.208,8.705-66.563,8.705-66.563
					s5-3.167-2.936-12.924c-0.587-0.721-1.535-1.663-2.147-2.326c-2.457-2.659-3.209-3.1-4.887-4.676
					c-2.273-2.133-4.122-3.544-6.488-5.574c-0.977,1.458-10.259,10.574-10.722,10.904c-0.148,0.107,11.005,12.432,10.933,12.536
					c-0.108,0.155-1.834-0.536-3.086-0.44c-1.625,0.125-2.031,1.116-2.625,1.625l-13-14.875c0,0,15.724-15.877,19.375-18.625
					c0,0,14.888,12.879,18.012,18.669c1.458-0.9,2.679-2.108,3.989-3.199c1.178-0.982,2.48-1.735,3.321-3.059
					c0,0-0.825-1.332-0.875-1.523c5.169-1.047,9.883,0.338,15.179-1.013c2.2-0.561,12.26-3.534,17-12.125
					C1093.375,91.375,1089.857,79.074,1083.25,70z M1019.902,111.237c-0.716-0.561-1.109-1.027-1.706-1.685
					c-0.583-0.643-1.366-1.483-1.857-2.266l1.347-1.905c0.687,0.494,1.409,1.335,2.143,1.861
					C1020.896,110.159,1020.452,110.458,1019.902,111.237z M1050.167,117.833c-3.334-3.331-7.542-4.583-12.042-7.958
					c-2.688-2.016-5.426-4.81-7.161-7.687c-0.898-1.49-1.813-3.08-2.413-4.719c-0.403-1.1-0.801-1.684-0.801-2.844
					c0-0.375,0.125-4.5,5.583-5.958c1.542,5.833,4.995,13.371,6.333,16c1.77,3.477,3.708,5.833,6.333,8.833
					C1047.167,114.834,1050.667,118.334,1050.167,117.833z"/>
				<path style="fill:#F0F0F0;" d="M257.535,152.088c-2.849,0.857-5.773,1.461-8.732,1.788c-3.455,0.381-8.792,0.085-10.401-3.606
					c-2.276-5.223-2.662-11.557-3.19-17.167c-0.602-6.396-0.807-12.821-0.927-19.242c-0.024-1.262-0.042-2.523-0.059-3.785
					c0-0.011,0-0.021,0-0.032c-0.067-5.003,0.087-10.035-0.705-14.995c-0.519-3.248-1.293-6.455-2.248-9.601
					c-1.594-5.254-3.996-10.939-7.815-14.974c-3.79-4.005-8.69-6.875-14.093-8.047c-3.873-0.84-5.825-3.544-7.121-7.121h-3.082
					c0.557,0-3.142,44-3.468,47.709c-0.241,2.748-0.482,5.496-0.723,8.244c-0.251,2.859-0.502,5.718-0.753,8.576
					c-0.774,8.826-1.527,17.962-2.285,26.908c-0.387,4.564-0.779,9.128-1.187,13.69c-0.211,2.358-0.382,4.726-0.646,7.081
					c-0.242,2.161-0.432,3.485-0.432,3.485s-13.788-0.446-18.835,1.505c-3.559,1.376-7.335,3.476-10.082,6.162
					c-3.026,2.959-4.88,9.41-4.914,13.639c-0.03,3.737,1.422,7.7,3.841,10.977c3.602,4.881,8.992,6.506,14.492,6.815
					c8.12,0.456,16.647-0.48,22.998-6.514c5-4.75,4.858-8.011,5.833-13.25c1.135-6.097,0.616-12.472,0.75-16.417
					c0.418-12.25,6.119-80.102,7.349-86.512c2.446,2.052,3.646,5.668,4.103,8.719c1.981,13.226,1.138,26.641,1.023,39.955
					c-0.055,6.382,0.137,13.066,3.012,18.908c1.687,3.427,4.276,6.423,7.49,8.488c4.053,2.604,9.554,4.004,14.229,2.363
					c4.345-1.525,8.703-3.056,12.83-5.099c5.876-2.91,11.24-6.851,15.772-11.59c1.193-1.247,2.277-2.649,2.443-4.425
					c-1,1.193-2.587,1.911-3.417,2.402c-1.665,0.984-3.104,1.871-4.869,2.66C261.706,150.684,259.641,151.455,257.535,152.088z"/>
				<path style="fill:#F0F0F0;" d="M188.333,496.167c0.073-0.517,16.269,0.142,17.874,0.172c2.452,0.046,18.793-0.172,18.793-0.172
					s0.216-5.186,0.285-7.675c0.145-5.276,1.117-6.448,3.59-11.116c2.062-3.89,8.345-18.267,9.125-20.25
					c0.915-2.326,1.619-5.633,1.49-8.193c-0.136-2.692-2.134-5.15-4.24-6.682c-0.835-0.608-1.98-0.902-3.017-1.092
					c-0.887-0.163-3.358,0.092-3.358,0.092s-0.363-1.765-0.572-2.657c-1.062-4.531-4.553-11.968-9.178-8.718
					c-0.519,0.365-1.847,1.875-2.5,1.875c-0.81-1.79-1.053-4.916-3.291-5.824c-5.084-2.063-6.915,0.733-9.281,7.035
					c0.572-4.46,4.046-32.115-1.928-37.335c-1.898-1.659-5.761-0.666-7.375,0.625c-1.93,1.544-2.42,3.984-3.21,6.284
					c-1.654,4.818-1.655,9.973-2.46,14.954c-1.08,6.679-2.069,12.318-2.746,19.179c-0.35,3.546-2.167,12.333-2.167,12.333
					c-0.827,0.605-4.074-1.328-4.996-1.656c-4.422-1.571-11.375-3.712-15.202,0.12c-1.823,1.825-2.789,4.907-2.027,7.424
					c1.03,3.401,4.615,4.838,7.369,6.553c3.497,2.178,6.656,5.017,9.024,8.399c3.343,4.774,5.019,10.484,7.485,15.765
					C186.623,487.328,188,494,188.333,496.167z"/>
				<path style="fill:#F0F0F0;" d="M793.502,334.677c2.362,9.185-5.793,22.105-8.007,30.894c0.291-1.155,14.465,0.377,15.656,0.666
					c0.791,0.192,1.622,0.447,2.153,1.064c0.709,0.824,0.677,2.03,0.607,3.114c-0.85,13.2-1.7,26.4-2.55,39.599
					c-13.015,0.518-41.278-0.015-41.278-0.015s2.75-36.417,4.064-42.564c-0.137,0.17,0.088-0.125,0.329-0.406
					c9.125-10.64,18.923-20.704,27.358-31.937C792,334.872,792.512,334.91,793.502,334.677z"/>
				<path style="fill:#F0F0F0;" d="M1066.437,366.454c0.247,6.489-2.145,12.916-5.819,18.271
					c-2.766,4.031-19.955,18.09-19.955,18.09s0,19.604,0,29.624c-5.281,0.637-10.801,1.803-16.101,1.877
					c-0.183,0.003,3.752-38.362,3.752-38.362s15.411-11.949,19.37-20.221c2.386-4.984-0.306-12.364-3.898-16.131
					c-3.068-3.218-7.738-4.282-12.14-3.659c-9.811,1.388-8.645,11.888-8.645,11.888s8.833,6.667,1,11.833
					c-4.073,2.686-11.166,2.381-14.167-1.333c-2.983-3.692-2.115-10.075-2.083-14.583c0.083-11.917,6.75-22.583,16.112-24.913
					c9.536-2.372,19.746-1.509,28.387,3.169C1061.167,346.833,1066,355,1066.437,366.454z"/>
				<path style="fill:#F0F0F0;" d="M1099.371,361.008c0.101,7.991-35.121,72.367-35.121,72.367l-6.75-2.25
					c0,0,21.026-75.173,25.003-83.129C1084.667,343.667,1099,331.667,1099.371,361.008z"/>
				<path style="fill:#F0F0F0;" d="M1004.073,416.374C1002.48,421.415,976,450.25,976,450.25s-9.459-10.637-10.063-10.033
					C972.663,435.899,997.139,417.856,1004.073,416.374z"/>
				<path style="fill:#F0F0F0;" d="M1001.691,405.9c-1.426,0.607-39.941,2.6-48.33,3.111c0.889-4.761,2.167-13.861,3.139-15.011
					C963.369,395.819,1001.952,405.789,1001.691,405.9z"/>
				<path style="fill:#F0F0F0;" d="M1039.875,459.25c-5,4.25-16.822,7.702-19.516-1.972c-1.81-6.497,1.899-14.772,9.258-15.262
					c5.767-0.383,9.424,1.316,12.258,6.983C1043.125,451.5,1042.906,456.673,1039.875,459.25z"/>
				<path style="fill:#F0F0F0;" d="M967.953,362.244c1.281-0.706,9.971-10.645,10.765-9.451
					c6.283,9.458,19.418,29.592,19.418,30.621C998.135,383.413,970.263,363.18,967.953,362.244z"/>
				<path style="fill:#F0F0F0;" d="M1061.46,445.765c0.026,0.024,0.051,0.048,0.076,0.072c3.57,3.43,4.005,10.944-1.209,13.305
					c-3.327,1.507-8.562-0.558-10.577-3.017c-2.44-2.978-2.434-8.93,0.959-11.58C1053.887,442.063,1058.698,443.174,1061.46,445.765
					z"/>
				<path style="fill:#F0F0F0;" d="M165.187,368.187c3.066-0.735,4.059-4.73,2.499-7.35c-0.139-0.234-0.315-0.427-0.491-0.619
					c-0.103-0.103-0.208-0.209-0.31-0.31c-1.628-1.423-7.309-1.599-7.485-1.543c-0.713,3.261-1.213,6.448-1.901,9.761
					C159.781,368.301,163.013,368.708,165.187,368.187z"/>
				<path style="fill:#F0F0F0;" d="M177.604,381.693c-0.001,0.023-0.002,0.047-0.002,0.07c-0.058,2.669,3.771,4.528,5.176,1.766
					c0.759-1.491,0.219-3.744-1.094-4.77C179.597,377.129,177.69,379.694,177.604,381.693z"/>
			</g>
		</g>
	</g>
	<path style="fill:#F0F0F0;" d="M740.209,334.798c2.362,9.185-5.793,22.105-8.007,30.894c0.291-1.155,14.465,0.377,15.656,0.666
		c0.791,0.192,1.622,0.447,2.153,1.064c0.709,0.824,0.677,2.03,0.607,3.114c-0.85,13.2-1.7,26.4-2.55,39.599
		c-12.902,0.198-40.902-0.468-40.902-0.468s1.1-15.849,1.723-23.02c0.536-6.165,1.027-13.064,1.965-19.091
		c-0.137,0.17,19.251-21.11,27.687-32.343C738.708,334.992,739.219,335.03,740.209,334.798z"/>
</g>
<g id="comic">
	<path style="fill:#F0F0F0;" d="M741.333,177.708c-0.242-0.611-0.43-0.599-0.605-0.737c-0.811-0.638-4.571-0.556-5.188-0.66
		c-1.972-0.33-5.417-2.107-5.453-2.128c1.562,2.107,3.43,3.847,5.778,5.239c1.058,0.317,2.182,0.438,3.207,0.199
		c0.643-0.15,1.277-0.319,1.816-0.794C741.22,178.537,741.537,178.224,741.333,177.708z"/>
	<path style="fill:#F0F0F0;" d="M738.708,159c0.417-1.208-0.34-1.893-0.823-2.2c-1.851-1.178-3.405,1.961-1.704,3.183
		C737.494,160.925,738.26,160.299,738.708,159z"/>
	<path style="fill:#F0F0F0;" d="M753.265,161.878c0.151-0.96-0.572-2.033-1.594-2.039c-2.213-0.013-1.552,3.352,0.534,3.059
		C752.855,162.806,753.185,162.382,753.265,161.878z"/>
	<g>
		<g>
			<g>
				<g>
					<g>
						<path style="fill:#F0F0F0;" d="M829.688,68.438c0.014-0.183-126.312-9.062-126.312-9.062L689.449,195.34l129.52,13.567
							 M747.535,165.295c-0.909-0.983-1.466-2.164-1.529-3.508c-0.057-1.23,0.045-3.002,0.752-4.039
							c1.642-2.41,4.961-4.494,7.775-2.738c2.183,1.362,3.548,4.15,3.679,6.673c0.166,3.188-1.822,6.34-5.287,6.238
							C750.9,167.862,748.891,166.762,747.535,165.295z M716.7,164.715c-0.573-5.663-0.797-11.734,1.3-16.965
							c1.799-4.488,4.356-9.64,8.277-12.712c4.592-3.597,11.127-5.785,16.584-2.965c7.011,3.623,12.069,10.87,10.738,19.143
							c-1.14-0.073-3.158,0.463-3.576,0.659c-1.683,0.787-3.287,1.007-4.398,2.541c0.622-0.86-1.336-4.094-1.792-4.917
							c-0.935-1.688-2.562-2.946-4.423-3.556c-4.833-1.585-11.504,1.087-13.738,5.601c-3.554,7.178,0.369,17.526,9.302,16.954
							c2.563-0.164,4.315-0.349,6.568-1.582c1.186-0.649,2.167-1.333,2.167-1.333s3.07,2.808,3.778,3.343
							c1.17,0.885,4.259,1.939,5.18,2.032c-0.833,3.5-0.852,3.439-2.5,5.833c-2.208,3.208-6.878,5.949-9.042,6.625
							c-3.003,0.938-6.304,1.041-9.398,0.488c-0.301-0.054-0.602-0.115-0.9-0.182c-3.79-0.855-7.203-2.528-9.494-5.556
							C718.702,174.688,717.211,169.769,716.7,164.715z M742.328,162.221c-0.743,1.415-1.933,2.503-3.647,2.915
							c-3.33,0.801-7.845,0.551-9.934-2.556c-2.518-3.745-1.416-9.806,2.311-12.386c1.429-0.989,3.224-1.47,4.953-1.388
							c2.187,0.103,4.256,1.327,5.546,3.097C743.434,154.48,743.95,159.13,742.328,162.221z M709.917,194.333
							c-0.715-2.436,0.083-5.292,1.307-7.715c1.734-3.432,6.901-5.618,6.901-5.618s7.917,6.292,16.208,7.042
							c6.735,0.609,9.936-1.724,13.542-4.125c0.152-0.149,1.958-1.25,1.958-1.25s2.485,3.449,3.75,7.125
							c0.875,2.542,1.375,6.458,1.292,9.25C754.801,198.899,710.79,194.444,709.917,194.333z M761.417,199.75
							c0.72-6.273-1.183-12.456-4.955-17.519c-0.611-0.82-1.753-2.647-1.753-2.647s2.125-4.958,2.25-7.25
							c3.625-0.583,6.186-3.728,7.326-7.337c1.139-3.609,0.595-9.373-1.867-12.246c-1.75-2.042-3.958-2.417-3.958-2.417
							s0.208-2.542,0-4.458c-0.54-4.97-2.477-8.5-5.314-12.615c-5.509-7.989-17.163-10.308-26.087-6.494
							c-8.924,3.814-15.032,12.676-17.275,22.118c-2.243,9.442-1.04,19.403,1.484,28.774c-4.885,3.701-8.057,9.575-8.471,15.69
							l-7.837-1.18c0,0,8.979-90.042,9.042-91.301c5.562,5.384,13.962,6.028,21.711,6.02c24.695-0.026,49.412,1.897,73.977,4.427
							c0.031,4.713-2.365,8.712-6.193,11.461c-1.103,0.792-2.334,1.448-3.219,2.478c-0.886,1.03-1.344,2.599-0.63,3.754
							c3.071-3.055,7.6-4.036,11.307-6.277c3.707-2.24,6.693-7.219,4.215-10.772c5.569,0.527,11.231,0.05,16.633-1.402
							l-7.137,94.334L761.417,199.75z"/>
					</g>
				</g>
			</g>
		</g>
	</g>
</g>
</svg>
