<?xml version="1.0" encoding="iso-8859-1"?>
<!-- Generator: Adobe Illustrator 18.1.1, SVG Export Plug-In . SVG Version: 6.00 Build 0)  -->
<svg version="1.1" baseProfile="tiny" id="Layer_1" xmlns="http://www.w3.org/2000/svg" xmlns:xlink="http://www.w3.org/1999/xlink"
	 x="0px" y="0px" viewBox="40.489 571.504 609.958 246.107" xml:space="preserve">
<g id="omusing_copy">
	<g>
		<path d="M108.369,751.4c-6.126-13.855-9.923-27.481-11.385-40.89c-1.466-13.408-0.334-26.002,3.389-37.789
			c3.723-11.784,10.149-22.559,19.283-32.322c9.136-9.763,21.259-17.988,36.374-24.672c14.69-6.498,28.685-9.924,41.98-10.286
			c13.292-0.358,25.585,2.012,36.873,7.107c11.29,5.094,21.465,12.665,30.525,22.713c9.062,10.049,16.751,22.207,23.064,36.48
			c6.201,14.023,10.013,27.746,11.433,41.173c1.42,13.427,0.221,26.027-3.604,37.81c-3.825,11.781-10.323,22.508-19.493,32.187
			c-9.17,9.678-21.188,17.802-36.046,24.376c-14.527,6.426-28.397,9.849-41.611,10.272c-13.214,0.423-25.49-1.848-36.825-6.826
			c-11.338-4.973-21.557-12.475-30.66-22.502C122.558,778.203,114.795,765.927,108.369,751.4z M157.361,729.73
			c9.211,20.825,19.48,35.079,30.811,42.765c11.329,7.691,24.049,8.411,38.155,2.172c13.852-6.126,21.838-15.985,23.963-29.572
			c2.122-13.588-1.441-30.835-10.689-51.741c-4.456-10.078-9.24-18.675-14.349-25.804c-5.11-7.125-10.533-12.63-16.267-16.52
			c-5.736-3.885-11.805-6.096-18.215-6.625c-6.409-0.528-13.182,0.786-20.315,3.942c-7.053,3.12-12.538,7.226-16.46,12.323
			c-3.918,5.1-6.372,11.078-7.352,17.935c-0.981,6.859-0.553,14.577,1.28,23.15C149.759,710.331,152.903,719.657,157.361,729.73z"/>
	</g>
	<g>
		<path d="M304.297,661.165c0-3.219,0.585-5.695,1.756-7.424c1.169-1.729,3.179-2.592,6.024-2.592c3.018,0,5.178,0.864,6.482,2.592
			c1.304,1.728,1.956,4.205,1.956,7.424c0.677-1.627,1.601-3.111,2.77-4.45c1.169-1.339,2.508-2.484,4.017-3.432
			s3.144-1.686,4.908-2.212c1.764-0.528,3.593-0.787,5.491-0.787c1.762,0,3.499,0.228,5.211,0.685
			c1.711,0.458,3.304,1.187,4.779,2.187c1.476,1,2.77,2.263,3.89,3.788s1.983,3.356,2.592,5.491c1.05-2.271,2.289-4.187,3.712-5.744
			c1.423-1.557,2.966-2.813,4.628-3.761c1.662-0.948,3.397-1.627,5.211-2.035c1.813-0.407,3.636-0.609,5.467-0.609
			c2.169,0,4.246,0.391,6.229,1.169c1.983,0.779,3.729,1.956,5.237,3.534s2.712,3.56,3.61,5.949
			c0.898,2.389,1.347,5.178,1.347,8.363v22.983c0,3.219-0.653,5.695-1.956,7.424c-1.304,1.729-3.467,2.592-6.482,2.592
			c-2.847,0-4.855-0.864-6.024-2.592c-1.169-1.729-1.755-4.205-1.755-7.424v-22.271c0-1.525-0.204-2.89-0.609-4.094
			c-0.406-1.204-0.975-2.22-1.703-3.05c-0.729-0.83-1.584-1.458-2.568-1.881c-0.985-0.423-2.035-0.636-3.152-0.636
			c-1.39,0-2.712,0.221-3.966,0.662c-1.253,0.44-2.347,1.12-3.281,2.034c-0.934,0.915-1.676,2.085-2.236,3.508
			c-0.56,1.423-0.84,3.135-0.84,5.135v20.593c0,3.219-0.653,5.695-1.956,7.424s-3.467,2.592-6.482,2.592
			c-2.847,0-4.855-0.864-6.024-2.592c-1.169-1.729-1.756-4.205-1.756-7.424v-21.304c0-3.491-0.72-6.135-2.161-7.931
			c-1.441-1.797-3.397-2.694-5.873-2.694c-1.458,0-2.813,0.237-4.068,0.711c-1.253,0.475-2.339,1.169-3.254,2.085
			s-1.636,2.05-2.161,3.406c-0.525,1.356-0.787,2.915-0.787,4.677v21.051c0,3.219-0.653,5.695-1.956,7.424s-3.467,2.592-6.482,2.592
			c-2.847,0-4.855-0.864-6.024-2.592c-1.169-1.729-1.756-4.205-1.756-7.424v-31.119L304.297,661.165L304.297,661.165z"/>
		<path d="M412.578,683.434c0,1.592,0.213,2.983,0.636,4.17c0.423,1.186,1.008,2.179,1.755,2.974
			c0.746,0.797,1.619,1.39,2.619,1.779c1,0.388,2.077,0.585,3.228,0.585c1.356,0,2.662-0.204,3.916-0.609
			c1.253-0.406,2.365-1.035,3.33-1.881s1.738-1.916,2.312-3.204c0.574-1.288,0.864-2.796,0.864-4.526v-21.56
			c0-3.219,0.585-5.695,1.756-7.424c1.169-1.729,3.179-2.592,6.024-2.592c3.018,0,5.178,0.864,6.482,2.592
			c1.304,1.728,1.956,4.205,1.956,7.424v31.119c0,3.219-0.653,5.695-1.956,7.424c-1.304,1.729-3.467,2.592-6.482,2.592
			c-2.847,0-4.855-0.864-6.024-2.592c-1.169-1.729-1.756-4.205-1.756-7.424c-0.711,1.56-1.636,2.983-2.77,4.272
			c-1.134,1.288-2.458,2.397-3.966,3.33c-1.508,0.933-3.17,1.654-4.984,2.161c-1.813,0.507-3.771,0.763-5.873,0.763
			c-2.271,0-4.45-0.399-6.535-1.196s-3.925-1.983-5.517-3.56c-1.592-1.577-2.864-3.534-3.814-5.873s-1.423-5.068-1.423-8.185
			v-22.829c0-3.219,0.585-5.695,1.756-7.424c1.17-1.729,3.179-2.592,6.024-2.592c3.018,0,5.178,0.864,6.482,2.592
			c1.304,1.729,1.956,4.205,1.956,7.424v22.269L412.578,683.434L412.578,683.434z"/>
		<path d="M466.912,664.775c0,1.321,0.577,2.347,1.729,3.076c1.152,0.729,2.747,1.33,4.779,1.805
			c1.934,0.44,3.916,0.864,5.949,1.271c2.033,0.407,4.017,0.872,5.949,1.399s3.747,1.143,5.441,1.855
			c1.694,0.711,3.187,1.601,4.474,2.669c1.287,1.067,2.304,2.357,3.05,3.864c0.746,1.508,1.12,3.313,1.12,5.415
			c0,2.645-0.542,4.992-1.627,7.042c-1.085,2.05-2.619,3.788-4.601,5.211c-1.983,1.423-4.348,2.525-7.094,3.304
			c-2.746,0.779-5.779,1.187-9.101,1.22c-3.152,0-6.188-0.195-9.101-0.585c-2.913-0.391-5.499-0.991-7.754-1.805
			c-2.254-0.814-4.059-1.822-5.415-3.026c-1.356-1.204-2.035-2.619-2.035-4.246c0-1.423,0.458-2.525,1.374-3.305
			s2.085-1.169,3.508-1.169c0.542,0,1.187,0.102,1.934,0.306c0.746,0.204,1.56,0.458,2.441,0.763
			c0.881,0.305,1.822,0.636,2.82,0.991c1,0.356,2.042,0.671,3.126,0.942c1.356,0.374,2.756,0.671,4.195,0.889
			c1.441,0.219,2.925,0.329,4.45,0.329c0.951,0,1.881-0.094,2.796-0.28c0.916-0.186,1.738-0.475,2.467-0.864
			c0.729-0.388,1.33-0.889,1.805-1.499c0.475-0.609,0.763-1.356,0.864-2.236c0.102-0.204,0.186-0.407,0.254-0.609
			c0.067-0.202,0.102-0.44,0.102-0.711c0-0.951-0.431-1.797-1.298-2.543c-0.865-0.746-2.077-1.339-3.636-1.779
			c-2.61-0.609-5.103-1.169-7.474-1.678c-2.371-0.507-4.567-1.05-6.584-1.627c-2.015-0.577-3.847-1.237-5.491-1.983
			s-3.033-1.662-4.17-2.747c-1.137-1.085-2.018-2.39-2.645-3.917c-0.627-1.526-0.942-3.373-0.942-5.544
			c0-2.339,0.534-4.432,1.601-6.28s2.602-3.397,4.601-4.653c2-1.256,4.424-2.212,7.27-2.872c2.847-0.662,6.068-0.991,9.661-0.991
			c6.441,0,11.347,0.77,14.72,2.312c3.373,1.543,5.059,3.551,5.059,6.024c0,1.39-0.458,2.449-1.374,3.179s-2.018,1.094-3.304,1.094
			c-0.677,0-1.382-0.129-2.111-0.382c-0.729-0.254-1.601-0.542-2.619-0.864c-1.018-0.322-2.228-0.609-3.636-0.864
			s-3.144-0.382-5.211-0.382c-1.56,0-2.974,0.067-4.246,0.204c-1.271,0.137-2.357,0.374-3.254,0.711
			c-0.898,0.339-1.592,0.797-2.085,1.374C467.15,663.162,466.912,663.894,466.912,664.775z"/>
		<path d="M523.668,633.045c0,1.12-0.254,2.111-0.763,2.974c-0.51,0.864-1.169,1.584-1.983,2.161s-1.756,1.008-2.823,1.298
			c-1.067,0.288-2.161,0.431-3.281,0.431c-1.186,0-2.312-0.151-3.382-0.458s-2.009-0.755-2.823-1.347s-1.458-1.312-1.934-2.161
			c-0.476-0.848-0.711-1.813-0.711-2.899c0-0.983,0.228-1.889,0.685-2.721c0.457-0.832,1.076-1.551,1.855-2.161
			c0.779-0.609,1.711-1.085,2.796-1.423c1.085-0.339,2.271-0.507,3.561-0.507c1.12,0,2.212,0.151,3.281,0.458
			s2.009,0.746,2.823,1.321c0.814,0.574,1.466,1.288,1.956,2.134C523.417,630.993,523.668,631.96,523.668,633.045z M522.907,692.281
			c0,3.219-0.653,5.695-1.956,7.424c-1.304,1.729-3.467,2.592-6.482,2.592c-2.847,0-4.855-0.864-6.024-2.592
			c-1.169-1.729-1.756-4.205-1.756-7.424v-31.118c0-3.219,0.585-5.695,1.756-7.424c1.17-1.729,3.179-2.592,6.024-2.592
			c3.018,0,5.178,0.864,6.482,2.592c1.304,1.729,1.956,4.205,1.956,7.424V692.281z"/>
		<path d="M530.952,661.165c0-3.219,0.585-5.695,1.755-7.424c1.169-1.729,3.179-2.592,6.024-2.592c3.018,0,5.178,0.864,6.482,2.592
			c1.304,1.728,1.956,4.205,1.956,7.424c0.609-1.627,1.493-3.111,2.645-4.45s2.516-2.484,4.094-3.432
			c1.577-0.948,3.313-1.686,5.211-2.212c1.898-0.526,3.898-0.787,6-0.787c2.169,0,4.281,0.391,6.331,1.169s3.855,1.956,5.415,3.534
			c1.56,1.577,2.813,3.56,3.761,5.949c0.948,2.389,1.423,5.178,1.423,8.363v22.983c0,3.219-0.653,5.695-1.956,7.424
			c-1.304,1.729-3.467,2.592-6.482,2.592c-2.847,0-4.855-0.864-6.024-2.592c-1.169-1.729-1.755-4.205-1.755-7.424v-22.271
			c0-1.627-0.213-3.042-0.636-4.246c-0.423-1.204-1.008-2.204-1.755-3.001s-1.619-1.399-2.619-1.805
			c-1-0.406-2.077-0.609-3.228-0.609c-1.423,0-2.77,0.228-4.041,0.685c-1.271,0.458-2.373,1.143-3.305,2.059
			c-0.931,0.916-1.67,2.05-2.212,3.406c-0.542,1.356-0.814,2.933-0.814,4.73v21.051c0,3.219-0.653,5.695-1.956,7.424
			c-1.304,1.729-3.467,2.592-6.482,2.592c-2.847,0-4.855-0.864-6.024-2.592c-1.169-1.729-1.756-4.205-1.756-7.424L530.952,661.165z"
			/>
		<path d="M627.015,692.485c-0.916,1.694-2.026,3.135-3.33,4.321c-1.304,1.186-2.747,2.161-4.321,2.925
			c-1.574,0.764-3.254,1.321-5.033,1.678c-1.779,0.356-3.602,0.534-5.467,0.534c-3.12,0-5.967-0.56-8.543-1.678
			c-2.578-1.118-4.788-2.738-6.636-4.855c-1.848-2.117-3.281-4.72-4.296-7.805c-1.016-3.085-1.525-6.611-1.525-10.576
			c0-3.729,0.475-7.22,1.423-10.474c0.948-3.254,2.33-6.086,4.144-8.491s4.041-4.305,6.686-5.695c2.645-1.39,5.66-2.085,9.051-2.085
			c3.864,0,7.296,0.746,10.296,2.236c3.001,1.49,5.584,3.931,7.754,7.322v-1.321c0-2.441,0.671-4.281,2.009-5.517
			c1.339-1.237,3.195-1.856,5.566-1.856c1.423,0,2.627,0.228,3.61,0.685c0.983,0.458,1.762,1.134,2.339,2.035
			c0.577,0.9,0.991,2,1.245,3.304c0.254,1.304,0.382,2.788,0.382,4.45v34.068c0,4.135-0.517,7.829-1.551,11.084
			s-2.635,6-4.806,8.238c-2.17,2.238-4.949,3.939-8.34,5.109c-3.391,1.169-7.424,1.756-12.101,1.756
			c-3.289,0-6.194-0.143-8.721-0.431c-2.527-0.288-4.704-0.72-6.535-1.298c-1.831-0.644-3.211-1.356-4.144-2.134
			c-0.932-0.779-1.399-1.797-1.399-3.05c0-0.711,0.102-1.39,0.306-2.035c0.204-0.644,0.517-1.213,0.941-1.703
			c0.425-0.49,0.983-0.881,1.678-1.169c0.695-0.288,1.551-0.431,2.568-0.431c1.085,0,2.179,0.067,3.281,0.204
			s2.254,0.28,3.459,0.431c1.204,0.151,2.476,0.297,3.814,0.431s2.788,0.204,4.348,0.204c1.864,0,3.526-0.186,4.984-0.56
			c1.458-0.374,2.694-1.035,3.712-1.983c1.018-0.948,1.797-2.212,2.339-3.788c0.542-1.576,0.814-3.584,0.814-6.024v-6.053h0V692.485
			z M627.015,676.672c0-2.476-0.178-4.73-0.534-6.762c-0.356-2.033-0.957-3.771-1.805-5.211c-0.848-1.44-1.983-2.56-3.406-3.356
			c-1.423-0.797-3.204-1.196-5.339-1.196c-2.102,0-3.84,0.423-5.211,1.271c-1.371,0.848-2.467,2.018-3.281,3.508
			s-1.382,3.237-1.703,5.237s-0.484,4.135-0.484,6.406c0,5.187,0.916,9.086,2.746,11.695c1.831,2.61,4.491,3.917,7.984,3.917
			c1.627-0.035,3.111-0.347,4.45-0.942s2.5-1.517,3.483-2.77c0.983-1.253,1.746-2.847,2.289-4.779
			C626.745,681.758,627.015,679.418,627.015,676.672z"/>
	</g>
	<g>
		<path d="M409.135,745.525h-4.575l4.779-27.097h4.575L409.135,745.525z M412.923,708.536c0.779-0.032,1.428,0.197,1.944,0.687
			c0.517,0.493,0.775,1.139,0.775,1.942c-0.017,0.786-0.275,1.428-0.775,1.929c-0.499,0.501-1.148,0.768-1.944,0.8
			c-0.797,0.035-1.449-0.191-1.956-0.677c-0.507-0.485-0.755-1.12-0.738-1.902c0.017-0.784,0.272-1.436,0.763-1.953
			C411.484,708.846,412.128,708.569,412.923,708.536z"/>
		<path d="M417.983,731.926c0.339-2.756,1.11-5.243,2.312-7.463c1.202-2.22,2.686-3.884,4.45-4.984s3.704-1.627,5.822-1.577
			c3.068,0.067,5.423,1.169,7.069,3.304l2.645-14.149h4.601l-6.762,38.468h-4.195l0.484-2.905c-2.169,2.336-4.847,3.473-8.034,3.406
			c-2.543-0.067-4.567-1.048-6.077-2.942s-2.322-4.437-2.441-7.626C417.805,734.474,417.848,733.296,417.983,731.926z
			 M422.406,734.515c-0.05,2.384,0.382,4.235,1.298,5.554c0.916,1.317,2.254,1.991,4.017,2.026c2.662,0.117,5.024-1.199,7.094-3.953
			l2.187-12.505c-1.018-2.468-2.864-3.736-5.544-3.801c-1.813-0.05-3.411,0.488-4.793,1.614s-2.432,2.701-3.152,4.728
			C422.793,730.202,422.424,732.315,422.406,734.515z"/>
		<path d="M456.455,746.026c-3.424-0.067-6.101-1.31-8.034-3.731c-1.934-2.422-2.747-5.517-2.441-9.292l0.129-1.076
			c0.288-2.688,1.097-5.142,2.427-7.363c1.33-2.22,2.953-3.895,4.868-5.02c1.916-1.126,3.984-1.666,6.202-1.614
			c2.831,0.067,5.051,0.994,6.66,2.78c1.61,1.786,2.49,4.206,2.645,7.263c0.05,1.085,0.017,2.169-0.102,3.254l-0.28,2.078h-17.974
			c-0.306,2.454,0.106,4.541,1.232,6.261c1.128,1.721,2.81,2.614,5.046,2.68c2.712,0.067,5.22-1.134,7.526-3.605l2.645,2.204
			c-1.152,1.636-2.64,2.918-4.463,3.844C460.72,745.614,458.691,746.059,456.455,746.026z M459.379,721.708
			c-1.899-0.05-3.556,0.585-4.97,1.902c-1.414,1.317-2.538,3.281-3.37,5.886l13.373,0.024l0.102-0.401
			c0.272-2.104-0.072-3.853-1.031-5.246C462.525,722.481,461.158,721.758,459.379,721.708z"/>
		<path d="M487.555,745.525c-0.119-0.484-0.178-0.959-0.178-1.428l0.076-1.428c-2.525,2.304-5.202,3.424-8.034,3.356
			c-2.424-0.035-4.394-0.79-5.911-2.268c-1.519-1.477-2.209-3.326-2.072-5.547c0.169-2.872,1.444-5.113,3.828-6.725
			c2.383-1.612,5.512-2.417,9.394-2.417l4.806,0.024l0.306-2.155c0.169-1.619-0.148-2.901-0.953-3.844
			c-0.805-0.943-2.013-1.432-3.623-1.465c-1.577-0.032-2.969,0.347-4.183,1.139c-1.213,0.794-1.953,1.842-2.223,3.144l-4.628,0.026
			c0.151-1.586,0.779-2.992,1.881-4.219c1.102-1.226,2.516-2.179,4.246-2.855c1.729-0.677,3.516-0.997,5.366-0.964
			c2.864,0.067,5.094,0.922,6.686,2.567c1.592,1.644,2.263,3.828,2.009,6.549l-2.236,13.425l-0.129,1.929
			c-0.035,0.918,0.067,1.829,0.306,2.729l-0.05,0.425H487.555L487.555,745.525z M480.335,742.02
			c1.476,0.035,2.869-0.312,4.183-1.039c1.312-0.725,2.446-1.732,3.394-3.018l0.991-5.584l-3.483-0.024
			c-2.899,0-5.118,0.452-6.66,1.352c-1.543,0.9-2.414,2.178-2.619,3.831c-0.151,1.269,0.148,2.325,0.902,3.168
			C477.799,741.547,478.894,741.987,480.335,742.02z"/>
		<path d="M513.985,738.187c0.254-1.87-0.787-3.189-3.126-3.957l-4.779-1.377c-4.033-1.369-5.983-3.64-5.846-6.813
			c0.119-2.387,1.223-4.345,3.317-5.873c2.093-1.527,4.556-2.274,7.385-2.241c2.78,0.032,5.038,0.83,6.775,2.39
			c1.738,1.562,2.573,3.594,2.503,6.099l-4.575-0.026c0.035-1.352-0.399-2.454-1.298-3.305c-0.898-0.852-2.093-1.295-3.584-1.328
			c-1.592-0.035-2.966,0.351-4.117,1.152c-1.067,0.751-1.686,1.735-1.855,2.955c-0.221,1.568,0.755,2.712,2.925,3.432l2.312,0.627
			c3.152,0.8,5.389,1.845,6.713,3.131c1.324,1.286,1.934,2.879,1.831,4.784c-0.102,1.686-0.662,3.157-1.678,4.408
			c-1.016,1.251-2.373,2.209-4.068,2.869c-1.694,0.66-3.499,0.964-5.415,0.913c-2.915-0.035-5.321-0.872-7.22-2.516
			c-1.899-1.644-2.813-3.76-2.747-6.348l4.601,0.026c0,1.519,0.493,2.738,1.476,3.656c0.983,0.918,2.33,1.377,4.041,1.377
			c1.676,0.035,3.126-0.312,4.348-1.039C513.123,740.455,513.816,739.458,513.985,738.187z"/>
		<path d="M546.645,711.866l-1.169,6.56h5.009l-0.636,3.582h-4.984l-2.872,16.896c-0.05,0.436-0.059,0.838-0.026,1.207
			c0.119,1.306,0.84,1.959,2.161,1.959c0.56,0,1.306-0.084,2.236-0.251l-0.356,3.739c-1.102,0.297-2.22,0.445-3.356,0.445
			c-1.831-0.035-3.204-0.696-4.117-1.989c-0.913-1.293-1.271-3.036-1.067-5.221l2.796-16.779h-4.855l0.636-3.582h4.855l1.169-6.56
			h4.575v-0.005H546.645z"/>
		<path d="M564.767,717.927c2.304,0.032,4.281,0.651,5.922,1.853c1.643,1.202,2.859,2.859,3.65,4.973
			c0.79,2.113,1.054,4.419,0.8,6.923l-0.05,0.552c-0.321,2.638-1.12,5.021-2.39,7.149c-1.271,2.128-2.915,3.785-4.931,4.973
			c-2.015,1.186-4.229,1.744-6.636,1.678c-2.289-0.035-4.259-0.651-5.911-1.853c-1.654-1.202-2.859-2.837-3.623-4.908
			c-0.763-2.069-1.035-4.35-0.814-6.837c0.254-2.805,1.026-5.326,2.312-7.562c1.286-2.236,2.944-3.971,4.97-5.196
			C560.094,718.442,562.326,717.862,564.767,717.927z M555.413,732.451c-0.119,1.053-0.119,2.145,0,3.281
			c0.169,1.97,0.768,3.54,1.792,4.708c1.024,1.167,2.395,1.777,4.106,1.829c1.525,0.05,2.933-0.321,4.219-1.115
			c1.288-0.794,2.373-1.991,3.254-3.594c0.881-1.603,1.449-3.38,1.703-5.332c0.135-1.536,0.161-2.831,0.076-3.884
			c-0.204-2.02-0.822-3.615-1.856-4.784c-1.034-1.169-2.406-1.788-4.118-1.853c-2.373-0.05-4.389,0.868-6.051,2.756
			s-2.686,4.356-3.076,7.414L555.413,732.451z"/>
		<path d="M483.899,780.237l3.352-18.898h-3.413l0.512-2.879h3.391l0.367-2.578c0.353-2.187,1.213-3.896,2.575-5.133
			c1.43-1.288,3.254-1.918,5.476-1.892c0.695,0,1.575,0.115,2.635,0.345l-0.451,3.057c-0.653-0.135-1.315-0.215-1.983-0.24
			c-1.28,0-2.319,0.393-3.115,1.174c-0.797,0.784-1.291,1.822-1.482,3.12l-0.326,2.147h4.575l-0.51,2.879h-4.575l-3.33,18.898h-3.7
			V780.237z"/>
		<path d="M500.407,780.237h-3.677l3.842-21.778h3.677L500.407,780.237z M503.452,750.509c0.627-0.026,1.148,0.159,1.565,0.553
			c0.415,0.395,0.622,0.916,0.622,1.56c-0.013,0.631-0.221,1.148-0.622,1.549c-0.401,0.401-0.922,0.619-1.565,0.644
			c-0.641,0.028-1.164-0.154-1.573-0.542c-0.407-0.388-0.606-0.898-0.592-1.53c0.013-0.631,0.218-1.154,0.614-1.571
			C502.294,750.758,502.813,750.536,503.452,750.509z"/>
		<path d="M513.791,758.44l-0.531,2.758c1.989-2.145,4.251-3.193,6.784-3.139c2.083,0.054,3.623,0.766,4.617,2.133
			c0.994,1.369,1.363,3.295,1.102,5.778l-2.411,14.271h-3.699l2.432-14.316c0.083-0.657,0.089-1.267,0.019-1.829
			c-0.232-1.877-1.356-2.836-3.371-2.875c-2.22-0.041-4.168,1.126-5.843,3.497l-2.738,15.523h-3.699l3.842-21.778L513.791,758.44z"
			/>
		<path d="M528.569,769.307c0.272-2.215,0.892-4.213,1.859-5.999c0.967-1.783,2.158-3.12,3.575-4.005s2.977-1.309,4.68-1.267
			c2.467,0.054,4.361,0.94,5.677,2.658l2.126-11.372h3.699l-5.437,30.916h-3.373l0.391-2.335c-1.743,1.878-3.896,2.79-6.457,2.738
			c-2.044-0.054-3.671-0.841-4.884-2.365c-1.213-1.523-1.866-3.567-1.961-6.129C528.426,771.355,528.46,770.409,528.569,769.307z
			 M532.124,771.388c-0.041,1.916,0.306,3.405,1.042,4.463s1.811,1.601,3.228,1.627c2.139,0.094,4.039-0.965,5.7-3.176l1.759-10.051
			c-0.818-1.983-2.301-3.001-4.454-3.055c-1.458-0.041-2.742,0.393-3.853,1.298c-1.11,0.905-1.955,2.172-2.534,3.799
			C532.433,767.918,532.138,769.62,532.124,771.388z"/>
		<path d="M563.307,780.237h-3.677l3.842-21.778h3.677L563.307,780.237z M566.351,750.509c0.627-0.026,1.148,0.159,1.565,0.553
			c0.415,0.395,0.622,0.916,0.622,1.56c-0.013,0.631-0.221,1.148-0.622,1.549c-0.401,0.401-0.924,0.619-1.565,0.644
			c-0.641,0.028-1.163-0.154-1.573-0.542c-0.407-0.388-0.607-0.898-0.592-1.53c0.013-0.631,0.219-1.154,0.612-1.571
			C565.195,750.758,565.711,750.536,566.351,750.509z"/>
		<path d="M570.417,769.307c0.273-2.215,0.892-4.213,1.859-5.999c0.967-1.783,2.158-3.12,3.575-4.005
			c1.414-0.886,2.977-1.309,4.677-1.267c2.467,0.054,4.361,0.94,5.679,2.658l2.123-11.372h3.699l-5.434,30.916h-3.373l0.391-2.335
			c-1.744,1.878-3.896,2.79-6.458,2.738c-2.042-0.054-3.671-0.841-4.884-2.365c-1.213-1.523-1.866-3.567-1.961-6.129
			C570.276,771.355,570.308,770.409,570.417,769.307z M573.975,771.388c-0.043,1.916,0.306,3.405,1.039,4.463
			c0.738,1.059,1.811,1.601,3.228,1.627c2.139,0.094,4.038-0.965,5.701-3.176l1.757-10.051c-0.816-1.983-2.301-3.001-4.454-3.055
			c-1.458-0.041-2.742,0.393-3.85,1.298c-1.108,0.905-1.955,2.172-2.534,3.799C574.283,767.918,573.988,769.62,573.975,771.388z"/>
		<path d="M600.751,780.641c-2.751-0.054-4.903-1.053-6.457-2.998c-1.554-1.944-2.209-4.434-1.961-7.468l0.102-0.865
			c0.232-2.161,0.881-4.133,1.95-5.919c1.07-1.783,2.376-3.131,3.914-4.035c1.541-0.907,3.203-1.339,4.986-1.299
			c2.276,0.054,4.059,0.798,5.354,2.234c1.295,1.436,2.002,3.382,2.123,5.836c0.041,0.872,0.013,1.744-0.081,2.616l-0.226,1.67
			h-14.445c-0.245,1.972,0.084,3.651,0.991,5.031c0.905,1.382,2.257,2.101,4.055,2.155c2.18,0.054,4.195-0.911,6.048-2.899
			l2.123,1.77c-0.927,1.315-2.123,2.346-3.586,3.09C604.18,780.307,602.551,780.666,600.751,780.641z M603.102,761.096
			c-1.527-0.041-2.858,0.471-3.996,1.53c-1.137,1.061-2.039,2.635-2.707,4.73l10.748,0.019l0.083-0.321
			c0.217-1.69-0.059-3.096-0.829-4.218C605.632,761.716,604.534,761.137,603.102,761.096z"/>
		<path d="M625.158,780.237c-0.095-0.388-0.141-0.77-0.141-1.148l0.061-1.148c-2.031,1.853-4.183,2.751-6.458,2.697
			c-1.946-0.028-3.532-0.633-4.749-1.822c-1.22-1.186-1.775-2.673-1.666-4.458c0.135-2.306,1.161-4.109,3.074-5.404
			c1.916-1.295,4.432-1.942,7.551-1.942l3.861,0.019l0.243-1.732c0.137-1.301-0.119-2.333-0.766-3.09
			c-0.649-0.759-1.619-1.15-2.912-1.178c-1.267-0.026-2.389,0.278-3.362,0.916c-0.973,0.638-1.571,1.479-1.788,2.527l-3.718,0.019
			c0.124-1.274,0.627-2.404,1.512-3.391c0.883-0.985,2.023-1.751,3.411-2.295c1.39-0.542,2.826-0.8,4.311-0.775
			c2.304,0.054,4.094,0.741,5.377,2.063c1.28,1.321,1.818,3.076,1.612,5.264l-1.797,10.789l-0.102,1.549
			c-0.028,0.738,0.052,1.468,0.243,2.193l-0.041,0.342h-3.753v0.004H625.158z M619.356,777.419c1.187,0.028,2.306-0.251,3.362-0.835
			c1.054-0.585,1.964-1.393,2.727-2.425l0.798-4.488l-2.801-0.019c-2.328,0-4.113,0.362-5.352,1.086
			c-1.241,0.725-1.944,1.751-2.107,3.079c-0.124,1.02,0.119,1.867,0.727,2.545C617.317,777.039,618.197,777.393,619.356,777.419z"/>
		<path d="M645.44,774.34c0.204-1.501-0.633-2.562-2.514-3.181l-3.842-1.107c-3.241-1.1-4.808-2.925-4.699-5.474
			c0.095-1.918,0.985-3.491,2.667-4.72c1.681-1.226,3.661-1.827,5.934-1.8c2.234,0.028,4.049,0.668,5.445,1.923
			c1.398,1.256,2.067,2.89,2.013,4.901l-3.677-0.019c0.028-1.086-0.318-1.972-1.039-2.658c-0.722-0.684-1.684-1.039-2.88-1.067
			c-1.282-0.026-2.384,0.282-3.311,0.927c-0.859,0.603-1.354,1.398-1.493,2.376c-0.175,1.263,0.606,2.18,2.349,2.758l1.859,0.504
			c2.534,0.644,4.332,1.484,5.393,2.516c1.064,1.035,1.554,2.315,1.473,3.844c-0.083,1.356-0.531,2.536-1.35,3.543
			c-0.818,1.007-1.907,1.775-3.27,2.304c-1.363,0.531-2.813,0.775-4.352,0.735c-2.343-0.028-4.278-0.701-5.803-2.024
			c-1.525-1.321-2.263-3.022-2.209-5.103l3.699,0.019c0,1.221,0.395,2.202,1.185,2.937c0.79,0.738,1.872,1.107,3.249,1.107
			c1.347,0.028,2.513-0.251,3.492-0.835C644.746,776.161,645.304,775.361,645.44,774.34z"/>
	</g>
</g>
<g id="hotairballoonColor_copy_2">
	<g>
		<g>
			<path fill="#F4794E" d="M193.741,750.962c0.032-0.054,0.07-0.106,0.102-0.162l-0.52-0.035c0.609-1.252,0.9-2.233,0.9-2.233
				s-1.231-1.479-1.807-2.08c1.263-1.425,2.024-2.382,2.443-2.933c0.073-0.267,0.151-0.529,0.25-0.787l-8.882-11.611l-1.708-2.23
				c0.226-0.633,0.329-1.299,0.351-1.931c0.065-0.228,0.137-0.493,0.208-0.762c0.875-1.349,1.243-2.896,1.336-3.316
				c0.232-1.024,0.302-2.271,0.183-3.445c0.1-0.488,0.197-0.975,0.296-1.465l0,0c0.72,0.215,3.599-5.372,4.289-7.01
				c0.026,0.089,0.061,0.151,0.113,0.167c0.983,0.28,6.368-13.163,9.943-27.118c7.381-28.812,4.671-50.504,3.977-55.502
				c-2.508-18.061-7.662-26.921-9.221-29.469c-5.744-9.399-12.398-14.534-13.739-15.549c-12.583-9.515-26.437-10.919-28.475-10.587
				c-0.844-0.162-1.458-0.226-1.447-0.046c0,0,0.609,0.329,1.666,0.957c-2.369-0.965-4.178-1.46-5.191-1.716
				c-7.728-1.944-20.248,1.514-20.248,1.514s0.666-0.404,1.805,0.312c-1.161-0.254-2.102-0.306-2.979-0.312
				c-6.428-0.043-17.12,3.302-19.647,4.734c-1.264,0.032-2.556,0.161-3.874,0.44c-3.082,0.657-10.123,4.305-10.197,4.339
				c0.035-0.017,0.139,0.008,0.224,0.022c-7.252,1.471-13.143,6.113-13.058,7.212c0.008,0.124,0.105,0.218,0.248,0.297
				c-0.423,0.256-0.82,0.564-1.18,0.93c-1.115,0.542-3.348,1.803-5.789,3.812c2.478-1.789,4.464-2.953,5.576-3.575
				c-0.017,0.019-0.037,0.04-0.054,0.059c-1.881,1.021-5.154,3.015-8.079,5.873c0.851-0.876,1.714-1.66,2.557-2.357
				c-2.79,2.013-6.161,4.801-9.491,8.448c-2.093,1.711-16.56,14.733-19.582,26.65c-0.369,1.454-0.641,2.902-0.864,4.35
				c-1.169,2.766-2.413,6.43-3.115,10.86c-0.87,5.476-0.534,9.711-0.339,11.999c0.037,0.442,0.111,0.868,0.159,1.306
				c-0.568,4.426-0.66,10.016,0.875,16.191c1.193,4.799,2.521,9.157,5.032,13.392c0.544,0.918,1.341,1.983,1.896,2.894
				c6.617,10.843,15.549,20.181,26.805,26.336c6.144,3.36,12.7,5.558,19.1,8.324c5.932,2.565,12.207,4.464,18.287,6.665
				c32.382,11.719,33.677,13.163,37.802,12.856c2.257-0.167,4.957-0.173,7.012,0.872c0.415,0.21,0.82,0.49,1.029,0.905
				c0.197,0.393,0.741,0.425,0.985,0.792c0.644,0.978,1.345,1.164,2.234,1.05c0.275-0.037,0.566-0.121,0.851-0.226l11.522,9.435
				l1.821,0.722c0,0,2.551-1.285,5.655-3.322c0.458,0.729,1.423,2.002,1.423,2.002s3.996-0.824,6.843-2.915
				c1.501-1.104,2.554-2.762,3.23-4.122C193.429,750.908,193.585,750.929,193.741,750.962z M64.836,611.866
				c0.139-2.3,0.607-4.089,1.172-5.595c0.148-0.395,0.323-0.768,0.493-1.148C65.664,607.31,65.133,609.571,64.836,611.866z
				 M91.041,644.177c4.2,6.11,9.192,12.856,15.695,22.115C102.099,660.231,96.745,652.879,91.041,644.177z M137.238,626.699
				c-0.868-1.69-1.751-3.715-2.758-5.956c1.401,2.673,2.677,5.407,3.877,8.179C137.984,628.169,137.612,627.424,137.238,626.699z
				 M153.21,612.235c2.84,4.634,5.175,9.219,7.131,13.656C157.785,620.503,155.38,615.989,153.21,612.235z M182.993,600.919
				c0.835,1.434,1.753,3.141,2.667,5.089C184.79,604.201,183.896,602.503,182.993,600.919z"/>
		</g>
	</g>
</g>
<g id="hotairballoonColor_copy_3">
	<path fill="#231F20" stroke="#231F20" stroke-width="0.1" stroke-miterlimit="10" d="M181.544,755.461
		c0.097,0.388,1.66,2.441,1.66,2.441s3.996-0.824,6.843-2.915c2.936-2.158,4.176-6.455,4.176-6.455s-1.7-2.048-2.042-2.308
		c0,0-0.876-0.776-2.996-0.695C184.829,745.705,180.533,751.414,181.544,755.461z"/>
	<path fill="#FABCA8" d="M153.51,573.004c-0.143,0.471,8.774,1.729,18.441,8.858c1.56,1.15,7.686,5.808,13.739,15.006
		c2.141,3.254,8.979,14.23,12.112,33.807c3.645,22.772,0.011,43.008-3.435,62.193c-1.846,10.28-3.807,18.05-3.074,18.26
		c0.983,0.28,6.368-13.163,9.943-27.118c7.381-28.812,4.671-50.504,3.977-55.502c-2.508-18.061-7.662-26.921-9.221-29.469
		c-5.744-9.399-12.398-14.534-13.739-15.549C168.72,573.254,153.695,572.401,153.51,573.004z"/>
	<path fill="#F69472" d="M184.787,715.831c1.892,0.852,2.179,4.606,1.627,7.051c-0.162,0.722-1.089,4.83-4.159,5.423
		c-2.729,0.529-5.673-2.007-6.146-4.518C175.279,719.366,182.009,714.577,184.787,715.831z"/>
	<path fill="#EF4523" d="M42.94,648.557c-0.095,7.079,0.709,19.801,7.6,33.28c5.051,9.878,12.296,19.254,21.441,25.568
		c3.033,2.093,6.654,4.341,9.9,6.096c4.038,2.182,15.206,8.155,32.341,15.729c12.913,5.708,26.078,11.418,39.72,15.13
		c2.506,0.681,4.708,1.724,7.139,2.649c0.9,0.34,3.408,1.167,3.408,1.167s-1.412,0.964-2.557,1.113
		c-0.889,0.115-1.592-0.07-2.234-1.05c-0.24-0.367-0.787-0.399-0.985-0.792c-0.208-0.417-0.614-0.695-1.029-0.905
		c-2.055-1.048-4.755-1.042-7.012-0.872c-4.122,0.306-5.42-1.137-37.802-12.854c-6.077-2.2-12.355-4.1-18.287-6.665
		c-6.4-2.766-12.956-4.964-19.1-8.324c-11.253-6.155-20.187-15.493-26.805-26.336c-0.555-0.911-1.352-1.977-1.896-2.894
		c-2.51-4.235-3.84-8.594-5.032-13.392c-2.285-9.199-0.987-17.166,0.169-21.789L42.94,648.557z"/>
	<path fill="#F69472" d="M152.336,572.859c0,0,17.244,9.342,27.481,23.198c1.152,1.56,6.164,8.513,9.221,18.804
		c1.067,3.594,1.767,7.15,2.802,20.61c0.937,12.164,1.406,18.246,1.447,25.041c0.178,29.815-9.114,56.655-6.391,57.463
		c0.77,0.23,4.016-6.188,4.402-7.293c4.083-11.687,6.304-23.702,7.338-36.038c2.111-25.223,2.43-51.45-9.357-74.518
		c-3.241-6.344-7.047-11.36-12.406-16.052c-2.315-2.026-4.905-3.413-7.359-5.192c-4.391-3.182-9.025-4.319-12.043-5.097
		C155.458,573.266,152.31,572.447,152.336,572.859z"/>
	<path fill="#F68F68" d="M44.855,633.299c-0.321,5.515-0.197,13.769,2.441,23.188c5.827,20.798,20.098,33.612,31.592,43.933
		c9.789,8.788,18.438,14.178,25.357,18.441c9.232,5.69,19.96,12.303,33.492,16.679c18.454,5.967,27.681,8.949,27.796,8.949
		c0.232,0,1.323-0.032,1.627,0.542c0.317,0.598-0.345,1.625-0.951,2.169c-0.21,0.191-0.851,0.781-1.762,0.814
		c-0.501,0.017-0.864-0.141-1.187-0.272c-0.943-0.382-1.961-0.555-2.915-0.916c-1.657-0.625-10.218-2.959-21.652-6.771
		c-7.459-2.486-16.15-5.711-24.906-9.125c-18.484-7.209-28.479-11.177-39.578-18.917c-6.226-4.341-11.507-8.025-17.152-14.712
		c0,0-14.416-17.077-16.339-39.594c-0.195-2.289-0.529-6.525,0.339-11.999C41.9,640.4,43.516,636.176,44.855,633.299z"/>
	<path fill="#F68F6C" d="M128.56,573.616c0,0,16.197,8.58,30.011,23.797c11.334,12.484,14.547,25.604,19.163,44.475
		c0,0,8.847,36.151,5.786,80.995c-0.083,1.193,0.278,5.547,0.69,5.604c0.838,0.119,4.178-18.289,4.44-19.796
		c2.371-13.612,3.936-27.05,4.632-44.384c0.889-22.116,1.334-33.171-3.254-47.366c-6.595-20.398-18.069-31-20.61-33.265
		c-9.533-8.507-17.912-10.893-20.61-11.57C141.08,570.157,128.56,573.616,128.56,573.616z"/>
	<path fill="#F9A98A" d="M64.877,603.648c0.226-0.04-13.36,19.031-12.837,36.294c0.44,14.501,7.837,25.181,13.968,34.036
		c8.661,12.505,18.567,20.229,34.712,32.813c5.105,3.979,9.176,6.821,12.883,9.221c7.748,5.018,13.839,8.068,20.476,11.39
		c11.614,5.814,17.623,8.383,23.118,9.967c3.84,1.107,13.869,3.475,13.661,4.984c-0.043,0.321-1.25,1.299-2.304,2.169
		c-0.765,0.631-0.983,0.913-1.326,1.05c-0.905,0.364-1.792,0.006-2.621-0.388c-1.549-0.738-3.111-1.508-4.766-1.985
		c-0.833-0.24-2.053-0.937-2.441-1.018c-4.521-0.935-8.941-2.339-13.278-3.907c-4.129-1.495-8.192-3.168-12.206-4.944
		c-3.445-1.525-6.834-2.766-10.21-4.44c-4.623-2.291-9.086-5.044-13.583-7.578c-4.482-2.525-8.91-5.151-13.252-7.91
		c-6.245-3.968-12.386-8.192-18.013-13.009c-8.726-7.47-13.243-12.557-15.549-15.451c-12.206-15.316-21.318-34.553-16.271-54.446
		C48.274,617.733,64.651,603.689,64.877,603.648z"/>
	<path fill="#F89E7E" d="M80.651,591.265c-0.076-0.095-10.787,4.72-14.644,15.006c-1.644,4.385-2.536,11.073,3.435,26.215
		c2.369,6.012,8.095,19.116,26.576,41.943c6.387,7.891,14.111,17.358,26.034,28.566c16.846,15.835,25.27,23.753,35.797,28.023
		c6.053,2.454,14.804,4.297,14.825,8.316c0.011,2.061-1.733,4.4-3.616,4.339c-2.023-0.065-2.382-0.361-5.488-2.745
		c-2.885-2.215-1.43-1.974-2.885-2.215c-8.409-1.387-35.843-15.612-44.957-20.895c-11.231-6.511-29.772-17.462-47.186-37.603
		c-9.711-11.231-15.892-18.575-18.079-30.553c-3.182-17.438,4.485-31.633,6.509-35.254C66.027,598.196,80.74,591.378,80.651,591.265
		z"/>
	<path fill="#F68D6A" d="M107.189,578.825c-0.002,0.905,8.263,1.285,16.813,4.339c11.296,4.035,17.629,12.529,24.407,21.875
		c14.058,19.383,18.581,38.81,21.333,51.164c3.278,14.725,4.192,27.767,4.881,37.603c1.42,20.283,0.703,37.673,5.062,38.508
		c1.38,0.264,3.593-1.067,4.519-2.712c1.213-2.148,0.428-5.176,0.362-5.423c-0.165-0.607-0.44-2.191-0.44-2.191l0,0
		c0.714-19.1,1.525-20.407,1.525-20.407c1.154-33.92-6.6-63.277-6.6-63.277c-3.146-11.398-6.552-22.667-15.275-35.617
		c-3.063-4.55-8.211-13.957-19.706-21.695c-10.197-6.864-13.779-7.359-16.684-7.379C120.061,573.567,107.191,577.92,107.189,578.825
		z"/>
	<path fill="#F37145" d="M93.668,583.129c0.455-0.218,5.267,2.223,5.779,2.519c1.894,1.089,3.82,2.096,5.673,3.26
		c3.693,2.324,7.201,4.943,10.483,7.818c6.656,5.83,12.387,12.72,16.862,20.354c6.253,10.671,10.016,22.578,14.631,34.055
		c5.176,12.872,10.641,25.2,14.019,38.697c1.577,6.302,3.829,12.609,5.565,18.927c1.454,5.291,2.848,10.611,4.529,15.835
		c0.798,2.478,2.723,10.956,6.525,10.76c1.592-0.081,4.027-2.102,4.519-4.339c0.404-1.835,1.158-4.645-0.282-7.209
		c-1.209-2.152-1.035-2.519-2.406-4.847c-3.627-6.156-5.065-35.168-6.892-47.064c-2.57-16.733-5.202-29.855-8.86-38.328
		c-9.106-21.1-17.045-31.666-19.887-35.254c-8.095-10.223-15.008-14.039-19.12-15.477c-4.116-1.438-12.015-5.951-20.943-4.049
		C100.782,579.448,93.743,583.094,93.668,583.129z"/>
	<path fill="#F68D6A" d="M81.194,591.084c0,0-3.697,6.539-5.062,14.644c-1.724,10.245,2.788,19.205,10.668,31.819
		c11.201,17.934,21.568,31.024,28.204,39.231c18.707,23.138,28.602,33.805,34.349,37.786c10.006,6.932,27.299,19.526,26.757,22.147
		c-0.542,2.621-1.124,2.68-2.042,3.192c-0.512,0.286-2,2.035-2.568,1.794c-0.208-0.089-1.668-0.374-1.721-0.595
		c-0.439-1.813-2.247-2.872-3.642-4.106c-1.287-1.139-3.052-1.929-4.4-2.993c-2.532-2.007-6.328-3.51-8.949-5.243
		c-3.146-2.08-6.287-4.094-9.286-6.387c-6.652-5.087-11.787-9.798-17.912-15.504c-3.96-3.688-7.862-7.444-11.676-11.283
		c-0.18-0.183-0.362-0.36-0.541-0.544c-10.504-11.539-15.946-17.08-23.413-25.854c-14.464-16.994-20.137-28.711-21.244-31.82
		c-3.497-9.839-6.237-21.983-2.15-32.447C70.006,596.132,81.194,591.084,81.194,591.084z"/>
	<path fill="#F4794E" d="M80.831,590.36c0.07,0.896,3.877,0.371,8.497,2.532c6.166,2.883,8.919,8.244,10.668,11.027
		c13.093,20.851,24.589,43.998,37.244,65.628c21.679,37.059,30.627,69.524,37.966,67.977c1.061-0.224,6.202-3.082,6.396-5.345
		c0.105-1.213,0.848-0.395-3.491-9.255c-0.985-2.012-3.192-5.652-4.532-8.904c-4.561-11.075-9.45-26.102-11.57-30.011
		c-3.302-6.092-14.682-37.656-24.769-57.312c-3.219-6.274-6.587-17.039-16.091-27.118c-4.458-4.73-10.056-14.828-19.701-16.592
		C91.243,581.122,80.721,588.896,80.831,590.36z"/>
	<path fill="#FABEAA" d="M82.369,590.089c2.944-0.755,9.292,0.8,13.468,4.973c10.125,10.11,12.134,21.285,14.644,26.215
		c4.714,9.259,10.286,18.057,15.367,27.118c2.49,4.44,8.29,14.561,19.888,34.803c10.765,18.788,16.525,28.02,17.265,28.926
		c7.672,9.394,15.367,24.044,15.367,24.044s-2.734,3.07-3.526,3.346c-0.792,0.273-11.527-7.828-27.753-25.401
		c-17.185-18.612-19.224-19.93-26.305-29.108c-4.297-5.571-3.796-4.105-13.974-18.604c-13.675-19.483-20.719-27.869-27.624-42.455
		c-2.521-5.321-4.795-13.414-3.328-22.285C76.149,599.906,77.568,591.319,82.369,590.089z"/>
	<path fill="#EF4523" d="M162.78,749.062l11.522,9.435l1.821,0.722c0,0,7.91-3.977,12.824-9.041
		c4.914-5.062,6.328-7.231,6.328-7.231l-9.049-11.83l-2.013-2.634c0,0-4.857,5.795-11.538,11.752
		C165.994,746.192,162.78,749.062,162.78,749.062z"/>
	<g>
		<path fill="#231F20" d="M180.436,758.558c1.342,2.268,4.528,2.142,6.886,2.035c2.697-0.124,5.452-1.592,8.085-1.241
			c0.059,0.008,0.132-0.115,0.189-0.108c-2.634-0.351-5.387,1.118-8.085,1.241c-2.36,0.108-5.544,0.232-6.886-2.035
			C180.622,758.446,180.436,758.558,180.436,758.558L180.436,758.558z"/>
	</g>
	<g>
		<path fill="#231F20" d="M191.365,750.69c0.716-0.167,1.221,0.119,1.916,0.297c0.864,0.219,1.743,0.328,2.632,0.362
			c0.898,0.035,1.797-0.019,2.692-0.095c0.471-0.038,2.066-0.488,1.959,0.07c0.008-0.046,0.178-0.061,0.189-0.108
			c0.106-0.558-1.488-0.108-1.959-0.07c-0.894,0.076-1.794,0.13-2.692,0.095c-0.889-0.035-1.768-0.141-2.632-0.362
			c-0.695-0.175-1.199-0.464-1.916-0.297C191.487,750.598,191.433,750.676,191.365,750.69L191.365,750.69z"/>
	</g>
	<path fill="#231F20" stroke="#231F20" stroke-width="0.1" stroke-miterlimit="10" d="M195.503,762.291
		c1.167,0.571,8.923,3.131,8.923,3.131l5.795-2.54l0.609-7.75l-9.197-3.548l-5.359,3.85L195.503,762.291z"/>
	<g>
		<path fill="#231F20" d="M195.218,744.851c-1.05,1.33-1.067,3.391,0.141,4.639c1.334,1.376,3.572,0.927,5.278,0.751
			c0.067-0.006,0.124-0.102,0.189-0.108c-1.71,0.175-3.942,0.625-5.278-0.751c-1.209-1.247-1.191-3.308-0.141-4.639
			C195.366,744.794,195.262,744.796,195.218,744.851L195.218,744.851z"/>
	</g>
</g>
</svg>
