<?xml version="1.0" encoding="utf-8"?>
<!-- Generator: Adobe Illustrator 18.1.1, SVG Export Plug-In . SVG Version: 6.00 Build 0)  -->
<svg version="1.1" id="Layer_1" xmlns="http://www.w3.org/2000/svg" xmlns:xlink="http://www.w3.org/1999/xlink" x="0px" y="0px"
	 viewBox="40.5 657.8 960 387.3" enable-background="new 40.5 657.8 960 387.3" xml:space="preserve">
<g id="omusing_copy">
	<g>
		<path fill="#565F65" d="M147.3,941c-9.6-21.8-15.6-43.3-17.9-64.4c-2.3-21.1-0.5-40.9,5.3-59.5c5.9-18.5,16-35.5,30.3-50.9
			c14.4-15.4,33.5-28.3,57.2-38.8c23.1-10.2,45.1-15.6,66.1-16.2c20.9-0.6,40.3,3.2,58,11.2c17.8,8,33.8,19.9,48,35.7
			c14.3,15.8,26.4,35,36.3,57.4c9.8,22.1,15.8,43.7,18,64.8c2.2,21.1,0.3,41-5.7,59.5c-6,18.5-16.2,35.4-30.7,50.7
			c-14.4,15.2-33.3,28-56.7,38.4c-22.9,10.1-44.7,15.5-65.5,16.2c-20.8,0.7-40.1-2.9-58-10.7c-17.8-7.8-33.9-19.6-48.3-35.4
			C169.7,983.2,157.4,963.8,147.3,941z M224.4,906.9c14.5,32.8,30.7,55.2,48.5,67.3c17.8,12.1,37.9,13.2,60.1,3.4
			c21.8-9.6,34.4-25.2,37.7-46.5c3.3-21.4-2.3-48.5-16.8-81.4c-7-15.9-14.5-29.4-22.6-40.6c-8-11.2-16.6-19.9-25.6-26
			c-9-6.1-18.6-9.6-28.7-10.4c-10.1-0.8-20.7,1.2-32,6.2c-11.1,4.9-19.7,11.4-25.9,19.4c-6.2,8-10,17.4-11.6,28.2
			c-1.5,10.8-0.9,22.9,2,36.4C212.5,876.3,217.4,891,224.4,906.9z"/>
	</g>
	<g>
		<path fill="#565F65" d="M455.7,798.9c0-5.1,0.9-9,2.8-11.7c1.8-2.7,5-4.1,9.5-4.1c4.7,0,8.1,1.4,10.2,4.1
			c2.1,2.7,3.1,6.6,3.1,11.7c1.1-2.6,2.5-4.9,4.4-7c1.8-2.1,3.9-3.9,6.3-5.4c2.4-1.5,4.9-2.7,7.7-3.5c2.8-0.8,5.7-1.2,8.6-1.2
			c2.8,0,5.5,0.4,8.2,1.1c2.7,0.7,5.2,1.9,7.5,3.4c2.3,1.6,4.4,3.6,6.1,6c1.8,2.4,3.1,5.3,4.1,8.6c1.7-3.6,3.6-6.6,5.8-9
			c2.2-2.5,4.7-4.4,7.3-5.9c2.6-1.5,5.3-2.6,8.2-3.2c2.9-0.6,5.7-1,8.6-1c3.4,0,6.7,0.6,9.8,1.8c3.1,1.2,5.9,3.1,8.2,5.6
			s4.3,5.6,5.7,9.4s2.1,8.1,2.1,13.2v36.2c0,5.1-1,9-3.1,11.7c-2.1,2.7-5.5,4.1-10.2,4.1c-4.5,0-7.6-1.4-9.5-4.1
			c-1.8-2.7-2.8-6.6-2.8-11.7v-35.1c0-2.4-0.3-4.5-1-6.4c-0.6-1.9-1.5-3.5-2.7-4.8c-1.1-1.3-2.5-2.3-4-3c-1.6-0.7-3.2-1-5-1
			c-2.2,0-4.3,0.3-6.2,1c-2,0.7-3.7,1.8-5.2,3.2c-1.5,1.4-2.6,3.3-3.5,5.5c-0.9,2.2-1.3,4.9-1.3,8.1v32.4c0,5.1-1,9-3.1,11.7
			c-2.1,2.7-5.5,4.1-10.2,4.1c-4.5,0-7.6-1.4-9.5-4.1c-1.8-2.7-2.8-6.6-2.8-11.7v-33.5c0-5.5-1.1-9.7-3.4-12.5
			c-2.3-2.8-5.3-4.2-9.2-4.2c-2.3,0-4.4,0.4-6.4,1.1c-2,0.7-3.7,1.8-5.1,3.3c-1.4,1.4-2.6,3.2-3.4,5.4c-0.8,2.1-1.2,4.6-1.2,7.4
			v33.1c0,5.1-1,9-3.1,11.7c-2.1,2.7-5.5,4.1-10.2,4.1c-4.5,0-7.6-1.4-9.5-4.1c-1.8-2.7-2.8-6.6-2.8-11.7L455.7,798.9L455.7,798.9
			L455.7,798.9z"/>
		<path fill="#565F65" d="M626.1,834c0,2.5,0.3,4.7,1,6.6c0.7,1.9,1.6,3.4,2.8,4.7c1.2,1.3,2.5,2.2,4.1,2.8c1.6,0.6,3.3,0.9,5.1,0.9
			c2.1,0,4.2-0.3,6.2-1c2-0.6,3.7-1.6,5.2-3c1.5-1.3,2.7-3,3.6-5c0.9-2,1.4-4.4,1.4-7.1v-33.9c0-5.1,0.9-9,2.8-11.7
			c1.8-2.7,5-4.1,9.5-4.1c4.8,0,8.1,1.4,10.2,4.1c2.1,2.7,3.1,6.6,3.1,11.7v49c0,5.1-1,9-3.1,11.7c-2.1,2.7-5.5,4.1-10.2,4.1
			c-4.5,0-7.6-1.4-9.5-4.1c-1.8-2.7-2.8-6.6-2.8-11.7c-1.1,2.5-2.6,4.7-4.4,6.7c-1.8,2-3.9,3.8-6.2,5.2c-2.4,1.5-5,2.6-7.8,3.4
			c-2.9,0.8-5.9,1.2-9.2,1.2c-3.6,0-7-0.6-10.3-1.9c-3.3-1.3-6.2-3.1-8.7-5.6s-4.5-5.6-6-9.2c-1.5-3.7-2.2-8-2.2-12.9v-35.9
			c0-5.1,0.9-9,2.8-11.7c1.8-2.7,5-4.1,9.5-4.1c4.8,0,8.1,1.4,10.2,4.1c2.1,2.7,3.1,6.6,3.1,11.7L626.1,834L626.1,834L626.1,834z"/>
		<path fill="#565F65" d="M711.6,804.6c0,2.1,0.9,3.7,2.7,4.8c1.8,1.1,4.3,2.1,7.5,2.8c3,0.7,6.2,1.4,9.4,2c3.2,0.6,6.3,1.4,9.4,2.2
			c3,0.8,5.9,1.8,8.6,2.9c2.7,1.1,5,2.5,7,4.2c2,1.7,3.6,3.7,4.8,6.1c1.2,2.4,1.8,5.2,1.8,8.5c0,4.2-0.9,7.9-2.6,11.1
			c-1.7,3.2-4.1,6-7.2,8.2c-3.1,2.2-6.8,4-11.2,5.2c-4.3,1.2-9.1,1.9-14.3,1.9c-5,0-9.7-0.3-14.3-0.9c-4.6-0.6-8.7-1.6-12.2-2.8
			c-3.5-1.3-6.4-2.9-8.5-4.8c-2.1-1.9-3.2-4.1-3.2-6.7c0-2.2,0.7-4,2.2-5.2c1.4-1.2,3.3-1.8,5.5-1.8c0.9,0,1.9,0.2,3,0.5
			c1.2,0.3,2.5,0.7,3.8,1.2c1.4,0.5,2.9,1,4.4,1.6c1.6,0.6,3.2,1.1,4.9,1.5c2.1,0.6,4.3,1.1,6.6,1.4c2.3,0.3,4.6,0.5,7,0.5
			c1.5,0,3-0.1,4.4-0.4c1.4-0.3,2.7-0.7,3.9-1.4c1.1-0.6,2.1-1.4,2.8-2.4c0.7-1,1.2-2.1,1.4-3.5c0.2-0.3,0.3-0.6,0.4-1
			c0.1-0.3,0.2-0.7,0.2-1.1c0-1.5-0.7-2.8-2-4c-1.4-1.2-3.3-2.1-5.7-2.8c-4.1-1-8-1.8-11.8-2.6c-3.7-0.8-7.2-1.7-10.4-2.6
			c-3.2-0.9-6.1-1.9-8.6-3.1c-2.6-1.2-4.8-2.6-6.6-4.3c-1.8-1.7-3.2-3.8-4.2-6.2c-1-2.4-1.5-5.3-1.5-8.7c0-3.7,0.8-7,2.5-9.9
			c1.7-2.9,4.1-5.3,7.2-7.3c3.1-2,7-3.5,11.4-4.5c4.5-1,9.6-1.6,15.2-1.6c10.1,0,17.9,1.2,23.2,3.6c5.3,2.4,8,5.6,8,9.5
			c0,2.2-0.7,3.9-2.2,5c-1.4,1.1-3.2,1.7-5.2,1.7c-1.1,0-2.2-0.2-3.3-0.6c-1.1-0.4-2.5-0.9-4.1-1.4c-1.6-0.5-3.5-1-5.7-1.4
			c-2.2-0.4-4.9-0.6-8.2-0.6c-2.5,0-4.7,0.1-6.7,0.3c-2,0.2-3.7,0.6-5.1,1.1c-1.4,0.5-2.5,1.3-3.3,2.2
			C712,802.1,711.6,803.2,711.6,804.6z"/>
		<path fill="#565F65" d="M801,754.7c0,1.8-0.4,3.3-1.2,4.7c-0.8,1.4-1.8,2.5-3.1,3.4c-1.3,0.9-2.8,1.6-4.4,2
			c-1.7,0.5-3.4,0.7-5.2,0.7c-1.9,0-3.6-0.2-5.3-0.7c-1.7-0.5-3.2-1.2-4.4-2.1s-2.3-2.1-3-3.4c-0.7-1.3-1.1-2.9-1.1-4.6
			c0-1.5,0.4-3,1.1-4.3c0.7-1.3,1.7-2.4,2.9-3.4c1.2-1,2.7-1.7,4.4-2.2c1.7-0.5,3.6-0.8,5.6-0.8c1.8,0,3.5,0.2,5.2,0.7
			c1.7,0.5,3.2,1.2,4.4,2.1c1.3,0.9,2.3,2,3.1,3.4C800.6,751.5,801,753,801,754.7z M799.8,847.9c0,5.1-1,9-3.1,11.7
			c-2.1,2.7-5.5,4.1-10.2,4.1c-4.5,0-7.6-1.4-9.5-4.1c-1.8-2.7-2.8-6.6-2.8-11.7v-49c0-5.1,0.9-9,2.8-11.7c1.8-2.7,5-4.1,9.5-4.1
			c4.8,0,8.1,1.4,10.2,4.1c2.1,2.7,3.1,6.6,3.1,11.7V847.9z"/>
		<path fill="#565F65" d="M812.4,798.9c0-5.1,0.9-9,2.8-11.7c1.8-2.7,5-4.1,9.5-4.1c4.7,0,8.1,1.4,10.2,4.1
			c2.1,2.7,3.1,6.6,3.1,11.7c1-2.6,2.3-4.9,4.2-7s4-3.9,6.4-5.4c2.5-1.5,5.2-2.7,8.2-3.5c3-0.8,6.1-1.2,9.4-1.2
			c3.4,0,6.7,0.6,10,1.8c3.2,1.2,6.1,3.1,8.5,5.6c2.5,2.5,4.4,5.6,5.9,9.4c1.5,3.8,2.2,8.1,2.2,13.2v36.2c0,5.1-1,9-3.1,11.7
			c-2.1,2.7-5.5,4.1-10.2,4.1c-4.5,0-7.6-1.4-9.5-4.1c-1.8-2.7-2.8-6.6-2.8-11.7v-35.1c0-2.6-0.3-4.8-1-6.7
			c-0.7-1.9-1.6-3.5-2.8-4.7c-1.2-1.3-2.5-2.2-4.1-2.8c-1.6-0.6-3.3-1-5.1-1c-2.2,0-4.4,0.4-6.4,1.1c-2,0.7-3.7,1.8-5.2,3.2
			c-1.5,1.4-2.6,3.2-3.5,5.4c-0.9,2.1-1.3,4.6-1.3,7.4v33.1c0,5.1-1,9-3.1,11.7c-2.1,2.7-5.5,4.1-10.2,4.1c-4.5,0-7.6-1.4-9.5-4.1
			c-1.8-2.7-2.8-6.6-2.8-11.7L812.4,798.9z"/>
		<path fill="#565F65" d="M963.6,848.2c-1.4,2.7-3.2,4.9-5.2,6.8c-2.1,1.9-4.3,3.4-6.8,4.6s-5.1,2.1-7.9,2.6
			c-2.8,0.6-5.7,0.8-8.6,0.8c-4.9,0-9.4-0.9-13.4-2.6c-4.1-1.8-7.5-4.3-10.4-7.6c-2.9-3.3-5.2-7.4-6.8-12.3
			c-1.6-4.9-2.4-10.4-2.4-16.6c0-5.9,0.7-11.4,2.2-16.5c1.5-5.1,3.7-9.6,6.5-13.4c2.9-3.8,6.4-6.8,10.5-9c4.2-2.2,8.9-3.3,14.2-3.3
			c6.1,0,11.5,1.2,16.2,3.5c4.7,2.3,8.8,6.2,12.2,11.5v-2.1c0-3.8,1.1-6.7,3.2-8.7c2.1-1.9,5-2.9,8.8-2.9c2.2,0,4.1,0.4,5.7,1.1
			c1.5,0.7,2.8,1.8,3.7,3.2c0.9,1.4,1.6,3.1,2,5.2c0.4,2.1,0.6,4.4,0.6,7v53.6c0,6.5-0.8,12.3-2.4,17.4s-4.1,9.4-7.6,13
			c-3.4,3.5-7.8,6.2-13.1,8c-5.3,1.8-11.7,2.8-19,2.8c-5.2,0-9.7-0.2-13.7-0.7c-4-0.5-7.4-1.1-10.3-2c-2.9-1-5.1-2.1-6.5-3.4
			c-1.5-1.2-2.2-2.8-2.2-4.8c0-1.1,0.2-2.2,0.5-3.2c0.3-1,0.8-1.9,1.5-2.7c0.7-0.8,1.5-1.4,2.6-1.8c1.1-0.5,2.4-0.7,4-0.7
			c1.7,0,3.4,0.1,5.2,0.3c1.7,0.2,3.5,0.4,5.4,0.7c1.9,0.2,3.9,0.5,6,0.7c2.1,0.2,4.4,0.3,6.8,0.3c2.9,0,5.5-0.3,7.8-0.9
			c2.3-0.6,4.2-1.6,5.8-3.1c1.6-1.5,2.8-3.5,3.7-6c0.9-2.5,1.3-5.6,1.3-9.5L963.6,848.2L963.6,848.2L963.6,848.2L963.6,848.2z
			 M963.6,823.4c0-3.9-0.3-7.4-0.8-10.6c-0.6-3.2-1.5-5.9-2.8-8.2c-1.3-2.3-3.1-4-5.4-5.3c-2.2-1.3-5-1.9-8.4-1.9
			c-3.3,0-6,0.7-8.2,2c-2.2,1.3-3.9,3.2-5.2,5.5c-1.3,2.3-2.2,5.1-2.7,8.2c-0.5,3.1-0.8,6.5-0.8,10.1c0,8.2,1.4,14.3,4.3,18.4
			c2.9,4.1,7.1,6.2,12.6,6.2c2.6-0.1,4.9-0.5,7-1.5c2.1-0.9,3.9-2.4,5.5-4.4c1.5-2,2.7-4.5,3.6-7.5
			C963.2,831.4,963.6,827.7,963.6,823.4z"/>
	</g>
	<g>
		<path fill="#EE3F2A" d="M620.7,931.7h-7.2l7.5-42.6h7.2L620.7,931.7z M626.7,873.5c1.2-0.1,2.2,0.3,3.1,1.1
			c0.8,0.8,1.2,1.8,1.2,3.1c0,1.2-0.4,2.2-1.2,3c-0.8,0.8-1.8,1.2-3.1,1.3c-1.3,0.1-2.3-0.3-3.1-1.1c-0.8-0.8-1.2-1.8-1.2-3
			c0-1.2,0.4-2.3,1.2-3.1C624.4,874,625.4,873.6,626.7,873.5z"/>
		<path fill="#EE3F2A" d="M634.6,910.3c0.5-4.3,1.7-8.3,3.6-11.7c1.9-3.5,4.2-6.1,7-7.8c2.8-1.7,5.8-2.6,9.2-2.5
			c4.8,0.1,8.5,1.8,11.1,5.2l4.2-22.3h7.2l-10.6,60.5h-6.6l0.8-4.6c-3.4,3.7-7.6,5.5-12.6,5.4c-4-0.1-7.2-1.6-9.6-4.6
			c-2.4-3-3.7-7-3.8-12C634.3,914.3,634.4,912.5,634.6,910.3z M641.6,914.4c-0.1,3.8,0.6,6.7,2,8.7c1.4,2.1,3.5,3.1,6.3,3.2
			c4.2,0.2,7.9-1.9,11.2-6.2l3.4-19.7c-1.6-3.9-4.5-5.9-8.7-6c-2.9-0.1-5.4,0.8-7.5,2.5c-2.2,1.8-3.8,4.3-5,7.4
			C642.2,907.6,641.6,910.9,641.6,914.4z"/>
		<path fill="#EE3F2A" d="M695.2,932.5c-5.4-0.1-9.6-2.1-12.6-5.9c-3-3.8-4.3-8.7-3.8-14.6l0.2-1.7c0.5-4.2,1.7-8.1,3.8-11.6
			c2.1-3.5,4.6-6.1,7.7-7.9c3-1.8,6.3-2.6,9.8-2.5c4.5,0.1,7.9,1.6,10.5,4.4c2.5,2.8,3.9,6.6,4.2,11.4c0.1,1.7,0,3.4-0.2,5.1
			l-0.4,3.3h-28.3c-0.5,3.9,0.2,7.1,1.9,9.9c1.8,2.7,4.4,4.1,7.9,4.2c4.3,0.1,8.2-1.8,11.8-5.7l4.2,3.5c-1.8,2.6-4.2,4.6-7,6
			C701.9,931.9,698.7,932.6,695.2,932.5z M699.8,894.2c-3-0.1-5.6,0.9-7.8,3c-2.2,2.1-4,5.2-5.3,9.3l21,0l0.2-0.6
			c0.4-3.3-0.1-6.1-1.6-8.3C704.7,895.5,702.6,894.3,699.8,894.2z"/>
		<path fill="#EE3F2A" d="M744.1,931.7c-0.2-0.8-0.3-1.5-0.3-2.2l0.1-2.2c-4,3.6-8.2,5.4-12.6,5.3c-3.8-0.1-6.9-1.2-9.3-3.6
			c-2.4-2.3-3.5-5.2-3.3-8.7c0.3-4.5,2.3-8,6-10.6c3.8-2.5,8.7-3.8,14.8-3.8l7.6,0l0.5-3.4c0.3-2.5-0.2-4.6-1.5-6
			c-1.3-1.5-3.2-2.3-5.7-2.3c-2.5-0.1-4.7,0.5-6.6,1.8c-1.9,1.2-3.1,2.9-3.5,4.9l-7.3,0c0.2-2.5,1.2-4.7,3-6.6
			c1.7-1.9,4-3.4,6.7-4.5c2.7-1.1,5.5-1.6,8.4-1.5c4.5,0.1,8,1.5,10.5,4c2.5,2.6,3.6,6,3.2,10.3l-3.5,21.1l-0.2,3
			c-0.1,1.4,0.1,2.9,0.5,4.3l-0.1,0.7L744.1,931.7L744.1,931.7z M732.8,926.2c2.3,0.1,4.5-0.5,6.6-1.6c2.1-1.1,3.8-2.7,5.3-4.8
			l1.6-8.8l-5.5,0c-4.6,0-8.1,0.7-10.5,2.1c-2.4,1.4-3.8,3.4-4.1,6c-0.2,2,0.2,3.7,1.4,5C728.8,925.5,730.5,926.2,732.8,926.2z"/>
		<path fill="#EE3F2A" d="M785.7,920.2c0.4-2.9-1.2-5-4.9-6.2l-7.5-2.2c-6.3-2.2-9.4-5.7-9.2-10.7c0.2-3.8,1.9-6.8,5.2-9.2
			c3.3-2.4,7.2-3.6,11.6-3.5c4.4,0.1,7.9,1.3,10.7,3.8c2.7,2.5,4,5.7,3.9,9.6l-7.2,0c0.1-2.1-0.6-3.9-2-5.2c-1.4-1.3-3.3-2-5.6-2.1
			c-2.5-0.1-4.7,0.6-6.5,1.8c-1.7,1.2-2.7,2.7-2.9,4.7c-0.3,2.5,1.2,4.3,4.6,5.4l3.6,1c5,1.3,8.5,2.9,10.6,4.9c2.1,2,3,4.5,2.9,7.5
			c-0.2,2.7-1,5-2.6,6.9c-1.6,2-3.7,3.5-6.4,4.5c-2.7,1-5.5,1.5-8.5,1.4c-4.6-0.1-8.4-1.4-11.4-4c-3-2.6-4.4-5.9-4.3-10l7.2,0
			c0,2.4,0.8,4.3,2.3,5.8c1.5,1.4,3.7,2.2,6.4,2.2c2.6,0.1,4.9-0.5,6.8-1.6C784.4,923.7,785.4,922.2,785.7,920.2z"/>
		<path fill="#EE3F2A" d="M837.1,878.7l-1.8,10.3h7.9l-1,5.6h-7.8l-4.5,26.6c-0.1,0.7-0.1,1.3,0,1.9c0.2,2.1,1.3,3.1,3.4,3.1
			c0.9,0,2.1-0.1,3.5-0.4l-0.6,5.9c-1.7,0.5-3.5,0.7-5.3,0.7c-2.9-0.1-5-1.1-6.5-3.1c-1.4-2-2-4.8-1.7-8.2l4.4-26.4h-7.6l1-5.6h7.6
			l1.8-10.3L837.1,878.7L837.1,878.7L837.1,878.7L837.1,878.7z"/>
		<path fill="#EE3F2A" d="M865.6,888.3c3.6,0.1,6.7,1,9.3,2.9c2.6,1.9,4.5,4.5,5.7,7.8c1.2,3.3,1.7,7,1.3,10.9l-0.1,0.9
			c-0.5,4.2-1.8,7.9-3.8,11.3c-2,3.3-4.6,6-7.8,7.8c-3.2,1.9-6.7,2.7-10.4,2.6c-3.6-0.1-6.7-1-9.3-2.9c-2.6-1.9-4.5-4.5-5.7-7.7
			c-1.2-3.3-1.6-6.8-1.3-10.8c0.4-4.4,1.6-8.4,3.6-11.9c2-3.5,4.6-6.2,7.8-8.2C858.3,889.1,861.8,888.2,865.6,888.3z M850.9,911.1
			c-0.2,1.7-0.2,3.4,0,5.2c0.3,3.1,1.2,5.6,2.8,7.4c1.6,1.8,3.8,2.8,6.5,2.9c2.4,0.1,4.6-0.5,6.6-1.8c2-1.2,3.7-3.1,5.1-5.7
			c1.4-2.5,2.3-5.3,2.7-8.4c0.2-2.4,0.3-4.5,0.1-6.1c-0.3-3.2-1.3-5.7-2.9-7.5c-1.6-1.8-3.8-2.8-6.5-2.9c-3.7-0.1-6.9,1.4-9.5,4.3
			c-2.6,3-4.2,6.9-4.8,11.7L850.9,911.1z"/>
		<path fill="#EE3F2A" d="M738.4,986.4l5.3-29.7h-5.4l0.8-4.5h5.3l0.6-4.1c0.6-3.4,1.9-6.1,4.1-8.1c2.3-2,5.1-3,8.6-3
			c1.1,0,2.5,0.2,4.1,0.5l-0.7,4.8c-1-0.2-2.1-0.3-3.1-0.4c-2,0-3.6,0.6-4.9,1.8c-1.3,1.2-2,2.9-2.3,4.9l-0.5,3.4h7.2l-0.8,4.5h-7.2
			l-5.2,29.7L738.4,986.4L738.4,986.4L738.4,986.4z"/>
		<path fill="#EE3F2A" d="M764.3,986.4h-5.8l6-34.3h5.8L764.3,986.4z M769.1,939.6c1,0,1.8,0.3,2.5,0.9c0.7,0.6,1,1.4,1,2.5
			c0,1-0.3,1.8-1,2.4c-0.6,0.6-1.5,1-2.5,1c-1,0-1.8-0.2-2.5-0.9c-0.6-0.6-1-1.4-0.9-2.4c0-1,0.3-1.8,1-2.5
			C767.3,940,768.1,939.6,769.1,939.6z"/>
		<path fill="#EE3F2A" d="M785.4,952l-0.8,4.3c3.1-3.4,6.7-5,10.7-4.9c3.3,0.1,5.7,1.2,7.3,3.4c1.6,2.2,2.1,5.2,1.7,9.1l-3.8,22.5
			h-5.8l3.8-22.5c0.1-1,0.1-2,0-2.9c-0.4-3-2.1-4.5-5.3-4.5c-3.5-0.1-6.6,1.8-9.2,5.5l-4.3,24.4h-5.8l6-34.3L785.4,952z"/>
		<path fill="#EE3F2A" d="M808.7,969.2c0.4-3.5,1.4-6.6,2.9-9.4c1.5-2.8,3.4-4.9,5.6-6.3c2.2-1.4,4.7-2.1,7.4-2
			c3.9,0.1,6.9,1.5,8.9,4.2l3.3-17.9h5.8l-8.6,48.7h-5.3l0.6-3.7c-2.7,3-6.1,4.4-10.2,4.3c-3.2-0.1-5.8-1.3-7.7-3.7
			c-1.9-2.4-2.9-5.6-3.1-9.6C808.4,972.4,808.5,970.9,808.7,969.2z M814.3,972.4c-0.1,3,0.5,5.4,1.6,7c1.2,1.7,2.9,2.5,5.1,2.6
			c3.4,0.1,6.4-1.5,9-5l2.8-15.8c-1.3-3.1-3.6-4.7-7-4.8c-2.3-0.1-4.3,0.6-6.1,2c-1.7,1.4-3.1,3.4-4,6
			C814.7,967,814.3,969.6,814.3,972.4z"/>
		<path fill="#EE3F2A" d="M863.3,986.4h-5.8l6-34.3h5.8L863.3,986.4z M868.1,939.6c1,0,1.8,0.3,2.5,0.9c0.7,0.6,1,1.4,1,2.5
			c0,1-0.3,1.8-1,2.4c-0.6,0.6-1.5,1-2.5,1c-1,0-1.8-0.2-2.5-0.9c-0.6-0.6-1-1.4-0.9-2.4c0-1,0.3-1.8,1-2.5
			C866.3,940,867.1,939.6,868.1,939.6z"/>
		<path fill="#EE3F2A" d="M874.5,969.2c0.4-3.5,1.4-6.6,2.9-9.4c1.5-2.8,3.4-4.9,5.6-6.3c2.2-1.4,4.7-2.1,7.4-2
			c3.9,0.1,6.9,1.5,8.9,4.2l3.3-17.9h5.8l-8.6,48.7h-5.3l0.6-3.7c-2.7,3-6.1,4.4-10.2,4.3c-3.2-0.1-5.8-1.3-7.7-3.7
			c-1.9-2.4-2.9-5.6-3.1-9.6C874.3,972.4,874.4,970.9,874.5,969.2z M880.1,972.4c-0.1,3,0.5,5.4,1.6,7c1.2,1.7,2.9,2.5,5.1,2.6
			c3.4,0.1,6.4-1.5,9-5l2.8-15.8c-1.3-3.1-3.6-4.7-7-4.8c-2.3-0.1-4.3,0.6-6.1,2c-1.7,1.4-3.1,3.4-4,6
			C880.6,967,880.2,969.6,880.1,972.4z"/>
		<path fill="#EE3F2A" d="M922.3,987c-4.3-0.1-7.7-1.7-10.2-4.7c-2.4-3.1-3.5-7-3.1-11.8l0.2-1.4c0.4-3.4,1.4-6.5,3.1-9.3
			c1.7-2.8,3.7-4.9,6.2-6.4c2.4-1.4,5-2.1,7.8-2c3.6,0.1,6.4,1.3,8.4,3.5c2,2.3,3.2,5.3,3.3,9.2c0.1,1.4,0,2.7-0.1,4.1l-0.4,2.6
			h-22.7c-0.4,3.1,0.1,5.7,1.6,7.9c1.4,2.2,3.6,3.3,6.4,3.4c3.4,0.1,6.6-1.4,9.5-4.6l3.3,2.8c-1.5,2.1-3.3,3.7-5.6,4.9
			C927.7,986.5,925.1,987,922.3,987z M926,956.2c-2.4-0.1-4.5,0.7-6.3,2.4c-1.8,1.7-3.2,4.1-4.3,7.4l16.9,0l0.1-0.5
			c0.3-2.7-0.1-4.9-1.3-6.6C930,957.2,928.2,956.3,926,956.2z"/>
		<path fill="#EE3F2A" d="M960.7,986.4c-0.1-0.6-0.2-1.2-0.2-1.8l0.1-1.8c-3.2,2.9-6.6,4.3-10.2,4.2c-3.1,0-5.6-1-7.5-2.9
			c-1.9-1.9-2.8-4.2-2.6-7c0.2-3.6,1.8-6.5,4.8-8.5c3-2,7-3.1,11.9-3.1l6.1,0l0.4-2.7c0.2-2-0.2-3.7-1.2-4.9c-1-1.2-2.5-1.8-4.6-1.9
			c-2,0-3.8,0.4-5.3,1.4c-1.5,1-2.5,2.3-2.8,4l-5.9,0c0.2-2,1-3.8,2.4-5.3c1.4-1.6,3.2-2.8,5.4-3.6c2.2-0.9,4.4-1.3,6.8-1.2
			c3.6,0.1,6.4,1.2,8.5,3.2c2,2.1,2.9,4.8,2.5,8.3l-2.8,17l-0.2,2.4c0,1.2,0.1,2.3,0.4,3.5l-0.1,0.5L960.7,986.4L960.7,986.4
			L960.7,986.4L960.7,986.4z M951.6,981.9c1.9,0,3.6-0.4,5.3-1.3c1.7-0.9,3.1-2.2,4.3-3.8l1.3-7.1l-4.4,0c-3.7,0-6.5,0.6-8.4,1.7
			c-2,1.1-3.1,2.8-3.3,4.8c-0.2,1.6,0.2,2.9,1.1,4C948.3,981.3,949.7,981.9,951.6,981.9z"/>
		<path fill="#EE3F2A" d="M992.6,977.1c0.3-2.4-1-4-4-5l-6-1.7c-5.1-1.7-7.6-4.6-7.4-8.6c0.1-3,1.6-5.5,4.2-7.4
			c2.6-1.9,5.8-2.9,9.3-2.8c3.5,0,6.4,1.1,8.6,3c2.2,2,3.3,4.5,3.2,7.7l-5.8,0c0-1.7-0.5-3.1-1.6-4.2c-1.1-1.1-2.7-1.6-4.5-1.7
			c-2,0-3.8,0.4-5.2,1.5c-1.4,0.9-2.1,2.2-2.3,3.7c-0.3,2,1,3.4,3.7,4.3l2.9,0.8c4,1,6.8,2.3,8.5,4c1.7,1.6,2.4,3.6,2.3,6
			c-0.1,2.1-0.8,4-2.1,5.6c-1.3,1.6-3,2.8-5.1,3.6c-2.1,0.8-4.4,1.2-6.8,1.2c-3.7,0-6.7-1.1-9.1-3.2c-2.4-2.1-3.6-4.8-3.5-8l5.8,0
			c0,1.9,0.6,3.5,1.9,4.6c1.2,1.2,2.9,1.7,5.1,1.7c2.1,0,4-0.4,5.5-1.3C991.5,979.9,992.4,978.7,992.6,977.1z"/>
	</g>
</g>
<g id="hotairballoonColor_copy_2">
	<g>
		<g>
			<path fill="#F4794E" d="M281.7,940.3c0.1-0.1,0.1-0.2,0.2-0.3L281,940c1-2,1.4-3.5,1.4-3.5s-1.9-2.3-2.8-3.3
				c2-2.2,3.2-3.7,3.8-4.6c0.1-0.4,0.2-0.8,0.4-1.2l-14-18.3l-2.7-3.5c0.4-1,0.5-2,0.6-3c0.1-0.4,0.2-0.8,0.3-1.2
				c1.4-2.1,2-4.6,2.1-5.2c0.4-1.6,0.5-3.6,0.3-5.4c0.2-0.8,0.3-1.5,0.5-2.3l0,0c1.1,0.3,5.7-8.5,6.8-11c0,0.1,0.1,0.2,0.2,0.3
				c1.5,0.4,10-20.7,15.6-42.7c11.6-45.3,7.4-79.5,6.3-87.4c-3.9-28.4-12.1-42.4-14.5-46.4c-9-14.8-19.5-22.9-21.6-24.5
				c-19.8-15-41.6-17.2-44.8-16.7c-1.3-0.3-2.3-0.4-2.3-0.1c0,0,1,0.5,2.6,1.5c-3.7-1.5-6.6-2.3-8.2-2.7
				c-12.2-3.1-31.9,2.4-31.9,2.4s1-0.6,2.8,0.5c-1.8-0.4-3.3-0.5-4.7-0.5c-10.1-0.1-26.9,5.2-30.9,7.5c-2,0.1-4,0.3-6.1,0.7
				c-4.9,1-15.9,6.8-16,6.8c0.1,0,0.2,0,0.4,0c-11.4,2.3-20.7,9.6-20.6,11.4c0,0.2,0.2,0.3,0.4,0.5c-0.7,0.4-1.3,0.9-1.9,1.5
				c-1.8,0.9-5.3,2.8-9.1,6c3.9-2.8,7-4.6,8.8-5.6c0,0-0.1,0.1-0.1,0.1c-3,1.6-8.1,4.7-12.7,9.2c1.3-1.4,2.7-2.6,4-3.7
				c-4.4,3.2-9.7,7.6-14.9,13.3c-3.3,2.7-26.1,23.2-30.8,41.9c-0.6,2.3-1,4.6-1.4,6.8c-1.8,4.4-3.8,10.1-4.9,17.1
				c-1.4,8.6-0.8,15.3-0.5,18.9c0.1,0.7,0.2,1.4,0.3,2.1c-0.9,7-1,15.8,1.4,25.5c1.9,7.6,4,14.4,7.9,21.1c0.9,1.4,2.1,3.1,3,4.6
				c10.4,17.1,24.5,31.8,42.2,41.4c9.7,5.3,20,8.7,30.1,13.1c9.3,4,19.2,7,28.8,10.5c51,18.4,53,20.7,59.5,20.2
				c3.6-0.3,7.8-0.3,11,1.4c0.7,0.3,1.3,0.8,1.6,1.4c0.3,0.6,1.2,0.7,1.6,1.2c1,1.5,2.1,1.8,3.5,1.7c0.4-0.1,0.9-0.2,1.3-0.4
				l18.1,14.8l2.9,1.1c0,0,4-2,8.9-5.2c0.7,1.1,2.2,3.2,2.2,3.2s6.3-1.3,10.8-4.6c2.4-1.7,4-4.3,5.1-6.5
				C281.2,940.2,281.4,940.2,281.7,940.3z M78.8,721.4c0.2-3.6,1-6.4,1.8-8.8c0.2-0.6,0.5-1.2,0.8-1.8
				C80.1,714.2,79.3,717.7,78.8,721.4z M120.1,772.2c6.6,9.6,14.5,20.2,24.7,34.8C137.5,797.5,129,785.9,120.1,772.2z M192.8,744.7
				c-1.4-2.7-2.8-5.8-4.3-9.4c2.2,4.2,4.2,8.5,6.1,12.9C193.9,747,193.3,745.8,192.8,744.7z M217.9,721.9
				c4.5,7.3,8.1,14.5,11.2,21.5C225.1,735,221.3,727.8,217.9,721.9z M264.8,704.1c1.3,2.3,2.8,4.9,4.2,8
				C267.6,709.3,266.2,706.6,264.8,704.1z"/>
		</g>
	</g>
</g>
<g id="hotairballoonColor_copy_3">
	<path fill="#231F20" stroke="#231F20" stroke-width="0.1" stroke-miterlimit="10" d="M262.5,947.4c0.2,0.6,2.6,3.8,2.6,3.8
		s6.3-1.3,10.8-4.6c4.6-3.4,6.6-10.2,6.6-10.2s-2.7-3.2-3.2-3.6c0,0-1.4-1.2-4.7-1.1C267.7,932,260.9,941,262.5,947.4z"/>
	<path fill="#FABCA8" d="M218.4,660.2c-0.2,0.7,13.8,2.7,29,13.9c2.5,1.8,12.1,9.1,21.6,23.6c3.4,5.1,14.1,22.4,19.1,53.2
		c5.7,35.8,0,67.7-5.4,97.9c-2.9,16.2-6,28.4-4.8,28.7c1.5,0.4,10-20.7,15.6-42.7c11.6-45.3,7.4-79.5,6.3-87.4
		c-3.9-28.4-12.1-42.4-14.5-46.4c-9-14.8-19.5-22.9-21.6-24.5C242.3,660.6,218.7,659.2,218.4,660.2z"/>
	<path fill="#F69472" d="M267.6,885c3,1.3,3.4,7.2,2.6,11.1c-0.3,1.1-1.7,7.6-6.5,8.5c-4.3,0.8-8.9-3.2-9.7-7.1
		C252.6,890.5,263.2,883,267.6,885z"/>
	<path fill="#EF4523" d="M44.3,779.1c-0.1,11.1,1.1,31.2,12,52.4c7.9,15.5,19.4,30.3,33.7,40.2c4.8,3.3,10.5,6.8,15.6,9.6
		c6.4,3.4,23.9,12.8,50.9,24.8c20.3,9,41,18,62.5,23.8c3.9,1.1,7.4,2.7,11.2,4.2c1.4,0.5,5.4,1.8,5.4,1.8s-2.2,1.5-4,1.8
		c-1.4,0.2-2.5-0.1-3.5-1.7c-0.4-0.6-1.2-0.6-1.6-1.2c-0.3-0.7-1-1.1-1.6-1.4c-3.2-1.6-7.5-1.6-11-1.4c-6.5,0.5-8.5-1.8-59.5-20.2
		c-9.6-3.5-19.4-6.5-28.8-10.5c-10.1-4.4-20.4-7.8-30.1-13.1c-17.7-9.7-31.8-24.4-42.2-41.4c-0.9-1.4-2.1-3.1-3-4.6
		c-4-6.7-6-13.5-7.9-21.1c-3.6-14.5-1.6-27,0.3-34.3L44.3,779.1z"/>
	<path fill="#F69472" d="M216.5,660c0,0,27.1,14.7,43.3,36.5c1.8,2.5,9.7,13.4,14.5,29.6c1.7,5.7,2.8,11.3,4.4,32.4
		c1.5,19.1,2.2,28.7,2.3,39.4c0.3,46.9-14.3,89.2-10.1,90.4c1.2,0.4,6.3-9.7,6.9-11.5c6.4-18.4,9.9-37.3,11.5-56.7
		c3.3-39.7,3.8-81-14.7-117.3c-5.1-10-11.1-17.9-19.5-25.3c-3.6-3.2-7.7-5.4-11.6-8.2c-6.9-5-14.2-6.8-19-8
		C221.4,660.6,216.5,659.3,216.5,660z"/>
	<path fill="#F68F68" d="M47.4,755.1c-0.5,8.7-0.3,21.7,3.8,36.5c9.2,32.7,31.6,52.9,49.7,69.1c15.4,13.8,29,22.3,39.9,29
		c14.5,9,31.4,19.4,52.7,26.3c29,9.4,43.6,14.1,43.7,14.1c0.4,0,2.1-0.1,2.6,0.9c0.5,0.9-0.5,2.6-1.5,3.4c-0.3,0.3-1.3,1.2-2.8,1.3
		c-0.8,0-1.4-0.2-1.9-0.4c-1.5-0.6-3.1-0.9-4.6-1.4c-2.6-1-16.1-4.7-34.1-10.7c-11.7-3.9-25.4-9-39.2-14.4
		c-29.1-11.3-44.8-17.6-62.3-29.8c-9.8-6.8-18.1-12.6-27-23.2c0,0-22.7-26.9-25.7-62.3c-0.3-3.6-0.8-10.3,0.5-18.9
		C42.7,766.3,45.3,759.6,47.4,755.1z"/>
	<path fill="#F68F6C" d="M179.1,661.2c0,0,25.5,13.5,47.2,37.5c17.8,19.6,22.9,40.3,30.2,70c0,0,13.9,56.9,9.1,127.5
		c-0.1,1.9,0.4,8.7,1.1,8.8c1.3,0.2,6.6-28.8,7-31.2c3.7-21.4,6.2-42.6,7.3-69.9c1.4-34.8,2.1-52.2-5.1-74.5
		c-10.4-32.1-28.4-48.8-32.4-52.4c-15-13.4-28.2-17.1-32.4-18.2C198.8,655.7,179.1,661.2,179.1,661.2z"/>
	<path fill="#F9A98A" d="M78.9,708.4c0.4-0.1-21,30-20.2,57.1c0.7,22.8,12.3,39.6,22,53.6c13.6,19.7,29.2,31.8,54.6,51.6
		c8,6.3,14.4,10.7,20.3,14.5c12.2,7.9,21.8,12.7,32.2,17.9c18.3,9.2,27.7,13.2,36.4,15.7c6,1.7,21.8,5.5,21.5,7.8
		c-0.1,0.5-2,2-3.6,3.4c-1.2,1-1.5,1.4-2.1,1.7c-1.4,0.6-2.8,0-4.1-0.6c-2.4-1.2-4.9-2.4-7.5-3.1c-1.3-0.4-3.2-1.5-3.8-1.6
		c-7.1-1.5-14.1-3.7-20.9-6.1c-6.5-2.4-12.9-5-19.2-7.8c-5.4-2.4-10.8-4.4-16.1-7c-7.3-3.6-14.3-7.9-21.4-11.9
		c-7.1-4-14-8.1-20.9-12.4c-9.8-6.2-19.5-12.9-28.4-20.5c-13.7-11.8-20.8-19.8-24.5-24.3C54,812.3,39.7,782,47.6,750.7
		C52.7,730.6,78.5,708.5,78.9,708.4z"/>
	<path fill="#F89E7E" d="M103.7,688.9c-0.1-0.1-17,7.4-23,23.6c-2.6,6.9-4,17.4,5.4,41.3c3.7,9.5,12.7,30.1,41.8,66
		c10.1,12.4,22.2,27.3,41,45c26.5,24.9,39.8,37.4,56.3,44.1c9.5,3.9,23.3,6.8,23.3,13.1c0,3.2-2.7,6.9-5.7,6.8
		c-3.2-0.1-3.7-0.6-8.6-4.3c-4.5-3.5-2.3-3.1-4.5-3.5c-13.2-2.2-56.4-24.6-70.8-32.9c-17.7-10.2-46.9-27.5-74.3-59.2
		c-15.3-17.7-25-29.2-28.5-48.1c-5-27.4,7.1-49.8,10.2-55.5C80.7,699.8,103.8,689.1,103.7,688.9z"/>
	<path fill="#F68D6A" d="M145.5,669.4c0,1.4,13,2,26.5,6.8c17.8,6.4,27.7,19.7,38.4,34.4c22.1,30.5,29.2,61.1,33.6,80.5
		c5.2,23.2,6.6,43.7,7.7,59.2c2.2,31.9,1.1,59.3,8,60.6c2.2,0.4,5.7-1.7,7.1-4.3c1.9-3.4,0.7-8.1,0.6-8.5c-0.3-1-0.7-3.4-0.7-3.4
		l0,0c1.1-30.1,2.4-32.1,2.4-32.1c1.8-53.4-10.4-99.6-10.4-99.6c-5-17.9-10.3-35.7-24-56.1c-4.8-7.2-12.9-22-31-34.1
		c-16-10.8-21.7-11.6-26.3-11.6C165.7,661.1,145.5,667.9,145.5,669.4z"/>
	<path fill="#F37145" d="M124.2,676.1c0.7-0.3,8.3,3.5,9.1,4c3,1.7,6,3.3,8.9,5.1c5.8,3.7,11.3,7.8,16.5,12.3
		c10.5,9.2,19.5,20,26.5,32c9.8,16.8,15.8,35.5,23,53.6c8.1,20.3,16.7,39.7,22.1,60.9c2.5,9.9,6,19.8,8.8,29.8
		c2.3,8.3,4.5,16.7,7.1,24.9c1.3,3.9,4.3,17.2,10.3,16.9c2.5-0.1,6.3-3.3,7.1-6.8c0.6-2.9,1.8-7.3-0.4-11.3c-1.9-3.4-1.6-4-3.8-7.6
		c-5.7-9.7-8-55.4-10.8-74.1c-4-26.3-8.2-47-13.9-60.3c-14.3-33.2-26.8-49.8-31.3-55.5c-12.7-16.1-23.6-22.1-30.1-24.4
		c-6.5-2.3-18.9-9.4-33-6.4C135.4,670.3,124.3,676.1,124.2,676.1z"/>
	<path fill="#F68D6A" d="M104.6,688.6c0,0-5.8,10.3-8,23c-2.7,16.1,4.4,30.2,16.8,50.1c17.6,28.2,33.9,48.8,44.4,61.7
		c29.4,36.4,45,53.2,54.1,59.5c15.7,10.9,43,30.7,42.1,34.9c-0.9,4.1-1.8,4.2-3.2,5c-0.8,0.5-3.1,3.2-4,2.8
		c-0.3-0.1-2.6-0.6-2.7-0.9c-0.7-2.9-3.5-4.5-5.7-6.5c-2-1.8-4.8-3-6.9-4.7c-4-3.2-10-5.5-14.1-8.3c-5-3.3-9.9-6.4-14.6-10.1
		c-10.5-8-18.6-15.4-28.2-24.4c-6.2-5.8-12.4-11.7-18.4-17.8c-0.3-0.3-0.6-0.6-0.9-0.9c-16.5-18.2-25.1-26.9-36.8-40.7
		c-22.8-26.7-31.7-45.2-33.4-50.1c-5.5-15.5-9.8-34.6-3.4-51.1C86.9,696.6,104.6,688.6,104.6,688.6z"/>
	<path fill="#F4794E" d="M104,687.5c0.1,1.4,6.1,0.6,13.4,4c9.7,4.5,14,13,16.8,17.4c20.6,32.8,38.7,69.2,58.6,103.3
		c34.1,58.3,48.2,109.4,59.8,107c1.7-0.4,9.8-4.9,10.1-8.4c0.2-1.9,1.3-0.6-5.5-14.6c-1.6-3.2-5-8.9-7.1-14
		c-7.2-17.4-14.9-41.1-18.2-47.2c-5.2-9.6-23.1-59.3-39-90.2c-5.1-9.9-10.4-26.8-25.3-42.7c-7-7.4-15.8-23.3-31-26.1
		C120.4,673,103.8,685.2,104,687.5z"/>
	<path fill="#FABEAA" d="M106.4,687.1c4.6-1.2,14.6,1.3,21.2,7.8c15.9,15.9,19.1,33.5,23,41.3c7.4,14.6,16.2,28.4,24.2,42.7
		c3.9,7,13,22.9,31.3,54.8c16.9,29.6,26,44.1,27.2,45.5c12.1,14.8,24.2,37.8,24.2,37.8s-4.3,4.8-5.5,5.3c-1.2,0.4-18.1-12.3-43.7-40
		c-27-29.3-30.3-31.4-41.4-45.8c-6.8-8.8-6-6.5-22-29.3c-21.5-30.7-32.6-43.9-43.5-66.8c-4-8.4-7.5-21.1-5.2-35.1
		C96.6,702.5,98.8,689,106.4,687.1z"/>
	<path fill="#EF4523" d="M233,937.3l18.1,14.8l2.9,1.1c0,0,12.4-6.3,20.2-14.2c7.7-8,10-11.4,10-11.4L269.9,909l-3.2-4.1
		c0,0-7.6,9.1-18.2,18.5C238,932.8,233,937.3,233,937.3z"/>
	<g>
		<path fill="#231F20" d="M260.7,952.2c2.1,3.6,7.1,3.4,10.8,3.2c4.2-0.2,8.6-2.5,12.7-2c0.1,0,0.2-0.2,0.3-0.2
			c-4.1-0.6-8.5,1.8-12.7,2c-3.7,0.2-8.7,0.4-10.8-3.2C261,952.1,260.7,952.2,260.7,952.2L260.7,952.2z"/>
	</g>
	<g>
		<path fill="#231F20" d="M277.9,939.8c1.1-0.3,1.9,0.2,3,0.5c1.4,0.3,2.7,0.5,4.1,0.6c1.4,0.1,2.8,0,4.2-0.1
			c0.7-0.1,3.3-0.8,3.1,0.1c0-0.1,0.3-0.1,0.3-0.2c0.2-0.9-2.3-0.2-3.1-0.1c-1.4,0.1-2.8,0.2-4.2,0.1c-1.4-0.1-2.8-0.2-4.1-0.6
			c-1.1-0.3-1.9-0.7-3-0.5C278.1,939.7,278.1,939.8,277.9,939.8L277.9,939.8z"/>
	</g>
	<path fill="#231F20" stroke="#231F20" stroke-width="0.1" stroke-miterlimit="10" d="M284.5,958.1c1.8,0.9,14,4.9,14,4.9l9.1-4
		l1-12.2l-14.5-5.6l-8.4,6.1L284.5,958.1z"/>
	<g>
		<path fill="#231F20" d="M284,930.7c-1.7,2.1-1.7,5.3,0.2,7.3c2.1,2.2,5.6,1.5,8.3,1.2c0.1,0,0.2-0.2,0.3-0.2
			c-2.7,0.3-6.2,1-8.3-1.2c-1.9-2-1.9-5.2-0.2-7.3C284.2,930.6,284.1,930.6,284,930.7L284,930.7z"/>
	</g>
</g>
</svg>
