<?xml version="1.0" encoding="utf-8"?>
<!-- Generator: Adobe Illustrator 18.1.1, SVG Export Plug-In . SVG Version: 6.00 Build 0)  -->
<svg version="1.1" id="Layer_1" xmlns="http://www.w3.org/2000/svg" xmlns:xlink="http://www.w3.org/1999/xlink" x="0px" y="0px"
	 viewBox="40.3 744.2 960.2 387.3" enable-background="new 40.3 744.2 960.2 387.3" xml:space="preserve">
<g id="omusing_copy">
	<g>
		<path fill="#565F65" d="M147.3,1027.4c-9.6-21.8-15.6-43.3-17.9-64.4c-2.3-21.1-0.5-40.9,5.3-59.5c5.9-18.5,16-35.5,30.3-50.9
			c14.4-15.4,33.5-28.3,57.2-38.8c23.1-10.2,45.1-15.6,66.1-16.2c20.9-0.6,40.3,3.2,58,11.2c17.8,8,33.8,19.9,48,35.7
			c14.3,15.8,26.4,35,36.3,57.4c9.8,22.1,15.8,43.7,18,64.8s0.3,41-5.7,59.5s-16.2,35.4-30.7,50.7c-14.4,15.2-33.3,28-56.7,38.4
			c-22.9,10.1-44.7,15.5-65.5,16.2s-40.1-2.9-58-10.7c-17.8-7.8-33.9-19.6-48.3-35.4C169.7,1069.6,157.4,1050.2,147.3,1027.4z
			 M224.4,993.3c14.5,32.8,30.7,55.2,48.5,67.3s37.9,13.2,60.1,3.4c21.8-9.6,34.4-25.2,37.7-46.5c3.3-21.4-2.3-48.5-16.8-81.4
			c-7-15.9-14.5-29.4-22.6-40.6c-8-11.2-16.6-19.9-25.6-26s-18.6-9.6-28.7-10.4c-10.1-0.8-20.7,1.2-32,6.2
			c-11.1,4.9-19.7,11.4-25.9,19.4s-10,17.4-11.6,28.2c-1.5,10.8-0.9,22.9,2,36.4C212.5,962.7,217.4,977.4,224.4,993.3z"/>
	</g>
	<g>
		<path fill="#565F65" d="M463.7,963.3c0-5.1,0.9-9,2.8-11.7c1.8-2.7,5-4.1,9.5-4.1c4.7,0,8.1,1.4,10.2,4.1
			c2.1,2.7,3.1,6.6,3.1,11.7c1.1-2.6,2.5-4.9,4.4-7c1.8-2.1,3.9-3.9,6.3-5.4s4.9-2.7,7.7-3.5c2.8-0.8,5.7-1.2,8.6-1.2
			c2.8,0,5.5,0.4,8.2,1.1c2.7,0.7,5.2,1.9,7.5,3.4c2.3,1.6,4.4,3.6,6.1,6c1.8,2.4,3.1,5.3,4.1,8.6c1.7-3.6,3.6-6.6,5.8-9
			c2.2-2.5,4.7-4.4,7.3-5.9s5.3-2.6,8.2-3.2c2.9-0.6,5.7-1,8.6-1c3.4,0,6.7,0.6,9.8,1.8s5.9,3.1,8.2,5.6s4.3,5.6,5.7,9.4
			s2.1,8.1,2.1,13.2v36.2c0,5.1-1,9-3.1,11.7c-2.1,2.7-5.5,4.1-10.2,4.1c-4.5,0-7.6-1.4-9.5-4.1c-1.8-2.7-2.8-6.6-2.8-11.7v-35.1
			c0-2.4-0.3-4.5-1-6.4c-0.6-1.9-1.5-3.5-2.7-4.8c-1.1-1.3-2.5-2.3-4-3c-1.6-0.7-3.2-1-5-1c-2.2,0-4.3,0.3-6.2,1
			c-2,0.7-3.7,1.8-5.2,3.2s-2.6,3.3-3.5,5.5s-1.3,4.9-1.3,8.1v32.4c0,5.1-1,9-3.1,11.7s-5.5,4.1-10.2,4.1c-4.5,0-7.6-1.4-9.5-4.1
			c-1.8-2.7-2.8-6.6-2.8-11.7v-33.5c0-5.5-1.1-9.7-3.4-12.5s-5.3-4.2-9.2-4.2c-2.3,0-4.4,0.4-6.4,1.1c-2,0.7-3.7,1.8-5.1,3.3
			c-1.4,1.4-2.6,3.2-3.4,5.4c-0.8,2.1-1.2,4.6-1.2,7.4v33.1c0,5.1-1,9-3.1,11.7c-2.1,2.7-5.5,4.1-10.2,4.1c-4.5,0-7.6-1.4-9.5-4.1
			c-1.8-2.7-2.8-6.6-2.8-11.7l0.2-50.1l0,0V963.3z"/>
		<path fill="#565F65" d="M634.1,998.4c0,2.5,0.3,4.7,1,6.6c0.7,1.9,1.6,3.4,2.8,4.7s2.5,2.2,4.1,2.8s3.3,0.9,5.1,0.9
			c2.1,0,4.2-0.3,6.2-1c2-0.6,3.7-1.6,5.2-3c1.5-1.3,2.7-3,3.6-5c0.9-2,1.4-4.4,1.4-7.1v-33.9c0-5.1,0.9-9,2.8-11.7
			c1.8-2.7,5-4.1,9.5-4.1c4.8,0,8.1,1.4,10.2,4.1c2.1,2.7,3.1,6.6,3.1,11.7v49c0,5.1-1,9-3.1,11.7c-2.1,2.7-5.5,4.1-10.2,4.1
			c-4.5,0-7.6-1.4-9.5-4.1c-1.8-2.7-2.8-6.6-2.8-11.7c-1.1,2.5-2.6,4.7-4.4,6.7c-1.8,2-3.9,3.8-6.2,5.2c-2.4,1.5-5,2.6-7.8,3.4
			c-2.9,0.8-5.9,1.2-9.2,1.2c-3.6,0-7-0.6-10.3-1.9c-3.3-1.3-6.2-3.1-8.7-5.6s-4.5-5.6-6-9.2c-1.5-3.7-2.2-8-2.2-12.9v-35.9
			c0-5.1,0.9-9,2.8-11.7c1.8-2.7,5-4.1,9.5-4.1c4.8,0,8.1,1.4,10.2,4.1c2.1,2.7,3.1,6.6,3.1,11.7L634.1,998.4L634.1,998.4
			L634.1,998.4z"/>
		<path fill="#565F65" d="M719.6,969c0,2.1,0.9,3.7,2.7,4.8s4.3,2.1,7.5,2.8c3,0.7,6.2,1.4,9.4,2s6.3,1.4,9.4,2.2
			c3,0.8,5.9,1.8,8.6,2.9c2.7,1.1,5,2.5,7,4.2s3.6,3.7,4.8,6.1c1.2,2.4,1.8,5.2,1.8,8.5c0,4.2-0.9,7.9-2.6,11.1
			c-1.7,3.2-4.1,6-7.2,8.2c-3.1,2.2-6.8,4-11.2,5.2c-4.3,1.2-9.1,1.9-14.3,1.9c-5,0-9.7-0.3-14.3-0.9s-8.7-1.6-12.2-2.8
			c-3.5-1.3-6.4-2.9-8.5-4.8c-2.1-1.9-3.2-4.1-3.2-6.7c0-2.2,0.7-4,2.2-5.2c1.4-1.2,3.3-1.8,5.5-1.8c0.9,0,1.9,0.2,3,0.5
			c1.2,0.3,2.5,0.7,3.8,1.2c1.4,0.5,2.9,1,4.4,1.6c1.6,0.6,3.2,1.1,4.9,1.5c2.1,0.6,4.3,1.1,6.6,1.4c2.3,0.3,4.6,0.5,7,0.5
			c1.5,0,3-0.1,4.4-0.4c1.4-0.3,2.7-0.7,3.9-1.4c1.1-0.6,2.1-1.4,2.8-2.4s1.2-2.1,1.4-3.5c0.2-0.3,0.3-0.6,0.4-1
			c0.1-0.3,0.2-0.7,0.2-1.1c0-1.5-0.7-2.8-2-4c-1.4-1.2-3.3-2.1-5.7-2.8c-4.1-1-8-1.8-11.8-2.6c-3.7-0.8-7.2-1.7-10.4-2.6
			c-3.2-0.9-6.1-1.9-8.6-3.1c-2.6-1.2-4.8-2.6-6.6-4.3s-3.2-3.8-4.2-6.2s-1.5-5.3-1.5-8.7c0-3.7,0.8-7,2.5-9.9s4.1-5.3,7.2-7.3
			c3.1-2,7-3.5,11.4-4.5c4.5-1,9.6-1.6,15.2-1.6c10.1,0,17.9,1.2,23.2,3.6c5.3,2.4,8,5.6,8,9.5c0,2.2-0.7,3.9-2.2,5
			c-1.4,1.1-3.2,1.7-5.2,1.7c-1.1,0-2.2-0.2-3.3-0.6c-1.1-0.4-2.5-0.9-4.1-1.4s-3.5-1-5.7-1.4s-4.9-0.6-8.2-0.6
			c-2.5,0-4.7,0.1-6.7,0.3s-3.7,0.6-5.1,1.1c-1.4,0.5-2.5,1.3-3.3,2.2C720,966.5,719.6,967.6,719.6,969z"/>
		<path fill="#565F65" d="M809,919.1c0,1.8-0.4,3.3-1.2,4.7s-1.8,2.5-3.1,3.4s-2.8,1.6-4.4,2c-1.7,0.5-3.4,0.7-5.2,0.7
			c-1.9,0-3.6-0.2-5.3-0.7s-3.2-1.2-4.4-2.1s-2.3-2.1-3-3.4c-0.7-1.3-1.1-2.9-1.1-4.6c0-1.5,0.4-3,1.1-4.3c0.7-1.3,1.7-2.4,2.9-3.4
			s2.7-1.7,4.4-2.2s3.6-0.8,5.6-0.8c1.8,0,3.5,0.2,5.2,0.7s3.2,1.2,4.4,2.1c1.3,0.9,2.3,2,3.1,3.4C808.6,915.9,809,917.4,809,919.1z
			 M807.8,1012.3c0,5.1-1,9-3.1,11.7c-2.1,2.7-5.5,4.1-10.2,4.1c-4.5,0-7.6-1.4-9.5-4.1c-1.8-2.7-2.8-6.6-2.8-11.7v-49
			c0-5.1,0.9-9,2.8-11.7c1.8-2.7,5-4.1,9.5-4.1c4.8,0,8.1,1.4,10.2,4.1c2.1,2.7,3.1,6.6,3.1,11.7V1012.3z"/>
		<path fill="#565F65" d="M820.4,963.3c0-5.1,0.9-9,2.8-11.7c1.8-2.7,5-4.1,9.5-4.1c4.7,0,8.1,1.4,10.2,4.1
			c2.1,2.7,3.1,6.6,3.1,11.7c1-2.6,2.3-4.9,4.2-7s4-3.9,6.4-5.4c2.5-1.5,5.2-2.7,8.2-3.5s6.1-1.2,9.4-1.2c3.4,0,6.7,0.6,10,1.8
			c3.2,1.2,6.1,3.1,8.5,5.6c2.5,2.5,4.4,5.6,5.9,9.4c1.5,3.8,2.2,8.1,2.2,13.2v36.2c0,5.1-1,9-3.1,11.7c-2.1,2.7-5.5,4.1-10.2,4.1
			c-4.5,0-7.6-1.4-9.5-4.1c-1.8-2.7-2.8-6.6-2.8-11.7v-35.1c0-2.6-0.3-4.8-1-6.7s-1.6-3.5-2.8-4.7c-1.2-1.3-2.5-2.2-4.1-2.8
			s-3.3-1-5.1-1c-2.2,0-4.4,0.4-6.4,1.1c-2,0.7-3.7,1.8-5.2,3.2s-2.6,3.2-3.5,5.4c-0.9,2.1-1.3,4.6-1.3,7.4v33.1c0,5.1-1,9-3.1,11.7
			c-2.1,2.7-5.5,4.1-10.2,4.1c-4.5,0-7.6-1.4-9.5-4.1c-1.8-2.7-2.8-6.6-2.8-11.7L820.4,963.3z"/>
		<path fill="#565F65" d="M971.6,1012.6c-1.4,2.7-3.2,4.9-5.2,6.8c-2.1,1.9-4.3,3.4-6.8,4.6c-2.5,1.2-5.1,2.1-7.9,2.6
			c-2.8,0.6-5.7,0.8-8.6,0.8c-4.9,0-9.4-0.9-13.4-2.6c-4.1-1.8-7.5-4.3-10.4-7.6s-5.2-7.4-6.8-12.3c-1.6-4.9-2.4-10.4-2.4-16.6
			c0-5.9,0.7-11.4,2.2-16.5s3.7-9.6,6.5-13.4c2.9-3.8,6.4-6.8,10.5-9c4.2-2.2,8.9-3.3,14.2-3.3c6.1,0,11.5,1.2,16.2,3.5
			s8.8,6.2,12.2,11.5V959c0-3.8,1.1-6.7,3.2-8.7c2.1-1.9,5-2.9,8.8-2.9c2.2,0,4.1,0.4,5.7,1.1c1.5,0.7,2.8,1.8,3.7,3.2
			s1.6,3.1,2,5.2c0.4,2.1,0.6,4.4,0.6,7v53.6c0,6.5-0.8,12.3-2.4,17.4c-1.6,5.1-4.1,9.4-7.6,13c-3.4,3.5-7.8,6.2-13.1,8
			c-5.3,1.8-11.7,2.8-19,2.8c-5.2,0-9.7-0.2-13.7-0.7s-7.4-1.1-10.3-2c-2.9-1-5.1-2.1-6.5-3.4c-1.5-1.2-2.2-2.8-2.2-4.8
			c0-1.1,0.2-2.2,0.5-3.2s0.8-1.9,1.5-2.7c0.7-0.8,1.5-1.4,2.6-1.8c1.1-0.5,2.4-0.7,4-0.7c1.7,0,3.4,0.1,5.2,0.3
			c1.7,0.2,3.5,0.4,5.4,0.7c1.9,0.2,3.9,0.5,6,0.7c2.1,0.2,4.4,0.3,6.8,0.3c2.9,0,5.5-0.3,7.8-0.9c2.3-0.6,4.2-1.6,5.8-3.1
			s2.8-3.5,3.7-6s1.3-5.6,1.3-9.5L971.6,1012.6L971.6,1012.6L971.6,1012.6L971.6,1012.6z M971.6,987.8c0-3.9-0.3-7.4-0.8-10.6
			c-0.6-3.2-1.5-5.9-2.8-8.2s-3.1-4-5.4-5.3c-2.2-1.3-5-1.9-8.4-1.9c-3.3,0-6,0.7-8.2,2s-3.9,3.2-5.2,5.5s-2.2,5.1-2.7,8.2
			c-0.5,3.1-0.8,6.5-0.8,10.1c0,8.2,1.4,14.3,4.3,18.4c2.9,4.1,7.1,6.2,12.6,6.2c2.6-0.1,4.9-0.5,7-1.5c2.1-0.9,3.9-2.4,5.5-4.4
			c1.5-2,2.7-4.5,3.6-7.5C971.2,995.8,971.6,992.1,971.6,987.8z"/>
	</g>
</g>
<g id="hotairballoonColor_copy_2">
	<g>
		<g>
			<path fill="#F4794E" d="M281.7,1026.7c0.1-0.1,0.1-0.2,0.2-0.3H281c1-2,1.4-3.5,1.4-3.5s-1.9-2.3-2.8-3.3c2-2.2,3.2-3.7,3.8-4.6
				c0.1-0.4,0.2-0.8,0.4-1.2l-14-18.3l-2.7-3.5c0.4-1,0.5-2,0.6-3c0.1-0.4,0.2-0.8,0.3-1.2c1.4-2.1,2-4.6,2.1-5.2
				c0.4-1.6,0.5-3.6,0.3-5.4c0.2-0.8,0.3-1.5,0.5-2.3l0,0c1.1,0.3,5.7-8.5,6.8-11c0,0.1,0.1,0.2,0.2,0.3c1.5,0.4,10-20.7,15.6-42.7
				c11.6-45.3,7.4-79.5,6.3-87.4c-3.9-28.4-12.1-42.4-14.5-46.4c-9-14.8-19.5-22.9-21.6-24.5c-19.8-15-41.6-17.2-44.8-16.7
				c-1.3-0.3-2.3-0.4-2.3-0.1c0,0,1,0.5,2.6,1.5c-3.7-1.5-6.6-2.3-8.2-2.7c-12.2-3.1-31.9,2.4-31.9,2.4s1-0.6,2.8,0.5
				c-1.8-0.4-3.3-0.5-4.7-0.5c-10.1-0.1-26.9,5.2-30.9,7.5c-2,0.1-4,0.3-6.1,0.7c-4.9,1-15.9,6.8-16,6.8c0.1,0,0.2,0,0.4,0
				c-11.4,2.3-20.7,9.6-20.6,11.4c0,0.2,0.2,0.3,0.4,0.5c-0.7,0.4-1.3,0.9-1.9,1.5c-1.8,0.9-5.3,2.8-9.1,6c3.9-2.8,7-4.6,8.8-5.6
				l-0.1,0.1c-3,1.6-8.1,4.7-12.7,9.2c1.3-1.4,2.7-2.6,4-3.7c-4.4,3.2-9.7,7.6-14.9,13.3c-3.3,2.7-26.1,23.2-30.8,41.9
				c-0.6,2.3-1,4.6-1.4,6.8c-1.8,4.4-3.8,10.1-4.9,17.1c-1.4,8.6-0.8,15.3-0.5,18.9c0.1,0.7,0.2,1.4,0.3,2.1c-0.9,7-1,15.8,1.4,25.5
				c1.9,7.6,4,14.4,7.9,21.1c0.9,1.4,2.1,3.1,3,4.6C63.9,950.3,78,965,95.7,974.6c9.7,5.3,20,8.7,30.1,13.1c9.3,4,19.2,7,28.8,10.5
				c51,18.4,53,20.7,59.5,20.2c3.6-0.3,7.8-0.3,11,1.4c0.7,0.3,1.3,0.8,1.6,1.4c0.3,0.6,1.2,0.7,1.6,1.2c1,1.5,2.1,1.8,3.5,1.7
				c0.4-0.1,0.9-0.2,1.3-0.4l18.1,14.8l2.9,1.1c0,0,4-2,8.9-5.2c0.7,1.1,2.2,3.2,2.2,3.2s6.3-1.3,10.8-4.6c2.4-1.7,4-4.3,5.1-6.5
				C281.2,1026.6,281.4,1026.6,281.7,1026.7z M78.8,807.8c0.2-3.6,1-6.4,1.8-8.8c0.2-0.6,0.5-1.2,0.8-1.8
				C80.1,800.6,79.3,804.1,78.8,807.8z M120.1,858.6c6.6,9.6,14.5,20.2,24.7,34.8C137.5,883.9,129,872.3,120.1,858.6z M192.8,831.1
				c-1.4-2.7-2.8-5.8-4.3-9.4c2.2,4.2,4.2,8.5,6.1,12.9C193.9,833.4,193.3,832.2,192.8,831.1z M217.9,808.3
				c4.5,7.3,8.1,14.5,11.2,21.5C225.1,821.4,221.3,814.2,217.9,808.3z M264.8,790.5c1.3,2.3,2.8,4.9,4.2,8
				C267.6,795.7,266.2,793,264.8,790.5z"/>
		</g>
	</g>
</g>
<g id="hotairballoonColor_copy_3">
	<path fill="#231F20" stroke="#231F20" stroke-width="0.1" stroke-miterlimit="10" d="M262.5,1033.8c0.2,0.6,2.6,3.8,2.6,3.8
		s6.3-1.3,10.8-4.6c4.6-3.4,6.6-10.2,6.6-10.2s-2.7-3.2-3.2-3.6c0,0-1.4-1.2-4.7-1.1C267.7,1018.4,260.9,1027.4,262.5,1033.8z"/>
	<path fill="#FABCA8" d="M218.4,746.6c-0.2,0.7,13.8,2.7,29,13.9c2.5,1.8,12.1,9.1,21.6,23.6c3.4,5.1,14.1,22.4,19.1,53.2
		c5.7,35.8,0,67.7-5.4,97.9c-2.9,16.2-6,28.4-4.8,28.7c1.5,0.4,10-20.7,15.6-42.7c11.6-45.3,7.4-79.5,6.3-87.4
		c-3.9-28.4-12.1-42.4-14.5-46.4c-9-14.8-19.5-22.9-21.6-24.5C242.3,747,218.7,745.6,218.4,746.6z"/>
	<path fill="#F69472" d="M267.6,971.4c3,1.3,3.4,7.2,2.6,11.1c-0.3,1.1-1.7,7.6-6.5,8.5c-4.3,0.8-8.9-3.2-9.7-7.1
		C252.6,976.9,263.2,969.4,267.6,971.4z"/>
	<path fill="#EF4523" d="M44.3,865.5c-0.1,11.1,1.1,31.2,12,52.4c7.9,15.5,19.4,30.3,33.7,40.2c4.8,3.3,10.5,6.8,15.6,9.6
		c6.4,3.4,23.9,12.8,50.9,24.8c20.3,9,41,18,62.5,23.8c3.9,1.1,7.4,2.7,11.2,4.2c1.4,0.5,5.4,1.8,5.4,1.8s-2.2,1.5-4,1.8
		c-1.4,0.2-2.5-0.1-3.5-1.7c-0.4-0.6-1.2-0.6-1.6-1.2c-0.3-0.7-1-1.1-1.6-1.4c-3.2-1.6-7.5-1.6-11-1.4c-6.5,0.5-8.5-1.8-59.5-20.2
		c-9.6-3.5-19.4-6.5-28.8-10.5c-10.1-4.4-20.4-7.8-30.1-13.1c-17.7-9.7-31.8-24.4-42.2-41.4c-0.9-1.4-2.1-3.1-3-4.6
		c-4-6.7-6-13.5-7.9-21.1c-3.6-14.5-1.6-27,0.3-34.3L44.3,865.5z"/>
	<path fill="#F69472" d="M216.5,746.4c0,0,27.1,14.7,43.3,36.5c1.8,2.5,9.7,13.4,14.5,29.6c1.7,5.7,2.8,11.3,4.4,32.4
		c1.5,19.1,2.2,28.7,2.3,39.4c0.3,46.9-14.3,89.2-10.1,90.4c1.2,0.4,6.3-9.7,6.9-11.5c6.4-18.4,9.9-37.3,11.5-56.7
		c3.3-39.7,3.8-81-14.7-117.3c-5.1-10-11.1-17.9-19.5-25.3c-3.6-3.2-7.7-5.4-11.6-8.2c-6.9-5-14.2-6.8-19-8
		C221.4,747,216.5,745.7,216.5,746.4z"/>
	<path fill="#F68F68" d="M47.4,841.5c-0.5,8.7-0.3,21.7,3.8,36.5c9.2,32.7,31.6,52.9,49.7,69.1c15.4,13.8,29,22.3,39.9,29
		c14.5,9,31.4,19.4,52.7,26.3c29,9.4,43.6,14.1,43.7,14.1c0.4,0,2.1-0.1,2.6,0.9c0.5,0.9-0.5,2.6-1.5,3.4c-0.3,0.3-1.3,1.2-2.8,1.3
		c-0.8,0-1.4-0.2-1.9-0.4c-1.5-0.6-3.1-0.9-4.6-1.4c-2.6-1-16.1-4.7-34.1-10.7c-11.7-3.9-25.4-9-39.2-14.4
		c-29.1-11.3-44.8-17.6-62.3-29.8c-9.8-6.8-18.1-12.6-27-23.2c0,0-22.7-26.9-25.7-62.3c-0.3-3.6-0.8-10.3,0.5-18.9
		C42.7,852.7,45.3,846,47.4,841.5z"/>
	<path fill="#F68F6C" d="M179.1,747.6c0,0,25.5,13.5,47.2,37.5c17.8,19.6,22.9,40.3,30.2,70c0,0,13.9,56.9,9.1,127.5
		c-0.1,1.9,0.4,8.7,1.1,8.8c1.3,0.2,6.6-28.8,7-31.2c3.7-21.4,6.2-42.6,7.3-69.9c1.4-34.8,2.1-52.2-5.1-74.5
		c-10.4-32.1-28.4-48.8-32.4-52.4c-15-13.4-28.2-17.1-32.4-18.2C198.8,742.1,179.1,747.6,179.1,747.6z"/>
	<path fill="#F9A98A" d="M78.9,794.8c0.4-0.1-21,30-20.2,57.1c0.7,22.8,12.3,39.6,22,53.6c13.6,19.7,29.2,31.8,54.6,51.6
		c8,6.3,14.4,10.7,20.3,14.5c12.2,7.9,21.8,12.7,32.2,17.9c18.3,9.2,27.7,13.2,36.4,15.7c6,1.7,21.8,5.5,21.5,7.8
		c-0.1,0.5-2,2-3.6,3.4c-1.2,1-1.5,1.4-2.1,1.7c-1.4,0.6-2.8,0-4.1-0.6c-2.4-1.2-4.9-2.4-7.5-3.1c-1.3-0.4-3.2-1.5-3.8-1.6
		c-7.1-1.5-14.1-3.7-20.9-6.1c-6.5-2.4-12.9-5-19.2-7.8c-5.4-2.4-10.8-4.4-16.1-7c-7.3-3.6-14.3-7.9-21.4-11.9
		c-7.1-4-14-8.1-20.9-12.4c-9.8-6.2-19.5-12.9-28.4-20.5c-13.7-11.8-20.8-19.8-24.5-24.3c-19.2-24.1-33.5-54.4-25.6-85.7
		C52.7,817,78.5,794.9,78.9,794.8z"/>
	<path fill="#F89E7E" d="M103.7,775.3c-0.1-0.1-17,7.4-23,23.6c-2.6,6.9-4,17.4,5.4,41.3c3.7,9.5,12.7,30.1,41.8,66
		c10.1,12.4,22.2,27.3,41,45c26.5,24.9,39.8,37.4,56.3,44.1c9.5,3.9,23.3,6.8,23.3,13.1c0,3.2-2.7,6.9-5.7,6.8
		c-3.2-0.1-3.7-0.6-8.6-4.3c-4.5-3.5-2.3-3.1-4.5-3.5c-13.2-2.2-56.4-24.6-70.8-32.9c-17.7-10.2-46.9-27.5-74.3-59.2
		c-15.3-17.7-25-29.2-28.5-48.1c-5-27.4,7.1-49.8,10.2-55.5C80.7,786.2,103.8,775.5,103.7,775.3z"/>
	<path fill="#F68D6A" d="M145.5,755.8c0,1.4,13,2,26.5,6.8c17.8,6.4,27.7,19.7,38.4,34.4c22.1,30.5,29.2,61.1,33.6,80.5
		c5.2,23.2,6.6,43.7,7.7,59.2c2.2,31.9,1.1,59.3,8,60.6c2.2,0.4,5.7-1.7,7.1-4.3c1.9-3.4,0.7-8.1,0.6-8.5c-0.3-1-0.7-3.4-0.7-3.4
		l0,0c1.1-30.1,2.4-32.1,2.4-32.1c1.8-53.4-10.4-99.6-10.4-99.6c-5-17.9-10.3-35.7-24-56.1c-4.8-7.2-12.9-22-31-34.1
		c-16-10.8-21.7-11.6-26.3-11.6C165.7,747.5,145.5,754.3,145.5,755.8z"/>
	<path fill="#F37145" d="M124.2,762.5c0.7-0.3,8.3,3.5,9.1,4c3,1.7,6,3.3,8.9,5.1c5.8,3.7,11.3,7.8,16.5,12.3
		c10.5,9.2,19.5,20,26.5,32c9.8,16.8,15.8,35.5,23,53.6c8.1,20.3,16.7,39.7,22.1,60.9c2.5,9.9,6,19.8,8.8,29.8
		c2.3,8.3,4.5,16.7,7.1,24.9c1.3,3.9,4.3,17.2,10.3,16.9c2.5-0.1,6.3-3.3,7.1-6.8c0.6-2.9,1.8-7.3-0.4-11.3c-1.9-3.4-1.6-4-3.8-7.6
		c-5.7-9.7-8-55.4-10.8-74.1c-4-26.3-8.2-47-13.9-60.3c-14.3-33.2-26.8-49.8-31.3-55.5c-12.7-16.1-23.6-22.1-30.1-24.4
		c-6.5-2.3-18.9-9.4-33-6.4C135.4,756.7,124.3,762.5,124.2,762.5z"/>
	<path fill="#F68D6A" d="M104.6,775c0,0-5.8,10.3-8,23c-2.7,16.1,4.4,30.2,16.8,50.1c17.6,28.2,33.9,48.8,44.4,61.7
		c29.4,36.4,45,53.2,54.1,59.5c15.7,10.9,43,30.7,42.1,34.9c-0.9,4.1-1.8,4.2-3.2,5c-0.8,0.5-3.1,3.2-4,2.8
		c-0.3-0.1-2.6-0.6-2.7-0.9c-0.7-2.9-3.5-4.5-5.7-6.5c-2-1.8-4.8-3-6.9-4.7c-4-3.2-10-5.5-14.1-8.3c-5-3.3-9.9-6.4-14.6-10.1
		c-10.5-8-18.6-15.4-28.2-24.4c-6.2-5.8-12.4-11.7-18.4-17.8c-0.3-0.3-0.6-0.6-0.9-0.9c-16.5-18.2-25.1-26.9-36.8-40.7
		c-22.8-26.7-31.7-45.2-33.4-50.1c-5.5-15.5-9.8-34.6-3.4-51.1C86.9,783,104.6,775,104.6,775z"/>
	<path fill="#F4794E" d="M104,773.9c0.1,1.4,6.1,0.6,13.4,4c9.7,4.5,14,13,16.8,17.4c20.6,32.8,38.7,69.2,58.6,103.3
		c34.1,58.3,48.2,109.4,59.8,107c1.7-0.4,9.8-4.9,10.1-8.4c0.2-1.9,1.3-0.6-5.5-14.6c-1.6-3.2-5-8.9-7.1-14
		c-7.2-17.4-14.9-41.1-18.2-47.2c-5.2-9.6-23.1-59.3-39-90.2c-5.1-9.9-10.4-26.8-25.3-42.7c-7-7.4-15.8-23.3-31-26.1
		C120.4,759.4,103.8,771.6,104,773.9z"/>
	<path fill="#FABEAA" d="M106.4,773.5c4.6-1.2,14.6,1.3,21.2,7.8c15.9,15.9,19.1,33.5,23,41.3c7.4,14.6,16.2,28.4,24.2,42.7
		c3.9,7,13,22.9,31.3,54.8c16.9,29.6,26,44.1,27.2,45.5c12.1,14.8,24.2,37.8,24.2,37.8s-4.3,4.8-5.5,5.3c-1.2,0.4-18.1-12.3-43.7-40
		c-27-29.3-30.3-31.4-41.4-45.8c-6.8-8.8-6-6.5-22-29.3c-21.5-30.7-32.6-43.9-43.5-66.8c-4-8.4-7.5-21.1-5.2-35.1
		C96.6,788.9,98.8,775.4,106.4,773.5z"/>
	<path fill="#EF4523" d="M233,1023.7l18.1,14.8l2.9,1.1c0,0,12.4-6.3,20.2-14.2c7.7-8,10-11.4,10-11.4l-14.3-18.6l-3.2-4.1
		c0,0-7.6,9.1-18.2,18.5C238,1019.2,233,1023.7,233,1023.7z"/>
	<g>
		<path fill="#231F20" d="M260.7,1038.6c2.1,3.6,7.1,3.4,10.8,3.2c4.2-0.2,8.6-2.5,12.7-2c0.1,0,0.2-0.2,0.3-0.2
			c-4.1-0.6-8.5,1.8-12.7,2c-3.7,0.2-8.7,0.4-10.8-3.2C261,1038.5,260.7,1038.6,260.7,1038.6L260.7,1038.6z"/>
	</g>
	<g>
		<path fill="#231F20" d="M277.9,1026.2c1.1-0.3,1.9,0.2,3,0.5c1.4,0.3,2.7,0.5,4.1,0.6s2.8,0,4.2-0.1c0.7-0.1,3.3-0.8,3.1,0.1
			c0-0.1,0.3-0.1,0.3-0.2c0.2-0.9-2.3-0.2-3.1-0.1c-1.4,0.1-2.8,0.2-4.2,0.1c-1.4-0.1-2.8-0.2-4.1-0.6c-1.1-0.3-1.9-0.7-3-0.5
			C278.1,1026.1,278.1,1026.2,277.9,1026.2L277.9,1026.2z"/>
	</g>
	<path fill="#231F20" stroke="#231F20" stroke-width="0.1" stroke-miterlimit="10" d="M284.5,1044.5c1.8,0.9,14,4.9,14,4.9l9.1-4
		l1-12.2l-14.5-5.6l-8.4,6.1L284.5,1044.5z"/>
	<g>
		<path fill="#231F20" d="M284,1017.1c-1.7,2.1-1.7,5.3,0.2,7.3c2.1,2.2,5.6,1.5,8.3,1.2c0.1,0,0.2-0.2,0.3-0.2
			c-2.7,0.3-6.2,1-8.3-1.2c-1.9-2-1.9-5.2-0.2-7.3C284.2,1017,284.1,1017,284,1017.1L284,1017.1z"/>
	</g>
</g>
</svg>
