<?xml version="1.0" encoding="iso-8859-1"?>
<!-- Generator: Adobe Illustrator 18.1.1, SVG Export Plug-In . SVG Version: 6.00 Build 0)  -->
<svg version="1.1" baseProfile="tiny" id="Layer_1" xmlns="http://www.w3.org/2000/svg" xmlns:xlink="http://www.w3.org/1999/xlink"
	 x="0px" y="0px" viewBox="0 0 36.667 17.667" xml:space="preserve">
<path fill="#96A5AA" d="M34.833,3.667h-33C0.825,3.667,0,2.842,0,1.833v0C0,0.825,0.825,0,1.833,0h33
	c1.008,0,1.833,0.825,1.833,1.833v0C36.667,2.842,35.842,3.667,34.833,3.667z"/>
<path fill="#96A5AA" d="M34.833,10.667h-33C0.825,10.667,0,9.842,0,8.833v0C0,7.825,0.825,7,1.833,7h33
	c1.008,0,1.833,0.825,1.833,1.833v0C36.667,9.842,35.842,10.667,34.833,10.667z"/>
<path fill="#96A5AA" d="M34.833,17.667h-33C0.825,17.667,0,16.842,0,15.833v0C0,14.825,0.825,14,1.833,14h33
	c1.008,0,1.833,0.825,1.833,1.833v0C36.667,16.842,35.842,17.667,34.833,17.667z"/>
</svg>
