<?xml version="1.0" encoding="utf-8"?>
<!-- Generator: Adobe Illustrator 18.1.1, SVG Export Plug-In . SVG Version: 6.00 Build 0)  -->
<svg version="1.1" id="Layer_1" xmlns="http://www.w3.org/2000/svg" xmlns:xlink="http://www.w3.org/1999/xlink" x="0px" y="0px"
	 viewBox="0 248.6 612 294.9" enable-background="new 0 248.6 612 294.9" xml:space="preserve">
<g>
	<path fill="#687278" d="M581.4,309.8H30.6C13.8,309.8,0,296,0,279.2l0,0c0-16.8,13.8-30.6,30.6-30.6h550.8
		c16.8,0,30.6,13.8,30.6,30.6l0,0C612,296,598.2,309.8,581.4,309.8z"/>
	<path fill="#687278" d="M581.4,426.6H30.6C13.8,426.6,0,412.8,0,396l0,0c0-16.8,13.8-30.6,30.6-30.6h550.8
		c16.8,0,30.6,13.8,30.6,30.6l0,0C612,412.8,598.2,426.6,581.4,426.6z"/>
	<path fill="#687278" d="M581.4,543.4H30.6C13.8,543.4,0,529.7,0,512.8l0,0c0-16.8,13.8-30.6,30.6-30.6h550.8
		c16.8,0,30.6,13.8,30.6,30.6l0,0C612,529.7,598.2,543.4,581.4,543.4z"/>
</g>
</svg>
