<svg xmlns="http://www.w3.org/2000/svg" viewBox="0 0 79.4 90"><style>.a{fill:#FFF;}</style><path d="M63.1 86.9C63.1 86.8 63.2 86.8 63.1 86.9c0.1-0.1 0.1-0.1 0.2-0.1 0.1 0 0.1-0.1 0.2-0.1 0 0 0 0 0.1 0 0.1 0 0.2-0.1 0.2-0.1 0 0 0 0 0.1 0 0.1-0.1 0.2-0.1 0.3-0.2 0 0 0 0 0.1 0 0.1-0.1 0.3-0.2 0.4-0.2 0 0 0 0 0 0 0.3-0.2 0.6-0.4 1-0.6 0.2 0.3 0.7 0.9 0.7 0.9s1.5-0.3 2.8-1.1c0.1-0.1 0.2-0.1 0.4-0.2 0.2-0.1 0.3-0.3 0.5-0.4 0 0 0.1-0.1 0.1-0.2 0.1-0.1 0.2-0.2 0.3-0.3 0 0 0.1-0.1 0.1-0.1 0.1-0.1 0.2-0.2 0.2-0.4 0 0 0-0.1 0-0.1 0.1-0.1 0.2-0.3 0.2-0.4 0.9 0.2 1.8 0.2 2.7 0.1L70.9 83c0.3-0.6 0.4-1 0.4-1s0 0-0.1-0.1c0 0-0.1-0.1-0.1-0.1 0 0-0.1-0.1-0.1-0.1 0 0 0 0 0 0 -0.2-0.2-0.4-0.4-0.5-0.6 1-1.1 1.3-1.6 1.3-1.6l-4.2-5.5 -0.8-1C67 72.6 67 72.3 67 72c0-0.1 0.1-0.2 0.1-0.4 0.4-0.6 0.6-1.3 0.6-1.5 0.1-0.2 0.1-0.5 0.1-0.7 0 0 0 0 0-0.1 0-0.3 0-0.5 0-0.8 0-0.2 0.1-0.4 0.1-0.7 0 0 0 0 0.1 0 0 0 0 0 0 0 0 0 0 0 0.1-0.1 0 0 0 0 0 0 0 0 0 0 0.1-0.1 0 0 0 0 0.1-0.1 0 0 0.1-0.1 0.1-0.1 0 0 0-0.1 0.1-0.1 0 0 0.1-0.1 0.1-0.1 0 0 0-0.1 0.1-0.1 0 0 0.1-0.1 0.1-0.1 0 0 0-0.1 0.1-0.1 0-0.1 0.1-0.1 0.1-0.2 0 0 0-0.1 0.1-0.1 0-0.1 0.1-0.1 0.1-0.2 0 0 0-0.1 0.1-0.1 0-0.1 0.1-0.1 0.1-0.2 0 0 0-0.1 0.1-0.1 0-0.1 0.1-0.1 0.1-0.2 0 0 0-0.1 0.1-0.1 0-0.1 0.1-0.1 0.1-0.2 0 0 0-0.1 0.1-0.1 0-0.1 0.1-0.1 0.1-0.2 0 0 0-0.1 0.1-0.1 0 0 0-0.1 0.1-0.1 0 0 0-0.1 0.1-0.1 0 0 0-0.1 0-0.1 0.1-0.1 0.1-0.2 0.1-0.3 0 0 0 0.1 0.1 0.1 0.1 0 0.2-0.2 0.5-0.6 0.1-0.3 0.3-0.6 0.5-1 0.1-0.2 0.2-0.4 0.3-0.7 0.6-1.4 1.3-3.4 2-5.6 0.1-0.4 0.2-0.7 0.4-1.1 0.2-0.8 0.5-1.6 0.7-2.4 0.1-0.4 0.2-0.8 0.3-1.2 1.9-7.5 2.4-13.9 2.3-18.5 0-3.6-0.3-6.1-0.5-7.1 -0.3-2.1-0.7-3.9-1.1-5.5 -0.4-1.6-0.8-2.9-1.2-4 -0.2-0.6-0.4-1-0.6-1.5 -0.2-0.4-0.4-0.8-0.6-1.2 -0.3-0.7-0.6-1.2-0.8-1.4 -1.5-2.4-3.1-4.3-4.4-5.5 -0.3-0.3-0.5-0.5-0.8-0.7 -0.2-0.2-0.4-0.4-0.6-0.5 -0.1-0.1-0.2-0.1-0.2-0.2C66 6 65.9 6 65.8 5.9c-0.4-0.3-0.8-0.6-1.1-0.8 -0.1-0.1-0.3-0.2-0.4-0.2 -0.3-0.2-0.5-0.3-0.8-0.5 -0.1-0.1-0.3-0.2-0.4-0.2 -0.2-0.1-0.5-0.3-0.7-0.4 -0.2-0.1-0.3-0.2-0.5-0.2 -8.7-4.3-19-3.3-28.1-1.1 -6.4 1.6-12.7 4-17.4 8.8 0.5-0.3 1-0.7 1.4-1C8.4 17.8-0.5 26.8 0.6 40.1c0 0.2 0.1 0.4 0.1 0.6 0 0.2-0.1 0.5-0.1 0.7 0 0.1 0 0.2 0 0.3 0 0.3 0 0.7-0.1 1.1 0 0.2 0 0.4 0 0.7 0 0.2 0 0.3 0 0.5 0 0.4 0 0.7 0.1 1.1 0 0.1 0 0.1 0 0.2 0 0.4 0.1 0.8 0.1 1.2 0 0.1 0 0.2 0.1 0.4 0.1 0.5 0.2 0.9 0.3 1.4 0.5 2.2 1.2 4.2 2.3 6.2 0.1 0.2 0.3 0.4 0.4 0.7 0.2 0.2 0.3 0.5 0.4 0.7 0.5 0.9 1.1 1.7 1.7 2.6 2 2.7 4.3 5.1 6.9 7.2 1.2 0.9 2.4 1.7 3.7 2.4 2.1 1.2 4.4 2 6.6 2.9 0.7 0.3 1.5 0.6 2.2 0.9 0.2 0.1 0.4 0.2 0.6 0.2 1.2 0.5 2.4 0.9 3.6 1.4 0.7 0.2 1.4 0.5 2.1 0.7 0.7 0.2 1.4 0.5 2.1 0.7 1.4 0.5 2.7 1 3.8 1.4 0.4 0.1 0.8 0.3 1.1 0.4 4.3 1.6 7 2.6 8.6 3.2 0.1 0.1 0.3 0.1 0.4 0.1 0.6 0.2 1.1 0.4 1.5 0.5 0.2 0.1 0.5 0.1 0.7 0.2 0.3 0 0.5 0.1 0.7 0.1 0.1 0 0.1 0 0.2 0 0.1 0 0.2 0 0.3 0 0.7-0.1 1.6-0.1 2.4 0.1 0.3 0.1 0.6 0.2 0.9 0.3 0.1 0.1 0.3 0.2 0.4 0.3 0 0 0.1 0.1 0.1 0.1 0 0 0.1 0.1 0.1 0.1 0 0 0.1 0.1 0.1 0.1 0.1 0 0.2 0.1 0.2 0.2 0.1 0.2 0.3 0.4 0.5 0.4 0.2 0.1 0.4 0.1 0.6 0.1 0.1 0 0.3-0.1 0.4-0.1l1.9 1.5 3.4 2.8 0.5 0.2L63.1 86.9C63 86.9 63 86.9 63.1 86.9z" class="a"/><path d="M71.3 86.9l0.7 0C71.7 86.9 71.5 86.9 71.3 86.9z" class="a"/><path d="M65 86.6c0.1 0.2 0.3 0.4 0.5 0.6 0.2 0.2 0.5 0.2 0.8 0.3 1.4 0.2 2.9 0.1 4.2-0.3 0.2-0.1 0.5-0.2 0.7-0.2L65 86.6z" class="a"/><path d="M74.3 83.1c-0.3 0-0.5 0.1-0.8 0.1l0.7 0.1C74.3 83.2 74.3 83.1 74.3 83.1z" class="a"/><path d="M74.8 83.4l-2.5 1.8 -0.4 3.2c0.5 0.3 4.1 1.4 4.1 1.4l2.7-1.2L79 85 74.8 83.4z" class="a"/><path d="M71.6 80.8c-0.1 0.4-0.1 0.8 0.1 1.2 0.2 0.4 0.5 0.7 0.9 0.8 0.2 0 0.4 0 0.6 0 0.4 0 0.8 0 1.2-0.1l-2.5-2.5C71.7 80.4 71.6 80.6 71.6 80.8z" class="a"/></svg>