<?xml version="1.0" encoding="utf-8"?>
<!-- Generator: Adobe Illustrator 18.1.1, SVG Export Plug-In . SVG Version: 6.00 Build 0)  -->
<svg version="1.1" id="Layer_1" xmlns="http://www.w3.org/2000/svg" xmlns:xlink="http://www.w3.org/1999/xlink" x="0px" y="0px"
	 viewBox="0 0 960 560" enable-background="new 0 0 960 560" xml:space="preserve">
<g>
	<path d="M466,314.9V55.9h-33.5h-17.5V0H271.9v35.6h67c5.6,0,9.8,4.2,9.8,9.8s-4.2,9.8-9.8,9.8h-67c-25.1,0.7-81,11.2-81,38.4
		c0,63.5,0,129.2,0,129.2l-39.1,259.8h76.1c6.3,0,11.9,4.9,11.9,11.9c0,6.3-4.9,11.9-11.9,11.9h-79.6l0,0l0,0v54.5h256.3v-54.5
		l-25.8-195.5C396.9,312.8,430.4,314.2,466,314.9z"/>
	<path d="M769.8,222c0,0,0-65.6,0-129.2c0-26.5-56.6-37-81.7-37V0H544.2v35.6h67c5.6,0,9.8,4.2,9.8,9.8s-4.2,9.8-9.8,9.8H524h-30
		v259.1c35.6-0.7,69.1-2.1,88-4.9l-23,172.5h76.8c6.3,0,11.9,4.9,11.9,11.9c0,6.3-4.9,11.9-11.9,11.9h-79.6l0,0V560h255.6v-54.5
		L769.8,222z"/>
</g>
</svg>
