<?xml version="1.0" encoding="utf-8"?>
<!-- Generator: Adobe Illustrator 18.1.1, SVG Export Plug-In . SVG Version: 6.00 Build 0)  -->
<svg version="1.1" id="Layer_1" xmlns="http://www.w3.org/2000/svg" xmlns:xlink="http://www.w3.org/1999/xlink" x="0px" y="0px"
	 viewBox="0 0 960 560" enable-background="new 0 0 960 560" xml:space="preserve">
<path d="M788.2,193.7l132.3-33.1c9.7-2.4,19.4,3.2,21.8,12.9c2.4,9.7-3.2,19.4-12.9,21.8l-141.2,35.5V193.7z M788.2,155l96.8-53.2
	c8.9-4.8,12.1-16.1,7.3-25s-16.1-12.1-25-7.3L788.2,113V155z M942.3,262.3H789v36.3h153.3c9.7,0,17.7-8.1,17.7-17.7
	C960,270.3,951.9,262.3,942.3,262.3z M929.3,364.7l-141.2-35.5v37.1l132.3,33.1c1.6,0,3.2,0.8,4,0.8c8.1,0,15.3-5.6,17.7-13.7
	C945.5,376.8,939,367.1,929.3,364.7z M885,458.3L788.2,405v41.1l79.1,43.6c2.4,1.6,5.6,2.4,8.9,2.4c6.5,0,12.9-3.2,16.1-9.7
	C897.1,474.4,893.8,463.1,885,458.3z M749.4,62.2v435.6c0,11.3-8.9,20.2-20.2,20.2s-20.2-8.9-20.2-20.2v-3.2l-160.5-25l-50-83.1
	H28.2C12.9,386.5,0,373.6,0,358.3V202.6c0-15.3,12.9-28.2,28.2-28.2h470.3l50-83.1l132.3-21v81.5c0,8.1,6.5,14.5,14.5,14.5
	c8.1,0,14.5-6.5,14.5-14.5V63c-0.8-12.1,8.1-21,19.4-21S749.4,50.9,749.4,62.2z M472.7,280c0-19.4-15.3-34.7-34.7-34.7H384
	c-19.4,0-34.7,15.3-34.7,34.7c0,19.4,15.3,34.7,34.7,34.7h54.1C457.4,314.7,472.7,299.4,472.7,280z"/>
</svg>
