<?xml version="1.0" encoding="utf-8"?>
<!-- Generator: Adobe Illustrator 18.1.1, SVG Export Plug-In . SVG Version: 6.00 Build 0)  -->
<svg version="1.1" id="Layer_1" xmlns="http://www.w3.org/2000/svg" xmlns:xlink="http://www.w3.org/1999/xlink" x="0px" y="0px"
	 viewBox="0 0 960 560" enable-background="new 0 0 960 560" xml:space="preserve">
<path d="M780.5,253.5l123.4-30.9c9-2.2,18.1,3,20.3,12c2.2,9-3,18.1-12,20.3l-131.7,33.1L780.5,253.5L780.5,253.5z M780.5,217.4
	l90.3-49.6c8.3-4.5,11.3-15,6.8-23.3c-4.5-8.3-15-11.3-23.3-6.8l-73.8,40.6V217.4z M924.2,317.5h-143v33.9h143
	c9,0,16.5-7.6,16.5-16.5C940.7,325,933.2,317.5,924.2,317.5z M912.1,413l-131.7-33.1v34.6l123.4,30.9c1.5,0,3,0.7,3.7,0.7
	c7.6,0,14.3-5.2,16.5-12.8C927.2,424.3,921.2,415.2,912.1,413z M870.8,500.3l-90.3-49.7v38.3l73.8,40.7c2.2,1.5,5.2,2.2,8.3,2.2
	c6.1,0,12-3,15-9C882.1,515.3,879,504.8,870.8,500.3z M744.3,130.8v406.3c0,10.5-8.3,18.8-18.8,18.8s-18.8-8.3-18.8-18.8v-3
	l-149.7-23.3l-46.6-77.5H71.6c-14.3,0-26.3-12-26.3-26.3V261.8c0-14.3,12-26.3,26.3-26.3h438.7l46.6-77.5l123.4-19.6v76
	c0,7.6,6.1,13.5,13.5,13.5c7.6,0,13.5-6.1,13.5-13.5v-82.8c-0.7-11.3,7.6-19.6,18.1-19.6C736,112,744.3,120.3,744.3,130.8z
	 M486.2,334c0-18.1-14.3-32.4-32.4-32.4h-50.4c-18.1,0-32.4,14.3-32.4,32.4s14.3,32.4,32.4,32.4h50.5
	C471.9,366.4,486.2,352.1,486.2,334z"/>
</svg>
