<?xml version="1.0" encoding="utf-8"?>
<!-- Generator: Adobe Illustrator 18.1.1, SVG Export Plug-In . SVG Version: 6.00 Build 0)  -->
<svg version="1.1" id="Layer_1" xmlns="http://www.w3.org/2000/svg" xmlns:xlink="http://www.w3.org/1999/xlink" x="0px" y="0px"
	 viewBox="0 0 960 560" enable-background="new 0 0 960 560" xml:space="preserve">
<path d="M610.1,205.1l-44.9,39.4c-3.6-7.3-7.3-14-12.1-20L610.1,205.1z M396,314.9l-44.9,39.4l57-19.4
	C402.6,328.8,399,322.2,396,314.9z M445.1,195.4l-39.4-44.9l19.4,57C431.2,202,437.8,198.4,445.1,195.4z M515.5,364l39.4,44.9
	l-19.4-57C529.4,357.4,522.8,361,515.5,364z M391.7,256c1.2-5.5,3.6-10.9,6.1-16.4l-88-6.1l78.9,38.8
	C389.3,267.6,390.5,261.5,391.7,256z M571.9,286.4c-0.6,5.5-1.2,11.5-3,17c-1.2,5.5-3.6,10.9-6.1,16.4l88,6.1L571.9,286.4z
	 M545.2,297.3c-6.7,24.3-25.5,41.9-47.9,47.3l-75.8,154.7L433,327.6c-16.4-16.4-24.3-40.7-17.6-64.9c6.7-24.3,25.5-41.3,47.9-47.3
	l75.8-155.3l-11.5,172.3C544,248.8,551.9,273,545.2,297.3z M488.8,247.5c-18.2-4.9-36.4,6.1-41.3,23.7c-4.9,18.2,6.1,36.4,23.7,41.3
	c18.2,4.9,36.4-6.1,41.3-23.7C517.9,270.6,507,252.4,488.8,247.5z M200,279.7c0,154.7,125,279.7,279.7,279.7l0,0
	c154.7,0,279.7-125.6,279.7-279.7l0,0C760,125.6,634.4,0,479.7,0l0,0C325,0,200,125.6,200,279.7L200,279.7z M306.8,106.8
	c44.3-44.3,105.6-71.6,172.9-71.6l0,0c67.3,0,128.6,27.3,172.9,71.6l0,0c44.3,44.3,71.6,105.6,71.6,172.9l0,0
	c0,67.3-27.3,128.6-71.6,172.9l0,0c-44.3,44.3-105.6,71.6-172.9,71.6l0,0c-67.3,0-128.6-27.3-172.9-71.6l0,0
	c-44.3-44.3-71.6-105-71.6-172.9l0,0C235.2,212.4,262.5,151.1,306.8,106.8L306.8,106.8z M283.7,289.4h-20.6v-18.8h20.6L283.7,289.4
	L283.7,289.4z M696.3,289.4h-20.6v-18.8h20.6V289.4L696.3,289.4z M319.5,425.9l14.6-14.6l13.3,13.3l-14.6,14.6L319.5,425.9
	L319.5,425.9z M612,134.1l14.6-14.6l13.3,13.3l-14.6,14.6L612,134.1L612,134.1z M470,496.3v-20.6h18.8v20.6H470L470,496.3z
	 M470,83.1V62.5h18.8v20.6L470,83.1L470,83.1z M611.4,425.3l13.3-13.3l14.6,14.6l-13.3,13.3L611.4,425.3L611.4,425.3z M318.9,133.5
	l13.3-13.3l14.6,14.6l-13.3,12.7L318.9,133.5L318.9,133.5z"/>
</svg>
