<?xml version="1.0" encoding="iso-8859-1"?>
<!-- Generator: Adobe Illustrator 18.1.1, SVG Export Plug-In . SVG Version: 6.00 Build 0)  -->
<svg version="1.1" xmlns="http://www.w3.org/2000/svg" xmlns:xlink="http://www.w3.org/1999/xlink" x="0px" y="0px"
	 viewBox="0 0 249 249" style="enable-background:new 0 0 249 249;" xml:space="preserve">
<g id="Layer_2" style="display:none;">
</g>
<g id="Circles">
	<circle style="fill:#782750;" cx="124.5" cy="124.5" r="124.5"/>
	<rect id="_x3C_Slice_x3E__4_" x="-1.688" y="-2.667" style="fill:none;" width="253" height="254"/>
</g>
<g id="Layer_2_copy">
	<g id="cLBRAx_2_">
		<g>
			<g>
				<path style="fill:#F0F0F0;" d="M156.814,51.011c2.362,9.185-5.793,22.105-8.007,30.894c0.291-1.155,14.465,0.377,15.656,0.666
					c0.791,0.192,1.622,0.447,2.153,1.064c0.709,0.824,0.677,2.03,0.607,3.114c-0.85,13.2-1.7,26.4-2.55,39.599
					c-13.014,0.518-41.278-0.015-41.278-0.015s2.75-36.417,4.064-42.564c-0.137,0.17,0.088-0.125,0.329-0.406
					c9.125-10.64,18.923-20.704,27.358-31.937C155.313,51.206,155.824,51.243,156.814,51.011z"/>
			</g>
		</g>
	</g>
	<path style="fill:#F0F0F0;" d="M103.521,51.131c2.362,9.185-5.793,22.105-8.007,30.894c0.291-1.155,14.465,0.377,15.656,0.666
		c0.791,0.192,1.622,0.447,2.153,1.064c0.709,0.824,0.677,2.03,0.607,3.114c-0.85,13.2-1.7,26.4-2.55,39.599
		C98.479,126.667,70.479,126,70.479,126s1.1-15.849,1.723-23.02c0.536-6.165,1.027-13.064,1.965-19.091
		c-0.137,0.17,19.251-21.11,27.687-32.343C102.02,51.326,102.531,51.364,103.521,51.131z"/>
</g>
<g id="comic">
</g>
</svg>
