<?xml version="1.0" encoding="iso-8859-1"?>
<!-- Generator: Adobe Illustrator 18.1.1, SVG Export Plug-In . SVG Version: 6.00 Build 0)  -->
<svg version="1.1" xmlns="http://www.w3.org/2000/svg" xmlns:xlink="http://www.w3.org/1999/xlink" x="0px" y="0px"
	 viewBox="0 0 246 249" style="enable-background:new 0 0 246 249;" xml:space="preserve">
<g id="Layer_2" style="display:none;">
</g>
<g id="Circles">
	<path style="fill:#EC5F48;" d="M246,124.5c0,68.759-55.741,124.5-124.5,124.5S0,193.259,0,124.5S52.741,0,121.5,0
		S246,55.741,246,124.5z"/>
	<rect id="_x3C_Slice_x3E__5_" x="-2.562" y="-3.458" style="fill:none;" width="253" height="254"/>
</g>
<g id="Layer_2_copy">
	<g id="cLBRAx_2_">
		<g>
			<g>
			</g>
		</g>
	</g>
</g>
<g id="comic">
	<path style="fill:#F0F0F0;" d="M103.771,167.25c-0.242-0.611-0.43-0.599-0.605-0.737c-0.811-0.638-4.571-0.556-5.188-0.66
		c-1.972-0.33-5.417-2.107-5.453-2.128c1.561,2.107,3.431,3.847,5.778,5.239c1.058,0.317,2.181,0.438,3.207,0.199
		c0.643-0.15,1.277-0.319,1.816-0.794C103.657,168.079,103.975,167.766,103.771,167.25z"/>
	<path style="fill:#F0F0F0;" d="M101.146,148.542c0.417-1.208-0.34-1.893-0.823-2.2c-1.851-1.178-3.405,1.961-1.704,3.183
		C99.931,150.467,100.698,149.841,101.146,148.542z"/>
	<path style="fill:#F0F0F0;" d="M115.702,151.419c0.151-0.96-0.572-2.033-1.594-2.039c-2.213-0.013-1.552,3.352,0.534,3.059
		C115.293,152.348,115.623,151.924,115.702,151.419z"/>
	<g>
		<g>
			<g>
				<g>
					<g>
						<path style="fill:#F0F0F0;" d="M192.125,57.979c0.014-0.183-126.312-9.062-126.312-9.062L51.887,184.881l129.52,13.567
							 M109.972,154.837c-0.909-0.983-1.466-2.164-1.529-3.508c-0.058-1.23,0.045-3.002,0.752-4.039
							c1.642-2.41,4.961-4.494,7.775-2.738c2.183,1.362,3.548,4.15,3.679,6.673c0.166,3.188-1.822,6.34-5.287,6.238
							C113.338,157.403,111.329,156.304,109.972,154.837z M79.137,154.257c-0.573-5.663-0.797-11.734,1.3-16.965
							c1.799-4.488,4.356-9.64,8.277-12.712c4.592-3.597,11.127-5.785,16.584-2.965c7.011,3.623,12.069,10.87,10.738,19.143
							c-1.14-0.073-3.158,0.463-3.576,0.659c-1.683,0.787-3.287,1.007-4.398,2.541c0.622-0.86-1.336-4.094-1.792-4.917
							c-0.935-1.688-2.562-2.946-4.423-3.556c-4.833-1.585-11.504,1.087-13.738,5.601c-3.554,7.178,0.369,17.526,9.302,16.954
							c2.563-0.164,4.315-0.349,6.568-1.582c1.186-0.649,2.167-1.333,2.167-1.333s3.07,2.808,3.778,3.343
							c1.17,0.885,4.259,1.939,5.18,2.032c-0.833,3.5-0.852,3.439-2.5,5.833c-2.208,3.208-6.878,5.949-9.042,6.625
							c-3.003,0.938-6.304,1.041-9.398,0.488c-0.301-0.054-0.602-0.115-0.9-0.182c-3.79-0.855-7.203-2.528-9.494-5.556
							C81.139,164.229,79.649,159.311,79.137,154.257z M104.766,151.763c-0.743,1.415-1.933,2.503-3.647,2.915
							c-3.33,0.801-7.845,0.551-9.934-2.556c-2.518-3.745-1.416-9.806,2.311-12.386c1.429-0.989,3.224-1.47,4.953-1.388
							c2.187,0.103,4.257,1.327,5.546,3.097C105.872,144.021,106.388,148.672,104.766,151.763z M72.354,183.875
							c-0.715-2.436,0.083-5.292,1.307-7.715c1.734-3.432,6.901-5.618,6.901-5.618s7.917,6.292,16.208,7.042
							c6.735,0.609,9.936-1.724,13.542-4.125c0.152-0.149,1.958-1.25,1.958-1.25s2.485,3.449,3.75,7.125
							c0.875,2.542,1.375,6.458,1.292,9.25C117.238,188.44,73.228,183.985,72.354,183.875z M123.854,189.292
							c0.72-6.273-1.183-12.456-4.955-17.519c-0.611-0.82-1.753-2.647-1.753-2.647s2.125-4.958,2.25-7.25
							c3.625-0.583,6.186-3.728,7.326-7.337s0.595-9.373-1.867-12.246c-1.75-2.042-3.958-2.417-3.958-2.417s0.208-2.542,0-4.458
							c-0.54-4.97-2.477-8.5-5.314-12.615c-5.509-7.989-17.163-10.308-26.087-6.494c-8.924,3.814-15.032,12.676-17.275,22.118
							c-2.243,9.442-1.04,19.403,1.484,28.774c-4.885,3.701-8.057,9.575-8.471,15.69l-7.837-1.18c0,0,8.979-90.042,9.042-91.301
							c5.562,5.384,13.962,6.028,21.711,6.02c24.695-0.026,49.412,1.897,73.977,4.427c0.031,4.713-2.365,8.712-6.193,11.461
							c-1.103,0.792-2.334,1.448-3.219,2.478s-1.344,2.599-0.63,3.754c3.071-3.055,7.6-4.036,11.307-6.277
							c3.707-2.24,6.692-7.219,4.215-10.772c5.569,0.527,11.231,0.05,16.633-1.402l-7.137,94.334L123.854,189.292z"/>
					</g>
				</g>
			</g>
		</g>
	</g>
</g>
</svg>
