<?xml version="1.0" encoding="iso-8859-1"?>
<!-- Generator: Adobe Illustrator 18.1.1, SVG Export Plug-In . SVG Version: 6.00 Build 0)  -->
<svg version="1.1" xmlns="http://www.w3.org/2000/svg" xmlns:xlink="http://www.w3.org/1999/xlink" x="0px" y="0px"
	 viewBox="0 0 249 249" style="enable-background:new 0 0 249 249;" xml:space="preserve">
<g id="Layer_2" style="display:none;">
</g>
<g id="Circles">
	<circle style="fill:#4FBA71;" cx="124.5" cy="124.5" r="124.5"/>
	<rect id="_x3C_Slice_x3E__2_" x="-1.625" y="-3.5" style="fill:none;" width="253" height="254"/>
</g>
<g id="Layer_2_copy">
	<g id="cLBRAx_2_">
		<g>
			<g>
				<path style="fill:#F0F0F0;" d="M168.762,191.771c0,0-1.686-3.053-2.119-3.661c-3.413-4.796-4.938-19.271-4.938-19.271
					c-3.453-5.298-25.699-37.418-40.447-62.775c-19.779-34.008-20.854-46.653-23.084-51.277c-1.137-2.357-4.937-5.691-4.839-6.637
					c0.184-1.75,0.404-3.843,0.634-6.028c0,0-13.613,5.838-19.488,7.385c0.98,2.587,9.218,29.053,29.681,63.891
					c21.613,36.794,21.75,36.417,40.58,64.322c0,0,16.151,10.295,21.35,13.578c-3.295,0.904-24.894,0.744-29.762-1.127
					c-21.582-8.29-15.457-14.843-8.821-24.332c0,0-9.502-15.524-13.082-20.987c-10.422,9.529-25.592,23.773-19.192,35.719
					C106.692,201.96,168.762,191.771,168.762,191.771z"/>
				<path style="fill:#F0F0F0;" d="M180.272,113.238c-0.733-11.118-28.638-13.971-37.482-15.813
					c-5.204-1.083-10.506-1.789-14.971-4.677c-3.101-2.006-5.517-6.249-4.761-10.21c0.913-4.788,5.256-8.314,8.804-10.997
					c4.467-3.377,22.301-17.914,23.987-18.568c-5.888,2.933-14.851,6.77-21.901,10.297c-4.746,2.375-20.326,12.717-21.787,13.38
					c1.408,2.747,9.205,19.458,9.959,21.404c2.851,0.791,29.402,6.88,31.248,16.932c1.146,6.237-10.285,13.666-11.276,14.375
					c1.664,2.903,10.094,16.201,11.185,18.892C156.961,146.34,181.424,130.704,180.272,113.238z"/>
			</g>
		</g>
	</g>
</g>
<g id="comic">
</g>
</svg>
