<?xml version="1.0" encoding="iso-8859-1"?>
<!-- Generator: Adobe Illustrator 18.1.1, SVG Export Plug-In . SVG Version: 6.00 Build 0)  -->
<svg version="1.1" xmlns="http://www.w3.org/2000/svg" xmlns:xlink="http://www.w3.org/1999/xlink" x="0px" y="0px"
	 viewBox="0 0 249 249" style="enable-background:new 0 0 249 249;" xml:space="preserve">
<g id="Layer_2" style="display:none;">
</g>
<g id="Circles">
	<circle style="fill:#D04A47;" cx="124.5" cy="124.5" r="124.5"/>
	<rect id="_x3C_Slice_x3E__1_" x="-1.625" y="-3" style="fill:none;" width="253" height="254"/>
</g>
<g id="Layer_2_copy">
	<g id="cLBRAx_2_">
		<g>
			<g>
				<g>
					<g>
						<g>
							<path style="fill:#F0F0F0;" d="M183.094,125.212c6.287-0.579,12.496-2.717,12.525-10.436
								c0.033-9.024,0.037-18.048,0.033-27.072c-0.002-4.541-0.004-9.083-0.008-13.624c-0.003-3.62,0.563-7.08-1.556-10.258
								c-3.363-5.045-7.531-6.868-13.46-6.736c-2.417,0.054-4.841,0-7.258,0c-7,0-14.001,0-21.001,0c-17.531,0-35.063,0-52.594,0
								c-12.492,0-24.984,0-37.476,0c-1.023,0-2.046,0-3.069,0c-2.859,0-7.217,3.849-8.75,6.059
								c-2.476,3.57-1.302,9.209-1.307,13.315c-0.014,12.15-0.035,24.3,0.056,36.45c0.048,6.352,4.506,11.204,10.706,12.107
								c4.542,0.662,9.425,0.226,14.011,0.238c4.85,0.013,9.7,0.025,14.55,0.037c7.404,0.018,14.808,0.042,22.212,0.042
								c0.241-7.727,4.144-16.599,8.142-22.776c2.109-3.259,6.554-6.518,10.376-5.337c2.441,0.754,3.702,1.017,5.456,3.091
								c2.692,3.183,5.046,6.201,5.36,10.356c1.009,4.541,1.157,10.041,1,14.667c13.003,0,23.397,0.087,36.4,0.087
								C179.214,125.42,181.158,125.39,183.094,125.212z M83.437,91.312l-3.312,15.812l-11.5-1c0,0,6.631-33.283,7.426-39.372
								c0.045-0.343,8.048-0.405,8.714-0.393c19.048,0.328,21.923,6.703,21.485,13.516C105.619,89.701,90.312,92.938,83.437,91.312z
								 M109.187,108.375c-5.134,0.82-9.111-1.73-10.625-4.562c-1.674-3.133-0.967-10.948,1.665-13.586
								c6.398-6.414,11.621-4.511,15.335-0.601C119.125,93.375,118.187,106.938,109.187,108.375z M154.437,82.438l9.25-0.125
								c0,0,0.748-8.473,1.433-12.359c3.755,0.297,5.88,0.672,9.33,1.732c-0.599,3.423-1.301,7.557-2.013,11.628
								c1.875,0.438,8.313,1.25,8.313,1.25s-0.802,5.261-0.982,6.256c-0.298,1.643-0.33,2.306-0.33,2.306l-8.187-1.375L169,108.625
								c0,0-8.845-1.532-9-1c1.214-4.16,2.25-14.188,2.5-16.25l-8.152-0.246L154.437,82.438z M140.812,100.875
								c-2.335-2.416-5.46-3.001-6.625-3.688c-1.608-0.947-6.924-3.805-4.625-8.625c1.938-4.062,6-7.062,9.456-7.101
								c5.66-0.063,9.092,4.189,10.473,8.476c0.009,0.029,0.008,0.057,0.015,0.086c-2.182,0.278-6.384,1.56-6.384,1.56
								s-0.768-1.282-0.912-1.474c-1.185-1.581-3.412-0.511-4.273,0.83c-0.391,0.609,1.1,2.139,1.562,2.5
								c2,1.562,5.052,1.564,7.187,2.75c2.25,1.25,3.688,2.812,3.875,5.625c0.187,2.807-0.982,3.383-1.312,3.812
								c-0.493,0.64-6.75,2.562-6.75,2.562l-2-5.188C140.5,103,142.625,102.75,140.812,100.875z"/>
						</g>
					</g>
				</g>
				<path style="fill:#F0F0F0;" d="M115.708,212.167c0.073-0.517,16.269,0.142,17.874,0.172c2.452,0.046,18.793-0.172,18.793-0.172
					s0.216-5.186,0.285-7.675c0.145-5.276,1.117-6.448,3.59-11.116c2.062-3.89,8.345-18.267,9.125-20.25
					c0.915-2.326,1.619-5.633,1.49-8.193c-0.136-2.692-2.134-5.15-4.24-6.682c-0.835-0.608-1.98-0.902-3.017-1.092
					c-0.887-0.163-3.358,0.092-3.358,0.092s-0.363-1.765-0.572-2.657c-1.062-4.531-4.553-11.968-9.178-8.718
					c-0.519,0.365-1.847,1.875-2.5,1.875c-0.81-1.79-1.053-4.916-3.291-5.824c-5.084-2.063-6.915,0.733-9.281,7.035
					c0.572-4.46,4.046-32.115-1.928-37.335c-1.898-1.659-5.761-0.666-7.375,0.625c-1.93,1.544-2.42,3.984-3.21,6.284
					c-1.654,4.818-1.655,9.973-2.46,14.954c-1.08,6.679-2.069,12.318-2.746,19.179c-0.35,3.546-2.167,12.333-2.167,12.333
					c-0.827,0.605-4.074-1.328-4.996-1.656c-4.422-1.571-11.375-3.712-15.202,0.12c-1.823,1.825-2.789,4.907-2.027,7.424
					c1.03,3.401,4.615,4.838,7.369,6.553c3.497,2.178,6.656,5.018,9.024,8.399c3.343,4.774,5.019,10.484,7.485,15.765
					C113.998,203.328,115.375,210,115.708,212.167z"/>
				<path style="fill:#F0F0F0;" d="M92.562,84.187c3.066-0.735,4.059-4.73,2.499-7.35c-0.139-0.234-0.315-0.427-0.491-0.619
					c-0.103-0.103-0.208-0.209-0.31-0.31c-1.628-1.423-7.309-1.599-7.485-1.543c-0.713,3.261-1.213,6.448-1.901,9.761
					C87.156,84.301,90.388,84.708,92.562,84.187z"/>
				<path style="fill:#F0F0F0;" d="M104.979,97.693c-0.001,0.023-0.002,0.047-0.002,0.07c-0.058,2.669,3.771,4.528,5.176,1.766
					c0.759-1.491,0.219-3.744-1.094-4.77C106.972,93.129,105.065,95.694,104.979,97.693z"/>
			</g>
		</g>
	</g>
</g>
<g id="comic">
</g>
</svg>
