<?xml version="1.0" encoding="iso-8859-1"?>
<!-- Generator: Adobe Illustrator 18.1.1, SVG Export Plug-In . SVG Version: 6.00 Build 0)  -->
<svg version="1.1" xmlns="http://www.w3.org/2000/svg" xmlns:xlink="http://www.w3.org/1999/xlink" x="0px" y="0px"
	 viewBox="0 0 249 249" style="enable-background:new 0 0 249 249;" xml:space="preserve">
<g id="Layer_2" style="display:none;">
</g>
<g id="Circles">
	<circle style="fill:#6D5FA9;" cx="124.5" cy="124.5" r="124.5"/>
	<rect id="_x3C_Slice_x3E__7_" x="-2.5" y="-2.5" style="fill:none;" width="253" height="254"/>
</g>
<g id="Layer_2_copy">
	<g id="cLBRAx_2_">
		<g>
			<g>
				<path style="fill:#F0F0F0;" d="M175.75,60.5C168.965,51.181,161.78,49.286,151,49c-14.125-0.375-27.436,16.909-26.177,24.214
					c-8.085,4.267-12.411,12.512-16.965,20.069c-6.102,10.125-30.738,50.555-30.975,53.109c-0.22,2.373,1.468,4.409,2.299,6.508
					c-0.619,0.752-4.808,11.475-4.558,16.725c0.312,6.555,2.539,12.931,8,17.125c7,5.375,18.414,5.367,18.651,5.292l-0.151-3.667
					c-3.25,0.375-16.595-4.549-19.25-10.5c-3.625-8.125,1.268-19.965,2.272-21.945c0.48-0.947,3.287-4.819,2.997-5.736
					c-0.596-1.881-2.83-3.422-0.711-5.632c1.98,2.513,3.93,4.989,5.91,7.502h2.39c3.682-6.123,11.647-10.243,17.358-14.526
					c1.113-0.835,2.401-1.715,3.772-1.481c0.789,0.135,1.464,0.625,2.195,0.953c1.753,0.788,3.914,0.585,5.49-0.515
					c0.086,12.003-0.376,24.001-0.953,35.987c-0.248,5.148-1.722,24.358-1.73,28.96c-0.001,0.381,0.001,0.773,0.141,1.128
					c0.403,1.015,1.692,1.276,2.778,1.391c-0.827,0.243-1.707,0.52-2.248,1.192c-2.27,2.819,3.046,2.024,3.124,0.42
					c0.076-1.564,0.143-2.934,0.185-3.788c1.506-1.02,2.604-1.763,3.283-2.222c0.54-5.208,8.705-66.563,8.705-66.563
					s5-3.167-2.936-12.924c-0.587-0.721-1.535-1.663-2.147-2.326c-2.457-2.659-3.209-3.1-4.887-4.676
					c-2.273-2.133-4.122-3.544-6.488-5.574c-0.977,1.458-10.259,10.574-10.722,10.904c-0.148,0.107,11.005,12.432,10.933,12.536
					c-0.108,0.155-1.834-0.536-3.086-0.44c-1.625,0.125-2.031,1.116-2.625,1.625l-13-14.875c0,0,15.724-15.877,19.375-18.625
					c0,0,14.888,12.879,18.012,18.669c1.457-0.9,2.679-2.108,3.988-3.199c1.178-0.982,2.48-1.735,3.321-3.059
					c0,0-0.825-1.332-0.875-1.523c5.169-1.047,9.883,0.338,15.179-1.013c2.2-0.561,12.26-3.534,17-12.125
					C185.875,81.875,182.357,69.574,175.75,60.5z M112.402,101.737c-0.716-0.561-1.109-1.027-1.706-1.685
					c-0.583-0.643-1.366-1.483-1.856-2.266l1.347-1.905c0.687,0.494,1.409,1.335,2.143,1.861
					C113.396,100.659,112.952,100.958,112.402,101.737z M142.667,108.333c-3.334-3.331-7.542-4.583-12.042-7.958
					c-2.687-2.016-5.426-4.81-7.161-7.687c-0.899-1.49-1.814-3.08-2.413-4.719c-0.403-1.1-0.801-1.684-0.801-2.844
					c0-0.375,0.125-4.5,5.583-5.958c1.542,5.833,4.995,13.371,6.333,16c1.77,3.477,3.708,5.833,6.333,8.833
					C139.667,105.334,143.167,108.834,142.667,108.333z"/>
			</g>
		</g>
	</g>
</g>
<g id="comic">
</g>
</svg>
