<?xml version="1.0" encoding="iso-8859-1"?>
<!-- Generator: Adobe Illustrator 18.1.1, SVG Export Plug-In . SVG Version: 6.00 Build 0)  -->
<svg version="1.1" xmlns="http://www.w3.org/2000/svg" xmlns:xlink="http://www.w3.org/1999/xlink" x="0px" y="0px"
	 viewBox="0 0 249 249" style="enable-background:new 0 0 249 249;" xml:space="preserve">
<g id="Layer_2" style="display:none;">
</g>
<g id="Circles">
	<g>
		<circle style="fill:#51387E;" cx="124.5" cy="124.5" r="124.5"/>
	</g>
</g>
<g id="Layer_2_copy">
	<g id="cLBRAx_2_">
		<g>
			<g>
				<g>
					<g>
						<g>
							<g>
								<g>
									<path style="fill:#F0F0F0;" d="M196.958,96.917c5-8,6-11.333-2.333-17c-6.819-4.637-58.37-35.73-61.75-37.5
										c-2.08-1.089-7.878-2.304-10.515-1.011c-4.61,2.261-4.36,3.011-8.86,8.886c-13.036,17.02-61.938,91.336-65.208,96.292
										c-5.5,8.333-6.653,9.855,9.167,22.833c4.376,3.59,43.867,32.622,49.167,35.5c9.667,5.25,14-2,17.571-6.589
										C126.326,195.591,194.841,100.304,196.958,96.917z M146.279,58.794c7.346,2.79,12.929,6.54,18.263,12.373
										c0.629,0.687,1.163,2.313,0.686,3.113c-0.472,0.79-0.769,1.054-2.512,0.504c-4.346-1.373-11.021-6.208-13.257-7.95
										c-1.322-1.03-4.984-4.672-5.167-6.25C144.185,59.661,144.822,58.24,146.279,58.794z M71.45,158.842
										c-1.466,1.529-4.667,0.793-6.541-1.488c-0.902-1.098-3.378-4.692-1.304-5.807c3.128-1.682,5.904,2.43,7.485,4.591
										C71.356,156.503,72.367,157.886,71.45,158.842z M92.958,174.25c-0.311,1.248-0.827,2.464-1.589,3.493
										c-1.772,2.394-3.867,3.773-6.92,4.143c-1.924,0.233-4.625-0.708-6.5-1.667c-2.815-1.439-7.875-8.667-2.799-9.346
										c1.981-0.265,2.406,2.318,3.59,3.763c0.652,0.795,2.805,2.447,3.875,2.542c1.417,0.125,3.244-0.599,4.271-1.506
										c1.169-1.032,2.057-5.368-0.271-6.661c-2.974-1.651-5.532,0.633-8.238,0.389c-1.784-0.161-2.989-2.268-2.629-3.951
										c0.44-2.058,2.937-3.079,4.753-3.501c4.152-0.964,8.818,0.005,11.237,3.792C93.325,168.223,93.671,171.391,92.958,174.25z
										 M106.648,188.271c-0.147,0.689-0.736,1.32-1.441,1.318c-0.297-0.001-1.098-0.395-1.221-0.472
										c-3.334-2.092-6.347-4.694-8.903-7.687c-1.286-1.506-0.738-3.731,1.254-3.205c1.238,0.327,8.488,5.702,9.954,8
										C106.67,186.82,106.795,187.582,106.648,188.271z M181.958,94.583l-62.758,85.537l-51.742-38.037
										c0,0,56.777-82.75,57.167-82.833C125.043,59.161,181.958,94.583,181.958,94.583z"/>
								</g>
							</g>
						</g>
					</g>
				</g>
			</g>
		</g>
	</g>
</g>
<g id="comic">
</g>
</svg>
