<?xml version="1.0" encoding="iso-8859-1"?>
<!-- Generator: Adobe Illustrator 18.1.1, SVG Export Plug-In . SVG Version: 6.00 Build 0)  -->
<svg version="1.1" id="Layer_1" xmlns="http://www.w3.org/2000/svg" xmlns:xlink="http://www.w3.org/1999/xlink" x="0px" y="0px"
	 viewBox="0 0 612 792" style="enable-background:new 0 0 612 792;" xml:space="preserve">
<g id="Circles">
	<g>
		<circle style="fill:#51387E;" cx="306" cy="396" r="306"/>
	</g>
</g>
<g id="Layer_2_copy">
	<g id="cLBRAx_2_">
		<g>
			<g>
				<path style="fill:#F0F0F0;" d="M414.789,561.341c0,0-4.144-7.504-5.208-8.998c-8.389-11.788-12.137-47.365-12.137-47.365
					c-8.487-13.022-63.164-91.967-99.412-154.29c-48.613-83.586-51.256-114.665-56.737-126.03
					c-2.795-5.793-12.134-13.988-11.893-16.313c0.452-4.301,0.993-9.445,1.558-14.816c0,0-33.458,14.349-47.898,18.151
					c2.409,6.358,22.656,71.407,72.951,157.033c53.121,90.433,53.458,89.507,99.739,158.093c0,0,39.696,25.303,52.475,33.372
					c-8.099,2.222-61.185,1.829-73.15-2.77c-53.045-20.375-37.991-36.482-21.681-59.804c0,0-23.354-38.155-32.153-51.583
					c-25.616,23.421-62.901,58.43-47.171,87.791C262.231,586.384,414.789,561.341,414.789,561.341z"/>
				<path style="fill:#F0F0F0;" d="M443.078,368.32c-1.802-27.326-70.387-34.338-92.124-38.866
					c-12.791-2.662-25.822-4.397-36.796-11.495c-7.622-4.93-13.56-15.359-11.702-25.094c2.244-11.768,12.918-20.434,21.639-27.029
					c10.979-8.3,54.812-44.03,58.956-45.637c-14.472,7.209-36.501,16.64-53.829,25.308c-11.665,5.837-49.958,31.256-53.549,32.886
					c3.461,6.752,22.624,47.824,24.478,52.607c7.007,1.944,72.265,16.91,76.802,41.616c2.817,15.329-25.279,33.589-27.715,35.331
					c4.09,7.135,24.809,39.819,27.491,46.433C385.784,449.679,445.91,411.248,443.078,368.32z"/>
			</g>
		</g>
	</g>
</g>
</svg>
