<?xml version="1.0" encoding="iso-8859-1"?>
<!-- Generator: Adobe Illustrator 18.1.1, SVG Export Plug-In . SVG Version: 6.00 Build 0)  -->
<svg version="1.1" xmlns="http://www.w3.org/2000/svg" xmlns:xlink="http://www.w3.org/1999/xlink" x="0px" y="0px"
	 viewBox="0 0 249 249" style="enable-background:new 0 0 249 249;" xml:space="preserve">
<g id="Layer_2" style="display:none;">
</g>
<g id="Circles">
	<g>
		<circle style="fill:#51387E;" cx="124.5" cy="124.5" r="124.5"/>
	</g>
</g>
<g id="Layer_2_copy">
	<g id="cLBRAx_2_">
		<g>
			<g>
				<path style="fill:#F0F0F0;" d="M184.535,142.588c-2.849,0.857-5.773,1.461-8.732,1.788c-3.455,0.381-8.792,0.085-10.401-3.606
					c-2.276-5.223-2.662-11.557-3.19-17.167c-0.602-6.396-0.807-12.821-0.927-19.242c-0.024-1.262-0.042-2.523-0.059-3.785
					c0-0.011,0-0.021,0-0.032c-0.067-5.003,0.087-10.035-0.705-14.995c-0.519-3.248-1.293-6.455-2.248-9.601
					c-1.594-5.254-3.996-10.939-7.815-14.974c-3.79-4.005-8.69-6.875-14.093-8.047c-3.873-0.84-5.825-3.544-7.121-7.121h-3.082
					c0.557,0-3.142,44-3.468,47.709c-0.241,2.748-0.482,5.496-0.723,8.244c-0.251,2.859-0.502,5.718-0.753,8.576
					c-0.774,8.826-1.527,17.962-2.285,26.908c-0.387,4.564-0.779,9.128-1.187,13.69c-0.211,2.358-0.382,4.726-0.646,7.081
					c-0.242,2.161-0.432,3.485-0.432,3.485s-13.787-0.446-18.835,1.505c-3.559,1.376-7.335,3.476-10.082,6.162
					c-3.026,2.959-4.88,9.41-4.914,13.639c-0.03,3.737,1.422,7.7,3.841,10.977c3.602,4.881,8.992,6.506,14.492,6.815
					c8.12,0.456,16.647-0.48,22.998-6.514c5-4.75,4.858-8.011,5.833-13.25c1.135-6.097,0.616-12.472,0.75-16.417
					c0.418-12.25,6.119-80.102,7.349-86.512c2.446,2.052,3.646,5.668,4.103,8.719c1.981,13.226,1.138,26.641,1.023,39.955
					c-0.055,6.382,0.137,13.066,3.012,18.908c1.687,3.427,4.276,6.423,7.49,8.488c4.053,2.604,9.554,4.004,14.229,2.363
					c4.345-1.525,8.703-3.056,12.83-5.099c5.876-2.91,11.24-6.851,15.772-11.59c1.193-1.247,2.277-2.649,2.443-4.425
					c-1,1.193-2.587,1.911-3.417,2.402c-1.665,0.984-3.104,1.871-4.869,2.66C188.706,141.184,186.641,141.955,184.535,142.588z"/>
			</g>
		</g>
	</g>
</g>
<g id="comic">
</g>
</svg>
