<?xml version="1.0" encoding="iso-8859-1"?>
<!-- Generator: Adobe Illustrator 18.1.1, SVG Export Plug-In . SVG Version: 6.00 Build 0)  -->
<svg version="1.1" id="Layer_1" xmlns="http://www.w3.org/2000/svg" xmlns:xlink="http://www.w3.org/1999/xlink" x="0px" y="0px"
	 viewBox="0 0 612 792" style="enable-background:new 0 0 612 792;" xml:space="preserve">
<g id="Circles">
	<g>
		<circle style="fill:#51387E;" cx="306" cy="396" r="306"/>
	</g>
</g>
<g id="Layer_2_copy">
	<g id="cLBRAx_2_">
		<g>
			<g>
				<path style="fill:#F0F0F0;" d="M385.422,215.376c5.805,22.575-14.238,54.33-19.68,75.932c0.715-2.839,35.553,0.927,38.48,1.637
					c1.944,0.472,3.987,1.099,5.292,2.615c1.743,2.025,1.664,4.989,1.492,7.654c-2.089,32.443-4.178,64.887-6.267,97.328
					c-31.986,1.273-101.454-0.037-101.454-0.037s6.759-89.507,9.989-104.615c-0.337,0.418,0.216-0.307,0.809-0.998
					c22.428-26.151,46.51-50.887,67.241-78.496C381.733,215.856,382.989,215.947,385.422,215.376z"/>
			</g>
		</g>
	</g>
	<path style="fill:#F0F0F0;" d="M254.437,215.671c5.805,22.575-14.238,54.33-19.68,75.932c0.715-2.839,35.553,0.927,38.48,1.637
		c1.944,0.472,3.987,1.099,5.292,2.615c1.743,2.025,1.664,4.989,1.492,7.654c-2.089,32.443-4.178,64.887-6.267,97.328
		c-31.708,0.489-100.528-1.15-100.528-1.15s2.704-38.954,4.235-56.579c1.317-15.153,2.524-32.109,4.83-46.922
		c-0.337,0.418,47.316-51.885,68.05-79.494C250.748,216.151,252.004,216.244,254.437,215.671z"/>
</g>
</svg>
