<?xml version="1.0" encoding="iso-8859-1"?>
<!-- Generator: Adobe Illustrator 18.1.1, SVG Export Plug-In . SVG Version: 6.00 Build 0)  -->
<svg version="1.1" id="Layer_1" xmlns="http://www.w3.org/2000/svg" xmlns:xlink="http://www.w3.org/1999/xlink" x="0px" y="0px"
	 viewBox="0 0 612 792" style="enable-background:new 0 0 612 792;" xml:space="preserve">
<g id="Circles">
	<g>
		<path style="fill:#51387E;" d="M612,396c0,171.059-138.673,309.732-309.732,309.732S0,567.059,0,396
			S131.209,86.268,302.268,86.268S612,224.941,612,396z"/>
	</g>
</g>
<g id="comic">
	<path style="fill:#F0F0F0;" d="M258.162,502.354c-0.602-1.52-1.07-1.49-1.505-1.833c-2.018-1.587-11.372-1.383-12.907-1.642
		c-4.906-0.821-13.476-5.242-13.566-5.294c3.883,5.242,8.536,9.571,14.375,13.034c2.632,0.789,5.426,1.09,7.978,0.495
		c1.6-0.373,3.177-0.794,4.518-1.975C257.878,504.416,258.669,503.637,258.162,502.354z"/>
	<path style="fill:#F0F0F0;" d="M251.632,455.812c1.037-3.005-0.846-4.709-2.047-5.473c-4.605-2.931-8.471,4.879-4.239,7.919
		C248.609,460.601,250.517,459.043,251.632,455.812z"/>
	<path style="fill:#F0F0F0;" d="M287.844,462.969c0.376-2.388-1.423-5.058-3.966-5.073c-5.506-0.032-3.861,8.339,1.328,7.61
		C286.826,465.28,287.647,464.226,287.844,462.969z"/>
	<g>
		<g>
			<g>
				<g>
					<g>
						<path style="fill:#F0F0F0;" d="M477.97,230.509c0.035-0.455-314.24-22.544-314.24-22.544l-34.645,338.252l322.221,33.752
							L477.97,230.509z M273.589,471.473c-2.261-2.446-3.647-5.384-3.804-8.727c-0.144-3.06,0.112-7.468,1.871-10.048
							c4.085-5.996,12.342-11.18,19.343-6.812c5.431,3.388,8.827,10.324,9.153,16.601c0.413,7.931-4.533,15.773-13.153,15.519
							C281.963,477.856,276.965,475.122,273.589,471.473z M196.877,470.03c-1.426-14.088-1.983-29.192,3.234-42.206
							c4.476-11.165,10.837-23.982,20.592-31.625c11.424-8.949,27.682-14.392,41.258-7.376
							c17.442,9.013,30.025,27.042,26.714,47.624c-2.836-0.182-7.856,1.152-8.896,1.639c-4.187,1.958-8.177,2.505-10.941,6.322
							c1.547-2.14-3.324-10.185-4.458-12.233c-2.326-4.199-6.374-7.329-11.004-8.847c-12.024-3.943-28.62,2.704-34.177,13.934
							c-8.842,17.857,0.918,43.601,23.142,42.178c6.376-0.408,10.735-0.868,16.34-3.936c2.951-1.615,5.391-3.316,5.391-3.316
							s7.638,6.986,9.399,8.317c2.911,2.202,10.596,4.824,12.887,5.055c-2.072,8.707-2.12,8.556-6.22,14.511
							c-5.493,7.981-17.111,14.8-22.495,16.482c-7.471,2.334-15.683,2.59-23.38,1.214c-0.749-0.134-1.498-0.286-2.239-0.453
							c-9.429-2.127-17.92-6.289-23.619-13.822C201.858,494.838,198.151,482.603,196.877,470.03z M260.637,463.825
							c-1.848,3.52-4.809,6.227-9.073,7.252c-8.284,1.993-19.517,1.371-24.714-6.359c-6.264-9.317-3.523-24.395,5.749-30.814
							c3.555-2.46,8.021-3.657,12.322-3.453c5.441,0.256,10.591,3.301,13.797,7.705
							C263.389,444.564,264.673,456.135,260.637,463.825z M180.003,543.713c-1.779-6.06,0.206-13.165,3.252-19.193
							c4.314-8.538,17.168-13.977,17.168-13.977s19.696,15.653,40.322,17.519c16.755,1.515,24.719-4.289,33.69-10.262
							c0.378-0.371,4.871-3.11,4.871-3.11s6.182,8.58,9.329,17.726c2.177,6.324,3.421,16.066,3.214,23.012
							C291.665,555.07,182.177,543.987,180.003,543.713z M308.125,557.19c1.791-15.606-2.943-30.988-12.327-43.584
							c-1.52-2.04-4.361-6.585-4.361-6.585s5.287-12.335,5.598-18.037c9.018-1.45,15.39-9.275,18.226-18.253
							s1.48-23.318-4.645-30.466c-4.354-5.08-9.847-6.013-9.847-6.013s0.517-6.324,0-11.091
							c-1.343-12.364-6.162-21.146-13.22-31.384c-13.705-19.875-42.698-25.644-64.899-16.156
							c-22.201,9.488-37.397,31.535-42.977,55.025c-5.58,23.49-2.587,48.271,3.692,71.584
							c-12.153,9.207-20.044,23.821-21.074,39.034l-19.497-2.936c0,0,22.338-224.007,22.495-227.139
							c13.837,13.394,34.735,14.996,54.013,14.977c61.436-0.065,122.927,4.719,184.04,11.014
							c0.077,11.725-5.884,21.674-15.407,28.513c-2.744,1.97-5.807,3.602-8.008,6.165s-3.344,6.466-1.567,9.339
							c7.64-7.6,18.907-10.041,28.13-15.616c9.222-5.573,16.648-17.959,10.486-26.799c13.855,1.311,27.941,0.124,41.38-3.488
							L440.598,569.98L308.125,557.19z"/>
					</g>
				</g>
			</g>
		</g>
	</g>
</g>
</svg>
