<?xml version="1.0" encoding="iso-8859-1"?>
<!-- Generator: Adobe Illustrator 18.1.1, SVG Export Plug-In . SVG Version: 6.00 Build 0)  -->
<svg version="1.1" xmlns="http://www.w3.org/2000/svg" xmlns:xlink="http://www.w3.org/1999/xlink" x="0px" y="0px"
	 viewBox="0 0 249 249" style="enable-background:new 0 0 249 249;" xml:space="preserve">
<g id="Layer_2" style="display:none;">
</g>
<g id="Circles">
	<g>
		<circle style="fill:#51387E;" cx="124.5" cy="124.5" r="124.5"/>
	</g>
</g>
<g id="Layer_2_copy">
	<g id="cLBRAx_2_">
		<g>
			<g>
				<path style="fill:#F0F0F0;" d="M159.812,83.454c0.247,6.489-2.145,12.916-5.819,18.271c-2.766,4.031-19.955,18.09-19.955,18.09
					s0,19.604,0,29.624c-5.281,0.637-10.801,1.803-16.101,1.877c-0.183,0.003,3.752-38.362,3.752-38.362s15.411-11.949,19.37-20.221
					c2.386-4.984-0.306-12.364-3.898-16.131c-3.068-3.218-7.738-4.282-12.14-3.659c-9.811,1.388-8.645,11.888-8.645,11.888
					s8.833,6.667,1,11.833c-4.073,2.686-11.166,2.381-14.167-1.333c-2.983-3.692-2.115-10.075-2.083-14.583
					c0.083-11.917,6.75-22.583,16.112-24.913c9.536-2.372,19.746-1.509,28.388,3.169C154.542,63.833,159.375,72,159.812,83.454z"/>
				<path style="fill:#F0F0F0;" d="M192.746,78.008c-2.84,7.47-35.121,72.367-35.121,72.367l-6.75-2.25
					c0,0,21.026-75.173,25.003-83.129c1.783-3.568,17.984-12.637,19.247,1.254C195.625,71.75,195.125,71.75,192.746,78.008z"/>
				<path style="fill:#F0F0F0;" d="M97.448,133.374c-1.593,5.042-28.073,33.876-28.073,33.876s-9.459-10.637-10.063-10.033
					C66.038,152.899,90.514,134.856,97.448,133.374z"/>
				<path style="fill:#F0F0F0;" d="M95.066,122.9c-1.426,0.607-39.941,2.6-48.33,3.111c0.889-4.761,2.167-13.861,3.139-15.011
					C56.744,112.819,95.327,122.789,95.066,122.9z"/>
				<path style="fill:#F0F0F0;" d="M133.25,176.25c-5,4.25-16.822,7.702-19.516-1.972c-1.81-6.497,1.899-14.772,9.259-15.262
					c5.767-0.383,9.424,1.316,12.258,6.983C136.5,168.5,136.281,173.673,133.25,176.25z"/>
				<path style="fill:#F0F0F0;" d="M61.328,79.244c1.281-0.706,9.971-10.645,10.765-9.451c6.283,9.458,19.418,29.592,19.418,30.621
					C91.51,100.413,63.638,80.18,61.328,79.244z"/>
				<path style="fill:#F0F0F0;" d="M154.835,162.765c0.025,0.024,0.051,0.048,0.076,0.072c3.57,3.43,4.005,10.944-1.209,13.305
					c-3.327,1.507-8.562-0.558-10.577-3.017c-2.44-2.978-2.434-8.93,0.959-11.58C147.262,159.063,152.073,160.174,154.835,162.765z"
					/>
			</g>
		</g>
	</g>
</g>
<g id="comic">
</g>
</svg>
