<?xml version="1.0" encoding="iso-8859-1"?>
<!-- Generator: Adobe Illustrator 18.1.1, SVG Export Plug-In . SVG Version: 6.00 Build 0)  -->
<svg version="1.1" id="Layer_1" xmlns="http://www.w3.org/2000/svg" xmlns:xlink="http://www.w3.org/1999/xlink" x="0px" y="0px"
	 viewBox="0 0 612 792" style="enable-background:new 0 0 612 792;" xml:space="preserve">
<g id="Circles">
	<g>
		<circle style="fill:#51387E;" cx="306" cy="396" r="306"/>
	</g>
</g>
<g id="Layer_2_copy">
	<g id="cLBRAx_2_">
		<g>
			<g>
				<g>
					<g>
						<g>
							<path style="fill:#F0F0F0;" d="M450.014,397.75c15.452-1.423,30.713-6.678,30.784-25.65
								c0.081-22.179,0.091-44.359,0.081-66.538c-0.005-11.161-0.01-22.324-0.02-33.486c-0.007-8.897,1.384-17.401-3.824-25.212
								c-8.266-12.4-18.51-16.88-33.082-16.556c-5.941,0.133-11.898,0-17.839,0c-17.205,0-34.412,0-51.617,0
								c-43.088,0-86.179,0-129.267,0c-30.703,0-61.406,0-92.11,0c-2.514,0-5.029,0-7.543,0c-7.027,0-17.738,9.46-21.506,14.892
								c-6.086,8.774-3.2,22.634-3.212,32.726c-0.034,29.863-0.086,59.725,0.138,89.588c0.118,15.612,11.075,27.538,26.314,29.757
								c11.163,1.627,23.165,0.555,34.437,0.585c11.92,0.032,23.841,0.061,35.761,0.091c18.198,0.044,36.396,0.103,54.593,0.103
								c0.592-18.992,10.185-40.798,20.012-55.98c5.184-8.01,16.109-16.02,25.502-13.117c6,1.853,9.099,2.5,13.41,7.597
								c6.616,7.823,12.402,15.241,13.174,25.453c2.48,11.161,2.844,24.679,2.458,36.049c31.959,0,57.506,0.214,89.465,0.214
								C440.478,398.261,445.256,398.187,450.014,397.75z M205.074,314.43l-8.14,38.863l-28.265-2.458
								c0,0,16.298-81.804,18.252-96.77c0.111-0.843,19.781-0.995,21.418-0.966c46.817,0.806,53.883,16.475,52.807,33.22
								C259.594,310.47,221.972,318.426,205.074,314.43z M268.363,356.367c-12.618,2.015-22.393-4.252-26.114-11.213
								c-4.114-7.7-2.377-26.908,4.092-33.392c15.725-15.765,28.562-11.087,37.691-1.477
								C292.789,319.5,290.484,352.836,268.363,356.367z M379.58,292.619l22.735-0.307c0,0,1.838-20.825,3.522-30.376
								c9.229,0.73,14.452,1.652,22.932,4.257c-1.472,8.413-3.198,18.574-4.948,28.58c4.608,1.077,20.432,3.072,20.432,3.072
								s-1.971,12.931-2.414,15.376c-0.732,4.038-0.811,5.668-0.811,5.668l-20.122-3.38l-5.533,41.473c0,0-21.74-3.765-22.12-2.458
								c2.984-10.225,5.53-34.872,6.145-39.94l-20.036-0.605L379.58,292.619z M346.092,337.934
								c-5.739-5.938-13.42-7.376-16.283-9.064c-3.952-2.328-17.018-9.352-11.367-21.199c4.763-9.984,14.747-17.357,23.241-17.453
								c13.911-0.155,22.347,10.296,25.741,20.833c0.022,0.071,0.02,0.14,0.037,0.211c-5.363,0.683-15.691,3.834-15.691,3.834
								s-1.888-3.151-2.242-3.623c-2.913-3.886-8.386-1.256-10.502,2.04c-0.961,1.497,2.704,5.257,3.839,6.145
								c4.916,3.839,12.417,3.844,17.664,6.759c5.53,3.072,9.065,6.911,9.524,13.825c0.46,6.899-2.414,8.315-3.225,9.369
								c-1.212,1.573-16.59,6.297-16.59,6.297l-4.916-12.751C345.325,343.157,350.548,342.542,346.092,337.934z"/>
						</g>
					</g>
				</g>
				<path style="fill:#F0F0F0;" d="M284.391,611.471c0.179-1.271,39.986,0.349,43.931,0.423c6.027,0.113,46.19-0.423,46.19-0.423
					s0.531-12.746,0.701-18.864c0.356-12.968,2.745-15.848,8.824-27.321c5.068-9.561,20.511-44.897,22.428-49.771
					c2.249-5.717,3.979-13.845,3.662-20.137c-0.334-6.616-5.245-12.658-10.421-16.423c-2.052-1.494-4.867-2.217-7.415-2.684
					c-2.18-0.401-8.253,0.226-8.253,0.226s-0.892-4.338-1.406-6.53c-2.61-11.136-11.19-29.415-22.558-21.427
					c-1.276,0.897-4.54,4.608-6.145,4.608c-1.991-4.4-2.588-12.083-8.089-14.314c-12.496-5.071-16.996,1.802-22.811,17.291
					c1.406-10.962,9.944-78.933-4.739-91.763c-4.665-4.078-14.16-1.637-18.126,1.536c-4.744,3.795-5.948,9.792-7.89,15.445
					c-4.065,11.842-4.068,24.512-6.046,36.754c-2.654,16.416-5.085,30.276-6.749,47.139c-0.86,8.715-5.326,30.312-5.326,30.312
					c-2.033,1.487-10.013-3.264-12.279-4.07c-10.869-3.861-27.958-9.124-37.364,0.295c-4.481,4.486-6.855,12.061-4.982,18.247
					c2.532,8.359,11.343,11.891,18.112,16.106c8.595,5.353,16.359,12.333,22.179,20.643c8.217,11.734,12.336,25.768,18.397,38.748
					C280.188,589.746,283.572,606.145,284.391,611.471z"/>
				<path style="fill:#F0F0F0;" d="M227.502,296.917c7.536-1.807,9.976-11.626,6.142-18.065c-0.342-0.575-0.774-1.049-1.207-1.521
					c-0.253-0.253-0.511-0.514-0.762-0.762c-4.001-3.497-17.964-3.93-18.397-3.792c-1.752,8.015-2.981,15.848-4.672,23.991
					C214.215,297.198,222.158,298.198,227.502,296.917z"/>
				<path style="fill:#F0F0F0;" d="M258.021,330.113c-0.002,0.057-0.005,0.116-0.005,0.172c-0.143,6.56,9.268,11.129,12.722,4.341
					c1.866-3.665,0.538-9.202-2.689-11.724C262.919,318.895,258.232,325.2,258.021,330.113z"/>
			</g>
		</g>
	</g>
</g>
</svg>
