<?xml version="1.0" encoding="iso-8859-1"?>
<!-- Generator: Adobe Illustrator 18.1.1, SVG Export Plug-In . SVG Version: 6.00 Build 0)  -->
<svg version="1.1" xmlns="http://www.w3.org/2000/svg" xmlns:xlink="http://www.w3.org/1999/xlink" x="0px" y="0px"
	 viewBox="0 0 249 249" style="enable-background:new 0 0 249 249;" xml:space="preserve">
<g id="Layer_2" style="display:none;">
</g>
<g id="Circles" style="display:none;">
	<g style="display:inline;">
		<path style="fill:#DCEDCF;" d="M124.5,235C63.57,235,14,185.43,14,124.5S63.57,14,124.5,14S235,63.57,235,124.5
			S185.43,235,124.5,235z"/>
		<path d="M124.5,28c53.21,0,96.5,43.29,96.5,96.5S177.71,221,124.5,221S28,177.71,28,124.5S71.29,28,124.5,28 M124.5,0
			C55.741,0,0,55.741,0,124.5C0,193.259,55.741,249,124.5,249S249,193.259,249,124.5C249,55.741,193.259,0,124.5,0L124.5,0z"/>
	</g>
</g>
<g id="Layer_2_copy" style="display:none;">
	<g id="cLBRAx_2_" style="display:inline;">
		<g>
			<g>
				<path style="fill:#F0F0F0;" d="M168.762,191.771c0,0-1.686-3.053-2.119-3.661c-3.413-4.796-4.938-19.271-4.938-19.271
					c-3.453-5.298-25.699-37.418-40.447-62.775c-19.779-34.008-20.854-46.653-23.084-51.277c-1.137-2.357-4.937-5.691-4.839-6.637
					c0.184-1.75,0.404-3.843,0.634-6.028c0,0-13.613,5.838-19.488,7.385c0.98,2.587,9.218,29.053,29.681,63.891
					c21.613,36.794,21.75,36.417,40.58,64.322c0,0,16.151,10.295,21.35,13.578c-3.295,0.904-24.894,0.744-29.762-1.127
					c-21.582-8.29-15.457-14.843-8.821-24.332c0,0-9.502-15.524-13.082-20.987c-10.422,9.529-25.592,23.773-19.192,35.719
					C106.692,201.96,168.762,191.771,168.762,191.771z"/>
				<path style="fill:#F0F0F0;" d="M180.272,113.238c-0.733-11.118-28.638-13.971-37.482-15.813
					c-5.204-1.083-10.506-1.789-14.971-4.677c-3.101-2.006-5.517-6.249-4.761-10.21c0.913-4.788,5.256-8.314,8.804-10.997
					c4.467-3.377,22.301-17.914,23.987-18.568c-5.888,2.933-14.851,6.77-21.901,10.297c-4.746,2.375-20.326,12.717-21.787,13.38
					c1.408,2.747,9.205,19.458,9.959,21.404c2.851,0.791,29.402,6.88,31.248,16.932c1.146,6.237-10.285,13.666-11.276,14.375
					c1.664,2.903,10.094,16.201,11.185,18.892C156.961,146.34,181.424,130.704,180.272,113.238z"/>
			</g>
		</g>
	</g>
	<g id="comic" style="display:inline;">
	</g>
</g>
<g id="Layer_2_copy_2">
	<g id="cLBRAx_4_">
		<g>
			<g>
				<path d="M188.301,231.528c0,0-2.503-4.533-3.146-5.437c-5.068-7.122-7.333-28.615-7.333-28.615
					c-5.127-7.866-38.16-55.56-60.058-93.212c-29.369-50.497-30.966-69.272-34.277-76.14c-1.688-3.5-7.331-8.45-7.185-9.855
					c0.274-2.599,0.6-5.706,0.942-8.951c0,0-20.213,8.669-28.937,10.966c1.455,3.842,13.687,43.14,44.072,94.868
					c32.092,54.633,32.296,54.075,60.255,95.509c0,0,23.982,15.287,31.701,20.162c-4.892,1.342-36.964,1.104-44.193-1.673
					c-32.046-12.309-22.951-22.039-13.098-36.129c0,0-14.109-23.051-19.426-31.163c-15.476,14.149-38,35.3-28.498,53.038
					C96.135,246.658,188.301,231.528,188.301,231.528z"/>
				<path d="M205.391,114.918c-1.089-16.509-42.523-20.746-55.655-23.48c-7.726-1.609-15.601-2.657-22.229-6.944
					c-4.604-2.978-8.191-9.279-7.069-15.161c1.356-7.11,7.804-12.345,13.073-16.328c6.633-5.014,33.113-26.6,35.617-27.571
					c-8.743,4.354-22.052,10.053-32.519,15.29c-7.047,3.526-30.181,18.883-32.351,19.867c2.091,4.078,13.668,28.892,14.788,31.782
					c4.233,1.175,43.657,10.216,46.399,25.142c1.701,9.262-15.271,20.293-16.743,21.344c2.472,4.311,14.989,24.056,16.608,28.052
					C170.777,164.071,207.102,140.854,205.391,114.918z"/>
			</g>
		</g>
	</g>
	<g id="comic_copy">
	</g>
</g>
</svg>
