<?xml version="1.0" encoding="iso-8859-1"?>
<!-- Generator: Adobe Illustrator 18.1.1, SVG Export Plug-In . SVG Version: 6.00 Build 0)  -->
<svg version="1.1" baseProfile="tiny" id="Layer_1" xmlns="http://www.w3.org/2000/svg" xmlns:xlink="http://www.w3.org/1999/xlink"
	 x="0px" y="0px" viewBox="0 0 612 792" xml:space="preserve">
<g id="Layer_2_copy_2">
	<g id="cLBRAx_4_">
		<g>
			<g>
				<g>
					<g>
						<g>
							<g>
								<g>
									<path d="M571.274,295.44c18.247-29.197,21.897-41.36-8.516-62.043C537.872,216.475,349.735,103.002,337.399,96.54
										c-7.59-3.974-28.752-8.408-38.377-3.687c-16.824,8.251-15.91,10.987-32.333,32.429
										C219.113,187.394,40.645,458.616,28.71,476.7c-20.073,30.413-24.278,35.965,33.454,83.33
										c15.969,13.1,160.096,119.055,179.434,129.557c35.28,19.161,51.093-7.3,64.127-24.045
										C313.501,655.554,563.549,307.801,571.274,295.44z M386.317,156.31c26.81,10.18,47.185,23.866,66.651,45.155
										c2.293,2.509,4.245,8.44,2.502,11.36c-1.723,2.883-2.807,3.846-9.168,1.838c-15.86-5.009-40.22-22.656-48.382-29.012
										c-4.827-3.758-18.19-17.052-18.856-22.809C378.676,159.473,381.001,154.292,386.317,156.31z M113.227,521.44
										c-5.348,5.582-17.03,2.895-23.873-5.429c-3.293-4.006-12.326-17.121-4.761-21.194c11.417-6.137,21.545,8.87,27.316,16.755
										C112.883,512.902,116.572,517.95,113.227,521.44z M191.723,577.671c-1.136,4.554-3.018,8.993-5.798,12.749
										c-6.467,8.735-14.113,13.769-25.254,15.118c-7.02,0.85-16.878-2.586-23.723-6.083c-10.276-5.252-28.739-31.63-10.212-34.11
										c7.228-0.968,8.782,8.46,13.103,13.734c2.377,2.903,10.237,8.932,14.142,9.276c5.171,0.457,11.839-2.185,15.588-5.496
										c4.267-3.765,7.506-19.591-0.991-24.31c-10.854-6.027-20.189,2.31-30.064,1.418c-6.511-0.587-10.91-8.276-9.595-14.42
										c1.607-7.511,10.719-11.237,17.347-12.778c15.15-3.517,32.183,0.02,41.009,13.84
										C193.06,555.675,194.321,567.237,191.723,577.671z M241.683,628.843c-0.536,2.514-2.689,4.817-5.26,4.812
										c-1.086-0.003-4.006-1.443-4.456-1.723c-12.166-7.634-23.165-17.131-32.493-28.056c-4.692-5.496-2.694-13.616,4.574-11.694
										c4.52,1.195,30.979,20.81,36.327,29.197C241.762,623.544,242.219,626.326,241.683,628.843z M516.53,286.926
										L287.495,599.096L98.66,460.28c0,0,207.207-301.999,208.631-302.303C308.814,157.649,516.53,286.926,516.53,286.926z"/>
								</g>
							</g>
						</g>
					</g>
				</g>
			</g>
		</g>
	</g>
</g>
</svg>
