<?xml version="1.0" encoding="iso-8859-1"?>
<!-- Generator: Adobe Illustrator 18.1.1, SVG Export Plug-In . SVG Version: 6.00 Build 0)  -->
<svg version="1.1" baseProfile="tiny" id="Layer_1" xmlns="http://www.w3.org/2000/svg" xmlns:xlink="http://www.w3.org/1999/xlink"
	 x="0px" y="0px" viewBox="0 0 612 792" xml:space="preserve">
<g id="Layer_2_copy_2">
	<g id="cLBRAx_4_">
		<g>
			<g>
				<path d="M497.873,455.005c-10.397,3.126-21.069,5.333-31.868,6.523c-12.606,1.389-32.087,0.31-37.959-13.162
					c-8.307-19.061-9.716-42.179-11.643-62.653c-2.195-23.342-2.944-46.792-3.384-70.225c-0.086-4.604-0.155-9.207-0.216-13.813
					c0-0.039,0-0.079-0.003-0.116c-0.243-18.259,0.317-36.624-2.573-54.724c-1.893-11.854-4.717-23.556-8.202-35.041
					c-5.818-19.174-14.585-39.923-28.523-54.65c-13.83-14.617-31.716-25.09-51.435-29.369
					c-14.135-3.067-21.258-12.933-25.989-25.989h-11.247c2.033,0-11.468,160.58-12.655,174.118c-0.88,10.03-1.76,20.058-2.64,30.089
					c-0.914,10.434-1.831,20.867-2.745,31.301c-2.827,32.21-5.572,65.553-8.337,98.2c-1.411,16.657-2.844,33.311-4.331,49.963
					c-0.769,8.607-1.394,17.247-2.36,25.844c-0.885,7.885-1.575,12.719-1.575,12.719s-50.317-1.627-68.738,5.493
					c-12.99,5.019-26.771,12.685-36.794,22.487c-11.043,10.8-17.809,34.341-17.932,49.776c-0.108,13.638,5.191,28.1,14.017,40.06
					c13.144,17.812,32.817,23.743,52.888,24.871c29.634,1.666,60.753-1.752,83.932-23.772c18.247-17.335,17.728-29.238,21.29-48.355
					c4.144-22.251,2.246-45.519,2.738-59.912c1.524-44.705,22.332-292.334,26.82-315.728c8.927,7.487,13.307,20.688,14.973,31.822
					c7.228,48.269,4.151,97.227,3.731,145.816c-0.202,23.293,0.501,47.687,10.994,69.006c6.157,12.508,15.607,23.44,27.336,30.976
					c14.791,9.504,34.867,14.614,51.932,8.625c15.858-5.567,31.76-11.151,46.822-18.608c21.445-10.618,41.019-25.004,57.557-42.299
					c4.353-4.552,8.307-9.667,8.917-16.15c-3.65,4.355-9.443,6.975-12.469,8.765c-6.076,3.591-11.328,6.828-17.77,9.708
					C513.097,449.881,505.559,452.695,497.873,455.005z"/>
			</g>
		</g>
	</g>
</g>
</svg>
