<?xml version="1.0" encoding="iso-8859-1"?>
<!-- Generator: Adobe Illustrator 18.1.1, SVG Export Plug-In . SVG Version: 6.00 Build 0)  -->
<svg version="1.1" baseProfile="tiny" id="Layer_1" xmlns="http://www.w3.org/2000/svg" xmlns:xlink="http://www.w3.org/1999/xlink"
	 x="0px" y="0px" viewBox="0 0 612 792" xml:space="preserve">
<g id="Layer_2_copy_2">
	<g id="cLBRAx_4_">
		<g>
			<g>
				<g>
					<g>
						<g>
							<path d="M526.367,363.158c22.944-2.114,45.605-9.917,45.708-38.087c0.12-32.932,0.135-65.867,0.12-98.8
								c-0.007-16.573-0.012-33.149-0.027-49.722c-0.012-13.213,2.055-25.837-5.678-37.438
								c-12.272-18.412-27.486-25.065-49.125-24.583c-8.819,0.197-17.667,0-26.488,0c-25.549,0-51.096,0-76.645,0
								c-63.982,0-127.962,0-191.944,0c-45.59,0-91.178,0-136.768,0c-3.733,0-7.467,0-11.2,0c-10.433,0-26.341,14.049-31.932,22.111
								c-9.037,13.027-4.751,33.611-4.771,48.594c-0.054,44.342-0.13,88.683,0.204,133.025c0.175,23.182,16.445,40.888,39.07,44.184
								c16.576,2.416,34.397,0.826,51.133,0.87c17.701,0.047,35.4,0.093,53.101,0.135c27.021,0.066,54.043,0.152,81.064,0.152
								c0.877-28.201,15.123-60.578,29.713-83.121c7.695-11.893,23.92-23.789,37.868-19.478c8.907,2.753,13.508,3.711,19.911,11.279
								c9.826,11.616,18.414,22.632,19.562,37.794c3.682,16.573,4.223,36.646,3.65,53.527c47.453,0,85.388,0.317,132.841,0.317
								C512.207,363.92,519.3,363.81,526.367,363.158z M162.667,239.444l-12.09,57.707l-41.97-3.65c0,0,24.2-121.466,27.103-143.692
								c0.165-1.251,29.371-1.477,31.799-1.435c69.515,1.197,80.007,24.463,78.41,49.326
								C243.618,233.562,187.756,245.374,162.667,239.444z M256.642,301.713c-18.736,2.994-33.252-6.314-38.777-16.652
								c-6.11-11.436-3.529-39.955,6.076-49.584c23.349-23.408,42.412-16.463,55.967-2.195
								C292.91,246.972,289.488,296.468,256.642,301.713z M421.784,207.054l33.758-0.457c0,0,2.731-30.922,5.23-45.106
								c13.702,1.084,21.459,2.453,34.051,6.319c-2.185,12.491-4.749,27.582-7.346,42.437c6.843,1.598,30.337,4.562,30.337,4.562
								s-2.925,19.201-3.586,22.831c-1.089,5.995-1.204,8.418-1.204,8.418l-29.88-5.019l-8.212,61.586c0,0-32.279-5.589-32.846-3.65
								c4.431-15.182,8.212-51.777,9.124-59.305l-29.75-0.897L421.784,207.054z M372.059,274.342
								c-8.521-8.816-19.928-10.952-24.178-13.457c-5.867-3.458-25.267-13.889-16.878-31.477
								c7.071-14.826,21.897-25.775,34.51-25.915c20.656-0.231,33.181,15.288,38.222,30.932c0.034,0.103,0.029,0.209,0.057,0.312
								c-7.963,1.015-23.298,5.692-23.298,5.692s-2.802-4.68-3.328-5.38c-4.323-5.771-12.451-1.865-15.595,3.028
								c-1.428,2.224,4.014,7.804,5.702,9.123c7.3,5.702,18.439,5.707,26.23,10.035c8.212,4.562,13.457,10.264,14.142,20.528
								c0.683,10.244-3.584,12.346-4.79,13.914c-1.799,2.337-24.635,9.352-24.635,9.352l-7.3-18.933
								C370.919,282.097,378.673,281.185,372.059,274.342z"/>
						</g>
					</g>
				</g>
				<path d="M280.441,680.504c0.268-1.885,59.374,0.519,65.231,0.629c8.947,0.167,68.586-0.629,68.586-0.629
					s0.789-18.925,1.04-28.012c0.531-19.257,4.075-23.534,13.103-40.569c7.523-14.196,30.457-66.666,33.301-73.902
					c3.338-8.489,5.909-20.56,5.437-29.9c-0.496-9.824-7.786-18.795-15.472-24.387c-3.048-2.217-7.226-3.291-11.011-3.984
					c-3.239-0.595-12.255,0.334-12.255,0.334s-1.322-6.44-2.087-9.699c-3.874-16.536-16.617-43.676-33.498-31.814
					c-1.895,1.33-6.739,6.843-9.123,6.843c-2.957-6.533-3.842-17.94-12.011-21.255c-18.554-7.528-25.237,2.674-33.871,25.672
					c2.089-16.278,14.767-117.207-7.034-136.255c-6.929-6.054-21.027-2.431-26.916,2.281c-7.044,5.636-8.833,14.541-11.714,22.932
					c-6.036,17.581-6.041,36.396-8.978,54.576c-3.94,24.374-7.55,44.956-10.023,69.994c-1.278,12.94-7.907,45.01-7.907,45.01
					c-3.021,2.207-14.867-4.847-18.235-6.041c-16.138-5.732-41.515-13.548-55.481,0.437c-6.653,6.661-10.18,17.908-7.398,27.093
					c3.76,12.414,16.844,17.655,26.894,23.915c12.764,7.949,24.291,18.311,32.932,30.654c12.201,17.424,18.316,38.263,27.316,57.535
					C274.198,648.247,279.224,672.597,280.441,680.504z"/>
				<path d="M195.968,213.437c11.188-2.681,14.816-17.264,9.119-26.825c-0.509-0.853-1.148-1.558-1.789-2.259
					c-0.376-0.376-0.759-0.762-1.131-1.133c-5.941-5.193-26.672-5.835-27.316-5.633c-2.603,11.901-4.429,23.534-6.938,35.624
					C176.236,213.855,188.034,215.34,195.968,213.437z"/>
				<path d="M241.283,262.729c-0.002,0.086-0.007,0.17-0.007,0.256c-0.209,9.743,13.761,16.524,18.888,6.444
					c2.768-5.444,0.799-13.666-3.994-17.409C248.558,246.072,241.595,255.432,241.283,262.729z"/>
			</g>
		</g>
	</g>
	<g id="comic_copy">
	</g>
</g>
</svg>
