<?xml version="1.0" encoding="iso-8859-1"?>
<!-- Generator: Adobe Illustrator 18.1.1, SVG Export Plug-In . SVG Version: 6.00 Build 0)  -->
<svg version="1.1" baseProfile="tiny" id="Layer_1" xmlns="http://www.w3.org/2000/svg" xmlns:xlink="http://www.w3.org/1999/xlink"
	 x="0px" y="0px" viewBox="0 0 612 792" xml:space="preserve">
<g id="Layer_2_copy_2">
	<g id="cLBRAx_4_">
		<g>
			<g>
				<path d="M481.728,154.174c-24.763-34.009-50.983-40.925-90.325-41.97c-51.551-1.369-100.13,61.711-95.533,88.371
					c-29.506,15.573-45.293,45.664-61.913,73.241c-22.268,36.951-112.18,184.502-113.043,193.822
					c-0.801,8.661,5.356,16.091,8.391,23.752c-2.259,2.743-17.546,41.879-16.632,61.038c1.14,23.922,9.264,47.193,29.197,62.498
					c25.547,19.616,67.204,19.589,68.07,19.311l-0.553-13.383c-11.861,1.369-60.563-16.6-70.252-38.32
					c-13.231-29.651,4.628-72.865,8.293-80.088c1.752-3.456,11.997-17.588,10.937-20.931c-2.175-6.865-10.328-12.488-2.593-20.552
					c7.224,9.17,14.344,18.208,21.57,27.378h8.723c13.437-22.347,42.506-37.381,63.348-53.013c4.063-3.045,8.762-6.26,13.766-5.405
					c2.881,0.492,5.343,2.281,8.01,3.48c6.398,2.876,14.285,2.136,20.036-1.88c0.312,43.803-1.374,87.592-3.478,131.337
					c-0.904,18.79-6.285,88.895-6.314,105.689c-0.002,1.391,0.002,2.822,0.516,4.114c1.47,3.704,6.174,4.658,10.139,5.078
					c-3.018,0.887-6.231,1.9-8.204,4.348c-8.285,10.286,11.117,7.386,11.402,1.534c0.278-5.707,0.523-10.709,0.676-13.825
					c5.498-3.721,9.504-6.432,11.982-8.111c1.971-19.006,31.77-242.925,31.77-242.925s18.247-11.557-10.714-47.166
					c-2.141-2.632-5.601-6.068-7.838-8.489c-8.966-9.706-11.712-11.313-17.836-17.065c-8.295-7.784-15.044-12.933-23.676-20.343
					c-3.564,5.324-37.44,38.59-39.129,39.795c-0.541,0.391,40.161,45.372,39.9,45.75c-0.393,0.568-6.693-1.956-11.264-1.605
					c-5.931,0.457-7.413,4.073-9.581,5.931l-47.444-54.286c0,0,57.385-57.943,70.709-67.971c0,0,54.335,47.001,65.735,68.131
					c5.319-3.284,9.78-7.693,14.555-11.675c4.299-3.584,9.052-6.334,12.12-11.166c0,0-3.011-4.862-3.195-5.557
					c18.864-3.822,36.069,1.234,55.397-3.697c8.03-2.047,44.745-12.899,62.043-44.251
					C518.679,232.183,505.839,187.291,481.728,154.174z M250.537,304.669c-2.615-2.047-4.048-3.748-6.226-6.15
					c-2.128-2.347-4.984-5.412-6.776-8.271l4.916-6.953c2.509,1.802,5.144,4.871,7.818,6.793
					C254.167,300.734,252.545,301.828,250.537,304.669z M360.989,328.744c-12.166-12.156-27.523-16.728-43.946-29.044
					c-9.807-7.356-19.803-17.556-26.134-28.054c-3.279-5.437-6.619-11.24-8.806-17.222c-1.47-4.014-2.922-6.145-2.922-10.379
					c0-1.369,0.457-16.423,20.375-21.744c5.626,21.29,18.23,48.8,23.113,58.393c6.459,12.687,13.533,21.29,23.113,32.237
					C350.042,317.797,362.815,330.57,360.989,328.744z"/>
			</g>
		</g>
	</g>
</g>
</svg>
