<?xml version="1.0" encoding="iso-8859-1"?>
<!-- Generator: Adobe Illustrator 18.1.1, SVG Export Plug-In . SVG Version: 6.00 Build 0)  -->
<svg version="1.1" xmlns="http://www.w3.org/2000/svg" xmlns:xlink="http://www.w3.org/1999/xlink" x="0px" y="0px"
	 viewBox="0 0 249 249" style="enable-background:new 0 0 249 249;" xml:space="preserve">
<g id="Layer_2" style="display:none;">
</g>
<g id="Circles" style="display:none;">
	<g style="display:inline;">
		<path style="fill:#DAF1FD;" d="M124.5,235C63.57,235,14,185.43,14,124.5C14,63.57,63.57,14,124.5,14S235,63.57,235,124.5
			C235,185.43,185.43,235,124.5,235z"/>
		<path d="M124.5,28c53.21,0,96.5,43.29,96.5,96.5S177.71,221,124.5,221S28,177.71,28,124.5S71.29,28,124.5,28 M124.5,0
			C55.741,0,0,55.741,0,124.5S55.741,249,124.5,249S249,193.259,249,124.5S193.259,0,124.5,0L124.5,0z"/>
	</g>
</g>
<g id="Layer_2_copy" style="display:none;">
	<g id="cLBRAx_2_" style="display:inline;">
		<g>
			<g>
				<path style="fill:#F0F0F0;" d="M159.812,83.454c0.247,6.489-2.145,12.916-5.819,18.271c-2.766,4.031-19.955,18.09-19.955,18.09
					s0,19.604,0,29.624c-5.281,0.637-10.801,1.803-16.101,1.877c-0.183,0.003,3.752-38.362,3.752-38.362s15.411-11.949,19.37-20.221
					c2.386-4.984-0.306-12.364-3.898-16.131c-3.068-3.218-7.738-4.282-12.14-3.659c-9.811,1.388-8.645,11.888-8.645,11.888
					s8.833,6.667,1,11.833c-4.073,2.686-11.166,2.381-14.167-1.333c-2.983-3.692-2.115-10.075-2.083-14.583
					c0.083-11.917,6.75-22.583,16.112-24.913c9.536-2.372,19.746-1.509,28.388,3.169C154.542,63.833,159.375,72,159.812,83.454z"/>
				<path style="fill:#F0F0F0;" d="M192.746,78.008c0.101,7.991-35.121,72.367-35.121,72.367l-6.75-2.25
					c0,0,21.026-75.173,25.003-83.129C178.042,60.667,192.375,48.667,192.746,78.008z"/>
				<path style="fill:#F0F0F0;" d="M97.448,133.374c-1.593,5.042-28.073,33.876-28.073,33.876s-9.459-10.637-10.063-10.033
					C66.038,152.899,90.514,134.856,97.448,133.374z"/>
				<path style="fill:#F0F0F0;" d="M95.066,122.9c-1.426,0.607-39.941,2.6-48.33,3.111c0.889-4.761,2.167-13.861,3.139-15.011
					C56.744,112.819,95.327,122.789,95.066,122.9z"/>
				<path style="fill:#F0F0F0;" d="M133.25,176.25c-5,4.25-16.822,7.702-19.516-1.972c-1.81-6.497,1.899-14.772,9.259-15.262
					c5.767-0.383,9.424,1.316,12.258,6.983C136.5,168.5,136.281,173.673,133.25,176.25z"/>
				<path style="fill:#F0F0F0;" d="M61.328,79.244c1.281-0.706,9.971-10.645,10.765-9.451c6.283,9.458,19.418,29.592,19.418,30.621
					C91.51,100.413,63.638,80.18,61.328,79.244z"/>
				<path style="fill:#F0F0F0;" d="M154.835,162.765c0.025,0.024,0.051,0.048,0.076,0.072c3.57,3.43,4.005,10.944-1.209,13.305
					c-3.327,1.507-8.562-0.558-10.577-3.017c-2.44-2.978-2.434-8.93,0.959-11.58C147.262,159.063,152.073,160.174,154.835,162.765z"
					/>
			</g>
		</g>
	</g>
	<g id="comic" style="display:inline;">
	</g>
</g>
<g id="Layer_2_copy_2">
	<g id="cLBRAx_4_">
		<g>
			<g>
				<path d="M182.922,71.275c0.367,9.636-3.185,19.179-8.64,27.131c-4.107,5.986-29.631,26.862-29.631,26.862s0,29.11,0,43.988
					c-7.841,0.945-16.038,2.677-23.908,2.787c-0.272,0.004,5.571-56.962,5.571-56.962s22.883-17.743,28.762-30.025
					c3.543-7.401-0.454-18.359-5.788-23.952c-4.556-4.778-11.489-6.359-18.026-5.434c-14.569,2.061-12.836,17.652-12.836,17.652
					s13.116,9.899,1.485,17.571c-6.048,3.989-16.58,3.535-21.035-1.98c-4.429-5.482-3.14-14.96-3.093-21.654
					c0.124-17.695,10.023-33.533,23.924-36.992c14.16-3.523,29.32-2.241,42.151,4.705C175.097,42.14,182.274,54.266,182.922,71.275z
					"/>
				<path d="M231.825,63.188c-2.881,11.511-52.15,107.454-52.15,107.454l-10.023-3.341c0,0,31.221-111.621,37.126-123.435
					c2.543-5.088,20.594-15.979,26.538,0.748C234.881,49.021,234.058,54.266,231.825,63.188z"/>
				<path d="M90.321,145.397c-2.366,7.486-41.685,50.302-41.685,50.302s-14.045-15.795-14.942-14.898
					C43.681,174.39,80.025,147.598,90.321,145.397z"/>
				<path d="M86.784,129.846c-2.117,0.901-59.307,3.86-71.763,4.619c1.32-7.07,3.217-20.582,4.66-22.29
					C29.881,114.876,87.172,129.681,86.784,129.846z"/>
				<path d="M143.482,209.063c-7.424,6.311-24.978,11.436-28.979-2.928c-2.687-9.647,2.82-21.935,13.748-22.661
					c8.563-0.569,13.993,1.953,18.201,10.369C148.308,197.555,147.983,205.237,143.482,209.063z"/>
				<path d="M36.687,65.022c1.903-1.048,14.806-15.807,15.984-14.034C62,65.032,81.504,94.927,81.504,96.455
					C81.504,96.455,40.118,66.412,36.687,65.022z"/>
				<path d="M175.533,189.039c0.038,0.035,0.075,0.071,0.113,0.107c5.301,5.093,5.946,16.25-1.795,19.757
					c-4.94,2.238-12.714-0.828-15.706-4.48c-3.623-4.422-3.613-13.259,1.424-17.194
					C164.288,183.543,171.431,185.193,175.533,189.039z"/>
			</g>
		</g>
	</g>
	<g id="comic_copy">
	</g>
</g>
</svg>
