<?xml version="1.0" encoding="iso-8859-1"?>
<!-- Generator: Adobe Illustrator 18.1.1, SVG Export Plug-In . SVG Version: 6.00 Build 0)  -->
<svg version="1.1" baseProfile="tiny" id="Layer_1" xmlns="http://www.w3.org/2000/svg" xmlns:xlink="http://www.w3.org/1999/xlink"
	 x="0px" y="0px" viewBox="0 0 612 792" xml:space="preserve">
<g id="Layer_2_copy_2">
	<g id="cLBRAx_4_">
	</g>
	<g id="comic_copy">
		<path d="M252.958,552.199c-0.893-2.256-1.59-2.214-2.237-2.722c-2.998-2.358-16.885-2.055-19.164-2.436
			c-7.284-1.219-20.012-7.784-20.146-7.861c5.769,7.784,12.673,14.213,21.345,19.353c3.908,1.172,8.058,1.617,11.847,0.736
			c2.373-0.552,4.717-1.177,6.71-2.933C252.537,555.262,253.711,554.105,252.958,552.199z"/>
		<path d="M243.263,483.091c1.54-4.463-1.256-6.993-3.04-8.128c-6.836-4.351-12.576,7.242-6.297,11.757
			C238.775,490.203,241.606,487.892,243.263,483.091z"/>
		<path d="M297.034,493.721c0.56-3.545-2.112-7.511-5.889-7.533c-8.175-0.047-5.734,12.382,1.97,11.3
			C295.519,497.152,296.738,495.587,297.034,493.721z"/>
		<g>
			<g>
				<g>
					<g>
						<g>
							<path d="M579.343,148.55c0.052-0.674-466.603-33.478-466.603-33.478L61.297,617.33l478.45,50.117L579.343,148.55z
								 M275.865,506.347c-3.356-3.63-5.416-7.996-5.647-12.959c-0.211-4.545,0.167-11.088,2.776-14.922
								c6.065-8.901,18.325-16.601,28.722-10.113c8.065,5.033,13.106,15.332,13.591,24.652c0.614,11.777-6.73,23.423-19.529,23.045
								C288.299,515.825,280.876,511.765,275.865,506.347z M161.961,504.205c-2.117-20.917-2.943-43.348,4.804-62.67
								c6.645-16.576,16.091-35.61,30.578-46.957c16.962-13.287,41.104-21.37,61.262-10.954
								c25.901,13.382,44.584,40.153,39.666,70.716c-4.212-0.269-11.665,1.712-13.21,2.433c-6.217,2.906-12.143,3.719-16.245,9.389
								c2.299-3.177-4.933-15.123-6.618-18.163c-3.453-6.234-9.464-10.882-16.34-13.136c-17.852-5.854-42.494,4.015-50.751,20.691
								c-13.128,26.518,1.363,64.74,34.362,62.63c9.466-0.604,15.939-1.291,24.264-5.844c4.381-2.398,8.003-4.926,8.003-4.926
								s11.342,10.372,13.957,12.347c4.324,3.269,15.735,7.165,19.136,7.508c-3.077,12.929-3.147,12.703-9.235,21.549
								c-8.158,11.852-25.408,21.977-33.401,24.473c-11.096,3.463-23.286,3.844-34.715,1.801c-1.115-0.199-2.222-0.423-3.326-0.672
								c-14.001-3.157-26.607-9.337-35.071-20.522C169.357,541.042,163.852,522.873,161.961,504.205z M256.632,494.99
								c-2.744,5.227-7.142,9.245-13.471,10.767c-12.302,2.96-28.978,2.035-36.695-9.444c-9.299-13.835-5.229-36.225,8.538-45.753
								c5.279-3.655,11.907-5.428,18.295-5.127c8.08,0.381,15.723,4.903,20.487,11.441
								C260.719,466.392,262.625,483.573,256.632,494.99z M136.904,613.613c-2.64-8.998,0.308-19.547,4.829-28.5
								c6.404-12.678,25.493-20.756,25.493-20.756s29.244,23.241,59.874,26.012c24.881,2.251,36.705-6.369,50.022-15.238
								c0.56-0.55,7.235-4.617,7.235-4.617s9.178,12.742,13.852,26.321c3.232,9.389,5.08,23.858,4.772,34.17
								C302.709,630.478,140.131,614.021,136.904,613.613z M327.146,633.623c2.662-23.171-4.369-46.014-18.303-64.718
								c-2.259-3.03-6.476-9.78-6.476-9.78s7.849-18.315,8.312-26.781c13.392-2.154,22.853-13.773,27.062-27.105
								c4.209-13.332,2.199-34.623-6.899-45.238c-6.463-7.543-14.623-8.926-14.623-8.926s0.769-9.389,0-16.469
								c-1.995-18.36-9.148-31.399-19.631-46.602c-20.35-29.513-63.402-38.078-96.365-23.99
								c-32.963,14.088-55.528,46.826-63.812,81.702c-8.284,34.879-3.841,71.676,5.481,106.292
								c-18.044,13.67-29.762,35.372-31.294,57.958l-28.948-4.359c0,0,33.17-332.617,33.401-337.269
								c20.547,19.89,51.575,22.268,80.199,22.236c91.225-0.097,182.528,7.008,273.273,16.355
								c0.114,17.412-8.735,32.185-22.878,42.337c-4.078,2.926-8.62,5.349-11.892,9.155c-3.271,3.804-4.966,9.6-2.326,13.87
								c11.344-11.285,28.075-14.909,41.77-23.186c13.695-8.274,24.721-26.664,15.571-39.792
								c20.572,1.948,41.487,0.184,61.444-5.177L523.85,652.61L327.146,633.623z"/>
						</g>
					</g>
				</g>
			</g>
		</g>
	</g>
</g>
</svg>
