<?xml version="1.0" encoding="iso-8859-1"?>
<!-- Generator: Adobe Illustrator 18.1.1, SVG Export Plug-In . SVG Version: 6.00 Build 0)  -->
<svg version="1.1" xmlns="http://www.w3.org/2000/svg" xmlns:xlink="http://www.w3.org/1999/xlink" x="0px" y="0px"
	 viewBox="0 0 249 249" style="enable-background:new 0 0 249 249;" xml:space="preserve">
<g id="Layer_2" style="display:none;">
</g>
<g id="Circles" style="display:none;">
	<g style="display:inline;">
		<path style="fill:#E6E2F1;" d="M124.5,235C63.57,235,14,185.43,14,124.5S63.57,14,124.5,14S235,63.57,235,124.5
			S185.43,235,124.5,235z"/>
		<path d="M124.5,28c53.21,0,96.5,43.29,96.5,96.5S177.71,221,124.5,221S28,177.71,28,124.5S71.29,28,124.5,28 M124.5,0
			C55.741,0,0,55.741,0,124.5C0,193.259,55.741,249,124.5,249S249,193.259,249,124.5C249,55.741,193.259,0,124.5,0L124.5,0z"/>
	</g>
</g>
<g id="Layer_2_copy" style="display:none;">
	<g id="cLBRAx_2_" style="display:inline;">
		<g>
			<g>
				<path style="fill:#F0F0F0;" d="M175.75,60.5C168.965,51.181,161.78,49.286,151,49c-14.125-0.375-27.436,16.909-26.177,24.214
					c-8.085,4.267-12.411,12.512-16.965,20.069c-6.102,10.125-30.738,50.555-30.975,53.109c-0.22,2.373,1.468,4.409,2.299,6.508
					c-0.619,0.752-4.808,11.475-4.558,16.725c0.312,6.555,2.539,12.931,8,17.125c7,5.375,18.414,5.367,18.651,5.292l-0.151-3.667
					c-3.25,0.375-16.595-4.549-19.25-10.5c-3.625-8.125,1.268-19.965,2.272-21.945c0.48-0.947,3.287-4.819,2.997-5.736
					c-0.596-1.881-2.83-3.422-0.711-5.632c1.98,2.513,3.93,4.989,5.91,7.502h2.39c3.682-6.123,11.647-10.243,17.358-14.526
					c1.113-0.835,2.401-1.715,3.772-1.481c0.789,0.135,1.464,0.625,2.195,0.953c1.753,0.788,3.914,0.585,5.49-0.515
					c0.086,12.003-0.376,24.001-0.953,35.987c-0.248,5.148-1.722,24.358-1.73,28.96c-0.001,0.381,0.001,0.773,0.141,1.128
					c0.403,1.015,1.692,1.276,2.778,1.391c-0.827,0.243-1.707,0.52-2.248,1.192c-2.27,2.819,3.046,2.024,3.124,0.42
					c0.076-1.564,0.143-2.934,0.185-3.788c1.506-1.02,2.604-1.763,3.283-2.222c0.54-5.208,8.705-66.563,8.705-66.563
					s5-3.167-2.936-12.924c-0.587-0.721-1.535-1.663-2.147-2.326c-2.457-2.659-3.209-3.1-4.887-4.676
					c-2.273-2.133-4.122-3.544-6.488-5.574c-0.977,1.458-10.259,10.574-10.722,10.904c-0.148,0.107,11.005,12.432,10.933,12.536
					c-0.108,0.155-1.834-0.536-3.086-0.44c-1.625,0.125-2.031,1.116-2.625,1.625l-13-14.875c0,0,15.724-15.877,19.375-18.625
					c0,0,14.888,12.879,18.012,18.669c1.457-0.9,2.679-2.108,3.988-3.199c1.178-0.982,2.48-1.735,3.321-3.059
					c0,0-0.825-1.332-0.875-1.523c5.169-1.047,9.883,0.338,15.179-1.013c2.2-0.561,12.26-3.534,17-12.125
					C185.875,81.875,182.357,69.574,175.75,60.5z M112.402,101.737c-0.716-0.561-1.109-1.027-1.706-1.685
					c-0.583-0.643-1.366-1.483-1.856-2.266l1.347-1.905c0.687,0.494,1.409,1.335,2.143,1.861
					C113.396,100.659,112.952,100.958,112.402,101.737z M142.667,108.333c-3.334-3.331-7.542-4.583-12.042-7.958
					c-2.687-2.016-5.426-4.81-7.161-7.687c-0.899-1.49-1.814-3.08-2.413-4.719c-0.403-1.1-0.801-1.684-0.801-2.844
					c0-0.375,0.125-4.5,5.583-5.958c1.542,5.833,4.995,13.371,6.333,16c1.77,3.477,3.708,5.833,6.333,8.833
					C139.667,105.334,143.167,108.834,142.667,108.333z"/>
			</g>
		</g>
	</g>
	<g id="comic" style="display:inline;">
	</g>
</g>
<g id="Layer_2_copy_2">
	<g id="cLBRAx_4_">
		<g>
			<g>
				<path d="M195.997,26.11c-10.075-13.837-20.743-16.651-36.75-17.076c-20.974-0.557-40.739,25.108-38.869,35.955
					c-12.005,6.336-18.428,18.579-25.19,29.799c-9.06,15.034-45.642,75.067-45.993,78.859c-0.326,3.524,2.179,6.547,3.414,9.664
					c-0.919,1.116-7.139,17.039-6.767,24.834c0.464,9.733,3.769,19.201,11.879,25.428c10.394,7.981,27.343,7.97,27.695,7.857
					l-0.225-5.445c-4.826,0.557-24.641-6.754-28.583-15.591c-5.383-12.064,1.883-29.646,3.374-32.585
					c0.713-1.406,4.881-7.156,4.45-8.516c-0.885-2.793-4.202-5.081-1.055-8.362c2.939,3.731,5.836,7.408,8.776,11.139h3.549
					c5.467-9.092,17.294-15.209,25.774-21.569c1.653-1.239,3.565-2.547,5.601-2.199c1.172,0.2,2.174,0.928,3.259,1.416
					c2.603,1.17,5.812,0.869,8.152-0.765c0.127,17.822-0.559,35.638-1.415,53.436c-0.368,7.645-2.557,36.168-2.569,43.001
					c-0.001,0.566,0.001,1.148,0.21,1.674c0.598,1.507,2.512,1.895,4.125,2.066c-1.228,0.361-2.535,0.773-3.338,1.769
					c-3.371,4.185,4.523,3.005,4.639,0.624c0.113-2.322,0.213-4.357,0.275-5.625c2.237-1.514,3.867-2.617,4.875-3.3
					c0.802-7.733,12.926-98.837,12.926-98.837s7.424-4.702-4.359-19.19c-0.871-1.071-2.279-2.469-3.189-3.454
					c-3.648-3.949-4.765-4.603-7.257-6.943c-3.375-3.167-6.121-5.262-9.633-8.277c-1.45,2.166-15.233,15.701-15.92,16.191
					c-0.22,0.159,16.34,18.46,16.234,18.614c-0.16,0.231-2.723-0.796-4.583-0.653c-2.413,0.186-3.016,1.657-3.898,2.413
					l-19.303-22.087c0,0,23.348-23.575,28.769-27.655c0,0,22.107,19.123,26.745,27.72c2.164-1.336,3.979-3.13,5.922-4.75
					c1.749-1.458,3.683-2.577,4.931-4.543c0,0-1.225-1.978-1.3-2.261c7.675-1.555,14.675,0.502,22.539-1.504
					c3.267-0.833,18.205-5.248,25.243-18.004C211.031,57.849,205.807,39.584,195.997,26.11z M101.934,87.341
					c-1.064-0.833-1.647-1.525-2.533-2.502c-0.866-0.955-2.028-2.202-2.757-3.365l2-2.829c1.021,0.733,2.093,1.982,3.181,2.764
					C103.411,85.74,102.751,86.185,101.934,87.341z M146.873,97.136c-4.95-4.946-11.198-6.806-17.88-11.817
					c-3.99-2.993-8.057-7.143-10.633-11.414c-1.334-2.212-2.693-4.573-3.583-7.007c-0.598-1.633-1.189-2.5-1.189-4.223
					c0-0.557,0.186-6.682,8.29-8.847c2.289,8.662,7.417,19.855,9.404,23.758c2.628,5.162,5.506,8.662,9.404,13.116
					C142.419,92.682,147.616,97.879,146.873,97.136z"/>
			</g>
		</g>
	</g>
	<g id="comic_copy">
	</g>
</g>
</svg>
