<?xml version="1.0" encoding="iso-8859-1"?>
<!-- Generator: Adobe Illustrator 18.1.1, SVG Export Plug-In . SVG Version: 6.00 Build 0)  -->
<svg version="1.1" xmlns="http://www.w3.org/2000/svg" xmlns:xlink="http://www.w3.org/1999/xlink" x="0px" y="0px"
	 viewBox="0 0 246 249" style="enable-background:new 0 0 246 249;" xml:space="preserve">
<g id="Layer_2" style="display:none;">
</g>
<g id="Circles" style="display:none;">
	<g style="display:inline;">
		<path style="fill:#FCD4D2;" d="M121.5,235C61.22,235,14,186.463,14,124.5S61.22,14,121.5,14C182.43,14,232,63.57,232,124.5
			S182.43,235,121.5,235z"/>
		<path d="M121.5,28c53.21,0,96.5,43.29,96.5,96.5S174.71,221,121.5,221C69.07,221,28,178.612,28,124.5S69.07,28,121.5,28 M121.5,0
			C52.741,0,0,55.741,0,124.5C0,193.259,52.741,249,121.5,249S246,193.259,246,124.5C246,55.741,190.259,0,121.5,0L121.5,0z"/>
	</g>
</g>
<g id="Layer_2_copy" style="display:none;">
	<g id="cLBRAx_2_" style="display:inline;">
		<g>
			<g>
			</g>
		</g>
	</g>
	<g id="comic" style="display:inline;">
		<path style="fill:#F0F0F0;" d="M103.771,167.25c-0.242-0.611-0.43-0.599-0.605-0.737c-0.811-0.638-4.571-0.556-5.188-0.66
			c-1.972-0.33-5.417-2.107-5.453-2.128c1.561,2.107,3.431,3.847,5.778,5.239c1.058,0.317,2.181,0.438,3.207,0.199
			c0.643-0.15,1.277-0.319,1.816-0.794C103.657,168.079,103.975,167.766,103.771,167.25z"/>
		<path style="fill:#F0F0F0;" d="M101.146,148.542c0.417-1.208-0.34-1.893-0.823-2.2c-1.851-1.178-3.405,1.961-1.704,3.183
			C99.931,150.467,100.698,149.841,101.146,148.542z"/>
		<path style="fill:#F0F0F0;" d="M115.702,151.419c0.151-0.96-0.572-2.033-1.594-2.039c-2.213-0.013-1.552,3.352,0.534,3.059
			C115.293,152.348,115.623,151.924,115.702,151.419z"/>
		<g>
			<g>
				<g>
					<g>
						<g>
							<path style="fill:#F0F0F0;" d="M192.125,57.979c0.014-0.183-126.312-9.062-126.312-9.062L51.887,184.881l129.52,13.567
								L192.125,57.979z M109.972,154.837c-0.909-0.983-1.466-2.164-1.529-3.508c-0.058-1.23,0.045-3.002,0.752-4.039
								c1.642-2.41,4.961-4.494,7.775-2.738c2.183,1.362,3.548,4.15,3.679,6.673c0.166,3.188-1.822,6.34-5.287,6.238
								C113.338,157.403,111.329,156.304,109.972,154.837z M79.137,154.257c-0.573-5.663-0.797-11.734,1.3-16.965
								c1.799-4.488,4.356-9.64,8.277-12.712c4.592-3.597,11.127-5.785,16.584-2.965c7.011,3.623,12.069,10.87,10.738,19.143
								c-1.14-0.073-3.158,0.463-3.576,0.659c-1.683,0.787-3.287,1.007-4.398,2.541c0.622-0.86-1.336-4.094-1.792-4.917
								c-0.935-1.688-2.562-2.946-4.423-3.556c-4.833-1.585-11.504,1.087-13.738,5.601c-3.554,7.178,0.369,17.526,9.302,16.954
								c2.563-0.164,4.315-0.349,6.568-1.582c1.186-0.649,2.167-1.333,2.167-1.333s3.07,2.808,3.778,3.343
								c1.17,0.885,4.259,1.939,5.18,2.032c-0.833,3.5-0.852,3.439-2.5,5.833c-2.208,3.208-6.878,5.949-9.042,6.625
								c-3.003,0.938-6.304,1.041-9.398,0.488c-0.301-0.054-0.602-0.115-0.9-0.182c-3.79-0.855-7.203-2.528-9.494-5.556
								C81.139,164.229,79.649,159.311,79.137,154.257z M104.766,151.763c-0.743,1.415-1.933,2.503-3.647,2.915
								c-3.33,0.801-7.845,0.551-9.934-2.556c-2.518-3.745-1.416-9.806,2.311-12.386c1.429-0.989,3.224-1.47,4.953-1.388
								c2.187,0.103,4.257,1.327,5.546,3.097C105.872,144.021,106.388,148.672,104.766,151.763z M72.354,183.875
								c-0.715-2.436,0.083-5.292,1.307-7.715c1.734-3.432,6.901-5.618,6.901-5.618s7.917,6.292,16.208,7.042
								c6.735,0.609,9.936-1.724,13.542-4.125c0.152-0.149,1.958-1.25,1.958-1.25s2.485,3.449,3.75,7.125
								c0.875,2.542,1.375,6.458,1.292,9.25C117.238,188.44,73.228,183.985,72.354,183.875z M123.854,189.292
								c0.72-6.273-1.183-12.456-4.955-17.519c-0.611-0.82-1.753-2.647-1.753-2.647s2.125-4.958,2.25-7.25
								c3.625-0.583,6.186-3.728,7.326-7.337s0.595-9.373-1.867-12.246c-1.75-2.042-3.958-2.417-3.958-2.417s0.208-2.542,0-4.458
								c-0.54-4.97-2.477-8.5-5.314-12.615c-5.509-7.989-17.163-10.308-26.087-6.494c-8.924,3.814-15.032,12.676-17.275,22.118
								c-2.243,9.442-1.04,19.403,1.484,28.774c-4.885,3.701-8.057,9.575-8.471,15.69l-7.837-1.18c0,0,8.979-90.042,9.042-91.301
								c5.562,5.384,13.962,6.028,21.711,6.02c24.695-0.026,49.412,1.897,73.977,4.427c0.031,4.713-2.365,8.712-6.193,11.461
								c-1.103,0.792-2.334,1.448-3.219,2.478s-1.344,2.599-0.63,3.754c3.071-3.055,7.6-4.036,11.307-6.277
								c3.707-2.24,6.692-7.219,4.215-10.772c5.569,0.527,11.231,0.05,16.633-1.402l-7.137,94.334L123.854,189.292z"/>
						</g>
					</g>
				</g>
			</g>
		</g>
	</g>
</g>
<g id="Layer_2_copy_2">
	<g id="cLBRAx_4_">
		<g>
			<g>
			</g>
		</g>
	</g>
	<g id="comic_copy">
		<path d="M101.679,187.286c-0.359-0.907-0.639-0.89-0.899-1.094c-1.205-0.948-6.787-0.826-7.703-0.979
			c-2.928-0.49-8.044-3.129-8.098-3.16c2.319,3.129,5.094,5.713,8.58,7.779c1.571,0.471,3.239,0.65,4.762,0.296
			c0.954-0.222,1.896-0.473,2.697-1.179C101.51,188.517,101.982,188.052,101.679,187.286z"/>
		<path d="M97.782,159.507c0.619-1.794-0.505-2.811-1.222-3.267c-2.748-1.749-5.055,2.911-2.531,4.726
			C95.978,162.366,97.116,161.437,97.782,159.507z"/>
		<path d="M119.396,163.78c0.225-1.425-0.849-3.019-2.367-3.028c-3.286-0.019-2.305,4.977,0.792,4.542
			C118.787,165.159,119.277,164.53,119.396,163.78z"/>
		<g>
			<g>
				<g>
					<g>
						<g>
							<path d="M232.873,25.035c0.021-0.271-187.556-13.457-187.556-13.457L24.639,213.466l192.318,20.145L232.873,25.035z
								 M110.887,168.855c-1.349-1.459-2.177-3.214-2.27-5.209c-0.085-1.827,0.067-4.457,1.116-5.998
								c2.438-3.578,7.366-6.673,11.545-4.065c3.242,2.023,5.268,6.163,5.463,9.909c0.247,4.734-2.705,9.415-7.85,9.263
								C115.885,172.665,112.901,171.033,110.887,168.855z M65.102,167.994c-0.851-8.408-1.183-17.424,1.931-25.191
								c2.671-6.663,6.468-14.314,12.291-18.875c6.818-5.341,16.522-8.59,24.625-4.403c10.411,5.379,17.921,16.14,15.944,28.425
								c-1.693-0.108-4.689,0.688-5.31,0.978c-2.499,1.168-4.881,1.495-6.53,3.774c0.924-1.277-1.983-6.079-2.66-7.301
								c-1.388-2.506-3.804-4.374-6.568-5.28c-7.176-2.353-17.081,1.614-20.4,8.317c-5.277,10.659,0.548,26.023,13.812,25.175
								c3.805-0.243,6.407-0.519,9.753-2.349c1.761-0.964,3.217-1.98,3.217-1.98s4.559,4.169,5.61,4.963
								c1.738,1.314,6.325,2.88,7.692,3.018c-1.237,5.197-1.265,5.106-3.712,8.662c-3.279,4.764-10.213,8.834-13.426,9.837
								c-4.46,1.392-9.36,1.545-13.954,0.724c-0.448-0.08-0.893-0.17-1.337-0.27c-5.628-1.269-10.695-3.753-14.097-8.249
								C68.075,182.801,65.862,175.498,65.102,167.994z M103.156,164.29c-1.103,2.101-2.871,3.716-5.415,4.328
								c-4.945,1.19-11.648,0.818-14.75-3.796c-3.738-5.561-2.102-14.561,3.432-18.391c2.122-1.469,4.786-2.182,7.354-2.061
								c3.248,0.153,6.32,1.971,8.235,4.599C104.799,152.795,105.565,159.701,103.156,164.29z M55.03,211.972
								c-1.061-3.617,0.124-7.857,1.941-11.456c2.574-5.096,10.247-8.343,10.247-8.343s11.755,9.342,24.067,10.456
								c10.001,0.905,14.754-2.56,20.107-6.125c0.225-0.221,2.908-1.856,2.908-1.856s3.689,5.122,5.568,10.58
								c1.299,3.774,2.042,9.59,1.918,13.735C121.677,218.751,56.327,212.136,55.03,211.972z M131.5,220.015
								c1.07-9.314-1.756-18.496-7.357-26.014c-0.908-1.218-2.603-3.931-2.603-3.931s3.155-7.362,3.341-10.765
								c5.383-0.866,9.186-5.536,10.878-10.895c1.692-5.359,0.884-13.917-2.773-18.184c-2.598-3.032-5.878-3.588-5.878-3.588
								s0.309-3.774,0-6.62c-0.802-7.38-3.677-12.621-7.891-18.732c-8.18-11.863-25.485-15.306-38.735-9.643
								c-13.25,5.663-22.32,18.822-25.65,32.841c-3.33,14.02-1.544,28.811,2.203,42.725c-7.253,5.495-11.963,14.218-12.579,23.297
								l-11.636-1.752c0,0,13.333-133.699,13.426-135.569c8.259,7.995,20.731,8.951,32.237,8.938
								c36.669-0.039,73.369,2.817,109.845,6.574c0.046,6.999-3.511,12.937-9.196,17.018c-1.639,1.176-3.465,2.15-4.78,3.68
								c-1.315,1.529-1.996,3.859-0.935,5.575c4.56-4.536,11.285-5.993,16.79-9.32c5.505-3.326,9.937-10.718,6.259-15.995
								c8.269,0.783,16.676,0.074,24.698-2.081l-10.597,140.073L131.5,220.015z"/>
						</g>
					</g>
				</g>
			</g>
		</g>
	</g>
</g>
</svg>
