<?xml version="1.0" encoding="iso-8859-1"?>
<!-- Generator: Adobe Illustrator 18.1.1, SVG Export Plug-In . SVG Version: 6.00 Build 0)  -->
<svg version="1.1" xmlns="http://www.w3.org/2000/svg" xmlns:xlink="http://www.w3.org/1999/xlink" x="0px" y="0px"
	 viewBox="0 0 249 249" style="enable-background:new 0 0 249 249;" xml:space="preserve">
<g id="Layer_2" style="display:none;">
</g>
<g id="Circles" style="display:none;">
	<g style="display:inline;">
		<path style="fill:#FDE5E7;" d="M124.5,235C63.57,235,14,185.43,14,124.5C14,63.57,63.57,14,124.5,14S235,63.57,235,124.5
			C235,185.43,185.43,235,124.5,235z"/>
		<path d="M124.5,28c53.21,0,96.5,43.29,96.5,96.5S177.71,221,124.5,221S28,177.71,28,124.5S71.29,28,124.5,28 M124.5,0
			C55.74,0,0,55.741,0,124.5S55.74,249,124.5,249S249,193.259,249,124.5S193.26,0,124.5,0L124.5,0z"/>
	</g>
</g>
<g id="Layer_2_copy" style="display:none;">
	<g id="cLBRAx_2_" style="display:inline;">
		<g>
			<g>
				<g>
					<g>
						<g>
							<path style="fill:#F0F0F0;" d="M183.094,125.212c6.287-0.579,12.496-2.717,12.525-10.436
								c0.033-9.024,0.037-18.048,0.033-27.072c-0.002-4.541-0.004-9.083-0.008-13.624c-0.003-3.62,0.563-7.08-1.556-10.258
								c-3.363-5.045-7.531-6.868-13.46-6.736c-2.417,0.054-4.841,0-7.258,0c-7,0-14.001,0-21.001,0c-17.531,0-35.063,0-52.594,0
								c-12.492,0-24.984,0-37.476,0c-1.023,0-2.046,0-3.069,0c-2.859,0-7.217,3.849-8.75,6.059
								c-2.476,3.57-1.302,9.209-1.307,13.315c-0.014,12.15-0.035,24.3,0.056,36.45c0.048,6.352,4.506,11.204,10.706,12.107
								c4.542,0.662,9.425,0.226,14.011,0.238c4.85,0.013,9.7,0.025,14.55,0.037c7.404,0.018,14.808,0.042,22.212,0.042
								c0.241-7.727,4.144-16.599,8.142-22.776c2.109-3.259,6.554-6.518,10.376-5.337c2.441,0.754,3.702,1.017,5.456,3.091
								c2.692,3.183,5.046,6.201,5.36,10.356c1.009,4.541,1.157,10.041,1,14.667c13.003,0,23.397,0.087,36.4,0.087
								C179.214,125.42,181.158,125.39,183.094,125.212z M83.437,91.312l-3.312,15.812l-11.5-1c0,0,6.631-33.283,7.426-39.372
								c0.045-0.343,8.048-0.405,8.714-0.393c19.048,0.328,21.923,6.703,21.485,13.516C105.619,89.701,90.312,92.938,83.437,91.312z
								 M109.187,108.375c-5.134,0.82-9.111-1.73-10.625-4.562c-1.674-3.133-0.967-10.948,1.665-13.586
								c6.398-6.414,11.621-4.511,15.335-0.601C119.125,93.375,118.187,106.938,109.187,108.375z M154.437,82.438l9.25-0.125
								c0,0,0.748-8.473,1.433-12.359c3.755,0.297,5.88,0.672,9.33,1.732c-0.599,3.423-1.301,7.557-2.013,11.628
								c1.875,0.438,8.313,1.25,8.313,1.25s-0.802,5.261-0.982,6.256c-0.298,1.643-0.33,2.306-0.33,2.306l-8.187-1.375L169,108.625
								c0,0-8.845-1.532-9-1c1.214-4.16,2.25-14.188,2.5-16.25l-8.152-0.246L154.437,82.438z M140.812,100.875
								c-2.335-2.416-5.46-3.001-6.625-3.688c-1.608-0.947-6.924-3.805-4.625-8.625c1.938-4.062,6-7.062,9.456-7.101
								c5.66-0.063,9.092,4.189,10.473,8.476c0.009,0.029,0.008,0.057,0.015,0.086c-2.182,0.278-6.384,1.56-6.384,1.56
								s-0.768-1.282-0.912-1.474c-1.185-1.581-3.412-0.511-4.273,0.83c-0.391,0.609,1.1,2.139,1.562,2.5
								c2,1.562,5.052,1.564,7.187,2.75c2.25,1.25,3.688,2.812,3.875,5.625c0.187,2.807-0.982,3.383-1.312,3.812
								c-0.493,0.64-6.75,2.562-6.75,2.562l-2-5.188C140.5,103,142.625,102.75,140.812,100.875z"/>
						</g>
					</g>
				</g>
				<path style="fill:#F0F0F0;" d="M115.708,212.167c0.073-0.517,16.269,0.142,17.874,0.172c2.452,0.046,18.793-0.172,18.793-0.172
					s0.216-5.186,0.285-7.675c0.145-5.276,1.117-6.448,3.59-11.116c2.062-3.89,8.345-18.267,9.125-20.25
					c0.915-2.326,1.619-5.633,1.49-8.193c-0.136-2.692-2.134-5.15-4.24-6.682c-0.835-0.608-1.98-0.902-3.017-1.092
					c-0.887-0.163-3.358,0.092-3.358,0.092s-0.363-1.765-0.572-2.657c-1.062-4.531-4.553-11.968-9.178-8.718
					c-0.519,0.365-1.847,1.875-2.5,1.875c-0.81-1.79-1.053-4.916-3.291-5.824c-5.084-2.063-6.915,0.733-9.281,7.035
					c0.572-4.46,4.046-32.115-1.928-37.335c-1.898-1.659-5.761-0.666-7.375,0.625c-1.93,1.544-2.42,3.984-3.21,6.284
					c-1.654,4.818-1.655,9.973-2.46,14.954c-1.08,6.679-2.069,12.318-2.746,19.179c-0.35,3.546-2.167,12.333-2.167,12.333
					c-0.827,0.605-4.074-1.328-4.996-1.656c-4.422-1.571-11.375-3.712-15.202,0.12c-1.823,1.825-2.789,4.907-2.027,7.424
					c1.03,3.401,4.615,4.838,7.369,6.553c3.497,2.178,6.656,5.018,9.024,8.399c3.343,4.774,5.019,10.484,7.485,15.765
					C113.998,203.328,115.375,210,115.708,212.167z"/>
				<path style="fill:#F0F0F0;" d="M92.562,84.187c3.066-0.735,4.059-4.73,2.499-7.35c-0.139-0.234-0.315-0.427-0.491-0.619
					c-0.103-0.103-0.208-0.209-0.31-0.31c-1.628-1.423-7.309-1.599-7.485-1.543c-0.713,3.261-1.213,6.448-1.901,9.761
					C87.156,84.301,90.388,84.708,92.562,84.187z"/>
				<path style="fill:#F0F0F0;" d="M104.979,97.693c-0.001,0.023-0.002,0.047-0.002,0.07c-0.058,2.669,3.771,4.528,5.176,1.766
					c0.759-1.491,0.219-3.744-1.094-4.77C106.972,93.129,105.065,95.694,104.979,97.693z"/>
			</g>
		</g>
	</g>
	<g id="comic" style="display:inline;">
	</g>
</g>
<g id="Layer_2_copy_2">
	<g id="cLBRAx_4_">
		<g>
			<g>
				<g>
					<g>
						<g>
							<path d="M214.159,111.138c9.335-0.86,18.555-4.035,18.597-15.496c0.049-13.399,0.055-26.799,0.049-40.198
								c-0.003-6.743-0.005-13.487-0.011-20.23c-0.005-5.376,0.836-10.512-2.31-15.232c-4.993-7.491-11.183-10.198-19.987-10.002
								c-3.588,0.08-7.188,0-10.777,0c-10.395,0-20.789,0-31.184,0c-26.032,0-52.063,0-78.095,0c-18.549,0-37.097,0-55.646,0
								c-1.519,0-3.038,0-4.557,0c-4.245,0-10.717,5.716-12.992,8.996c-3.677,5.3-1.933,13.675-1.941,19.771
								c-0.022,18.041-0.053,36.082,0.083,54.123c0.071,9.432,6.691,16.636,15.896,17.977c6.744,0.983,13.995,0.336,20.804,0.354
								c7.202,0.019,14.403,0.038,21.605,0.055c10.994,0.027,21.988,0.062,32.982,0.062c0.357-11.474,6.153-24.647,12.089-33.819
								c3.131-4.839,9.732-9.679,15.407-7.925c3.624,1.12,5.496,1.51,8.101,4.589c3.998,4.726,7.492,9.208,7.959,15.377
								c1.498,6.743,1.718,14.91,1.485,21.778c19.307,0,34.741,0.129,54.048,0.129C208.398,111.448,211.284,111.403,214.159,111.138
								z M66.183,60.803l-4.919,23.479l-17.076-1.485c0,0,9.846-49.42,11.027-58.463c0.067-0.509,11.95-0.601,12.938-0.584
								c28.283,0.487,32.552,9.953,31.902,20.069C99.119,58.41,76.391,63.216,66.183,60.803z M104.418,86.138
								c-7.623,1.218-13.529-2.569-15.777-6.775c-2.486-4.653-1.436-16.256,2.472-20.174c9.5-9.524,17.256-6.698,22.771-0.893
								C119.174,63.866,117.782,84.004,104.418,86.138z M171.608,47.625l13.735-0.186c0,0,1.111-12.581,2.128-18.352
								c5.575,0.441,8.731,0.998,13.854,2.571c-0.889,5.082-1.932,11.222-2.989,17.266c2.784,0.65,12.343,1.856,12.343,1.856
								s-1.19,7.812-1.459,9.289c-0.443,2.439-0.49,3.425-0.49,3.425l-12.157-2.042l-3.341,25.057c0,0-13.133-2.274-13.364-1.485
								c1.803-6.177,3.341-21.066,3.712-24.129l-12.104-0.365L171.608,47.625z M151.377,75.002
								c-3.467-3.587-8.108-4.456-9.837-5.475c-2.387-1.407-10.28-5.651-6.867-12.807c2.877-6.032,8.909-10.487,14.041-10.544
								c8.404-0.094,13.5,6.22,15.551,12.585c0.014,0.042,0.012,0.085,0.023,0.127c-3.24,0.413-9.479,2.316-9.479,2.316
								s-1.14-1.904-1.354-2.189c-1.759-2.348-5.066-0.759-6.345,1.232c-0.581,0.905,1.633,3.175,2.32,3.712
								c2.97,2.32,7.502,2.322,10.672,4.083c3.341,1.856,5.475,4.176,5.754,8.352c0.278,4.168-1.458,5.023-1.949,5.661
								c-0.732,0.951-10.023,3.805-10.023,3.805l-2.97-7.703C150.913,78.157,154.068,77.786,151.377,75.002z"/>
						</g>
					</g>
				</g>
				<path d="M114.101,240.254c0.109-0.767,24.157,0.211,26.54,0.256c3.64,0.068,27.905-0.256,27.905-0.256s0.321-7.7,0.423-11.397
					c0.216-7.835,1.658-9.575,5.331-16.506c3.061-5.776,12.392-27.124,13.549-30.068c1.358-3.454,2.404-8.365,2.212-12.165
					c-0.202-3.997-3.168-7.647-6.295-9.922c-1.24-0.902-2.94-1.339-4.48-1.621c-1.318-0.242-4.986,0.136-4.986,0.136
					s-0.538-2.62-0.849-3.946c-1.576-6.728-6.761-17.77-13.629-12.944c-0.771,0.541-2.742,2.784-3.712,2.784
					c-1.203-2.658-1.563-7.299-4.887-8.648c-7.549-3.063-10.268,1.088-13.781,10.445c0.85-6.623,6.008-47.687-2.862-55.437
					c-2.819-2.463-8.555-0.989-10.951,0.928c-2.866,2.293-3.594,5.916-4.766,9.33c-2.456,7.153-2.458,14.808-3.653,22.205
					c-1.603,9.917-3.072,18.291-4.078,28.478c-0.52,5.265-3.217,18.313-3.217,18.313c-1.229,0.898-6.049-1.972-7.419-2.458
					c-6.566-2.332-16.891-5.512-22.573,0.178c-2.707,2.71-4.142,7.286-3.01,11.023c1.53,5.051,6.853,7.183,10.942,9.73
					c5.193,3.234,9.883,7.45,13.399,12.472c4.964,7.089,7.452,15.568,11.114,23.409C111.561,227.13,113.606,237.037,114.101,240.254
					z"/>
				<path d="M79.732,50.222c4.552-1.091,6.028-7.024,3.71-10.914c-0.207-0.347-0.467-0.634-0.728-0.919
					c-0.153-0.153-0.309-0.31-0.46-0.461c-2.417-2.113-10.852-2.374-11.114-2.292c-1.059,4.842-1.802,9.575-2.823,14.494
					C71.704,50.392,76.504,50.996,79.732,50.222z"/>
				<path d="M98.169,70.277c-0.001,0.035-0.003,0.069-0.003,0.104c-0.085,3.964,5.599,6.723,7.685,2.622
					c1.126-2.215,0.325-5.56-1.625-7.083C101.129,63.5,98.296,67.308,98.169,70.277z"/>
			</g>
		</g>
	</g>
	<g id="comic_copy">
	</g>
</g>
</svg>
