<?xml version="1.0" encoding="iso-8859-1"?>
<!-- Generator: Adobe Illustrator 18.1.1, SVG Export Plug-In . SVG Version: 6.00 Build 0)  -->
<svg version="1.1" xmlns="http://www.w3.org/2000/svg" xmlns:xlink="http://www.w3.org/1999/xlink" x="0px" y="0px"
	 viewBox="0 0 249 249" style="enable-background:new 0 0 249 249;" xml:space="preserve">
<g id="Layer_2" style="display:none;">
</g>
<g id="Circles" style="display:none;">
	<g style="display:inline;">
		<path style="fill:#FDE2DC;" d="M124.5,235C63.57,235,14,185.429,14,124.5S63.57,14,124.5,14S235,63.57,235,124.5
			S185.43,235,124.5,235z"/>
		<path d="M124.5,28c53.21,0,96.5,43.29,96.5,96.5S177.71,221,124.5,221S28,177.71,28,124.5S71.29,28,124.5,28 M124.5,0
			C55.741,0,0,55.741,0,124.5C0,193.259,55.741,249,124.5,249S249,193.259,249,124.5C249,55.741,193.259,0,124.5,0L124.5,0z"/>
	</g>
</g>
<g id="Layer_2_copy" style="display:none;">
	<g id="cLBRAx_2_" style="display:inline;">
		<g>
			<g>
				<g>
					<g>
						<g>
							<g>
								<g>
									<path style="fill:#F0F0F0;" d="M196.958,96.917c5-8,6-11.333-2.333-17c-6.819-4.637-58.37-35.73-61.75-37.5
										c-2.08-1.089-7.878-2.304-10.515-1.011c-4.61,2.261-4.36,3.011-8.86,8.886c-13.036,17.02-61.938,91.336-65.208,96.292
										c-5.5,8.333-6.653,9.855,9.167,22.833c4.376,3.59,43.867,32.622,49.167,35.5c9.667,5.25,14-2,17.571-6.589
										C126.326,195.591,194.841,100.304,196.958,96.917z M146.279,58.794c7.346,2.79,12.929,6.54,18.263,12.373
										c0.629,0.687,1.163,2.313,0.686,3.113c-0.472,0.79-0.769,1.054-2.512,0.504c-4.346-1.373-11.021-6.208-13.257-7.95
										c-1.322-1.03-4.984-4.672-5.167-6.25C144.185,59.661,144.822,58.24,146.279,58.794z M71.45,158.842
										c-1.466,1.529-4.667,0.793-6.541-1.488c-0.902-1.098-3.378-4.692-1.304-5.807c3.128-1.682,5.904,2.43,7.485,4.591
										C71.356,156.503,72.367,157.886,71.45,158.842z M92.958,174.25c-0.311,1.248-0.827,2.464-1.589,3.493
										c-1.772,2.394-3.867,3.773-6.92,4.143c-1.924,0.233-4.625-0.708-6.5-1.667c-2.815-1.439-7.875-8.667-2.799-9.346
										c1.981-0.265,2.406,2.318,3.59,3.763c0.652,0.795,2.805,2.447,3.875,2.542c1.417,0.125,3.244-0.599,4.271-1.506
										c1.169-1.032,2.057-5.368-0.271-6.661c-2.974-1.651-5.532,0.633-8.238,0.389c-1.784-0.161-2.989-2.268-2.629-3.951
										c0.44-2.058,2.937-3.079,4.753-3.501c4.152-0.964,8.818,0.005,11.237,3.792C93.325,168.223,93.671,171.391,92.958,174.25z
										 M106.648,188.271c-0.147,0.689-0.736,1.32-1.441,1.318c-0.297-0.001-1.098-0.395-1.221-0.472
										c-3.334-2.092-6.347-4.694-8.903-7.687c-1.286-1.506-0.738-3.731,1.254-3.205c1.238,0.327,8.488,5.702,9.954,8
										C106.67,186.82,106.795,187.582,106.648,188.271z M181.958,94.583l-62.758,85.537l-51.742-38.037
										c0,0,56.777-82.75,57.167-82.833C125.043,59.161,181.958,94.583,181.958,94.583z"/>
								</g>
							</g>
						</g>
					</g>
				</g>
			</g>
		</g>
	</g>
	<g id="comic" style="display:inline;">
	</g>
</g>
<g id="Layer_2_copy_2">
	<g id="cLBRAx_4_">
		<g>
			<g>
				<g>
					<g>
						<g>
							<g>
								<g>
									<path d="M232.43,83.586c7.424-11.879,8.909-16.828-3.465-25.243c-10.125-6.885-86.671-53.053-91.69-55.682
										c-3.088-1.617-11.698-3.421-15.614-1.5c-6.845,3.357-6.473,4.47-13.155,13.194
										C89.149,39.626,16.537,149.976,11.681,157.334c-8.167,12.374-9.878,14.633,13.611,33.904
										c6.497,5.33,65.137,48.439,73.005,52.712c14.354,7.796,20.788-2.97,26.091-9.783
										C127.552,230.103,229.287,88.615,232.43,83.586z M157.178,26.979c10.908,4.142,19.198,9.71,27.118,18.372
										c0.933,1.021,1.727,3.434,1.018,4.622c-0.701,1.173-1.142,1.565-3.73,0.748c-6.453-2.038-16.364-9.218-19.685-11.804
										c-1.964-1.529-7.401-6.938-7.672-9.28C154.069,28.266,155.015,26.158,157.178,26.979z M46.068,175.537
										c-2.176,2.271-6.929,1.178-9.713-2.209c-1.34-1.63-5.015-6.966-1.937-8.623c4.645-2.497,8.766,3.609,11.114,6.817
										C45.928,172.063,47.429,174.117,46.068,175.537z M78.005,198.415c-0.462,1.853-1.228,3.659-2.359,5.187
										c-2.631,3.554-5.742,5.602-10.275,6.151c-2.856,0.346-6.867-1.052-9.652-2.475c-4.181-2.137-11.693-12.869-4.155-13.878
										c2.941-0.394,3.573,3.442,5.331,5.588c0.967,1.181,4.165,3.634,5.754,3.774c2.104,0.186,4.817-0.889,6.342-2.236
										c1.736-1.532,3.054-7.971-0.403-9.891c-4.416-2.452-8.214,0.94-12.232,0.577c-2.649-0.239-4.439-3.367-3.904-5.867
										c0.654-3.056,4.361-4.572,7.058-5.199c6.164-1.431,13.094,0.008,16.685,5.631C78.549,189.466,79.062,194.17,78.005,198.415
										z M98.332,219.235c-0.218,1.023-1.094,1.96-2.14,1.958c-0.442-0.001-1.63-0.587-1.813-0.701
										c-4.95-3.106-9.425-6.97-13.22-11.415c-1.909-2.236-1.096-5.54,1.861-4.758c1.839,0.486,12.604,8.467,14.78,11.879
										C98.364,217.079,98.55,218.211,98.332,219.235z M210.157,80.122l-93.186,127.01l-76.83-56.479
										c0,0,84.305-122.872,84.884-122.996C125.645,27.524,210.157,80.122,210.157,80.122z"/>
								</g>
							</g>
						</g>
					</g>
				</g>
			</g>
		</g>
	</g>
	<g id="comic_copy">
	</g>
</g>
</svg>
