<?xml version="1.0" encoding="iso-8859-1"?>
<!-- Generator: Adobe Illustrator 18.1.1, SVG Export Plug-In . SVG Version: 6.00 Build 0)  -->
<svg version="1.1" xmlns="http://www.w3.org/2000/svg" xmlns:xlink="http://www.w3.org/1999/xlink" x="0px" y="0px"
	 viewBox="0 0 249 249" style="enable-background:new 0 0 249 249;" xml:space="preserve">
<g id="Layer_2" style="display:none;">
</g>
<g id="Circles" style="display:none;">
	<g style="display:inline;">
		<path style="fill:#FBDBE9;" d="M124.5,235C63.57,235,14,185.43,14,124.5C14,63.57,63.57,14,124.5,14S235,63.57,235,124.5
			C235,185.43,185.43,235,124.5,235z"/>
		<path d="M124.5,28c53.21,0,96.5,43.29,96.5,96.5S177.71,221,124.5,221S28,177.71,28,124.5S71.29,28,124.5,28 M124.5,0
			C55.741,0,0,55.741,0,124.5C0,193.259,55.741,249,124.5,249S249,193.259,249,124.5C249,55.741,193.259,0,124.5,0L124.5,0z"/>
	</g>
</g>
<g id="Layer_2_copy" style="display:none;">
	<g id="cLBRAx_2_" style="display:inline;">
		<g>
			<g>
				<path style="fill:#F0F0F0;" d="M156.814,51.011c2.362,9.185-5.793,22.105-8.007,30.894c0.291-1.155,14.465,0.377,15.656,0.666
					c0.791,0.192,1.622,0.447,2.153,1.064c0.709,0.824,0.677,2.03,0.607,3.114c-0.85,13.2-1.7,26.4-2.55,39.599
					c-13.014,0.518-41.278-0.015-41.278-0.015s2.75-36.417,4.064-42.564c-0.137,0.17,0.088-0.125,0.329-0.406
					c9.125-10.64,18.923-20.704,27.358-31.937C155.313,51.206,155.824,51.243,156.814,51.011z"/>
			</g>
		</g>
	</g>
	<path style="display:inline;fill:#F0F0F0;" d="M103.521,51.131c2.362,9.185-5.793,22.105-8.007,30.894
		c0.291-1.155,14.465,0.377,15.656,0.666c0.791,0.192,1.622,0.447,2.153,1.064c0.709,0.824,0.677,2.03,0.607,3.114
		c-0.85,13.2-1.7,26.4-2.55,39.599C98.479,126.667,70.479,126,70.479,126s1.1-15.849,1.723-23.02
		c0.536-6.165,1.027-13.064,1.965-19.091c-0.137,0.17,19.251-21.11,27.687-32.343C102.02,51.326,102.531,51.364,103.521,51.131z"/>
	<g id="comic" style="display:inline;">
	</g>
</g>
<g id="Layer_2_copy_2">
	<g id="cLBRAx_4_">
		<g>
			<g>
				<path d="M180.546,18.31c1.74,12.293-7.363,28.324-11.329,40.456c-0.442,1.353,0.579,2.749,2.002,2.709
					c5.962-0.166,18.901,1.275,20.271,1.608c1.175,0.286,2.409,0.663,3.198,1.58c1.052,1.223,1.006,3.015,0.902,4.624
					c-1.222,18.979-2.444,37.958-3.666,56.936c-0.068,1.061-0.925,1.896-1.987,1.93c-17.206,0.562-48.706,0.092-57.242-0.051
					c-1.188-0.02-2.107-1.03-2.016-2.215c0.785-10.187,4.152-52.995,5.868-61.024c-0.203,0.252,0.13-0.186,0.488-0.603
					c13.549-15.799,28.097-30.743,40.622-47.421c0.062-0.082,0.155-0.14,0.284-0.187C179.104,16.234,180.373,17.087,180.546,18.31z"
					/>
			</g>
		</g>
	</g>
	<path d="M101.414,18.488c1.74,12.293-7.363,28.324-11.329,40.456c-0.442,1.353,0.579,2.749,2.002,2.709
		c5.962-0.166,18.901,1.275,20.271,1.608c1.175,0.286,2.409,0.663,3.198,1.58c1.052,1.223,1.006,3.015,0.902,4.624
		c-1.221,18.964-2.442,37.928-3.664,56.893c-0.069,1.078-0.951,1.92-2.032,1.931c-17.074,0.178-48.239-0.481-56.672-0.671
		c-1.178-0.026-2.084-1.025-2.002-2.2c0.425-6.05,1.653-23.336,2.409-32.03c0.778-8.942,1.49-18.924,2.821-27.723
		c0.062-0.407,0.239-0.777,0.517-1.081c3.587-3.929,29.1-32.134,40.689-47.567c0.062-0.082,0.155-0.14,0.284-0.187
		C99.972,16.412,101.241,17.265,101.414,18.488z"/>
	<g id="comic_copy">
	</g>
</g>
</svg>
