<?xml version="1.0" encoding="iso-8859-1"?>
<!-- Generator: Adobe Illustrator 18.1.1, SVG Export Plug-In . SVG Version: 6.00 Build 0)  -->
<svg version="1.1" baseProfile="tiny" id="Layer_1" xmlns="http://www.w3.org/2000/svg" xmlns:xlink="http://www.w3.org/1999/xlink"
	 x="0px" y="0px" viewBox="0 0 612 792" xml:space="preserve">
<g id="Layer_2_copy_2">
	<g id="cLBRAx_4_">
		<g>
			<g>
				<path d="M462.812,659.057c0,0-6.152-11.141-7.732-13.363c-12.456-17.505-18.023-70.331-18.023-70.331
					c-12.601-19.333-93.791-136.557-147.612-229.099c-72.184-124.113-76.109-170.259-84.247-187.139
					c-4.149-8.602-18.018-20.769-17.66-24.222c0.673-6.388,1.475-14.024,2.315-22c0,0-49.68,21.307-71.122,26.953
					c3.576,9.443,33.64,106.031,108.322,233.17c78.877,134.279,79.378,132.907,148.097,234.745c0,0,58.944,37.573,77.916,49.555
					c-12.024,3.298-90.851,2.713-108.619-4.112c-78.764-30.253-56.41-54.168-32.193-88.799c0,0-34.678-56.655-47.746-76.593
					c-38.037,34.776-93.398,86.761-70.043,130.358C236.284,696.244,462.812,659.057,462.812,659.057z"/>
				<path d="M504.816,372.449c-2.677-40.576-104.514-50.99-136.791-57.71c-18.989-3.955-38.345-6.53-54.635-17.067
					c-11.316-7.319-20.132-22.806-17.374-37.263c3.333-17.475,19.181-30.342,32.131-40.131
					c16.303-12.324,81.386-65.378,87.541-67.765c-21.489,10.701-54.2,24.709-79.926,37.58c-17.32,8.666-74.18,46.411-79.513,48.83
					c5.139,10.023,33.594,71.012,36.346,78.115c10.404,2.888,107.302,25.109,114.041,61.795
					c4.181,22.764-37.534,49.877-41.151,52.46c6.076,10.596,36.84,59.126,40.82,68.947
					C419.741,493.259,509.022,436.195,504.816,372.449z"/>
			</g>
		</g>
	</g>
</g>
</svg>
