<?xml version="1.0" encoding="iso-8859-1"?>
<!-- Generator: Adobe Illustrator 18.1.1, SVG Export Plug-In . SVG Version: 6.00 Build 0)  -->
<svg version="1.1" baseProfile="tiny" id="Layer_1" xmlns="http://www.w3.org/2000/svg" xmlns:xlink="http://www.w3.org/1999/xlink"
	 x="0px" y="0px" viewBox="0 0 612 792" xml:space="preserve">
<g id="Layer_2_copy_2">
	<g id="cLBRAx_4_">
		<g>
			<g>
				<path d="M443.752,135.003c4.277,30.214-18.097,69.616-27.845,99.434c-1.086,3.325,1.423,6.757,4.921,6.658
					c14.654-0.408,46.455,3.134,49.823,3.952c2.888,0.703,5.921,1.63,7.86,3.883c2.586,3.006,2.473,7.41,2.217,11.365
					c-3.003,46.647-6.007,93.294-9.01,139.939c-0.167,2.608-2.273,4.66-4.884,4.744c-42.289,1.381-119.711,0.226-140.691-0.125
					c-2.92-0.049-5.179-2.532-4.955-5.444c1.929-25.038,10.205-130.253,14.423-149.987c-0.499,0.619,0.32-0.457,1.199-1.482
					c33.301-38.831,69.058-75.561,99.842-116.553c0.152-0.202,0.381-0.344,0.698-0.46
					C440.207,129.9,443.326,131.997,443.752,135.003z"/>
			</g>
		</g>
	</g>
	<path d="M249.259,135.44c4.277,30.214-18.097,69.616-27.845,99.434c-1.086,3.325,1.423,6.757,4.921,6.658
		c14.654-0.408,46.455,3.134,49.823,3.952c2.888,0.703,5.921,1.63,7.86,3.883c2.586,3.006,2.473,7.41,2.217,11.365
		c-3.001,46.61-6.002,93.221-9.005,139.833c-0.17,2.65-2.337,4.719-4.994,4.746c-41.965,0.437-118.563-1.182-139.29-1.649
		c-2.895-0.064-5.122-2.519-4.921-5.407c1.045-14.87,4.063-57.356,5.921-78.724c1.912-21.978,3.662-46.512,6.934-68.138
		c0.152-1,0.587-1.91,1.271-2.657c8.816-9.657,71.523-78.98,100.007-116.912c0.152-0.202,0.381-0.344,0.698-0.46
		C245.714,130.338,248.833,132.434,249.259,135.44z"/>
</g>
</svg>
