<?xml version="1.0" encoding="iso-8859-1"?>
<!-- Generator: Adobe Illustrator 18.1.1, SVG Export Plug-In . SVG Version: 6.00 Build 0)  -->
<svg version="1.1" xmlns="http://www.w3.org/2000/svg" xmlns:xlink="http://www.w3.org/1999/xlink" x="0px" y="0px"
	 viewBox="0 0 249 249" style="enable-background:new 0 0 249 249;" xml:space="preserve">
<g id="Layer_2" style="display:none;">
</g>
<g id="Circles" style="display:none;">
	<g style="display:inline;">
		<path style="fill:#DAD8EC;" d="M124.5,235C63.57,235,14,185.43,14,124.5S63.57,14,124.5,14S235,63.57,235,124.5
			S185.43,235,124.5,235z"/>
		<path d="M124.5,28c53.21,0,96.5,43.29,96.5,96.5S177.71,221,124.5,221S28,177.71,28,124.5S71.29,28,124.5,28 M124.5,0
			C55.74,0,0,55.741,0,124.5C0,193.259,55.74,249,124.5,249S249,193.259,249,124.5C249,55.741,193.26,0,124.5,0L124.5,0z"/>
	</g>
</g>
<g id="Layer_2_copy" style="display:none;">
	<g id="cLBRAx_2_" style="display:inline;">
		<g>
			<g>
				<path style="fill:#F0F0F0;" d="M184.535,142.588c-2.849,0.857-5.773,1.461-8.732,1.788c-3.455,0.381-8.792,0.085-10.401-3.606
					c-2.276-5.223-2.662-11.557-3.19-17.167c-0.602-6.396-0.807-12.821-0.927-19.242c-0.024-1.262-0.042-2.523-0.059-3.785
					c0-0.011,0-0.021,0-0.032c-0.067-5.003,0.087-10.035-0.705-14.995c-0.519-3.248-1.293-6.455-2.248-9.601
					c-1.594-5.254-3.996-10.939-7.815-14.974c-3.79-4.005-8.69-6.875-14.093-8.047c-3.873-0.84-5.825-3.544-7.121-7.121h-3.082
					c0.557,0-3.142,44-3.468,47.709c-0.241,2.748-0.482,5.496-0.723,8.244c-0.251,2.859-0.502,5.718-0.753,8.576
					c-0.774,8.826-1.527,17.962-2.285,26.908c-0.387,4.564-0.779,9.128-1.187,13.69c-0.211,2.358-0.382,4.726-0.646,7.081
					c-0.242,2.161-0.432,3.485-0.432,3.485s-13.787-0.446-18.835,1.505c-3.559,1.376-7.335,3.476-10.082,6.162
					c-3.026,2.959-4.88,9.41-4.914,13.639c-0.03,3.737,1.422,7.7,3.841,10.977c3.602,4.881,8.992,6.506,14.492,6.815
					c8.12,0.456,16.647-0.48,22.998-6.514c5-4.75,4.858-8.011,5.833-13.25c1.135-6.097,0.616-12.472,0.75-16.417
					c0.418-12.25,6.119-80.102,7.349-86.512c2.446,2.052,3.646,5.668,4.103,8.719c1.981,13.226,1.138,26.641,1.023,39.955
					c-0.055,6.382,0.137,13.066,3.012,18.908c1.687,3.427,4.276,6.423,7.49,8.488c4.053,2.604,9.554,4.004,14.229,2.363
					c4.345-1.525,8.703-3.056,12.83-5.099c5.876-2.91,11.24-6.851,15.772-11.59c1.193-1.247,2.277-2.649,2.443-4.425
					c-1,1.193-2.587,1.911-3.417,2.402c-1.665,0.984-3.104,1.871-4.869,2.66C188.706,141.184,186.641,141.955,184.535,142.588z"/>
			</g>
		</g>
	</g>
	<g id="comic" style="display:inline;">
	</g>
</g>
<g id="Layer_2_copy_2">
	<g id="cLBRAx_4_">
		<g>
			<g>
				<path d="M202.566,148.507c-4.23,1.272-8.572,2.17-12.966,2.654c-5.129,0.565-13.055,0.126-15.444-5.355
					c-3.38-7.755-3.953-17.161-4.737-25.491c-0.893-9.497-1.198-19.038-1.377-28.572c-0.035-1.873-0.063-3.746-0.088-5.62
					c0-0.016,0-0.032-0.001-0.047c-0.099-7.429,0.129-14.901-1.047-22.265c-0.77-4.823-1.919-9.584-3.337-14.257
					c-2.367-7.801-5.934-16.243-11.605-22.235c-5.627-5.947-12.904-10.208-20.927-11.949c-5.751-1.248-8.649-5.262-10.574-10.574
					h-4.576c0.827,0-4.666,65.334-5.149,70.842c-0.358,4.081-0.716,8.161-1.074,12.242c-0.372,4.245-0.745,8.49-1.117,12.735
					c-1.15,13.105-2.267,26.671-3.392,39.954c-0.574,6.777-1.157,13.553-1.762,20.328c-0.313,3.502-0.567,7.017-0.96,10.515
					c-0.36,3.208-0.641,5.175-0.641,5.175s-20.472-0.662-27.967,2.235c-5.285,2.042-10.892,5.161-14.97,9.149
					c-4.493,4.394-7.246,13.972-7.296,20.252c-0.044,5.549,2.112,11.433,5.703,16.299c5.348,7.247,13.352,9.66,21.518,10.119
					c12.057,0.678,24.718-0.713,34.149-9.672c7.424-7.053,7.213-11.896,8.662-19.674c1.686-9.053,0.914-18.52,1.114-24.376
					c0.62-18.189,9.086-118.94,10.912-128.458c3.632,3.046,5.414,8.417,6.092,12.947c2.941,19.639,1.689,39.558,1.518,59.327
					c-0.082,9.477,0.204,19.402,4.473,28.076c2.505,5.089,6.35,9.537,11.122,12.603c6.018,3.867,14.186,5.946,21.129,3.509
					c6.452-2.265,12.922-4.537,19.05-7.571c8.725-4.32,16.689-10.173,23.418-17.21c1.771-1.852,3.38-3.933,3.628-6.571
					c-1.485,1.772-3.842,2.838-5.073,3.566c-2.472,1.461-4.609,2.778-7.23,3.95C208.76,146.422,205.693,147.567,202.566,148.507z"/>
			</g>
		</g>
	</g>
	<g id="comic_copy">
	</g>
</g>
</svg>
