<?xml version="1.0" encoding="iso-8859-1"?>
<!-- Generator: Adobe Illustrator 18.1.1, SVG Export Plug-In . SVG Version: 6.00 Build 0)  -->
<svg version="1.1" baseProfile="tiny" id="Layer_1" xmlns="http://www.w3.org/2000/svg" xmlns:xlink="http://www.w3.org/1999/xlink"
	 x="0px" y="0px" viewBox="0 0 612 792" xml:space="preserve">
<g id="Layer_2_copy_2">
	<g id="cLBRAx_4_">
		<g>
			<g>
				<path d="M449.591,265.182c0.902,23.684-7.828,47.139-21.236,66.683c-10.094,14.713-72.828,66.022-72.828,66.022
					s0,71.547,0,108.115c-19.272,2.323-39.419,6.58-58.762,6.85c-0.669,0.01,13.693-140.003,13.693-140.003
					s56.243-43.609,70.692-73.796c8.708-18.19-1.116-45.123-14.226-58.87c-11.198-11.744-28.238-15.629-44.305-13.356
					c-35.808,5.066-31.549,43.386-31.549,43.386s32.237,24.33,3.65,43.187c-14.865,9.804-40.751,8.688-51.7-4.867
					c-10.886-13.474-7.718-36.769-7.602-53.222c0.305-43.491,24.635-82.418,58.801-90.92c34.803-8.659,72.064-5.508,103.6,11.564
					C430.359,193.573,447.999,223.377,449.591,265.182z"/>
				<path d="M569.787,245.305c-7.081,28.292-128.176,264.104-128.176,264.104l-24.635-8.212c0,0,76.736-274.346,91.249-303.382
					c6.25-12.505,50.617-39.274,65.226,1.838C577.298,210.485,575.275,223.377,569.787,245.305z"/>
				<path d="M221.994,447.361c-5.815,18.399-102.455,123.634-102.455,123.634s-34.52-38.821-36.725-36.617
					C107.361,518.621,196.688,452.771,221.994,447.361z"/>
				<path d="M213.3,409.14c-5.203,2.215-145.767,9.487-176.381,11.353c3.244-17.377,7.907-50.587,11.453-54.785
					C73.442,372.346,214.254,408.734,213.3,409.14z"/>
				<path d="M352.655,603.842c-18.247,15.511-61.392,28.108-71.225-7.197c-6.604-23.711,6.931-53.913,33.79-55.697
					c21.046-1.398,34.392,4.8,44.735,25.485C364.516,575.557,363.717,594.438,352.655,603.842z"/>
				<path d="M90.17,249.813c4.677-2.576,36.391-38.851,39.286-34.493c22.929,34.518,70.867,107.995,70.867,111.75
					C200.323,327.07,98.603,253.23,90.17,249.813z"/>
				<path d="M431.431,554.626c0.093,0.086,0.184,0.174,0.278,0.263c13.029,12.518,14.614,39.94-4.412,48.559
					c-12.142,5.501-31.249-2.035-38.603-11.011c-8.905-10.869-8.88-32.588,3.5-42.26
					C403.792,541.118,421.348,545.173,431.431,554.626z"/>
			</g>
		</g>
	</g>
</g>
</svg>
