<?xml version="1.0" encoding="utf-8"?>
<!-- Generator: Adobe Illustrator 18.1.1, SVG Export Plug-In . SVG Version: 6.00 Build 0)  -->
<svg version="1.1" id="Layer_1" xmlns="http://www.w3.org/2000/svg" xmlns:xlink="http://www.w3.org/1999/xlink" x="0px" y="0px"
	 viewBox="0 0 75.4 75.4" enable-background="new 0 0 75.4 75.4" xml:space="preserve">
<g>
	<rect x="0" y="0" fill="#CC3732" width="75.4" height="75.4"/>
	<path fill="#FFFFFF" d="M36.5,11.8c0.5,0.3,1,0.7,1.6,1.3c0.6,0.6,1.1,1.3,1.7,2.2c0.5,0.8,1,1.8,1.4,2.9c0.3,1.1,0.5,2.4,0.5,3.8
		c0,2.7-0.6,4.8-1.8,6.4c-0.6,0.8-1.2,1.5-1.8,2.2c-0.7,0.7-1.4,1.3-2.2,2c-0.4,0.5-0.9,1-1.2,1.6c-0.4,0.6-0.7,1.3-0.7,2.1
		c0,0.8,0.2,1.4,0.7,1.9c0.4,0.5,0.8,0.9,1.1,1.3l2.5,2.1c1.6,1.3,3,2.7,4.2,4.3c1.1,1.6,1.7,3.7,1.8,6.2c0,3.6-1.6,6.9-4.8,9.7
		c-3.3,2.9-8.1,4.4-14.4,4.5c-5.3,0-9.2-1.2-11.8-3.4c-2.6-2-3.9-4.5-3.9-7.3c0-1.4,0.4-2.9,1.3-4.6c0.8-1.7,2.3-3.2,4.5-4.5
		c2.4-1.4,5-2.3,7.7-2.8c2.7-0.4,4.9-0.6,6.6-0.7c-0.5-0.7-1-1.5-1.4-2.3c-0.5-0.8-0.7-1.7-0.7-2.8c0-0.7,0.1-1.2,0.3-1.7
		c0.2-0.5,0.3-0.9,0.5-1.3c-0.9,0.1-1.7,0.1-2.4,0.1c-4,0-7-1.3-9.1-3.8c-2.2-2.3-3.3-5-3.3-8c0-3.7,1.6-7,4.7-10
		c2.1-1.8,4.4-2.9,6.6-3.4c2.3-0.5,4.4-0.7,6.4-0.7h15l-4.6,2.7H36.5z M39.4,55c0-1.9-0.6-3.6-1.9-5c-1.3-1.3-3.4-3-6.2-4.9
		c-0.5,0-1-0.1-1.7-0.1c-0.4,0-1.4,0-2.9,0.1c-1.6,0.2-3.1,0.6-4.8,1.1c-0.4,0.1-0.9,0.4-1.6,0.7c-0.7,0.3-1.4,0.8-2.1,1.4
		c-0.7,0.6-1.3,1.4-1.8,2.3c-0.6,1-0.8,2.1-0.8,3.4c0,2.6,1.2,4.8,3.6,6.5c2.3,1.7,5.4,2.6,9.3,2.6c3.5-0.1,6.2-0.8,8.1-2.3
		C38.5,59.3,39.4,57.4,39.4,55z M28.9,33c2-0.1,3.6-0.8,4.9-2.1c0.6-1,1-1.9,1.2-2.9c0.1-1,0.2-1.8,0.2-2.5c0-3-0.8-5.9-2.3-9
		c-0.7-1.4-1.6-2.6-2.8-3.5c-1.2-0.9-2.5-1.3-4.1-1.4c-2,0-3.7,0.9-5.1,2.5c-1.1,1.7-1.7,3.5-1.6,5.6c0,2.7,0.8,5.5,2.4,8.5
		c0.8,1.4,1.8,2.5,3,3.5C26,32.5,27.3,33,28.9,33z"/>
	<polygon fill="#FFFFFF" points="66.1,17.3 58.2,17.3 58.2,9.4 54.4,9.4 54.4,17.3 46.5,17.3 46.5,21.1 54.4,21.1 54.4,29 58.2,29 
		58.2,21.1 66.1,21.1 	"/>
</g>
</svg>
