<?xml version="1.0" encoding="utf-8"?>
<!-- Generator: Adobe Illustrator 18.1.1, SVG Export Plug-In . SVG Version: 6.00 Build 0)  -->
<svg version="1.1" id="Layer_1" xmlns="http://www.w3.org/2000/svg" xmlns:xlink="http://www.w3.org/1999/xlink" x="0px" y="0px"
	 viewBox="0 0 75.4 75.4" enable-background="new 0 0 75.4 75.4" xml:space="preserve">
<g>
	<rect x="-281.5" y="-187.3" fill="#CD332D" width="75.4" height="75.4"/>
	<path fill="#FFFFFF" d="M-249-179.9h-3.4l-2.3,8.9l-2.4-8.9h-3.6c0.7,2.1,1.5,4.2,2.2,6.3c1.1,3.2,1.8,5.5,2.1,7.2v9.2h3.4v-9.2
		L-249-179.9z M-240-162.7v-5.9c0-1.8-0.3-3.1-1-4c-0.8-1.2-2-1.7-3.6-1.7c-1.5,0-2.7,0.6-3.6,1.7c-0.7,0.9-1,2.2-1,4v5.9
		c0,1.8,0.3,3.1,1,4c0.8,1.2,2,1.7,3.6,1.7c1.5,0,2.7-0.6,3.6-1.7C-240.3-159.6-240-160.9-240-162.7z M-243-162.1
		c0,1.6-0.5,2.3-1.5,2.3c-1,0-1.5-0.8-1.5-2.3v-7.1c0-1.6,0.5-2.3,1.5-2.3c1,0,1.5,0.8,1.5,2.3V-162.1z M-228.6-157.2v-16.9h-3.1
		v12.9c-0.7,1-1.3,1.4-1.9,1.4c-0.4,0-0.7-0.2-0.7-0.7c0-0.1,0-0.5,0-1.2v-12.4h-3.1v13.4c0,1.2,0.1,2,0.3,2.5c0.3,0.9,1,1.3,2,1.3
		c1.1,0,2.3-0.7,3.5-2.1v1.8H-228.6z"/>
	<path fill="#FFFFFF" d="M-218.7-136.7c0,3.9,0,8.1-0.9,11.8c-0.6,2.7-2.8,4.6-5.4,4.9c-6.2,0.7-12.5,0.7-18.8,0.7
		c-6.3,0-12.6,0-18.8-0.7c-2.6-0.3-4.8-2.3-5.4-4.9c-0.9-3.8-0.9-7.9-0.9-11.8c0-3.9,0-8,0.9-11.8c0.6-2.7,2.8-4.6,5.4-4.9
		c6.2-0.7,12.5-0.7,18.8-0.7c6.3,0,12.6,0,18.8,0.7c2.6,0.3,4.8,2.3,5.4,4.9C-218.7-144.8-218.7-140.6-218.7-136.7z"/>
	<path fill="#CD332D" d="M-254.6-145.2v-3.2h-10.6v3.2h3.6v19.3h3.4v-19.3H-254.6z M-248.4-125.9v-1.8c-1.2,1.4-2.3,2.1-3.5,2.1
		c-1,0-1.6-0.4-2-1.2c-0.2-0.5-0.3-1.3-0.3-2.5v-13.2h3v12.3c0,0.7,0,1.1,0,1.2c0.1,0.5,0.3,0.7,0.7,0.7c0.6,0,1.2-0.5,1.9-1.4
		v-12.8h3v16.7H-248.4z M-236.9-130.7c0,1.5-0.4,2.3-1.3,2.3c-0.5,0-1-0.2-1.5-0.7v-10.2c0.5-0.5,1-0.7,1.5-0.7
		c0.9,0,1.3,0.8,1.3,2.3V-130.7z M-233.9-130.9v-6.7c0-1.6-0.1-2.7-0.3-3.4c-0.4-1.3-1.2-1.9-2.4-1.9c-1.1,0-2.1,0.6-3.1,1.8v-7.3
		h-3v22.4h3v-1.6c1,1.3,2.1,1.9,3.1,1.9c1.2,0,2-0.6,2.4-1.9C-234-128.2-233.9-129.3-233.9-130.9z M-225.5-136.2h-3v-1.5
		c0-1.5,0.5-2.3,1.5-2.3c1,0,1.5,0.8,1.5,2.3V-136.2z M-222.5-131.2v-0.4h-3.1c0,1.2,0,1.9-0.1,2c-0.2,0.8-0.6,1.2-1.4,1.2
		c-1,0-1.5-0.8-1.5-2.3v-3h6.1v-3.5c0-1.8-0.3-3.1-0.9-3.9c-0.8-1.1-2.1-1.7-3.6-1.7c-1.5,0-2.8,0.6-3.6,1.7
		c-0.6,0.8-0.9,2.2-0.9,3.9v5.9c0,1.8,0.3,3.1,1,3.9c0.9,1.1,2.1,1.7,3.7,1.7c1.6,0,2.8-0.6,3.7-1.8c0.4-0.5,0.6-1.1,0.7-1.8
		C-222.5-129.6-222.5-130.3-222.5-131.2z"/>
	<rect x="-188.3" y="-186.9" fill="#EA4C89" width="75.4" height="75.4"/>
	<path fill="#FFFFFF" d="M-150.7-117.4c-17,0-30.9-13.9-30.9-30.9c0-17,13.9-30.9,30.9-30.9c17,0,30.9,13.9,30.9,30.9
		C-119.8-131.2-133.6-117.4-150.7-117.4z M-124.6-144c-0.9-0.3-8.2-2.5-16.4-1.1c3.5,9.5,4.9,17.2,5.1,18.8
		C-130-130.4-125.8-136.7-124.6-144z M-140.4-123.9c-0.4-2.3-1.9-10.4-5.6-20l-0.2,0.1c-14.9,5.2-20.2,15.5-20.7,16.5
		c4.5,3.5,10.1,5.6,16.2,5.6C-147-121.8-143.5-122.6-140.4-123.9z M-170.3-130.6c0.6-1,7.8-13,21.5-17.4c0.3-0.1,0.7-0.2,1-0.3
		c-0.7-1.5-1.4-3-2.1-4.5c-13.2,3.9-26,3.8-27.1,3.8c0,0.3,0,0.5,0,0.8C-177.1-141.5-174.5-135.3-170.3-130.6z M-176.5-153.6
		c1.2,0,12.1,0.1,24.4-3.2c-4.4-7.8-9.1-14.3-9.8-15.3C-169.3-168.6-174.8-161.8-176.5-153.6z M-156.9-173.9c0.7,1,5.5,7.5,9.8,15.5
		c9.4-3.5,13.4-8.9,13.8-9.5c-4.7-4.1-10.8-6.7-17.5-6.7C-152.8-174.6-154.9-174.4-156.9-173.9z M-130.2-164.9
		c-0.6,0.8-5,6.4-14.7,10.4c0.6,1.3,1.2,2.5,1.8,3.8c0.2,0.5,0.4,0.9,0.6,1.4c8.8-1.1,17.5,0.7,18.4,0.8
		C-124.3-154.7-126.6-160.4-130.2-164.9z"/>
	<rect x="-94.4" y="-187.3" fill="#ED802D" width="75.4" height="75.4"/>
	<circle fill="#FFFFFF" cx="-79.3" cy="-125.8" r="7.1"/>
	<path fill="#FFFFFF" d="M-86.4-143.7c6.6,0,12.9,2.6,17.6,7.3c4.7,4.7,7.3,11,7.3,17.7h10.2c0-19.4-15.7-35.2-35-35.2V-143.7z"/>
	<path fill="#FFFFFF" d="M-86.4-161.8c23.6,0,42.9,19.3,42.9,43.1h10.2c0-29.4-23.8-53.3-53.1-53.3V-161.8z"/>
	<rect x="0" y="-187.3" fill="#CC3732" width="75.4" height="75.4"/>
	<path fill="#FFFFFF" d="M36.5-175.4c0.5,0.3,1,0.7,1.6,1.3c0.6,0.6,1.1,1.3,1.7,2.2c0.5,0.8,1,1.8,1.4,2.9c0.3,1.1,0.5,2.4,0.5,3.8
		c0,2.7-0.6,4.8-1.8,6.4c-0.6,0.8-1.2,1.5-1.8,2.2c-0.7,0.7-1.4,1.3-2.2,2c-0.4,0.5-0.9,1-1.2,1.6c-0.4,0.6-0.7,1.3-0.7,2.1
		c0,0.8,0.2,1.4,0.7,1.9c0.4,0.5,0.8,0.9,1.1,1.3l2.5,2.1c1.6,1.3,3,2.7,4.2,4.3c1.1,1.6,1.7,3.7,1.8,6.2c0,3.6-1.6,6.9-4.8,9.7
		c-3.3,2.9-8.1,4.4-14.4,4.5c-5.3,0-9.2-1.2-11.8-3.4c-2.6-2-3.9-4.5-3.9-7.3c0-1.4,0.4-2.9,1.3-4.6c0.8-1.7,2.3-3.2,4.5-4.5
		c2.4-1.4,5-2.3,7.7-2.8c2.7-0.4,4.9-0.6,6.6-0.7c-0.5-0.7-1-1.5-1.4-2.3c-0.5-0.8-0.7-1.7-0.7-2.8c0-0.7,0.1-1.2,0.3-1.7
		c0.2-0.5,0.3-0.9,0.5-1.3c-0.9,0.1-1.7,0.1-2.4,0.1c-4,0-7-1.3-9.1-3.8c-2.2-2.3-3.3-5-3.3-8c0-3.7,1.6-7,4.7-10
		c2.1-1.8,4.4-2.9,6.6-3.4c2.3-0.5,4.4-0.7,6.4-0.7h15l-4.6,2.7H36.5z M39.4-132.2c0-1.9-0.6-3.6-1.9-5c-1.3-1.3-3.4-3-6.2-4.9
		c-0.5,0-1-0.1-1.7-0.1c-0.4,0-1.4,0-2.9,0.1c-1.6,0.2-3.1,0.6-4.8,1.1c-0.4,0.1-0.9,0.4-1.6,0.7c-0.7,0.3-1.4,0.8-2.1,1.4
		c-0.7,0.6-1.3,1.4-1.8,2.3c-0.6,1-0.8,2.1-0.8,3.4c0,2.6,1.2,4.8,3.6,6.5c2.3,1.7,5.4,2.6,9.3,2.6c3.5-0.1,6.2-0.8,8.1-2.3
		C38.5-128,39.4-129.9,39.4-132.2z M28.9-154.2c2-0.1,3.6-0.8,4.9-2.1c0.6-1,1-1.9,1.2-2.9c0.1-1,0.2-1.8,0.2-2.5c0-3-0.8-5.9-2.3-9
		c-0.7-1.4-1.6-2.6-2.8-3.5c-1.2-0.9-2.5-1.3-4.1-1.4c-2,0-3.7,0.9-5.1,2.5c-1.1,1.7-1.7,3.5-1.6,5.6c0,2.7,0.8,5.5,2.4,8.5
		c0.8,1.4,1.8,2.5,3,3.5C26-154.7,27.4-154.2,28.9-154.2z"/>
	<polygon fill="#FFFFFF" points="66.1,-170 58.2,-170 58.2,-177.8 54.4,-177.8 54.4,-170 46.5,-170 46.5,-166.1 54.4,-166.1 
		54.4,-158.3 58.2,-158.3 58.2,-166.1 66.1,-166.1 	"/>
	<rect x="93.2" y="-185.7" fill="#00B386" width="75" height="75"/>
	<path fill="#FFFFFF" d="M138.5-161.5c0-3.5,6.9-5.3,6.9,0.6c0,3.2-0.5,6.2-1.2,9h7.1c0.5-3.3,0.5-6.6,0.5-10.4
		c0-10.8-20-12.6-20,1.1c0,9.6,4.5,14.7,9.3,17.4c-4,7.8-9.3,12-9.3,12c-14.9-12.2-13.5-32.7-13.5-32.7h-6.5
		c0.1,27.8,14.8,37.5,16.6,39c1.8,1.4,2.2,1.3,4.3,1.2c2.2-0.1,7.1-5.1,13.1-14.4c0.6-0.9,1.1-1.8,1.6-2.6c2.5,0.6,4.3,0.6,4.3,0.6
		v-5.9C139.2-148.1,138.5-158.9,138.5-161.5z"/>
	<rect x="186.2" y="-186.7" fill="#1D487A" width="78" height="75"/>
	<path fill="#FFFFFF" d="M246.3-163.9c1.8,3.3,1.2,7.2,0.5,9.5c-3.9,12.6-21.3,11.9-23.8,11.9c-2.5,0-3.1,2.3-3.1,2.3l-1.9,8.2
		c-0.5,2.9-3.1,2.7-3.1,2.7s-3.4,0-5.7,0c-0.1,0-0.3,0-0.4,0c0,0.5,0,2.1,1.9,2.1c2.3,0,5.7,0,5.7,0s2.6,0.1,3.1-2.7l1.9-8.2
		c0,0,0.6-2.3,3.1-2.3c2.5,0,19.9,0.7,23.8-11.9C249.2-155.1,249.9-160.3,246.3-163.9z"/>
	<path fill="#FFFFFF" d="M216.3-133.6l1.9-8.2c0,0,0.6-2.3,3.1-2.3c2.5,0,19.9,0.7,23.8-11.9c1.4-4.6,2.4-15.5-15.2-15.5h-12.7
		c0,0-2.6-0.1-3.3,2.7l-8.3,35.8c0,0-0.4,2.2,1.9,2.2c2.3,0,5.7,0,5.7,0S215.8-130.8,216.3-133.6z M221.1-154.5l1.7-7.3
		c0,0,0.5-2,2.3-2.3c1.7-0.3,4.7,0.1,5.4,0.2c4.9,0.9,3.9,5.6,3.9,5.6c-1,7.2-12.2,6.2-12.2,6.2
		C220.4-152.7,221.1-154.5,221.1-154.5z"/>
	<rect x="282.2" y="-185.7" fill="#FAA21D" width="75" height="75"/>
	<path fill="#FFFFFF" d="M296.4-136.8c0.1,0,0.2-0.1,0.2-0.2l0.6-4.9l-0.6-5c0-0.1-0.1-0.2-0.2-0.2c-0.1,0-0.2,0.1-0.2,0.2l-0.5,5
		l0.5,4.9C296.1-136.9,296.2-136.8,296.4-136.8z"/>
	<path fill="#FFFFFF" d="M294.3-138.6c0.1,0,0.2-0.1,0.2-0.2l0.5-3.1l-0.5-3.1c0-0.1-0.1-0.2-0.2-0.2c-0.1,0-0.2,0.1-0.2,0.2
		l-0.4,3.1l0.4,3.1C294.1-138.7,294.2-138.6,294.3-138.6z"/>
	<path fill="#FFFFFF" d="M298.8-147.9c0-0.2-0.1-0.3-0.3-0.3c-0.1,0-0.3,0.1-0.3,0.3l-0.5,6l0.5,5.8c0,0.2,0.1,0.3,0.3,0.3
		c0.1,0,0.3-0.1,0.3-0.3l0.6-5.8L298.8-147.9z"/>
	<path fill="#FFFFFF" d="M300.7-135.7c0.2,0,0.3-0.1,0.3-0.3l0.6-5.9l-0.6-6.1c0-0.2-0.2-0.3-0.3-0.3c-0.2,0-0.3,0.1-0.3,0.3
		l-0.5,6.1l0.5,5.9C300.4-135.8,300.5-135.7,300.7-135.7z"/>
	<path fill="#FFFFFF" d="M302.9-135.6c0.2,0,0.4-0.2,0.4-0.4l0,0l0.5-6l-0.5-5.7c0-0.2-0.2-0.4-0.4-0.4c-0.2,0-0.4,0.2-0.4,0.4
		l-0.5,5.7l0.5,6C302.6-135.7,302.7-135.6,302.9-135.6z"/>
	<path fill="#FFFFFF" d="M306.1-141.9l-0.5-9.3c0-0.2-0.2-0.4-0.4-0.4c-0.2,0-0.4,0.2-0.4,0.4l-0.4,9.3l0.4,6c0,0.2,0.2,0.4,0.4,0.4
		c0.2,0,0.4-0.2,0.4-0.4v0L306.1-141.9z"/>
	<path fill="#FFFFFF" d="M307.4-135.5c0.2,0,0.5-0.2,0.5-0.5v0l0.5-5.9l-0.5-11.4c0-0.3-0.2-0.5-0.5-0.5c-0.3,0-0.5,0.2-0.5,0.5
		l-0.4,11.4l0.4,5.9C307-135.7,307.2-135.5,307.4-135.5z"/>
	<path fill="#FFFFFF" d="M309.7-154.8c-0.3,0-0.5,0.2-0.5,0.5l-0.4,12.3l0.4,5.9c0,0.3,0.2,0.5,0.5,0.5c0.3,0,0.5-0.2,0.5-0.5v0
		l0.4-5.9l-0.4-12.3C310.2-154.5,309.9-154.8,309.7-154.8z"/>
	<path fill="#FFFFFF" d="M312-135.5c0.3,0,0.5-0.2,0.6-0.6v0l0.4-5.8l-0.4-12.7c0-0.3-0.3-0.6-0.6-0.6c-0.3,0-0.6,0.2-0.6,0.6
		l-0.4,12.7l0.4,5.8C311.4-135.8,311.6-135.5,312-135.5z"/>
	<path fill="#FFFFFF" d="M314.3-135.5c0.3,0,0.6-0.3,0.6-0.6v0l0.4-5.8l-0.4-12.4c0-0.3-0.3-0.6-0.6-0.6c-0.3,0-0.6,0.3-0.6,0.6
		l-0.3,12.4l0.3,5.8C313.7-135.8,313.9-135.5,314.3-135.5z"/>
	<path fill="#FFFFFF" d="M317.6-141.9l-0.3-12c0-0.4-0.3-0.7-0.7-0.7c-0.4,0-0.6,0.3-0.7,0.7l-0.3,12l0.3,5.8c0,0.4,0.3,0.7,0.7,0.7
		c0.4,0,0.6-0.3,0.7-0.7v0L317.6-141.9z"/>
	<path fill="#FFFFFF" d="M318.9-135.5c0.4,0,0.7-0.3,0.7-0.7v0l0.3-5.7l-0.3-14.2c0-0.4-0.3-0.7-0.7-0.7c-0.4,0-0.7,0.3-0.7,0.7
		l-0.3,14.2l0.3,5.7C318.2-135.8,318.5-135.5,318.9-135.5z"/>
	<path fill="#FFFFFF" d="M321.2-158.2c-0.4,0-0.7,0.3-0.8,0.8l-0.3,15.5l0.3,5.6c0,0.4,0.3,0.8,0.8,0.8c0.4,0,0.7-0.3,0.7-0.8v0
		l0.3-5.6l-0.3-15.5C322-157.9,321.6-158.2,321.2-158.2z"/>
	<path fill="#FFFFFF" d="M323.4-135.5c0,0,18.8,0,18.9,0c3.8,0,6.8-3.1,6.8-6.9c0-3.8-3-6.9-6.8-6.9c-0.9,0-1.8,0.2-2.6,0.5
		c-0.5-6.2-5.7-11.1-12-11.1c-1.5,0-3,0.3-4.4,0.8c-0.5,0.2-0.7,0.4-0.7,0.8v21.9C322.6-135.9,323-135.5,323.4-135.5z"/>
	<rect x="-282.8" y="-92.7" fill="#79B843" width="75" height="75"/>
	<path fill="#FFFFFF" d="M-219.5-56.5c0-13.3-10.8-24.1-24.1-24.1c-13.3,0-24.1,10.8-24.1,24.1c0,6.3,2.5,12.1,6.5,16.4
		c1.6-1.9,3.5-3.4,5.7-4.5c2.6-1.3,5.4-2,8.3-2c4.6,0,9,1.7,12.4,4.8c1.7,1.6,3.1,3.4,4.1,5.5C-224-40.5-219.5-48-219.5-56.5z
		 M-232.2-47.2c-0.3,0.4-0.8,0.7-1.3,0.7c-0.3,0-0.6-0.1-0.9-0.3c-3.8-2.6-8.2-4-12.8-4c-2.7,0-5.3,0.5-7.7,1.4
		c-0.8,0.3-1.8-0.1-2.1-1c-0.3-0.8,0.1-1.8,1-2.1c2.8-1,5.8-1.6,8.8-1.6c5.3,0,10.3,1.6,14.6,4.6C-231.9-48.9-231.7-47.9-232.2-47.2
		z M-228.7-54.6c-0.3,0.5-0.9,0.8-1.5,0.8c-0.3,0-0.7-0.1-1-0.3c-4.8-3-10.3-4.6-16-4.6c-3.2,0-6.3,0.5-9.3,1.4
		c-0.9,0.3-2-0.2-2.3-1.2c-0.3-1,0.2-2,1.2-2.3c3.3-1.1,6.8-1.6,10.4-1.6c6.4,0,12.6,1.8,17.9,5.1
		C-228.4-56.6-228.2-55.4-228.7-54.6z M-227.9-61.3c-5.8-3.4-12.5-5.2-19.3-5.2c-3.7,0-7.3,0.5-10.8,1.5c-1.1,0.3-2.2-0.3-2.5-1.4
		c-0.3-1.1,0.3-2.2,1.4-2.5c3.9-1.1,7.9-1.7,11.9-1.7c7.5,0,14.9,2,21.3,5.8c1,0.6,1.3,1.8,0.7,2.7c-0.4,0.6-1,1-1.7,1
		C-227.3-61-227.6-61.1-227.9-61.3z"/>
	<path fill="#FFFFFF" d="M-247.2-38.1c-1.6,0-3,0.4-4.4,1.1c-1,0.5-1.9,1.2-2.7,2c3.2,1.6,6.9,2.6,10.7,2.6c1.7,0,3.4-0.2,5-0.5
		c-0.5-0.9-1.2-1.8-2-2.5C-242.4-37.2-244.7-38.1-247.2-38.1z"/>
	<rect x="-188.8" y="-92.7" fill="#45546B" width="75" height="75"/>
	<path fill="#EEF0F3" d="M-148.6-80.6v12.4h11.7v7.7h-11.7v12.6c0,2.9,0.1,4.7,0.5,5.5c0.3,0.8,0.9,1.5,1.7,1.9c1.1,0.7,2.3,1,3.7,1
		c2.5,0,5-0.8,7.4-2.4v7.8c-2.1,1-4,1.7-5.7,2.1c-1.7,0.4-3.5,0.6-5.5,0.6c-2.2,0-4.2-0.3-6-0.9c-1.7-0.6-3.2-1.4-4.4-2.4
		c-1.2-1.1-2.1-2.2-2.5-3.4c-0.5-1.2-0.7-2.9-0.7-5.1v-17.3h-5.4v-7c1.9-0.6,3.6-1.5,5-2.7c1.4-1.2,2.5-2.6,3.3-4.2
		c0.8-1.6,1.4-3.7,1.7-6.3H-148.6z"/>
	<rect x="-94.4" y="-93.7" fill="#32669A" width="75.4" height="75.4"/>
	<polygon fill="#231F20" points="-94.4,-18.3 -94.4,-18.2 -19,-18.2 -19,-93.7 -94.5,-93.7 -94.5,-18.2 -94.4,-18.2 -94.4,-18.3 
		-94.4,-18.3 -94.4,-93.6 -19.1,-93.6 -19.1,-18.4 -94.4,-18.4 -94.4,-18.3 -94.4,-18.3 	"/>
	<path fill="#FFFFFF" d="M-75.2-80.8h36.9c3.5,0,6.4,2.9,6.4,6.4v36.9c0,3.5-2.9,6.4-6.4,6.4h-36.9c-3.5,0-6.4-2.9-6.4-6.4v-36.9
		C-81.6-77.9-78.7-80.8-75.2-80.8z M-45.4-75.3c-1.2,0-2.2,1-2.2,2.2v5.3c0,1.2,1,2.2,2.2,2.2h5.6c1.2,0,2.2-1,2.2-2.2V-73
		c0-1.2-1-2.2-2.2-2.2H-45.4z M-37.5-59.8h-4.4c0.4,1.4,0.6,2.8,0.6,4.3c0,8.3-6.9,14.9-15.4,14.9c-8.5,0-15.4-6.7-15.4-14.9
		c0-1.5,0.2-2.9,0.6-4.3H-76v21c0,1.1,0.9,2,2,2h34.6c1.1,0,2-0.9,2-2V-59.8z M-56.7-65.7c-5.5,0-10,4.3-10,9.7
		c0,5.3,4.5,9.7,10,9.7c5.5,0,10-4.3,10-9.7C-46.7-61.4-51.2-65.7-56.7-65.7z"/>
	<rect x="0" y="-93.7" fill="#CA2128" width="75.4" height="75.4"/>
	<path fill="#FFFFFF" d="M37.7-83.2C22.6-83.2,10.4-71,10.4-56c0,11.2,6.7,20.8,16.3,25c-0.1-1.9,0-4.2,0.5-6.3
		c0.5-2.2,3.5-14.9,3.5-14.9s-0.9-1.7-0.9-4.3c0-4,2.3-7.1,5.3-7.1c2.5,0,3.7,1.9,3.7,4.1c0,2.5-1.6,6.2-2.4,9.7
		c-0.7,2.9,1.5,5.2,4.3,5.2c5.2,0,8.6-6.6,8.6-14.5c0-6-4-10.4-11.3-10.4c-8.3,0-13.4,6.2-13.4,13.1c0,2.4,0.7,4.1,1.8,5.3
		c0.5,0.6,0.6,0.8,0.4,1.5c-0.1,0.5-0.4,1.7-0.6,2.2c-0.2,0.7-0.7,0.9-1.4,0.7c-3.8-1.6-5.6-5.7-5.6-10.4c0-7.7,6.5-17,19.5-17
		c10.4,0,17.3,7.5,17.3,15.6c0,10.7-5.9,18.7-14.7,18.7c-2.9,0-5.7-1.6-6.7-3.4c0,0-1.6,6.3-1.9,7.5c-0.6,2.1-1.7,4.2-2.7,5.8
		c2.4,0.7,5,1.1,7.7,1.1c15.1,0,27.3-12.2,27.3-27.3C64.9-71,52.7-83.2,37.7-83.2z"/>
	<rect x="93.2" y="-92.7" fill="#3B5999" width="75" height="75"/>
	<path fill="#FFFFFF" d="M158.6-47.8l1.5-11.5h-11.4v-7.3c0-3.3,0.9-5.6,5.7-5.6l6.1,0v-10.3c-1-0.1-4.7-0.5-8.9-0.5
		c-8.8,0-14.8,5.4-14.8,15.2v8.5h-9.9v11.5h9.9v29.5h11.9v-29.5H158.6z"/>
	<rect x="282.2" y="-92.7" fill="#EAEAEA" width="75" height="75"/>
	<path fill="#3766B0" d="M320.3-55.3c0,5.4-4.4,9.9-9.8,9.9c-5.4,0-9.9-4.4-9.9-9.9c0-5.4,4.4-9.9,9.9-9.9
		C315.9-65.2,320.3-60.8,320.3-55.3z"/>
	<circle fill="#ED1F83" cx="333.7" cy="-55.3" r="9.9"/>
	<rect x="-282.8" y="0.3" fill="#4D97D2" width="77" height="76"/>
	<path fill="#FFFFFF" d="M-243.2,63.8l-16.9-10.4v-3.2l5.7,3.1l11.2-9.2L-243.2,63.8L-243.2,63.8z M-271,41.8l10.1-8.6l16.5,10
		l-9.8,8.5L-271,41.8z M-260.8,31.4l-11.1-9.1l17.6-10.9l11.1,9.2L-260.8,31.4z M-224.9,53.5l-16.9,10.4V44.1l11.2,9.2l5.7-3.1V53.5
		z M-230.8,51.7l-9.8-8.5l16.5-10l10.1,8.6L-230.8,51.7z M-224.2,31.4l-17.6-10.7l11.1-9.2l17.6,10.9L-224.2,31.4z"/>
	<rect x="-188.8" y="0.3" fill="#4E6352" width="75" height="76"/>
	<path fill="#FFFFFF" d="M-157.7,44.5v-9.1c-6.3,1.7-8.6,5.5-9.2,9.1H-157.7z M-150.2,25.4v4.9c0.3,0,0.6,0,0.8,0
		c7.6,0,14.5,1.9,19.5,4.9c5,3.1,8.1,7.3,8.1,11.9c0,0.9-0.1,1.9-0.4,2.8h-1.3h-8.5h-16.6v-1.7v-3.8v-8.4c3,0.1,5.5,0.4,7.4,1v7.4
		h9.2c-0.9-4.9-4.8-10.1-17.5-10.1c-0.3,0-0.6,0-0.8,0v10.1V50h-7.4h-9.2h-8.3h-1.5c-0.2-0.9-0.4-1.8-0.4-2.8
		c0-4.7,3.1-8.9,8.1-11.9c3.1-1.9,7-3.4,11.3-4.2v-5C-155.3,25.7-152.8,25.4-150.2,25.4z"/>
	<rect x="-94.4" y="0" fill="#017BB6" width="75.4" height="75.4"/>
	<path fill="#FFFFFF" d="M-81.5,29.1h10.6v34.2h-10.6V29.1z M-76.2,12.1c3.4,0,6.2,2.8,6.2,6.2c0,3.4-2.8,6.2-6.2,6.2
		c-3.4,0-6.2-2.8-6.2-6.2C-82.4,14.9-79.6,12.1-76.2,12.1"/>
	<path fill="#FFFFFF" d="M-64.2,29.1h10.2v4.7h0.1c1.4-2.7,4.9-5.5,10.1-5.5c10.7,0,12.7,7.1,12.7,16.3v18.7h-10.6V46.6
		c0-4-0.1-9.1-5.5-9.1c-5.5,0-6.4,4.3-6.4,8.8v16.9h-10.6V29.1z"/>
	<rect x="0" y="0" fill="#2AA8E0" width="75.4" height="75.4"/>
	<path fill="#FFFFFF" d="M62.8,22.1c-1.8,0.8-3.8,1.4-5.9,1.6c2.1-1.3,3.8-3.3,4.5-5.7c-2,1.2-4.2,2-6.5,2.5c-1.9-2-4.6-3.3-7.5-3.3
		c-5.7,0-10.3,4.6-10.3,10.3c0,0.8,0.1,1.6,0.3,2.3c-8.6-0.4-16.2-4.5-21.2-10.8c-0.9,1.5-1.4,3.3-1.4,5.2c0,3.6,1.8,6.7,4.6,8.6
		c-1.7-0.1-3.3-0.5-4.7-1.3v0.1c0,5,3.6,9.2,8.3,10.1c-0.9,0.2-1.8,0.4-2.7,0.4c-0.7,0-1.3-0.1-1.9-0.2c1.3,4.1,5.1,7.1,9.6,7.2
		c-3.5,2.8-8,4.4-12.8,4.4c-0.8,0-1.7-0.1-2.5-0.1c4.6,2.9,10,4.6,15.8,4.6c19,0,29.3-15.7,29.3-29.3c0-0.4,0-0.9,0-1.3
		C59.7,26,61.4,24.2,62.8,22.1z"/>
	<rect x="93.2" y="0.3" width="75" height="76"/>
	<path fill="#FFFFFF" d="M127.3,35.1c0,0,4.8-0.4,4.8-6c0-5.6-3.9-8.4-8.9-8.4h-9.1h-0.3h-6.9v31.4h6.9h0.3h9.1c0,0,10,0.3,10-9.3
		C133.2,42.9,133.6,35.1,127.3,35.1z M122,26.3h1.2c0,0,2.2,0,2.2,3.3c0,3.3-1.3,3.7-2.8,3.7h-8.6v-7H122z M122.7,46.6h-8.7v-8.4
		h9.1c0,0,3.3,0,3.3,4.3C126.5,46.2,124,46.5,122.7,46.6z"/>
	<path fill="#FFFFFF" d="M146.5,28.7c-12.1,0-12.1,12.1-12.1,12.1s-0.8,12,12.1,12c0,0,10.7,0.6,10.7-8.3h-5.5c0,0,0.2,3.4-5,3.4
		c0,0-5.5,0.4-5.5-5.5h16.3C157.4,42.4,159.2,28.7,146.5,28.7z M141.1,38.2c0,0,0.7-4.8,5.5-4.8c4.8,0,4.8,4.8,4.8,4.8H141.1z"/>
	<rect x="139.7" y="22.6" fill="#FFFFFF" width="12.9" height="3.9"/>
	<rect x="188.9" y="0" fill="#161E13" width="75.4" height="75.4"/>
	<path fill="#7BC143" d="M223.4,31.1l7.6-10.9c1.4-2.1,3.3-3.1,5.5-3.1c1.8,0,3.4,0.7,4.8,2c1.3,1.3,2,2.9,2,4.7
		c0,1.3-0.4,2.5-1.1,3.6l-6.8,9.9l8.3,10.6c0.8,1.1,1.3,2.3,1.3,3.7c0,1.9-0.7,3.5-2,4.8c-1.3,1.3-2.9,2-4.8,2c-2,0-3.6-0.7-4.7-2
		l-10.2-12.7v7c0,2-0.3,3.6-1,4.7c-1.3,2-3.1,3-5.5,3c-2.2,0-3.9-0.7-5.1-2.2c-1.1-1.4-1.7-3.2-1.7-5.4v-26c0-2.1,0.6-3.9,1.7-5.3
		c1.2-1.5,2.9-2.2,5-2.2c2,0,3.7,0.7,5.1,2.2c0.8,0.8,1.2,1.6,1.4,2.5c0.1,0.5,0.2,1.5,0.2,2.9V31.1z"/>
	<rect x="282.2" y="0.3" fill="#702B90" width="75" height="76"/>
	<path fill="#FFFFFF" d="M343.1,24l-5.5,1.9c-0.8,0.4-3.1,3-6.9,8c-4.1,5.2-6.2,8.5-6.6,10.2l-0.2,4.6l-0.1,2.8l0.5,7l7.3,0.2
		l-0.1,3.5h-11.9l-10.6,0.2l0.4-3.3l3.4-0.2c1.8-0.2,2.8-0.6,3.2-1.1c0.2-0.4,0.4-2.6,0.4-6.5v-2.4l-0.1-4.8
		c-0.2-1.1-2.1-5.2-5.8-12.2c-3.8-7.2-6.2-11.5-7.4-13l-6.8-1.5v-3.1c0.4-0.4,4.1-0.4,11.1-0.2c4.8-0.2,8.8-0.2,12,0.2l-0.2,2.6
		l-7.2,1.1c2.2,5.2,5.6,12.4,10.2,21.5c6-7.2,9.2-11.8,9.3-13.9l-6.1-1.5l-0.5-3.3h10.2l9.6,0.2L343.1,24z"/>
	<rect x="-281.8" y="95.3" fill="#F05223" width="75" height="75"/>
	<path fill="#FFFFFF" d="M-215,127.4l-0.5-1l-0.8-0.6c-1-0.8-6.1,0.1-7.5-1.2c-1-0.9-1.1-2.5-1.4-4.7c-0.5-4.2-0.9-4.4-1.6-5.9
		c-2.4-5.1-8.9-8.9-13.3-9.4h-12.1c-9.5,0-17.3,7.8-17.3,17.3v20.1c0,9.5,7.8,17.2,17.3,17.2h19.8c9.5,0,17.2-7.8,17.3-17.2l0.1-14
		L-215,127.4z M-251.8,118.8h9.6c1.8,0,3.3,1.5,3.3,3.3c0,1.8-1.5,3.3-3.3,3.3h-9.6c-1.8,0-3.3-1.5-3.3-3.3
		C-255.1,120.3-253.7,118.8-251.8,118.8z M-232.4,145.2h-19.5c-1.8,0-3.3-1.5-3.3-3.3c0-1.8,1.5-3.3,3.3-3.3h19.5
		c1.8,0,3.3,1.5,3.3,3.3C-229.1,143.7-230.6,145.2-232.4,145.2z"/>
	<rect x="-188.8" y="95.3" fill="#EB622F" width="75" height="75"/>
	<path fill="#FFFFFF" d="M-175,103l4.6,51.2l20.5,5.7l20.5-5.7l4.6-51.2H-175z M-134.3,115.2l-0.3,3.2l-0.1,1.4h0h-15.1h0h-8.9
		l0.6,6.4h8.3h0h12.9h1.7l-0.2,1.7l-1.5,16.5l-0.1,1.1l-12.9,3.6l0,0l-12.9-3.6l-0.9-9.9h2.9h3.4l0.4,5l7,1.9h0l7-1.9l0.7-8.1h-7.7
		h0h-14l-1.5-17.3l-0.2-1.7h15.7h0h15.7L-134.3,115.2z"/>
	<rect x="-95.8" y="95.3" fill="#149BD2" width="76" height="75"/>
	<path fill="#FFFFFF" d="M-81.3,102.6l4.8,51.6l20.7,5.6l20.7-5.6l4.8-51.6H-81.3z M-40.7,119.4l-15.2,6.5l0,0h14.7l-1.7,19.3
		l-13,3.8l-13-3.9l-0.8-9.7h6.4l0.4,5l6.9,1.8l7.2-2l0.5-8.1l-21.9-0.1v0l0,0l-0.5-6.1l14.8-6.2l0.9-0.4h-0.9h-15.3l-0.8-6.2h16.1
		h15.8L-40.7,119.4z"/>
	<rect x="0" y="94.4" fill="#F57F20" width="75.4" height="75.4"/>
	<path fill="#FFFFFF" d="M37.7,106c-14.4,0-26,11.7-26,26c0,14.4,11.7,26,26,26c14.4,0,26-11.7,26-26C63.7,117.7,52.1,106,37.7,106z
		 M29.1,116.9c-0.2,0-0.6-0.2-0.7,0l0,0.5c0,0.3,0.1,0.6,0.1,0.9c0.4,3.6,0.6,7.5-0.5,11c-0.6,1.9-1.7,3.6-3.2,5
		c-1.2,1.1-3,2.2-4.7,2.2c-0.3,0-0.6-0.1-1-0.2c-1.9-0.6-2-2.6-2-4.3c0-1.8,0.2-3.5,0.6-5.2c0.1-0.5,0.3-1,0.5-1.6
		c2-5.9,6.7-10.7,12.6-12.7c2.2-0.8,4.5-1.2,6.9-1.2c6.9,0,13.4,3.5,17.2,9.3c0.9,1.4,1.7,3,2.3,4.6h0c0.2,0.5,0.3,1,0.5,1.6
		c0.4,1.7,0.6,3.5,0.6,5.3c0,3.3-1.1,7-5.3,5.2c-2-0.8-3.6-2.5-4.9-4.2c-1.4-2-2.9-3.9-4.4-5.7c-1.5-1.7-3.1-3.4-4.8-4.9
		c-1.7-1.5-3.6-2.9-5.6-3.9C31.9,117.9,30.5,117.4,29.1,116.9z"/>
	<rect x="94.4" y="94.4" fill="#181617" width="75.4" height="75.4"/>
	<path fill="#FFFFFF" d="M132.1,106.5c-14.5,0-26.2,11.7-26.2,26.2c0,11.6,7.5,21.4,17.9,24.8c1.3,0.2,1.8-0.6,1.8-1.3
		c0-0.6,0-2.3,0-4.5c-7.3,1.6-8.8-3.5-8.8-3.5c-1.2-3-2.9-3.8-2.9-3.8c-2.4-1.6,0.2-1.6,0.2-1.6c2.6,0.2,4,2.7,4,2.7
		c2.3,4,6.1,2.8,7.6,2.2c0.2-1.7,0.9-2.8,1.7-3.5c-5.8-0.7-11.9-2.9-11.9-12.9c0-2.9,1-5.2,2.7-7c-0.3-0.7-1.2-3.3,0.3-6.9
		c0,0,2.2-0.7,7.2,2.7c2.1-0.6,4.3-0.9,6.6-0.9c2.2,0,4.5,0.3,6.6,0.9c5-3.4,7.2-2.7,7.2-2.7c1.4,3.6,0.5,6.3,0.3,6.9
		c1.7,1.8,2.7,4.2,2.7,7c0,10.1-6.1,12.3-12,12.9c0.9,0.8,1.8,2.4,1.8,4.8c0,3.5,0,6.3,0,7.2c0,0.7,0.5,1.5,1.8,1.3
		c10.4-3.5,17.9-13.3,17.9-24.8C158.3,118.2,146.6,106.5,132.1,106.5"/>
	<rect x="188.9" y="94.4" fill="#181617" width="75.4" height="75.4"/>
	<path fill="#FFFFFF" d="M224.3,129.5h-11c-0.3,0-0.5,0.2-0.5,0.5v5.4c0,0.3,0.2,0.5,0.5,0.5h4.3v6.7c0,0-1,0.3-3.6,0.3
		c-3.1,0-7.5-1.1-7.5-10.8c0-9.7,4.6-10.9,8.9-10.9c3.7,0,5.3,0.7,6.3,1c0.3,0.1,0.6-0.2,0.6-0.5l1.2-5.2c0-0.1,0-0.3-0.2-0.4
		c-0.4-0.3-2.9-1.7-9.3-1.7c-7.3,0-14.9,3.1-14.9,18.2c0,15,8.6,17.3,15.9,17.3c6,0,9.7-2.6,9.7-2.6c0.1-0.1,0.2-0.3,0.2-0.4V130
		C224.8,129.7,224.6,129.5,224.3,129.5z"/>
	<ellipse fill="#FFFFFF" cx="232" cy="120.4" rx="4" ry="4"/>
	<path fill="#FFFFFF" d="M235.6,141.7c0-0.8,0-15,0-15c0-0.3-0.2-0.5-0.5-0.5h-6.2c-0.3,0-0.5,0.3-0.5,0.6c0,0,0,18,0,21.4
		c0,0.6,0.4,0.8,0.9,0.8c0,0,2.6,0,5.6,0c0.6,0,0.8-0.3,0.8-0.8C235.6,147.1,235.6,142.6,235.6,141.7z"/>
	<path fill="#FFFFFF" d="M253.4,126.2h-4.6l0-6.1c0-0.2-0.1-0.3-0.4-0.3H242c-0.2,0-0.4,0.1-0.4,0.3v6.3c0,0-3.2,0.8-3.4,0.8
		c-0.2,0.1-0.4,0.3-0.4,0.5v4c0,0.3,0.2,0.5,0.5,0.5h3.2c0,0,0,4.2,0,9.6c0,7.1,5,7.8,8.4,7.8c1.5,0,3.4-0.5,3.7-0.6
		c0.2-0.1,0.3-0.3,0.3-0.5l0-4.4c0-0.3-0.2-0.5-0.5-0.5c-0.3,0-1,0.1-1.7,0.1c-2.3,0-3.1-1.1-3.1-2.4c0-1.4,0-9.1,0-9.1h4.6
		c0.3,0,0.5-0.2,0.5-0.5v-5C253.9,126.5,253.7,126.2,253.4,126.2z"/>
	<rect x="-282.8" y="188.3" fill="#C58041" width="75" height="75"/>
	<path fill="#FFFFFF" d="M-244.3,198.6c-14.9,0-27,12-27,26.9c0,14.8,12.1,26.9,27,26.9c14.9,0,27-12,27-26.9
		C-217.3,210.6-229.4,198.6-244.3,198.6z M-244.3,248c-12.5,0-22.7-10.1-22.7-22.6c0-12.5,10.2-22.6,22.7-22.6
		c12.5,0,22.7,10.1,22.7,22.6C-221.6,237.9-231.7,248-244.3,248z"/>
	<path fill="#FFFFFF" d="M-227.4,226.1L-227.4,226.1L-227.4,226.1c0.4-0.4,0.4-1,0-1.3l-13.2-13.2c-0.2-0.2-0.4-0.3-0.6-0.3
		c-0.2,0-0.5,0.1-0.7,0.3l0,0c-0.2,0.2-0.3,0.4-0.3,0.6v3.6c0,0.2,0.1,0.5,0.3,0.6l8.9,8.9l-8.9,8.9c-0.2,0.2-0.3,0.4-0.3,0.6v3.6
		c0,0.2,0.1,0.5,0.3,0.6l0,0c0.2,0.2,0.4,0.3,0.7,0.3c0.2,0,0.5-0.1,0.6-0.3L-227.4,226.1z"/>
	<path fill="#FFFFFF" d="M-260.9,226.1L-260.9,226.1L-260.9,226.1c-0.4-0.4-0.4-1,0-1.3l13.2-13.2c0.2-0.2,0.4-0.3,0.6-0.3
		c0.2,0,0.5,0.1,0.6,0.3l0,0c0.2,0.2,0.3,0.4,0.3,0.6v3.6c0,0.2-0.1,0.5-0.3,0.6l-8.9,8.9l8.9,8.9c0.2,0.2,0.3,0.4,0.3,0.6v3.6
		c0,0.2-0.1,0.5-0.3,0.6l0,0c-0.2,0.2-0.4,0.3-0.6,0.3c-0.2,0-0.5-0.1-0.6-0.3L-260.9,226.1z"/>
	<rect x="-95.8" y="189.3" fill="#5BA545" width="76" height="75"/>
	<polygon fill="#FFFFFF" points="-57,199.8 -67.4,224 -77.7,248.3 -60.8,248.3 -60.8,238.1 -64.8,234.7 -64.2,233.5 -60.8,236.2 
		-60.8,228.3 -54.8,228.3 -54.8,233.3 -50.7,231.3 -50.1,232.7 -54.8,235 -54.8,238.9 -47.5,235.2 -46.9,236.6 -54.8,240.6 
		-54.8,248.3 -36.3,248.3 -46.6,224 	"/>
	<rect x="283.6" y="93.8" fill="#B4DEF0" width="75.4" height="75.4"/>
	<path fill="#FFFFFF" d="M349.6,141.3c-0.1,0.7-0.4,1.3-0.8,1.9c-0.5,0.7-1.1,1.2-1.7,1.8c-2.4,2.1-5,3.7-8,4.9
		c-3.3,1.3-6.8,2-10.3,2.4c-3.8,0.4-7.7,0.4-11.5,0.1c-3.3-0.3-6.6-0.8-9.7-1.8c-2.7-0.9-5.3-2.1-7.6-3.9c-1.1-0.8-2-1.8-2.9-2.8
		c-0.4-0.5-0.8-1.1-1.2-1.6l-0.2-0.2c-0.1-0.1-0.1-0.2-0.1-0.3c0-0.3,0-0.5,0-0.8c0-0.5,0.1-1,0.2-1.5c0.6-3.8,1.6-7.6,3.1-11.2
		c1.4-3.4,3.1-6.6,5.3-9.5c2.1-2.7,4.6-5.2,7.4-7.2c1.5-1,3-1.9,4.7-2.5c0.8-0.3,1.7-0.6,2.5-0.8c0.4-0.1,0.9-0.2,1.3-0.3
		c0.2,0,0.5-0.1,0.7-0.1c0.3,0,0.5,0,0.8,0c0.6,0,1.1,0,1.7,0c0.3,0,0.6,0,0.9,0c0.2,0,0.5,0.1,0.7,0.1c0.9,0.2,1.7,0.4,2.6,0.6
		c1.6,0.5,3.1,1.1,4.5,1.9c2.7,1.5,5.1,3.5,7.1,5.8c2.2,2.5,4,5.2,5.6,8.2c1.8,3.5,3.1,7.1,4,10.9c0.1,0.3,0.2,0.6,0.2,1
		c0.2,0.9,0.5,1.7,0.6,2.6C349.5,139.7,349.6,140.5,349.6,141.3z"/>
	<path fill="#6FBD72" d="M340.5,131.4c-0.8-1.4-1.8-2.6-2.8-3.9c-1-1.3-2.1-2.5-3.3-3.7c-1.3-1.4-2.7-2.6-4.2-3.8
		c-0.2-0.1-0.4-0.3-0.6-0.5c-0.2-0.2-0.3-0.3-0.5-0.4c-0.4-0.2-0.8-0.2-1.1-0.1c-0.8,0.3-1.4,1.1-2,1.7c-1.4,1.5-2.6,3.1-3.8,4.8
		c-1.1,1.5-2.3,3-3.7,4.2c-0.5,0.4-1.2,0.9-1.9,1c-0.5,0-1-0.1-1.4-0.3c-1-0.4-1.7-1.2-2.4-2c-1.2-1.3-2.8-3.5-4.9-2.9
		c-1.5,0.5-2.7,1.8-3.6,3c-0.6,0.7-1.1,1.5-1.6,2.3c-0.5,0.8-1,1.5-1.5,2.3c-1,1.6-1.9,3.2-2.5,5c-0.2,0.5-0.3,0.9-0.4,1.4
		c-0.1,0.3-0.1,0.5-0.2,0.8c0,0.1,0,0.2,0,0.3l0.1,0.2c0.3,0.6,0.7,1.1,1.1,1.6c1.7,2.2,4.2,3.7,6.8,4.7c3.1,1.2,6.4,1.8,9.7,2.1
		c3.6,0.3,7.3,0.3,11,0.1c3.5-0.2,7.1-0.9,10.4-2.1c2.7-1.1,5.5-2.7,7.1-5.3c0-0.1,0.1-0.2,0.1-0.3c0.9-1.8,0-3.6-0.9-5.1
		C342.4,134.8,341.6,133,340.5,131.4z"/>
	<rect x="-0.8" y="189.3" fill="#23A0CA" width="75" height="75"/>
	<path fill="#FFFFFF" d="M33.2,201.9l-19.3,19.3c-2.3,2.3-2.3,6.1,0,8.4l19.3,19.3c2.3,2.3,6.1,2.3,8.4,0l19.3-19.3
		c2.3-2.3,2.3-6.1,0-8.4l-0.1-0.1l-20.3,20.3c-0.9,0.9-2,1.3-3.3,1.3l-0.9,0l-0.2-0.1c-0.8-0.2-1.6-0.6-2.2-1.2L20.5,228
		c-0.9-0.9-1.4-2-1.4-3.3c0-1.2,0.5-2.4,1.4-3.3l4-4c0.9-0.9,2.1-1.3,3.3-1.4c1.2,0,2.4,0.5,3.3,1.4l6.2,6.2l13.1-13.1l-8.7-8.7
		C39.2,199.6,35.5,199.6,33.2,201.9z"/>
	<path fill="#FFFFFF" d="M58.3,209c-0.3-0.3-0.7-0.5-1.2-0.5c-0.4,0-0.9,0.2-1.2,0.5l-18.9,18.9l-8.3-8.3c-0.3-0.3-0.7-0.5-1.2-0.5
		c-0.4,0-0.9,0.2-1.2,0.5l-4,3.9c-0.7,0.7-0.7,1.7,0,2.3l13.4,13.4c0.3,0.3,0.6,0.7,1,0.8l0.2,0.2h0c0.4,0,0.9-0.4,1.2-0.7l24-24
		c0.6-0.6,0.7-1.8,0-2.4L58.3,209z"/>
	<rect x="-188.8" y="188.3" fill="#5BA545" width="75" height="75"/>
	<path fill="#FFFFFF" d="M-173.6,216.3c0.1,0.9,0.3,2,0.5,3.3c0.4,2.5,1,5.6,1.7,8.4c0.5,1.8,1,3.5,1.6,4.7c0.3,0.7,0.7,1.2,1,1.5
		c0.1,0.1,0.3,0.3,0.6,0.4c0.3,0.1,0.6,0.3,1,0.4c0.8,0.3,1.8,0.5,2.8,0.7c2.1,0.4,4.6,1,6.5,1.2c1.3,0.1,2.3,0.4,2.8,0.4h0
		c0.2,0,0.3-0.2,0.4-0.3c0.1-0.1,0.2-0.3,0.3-0.5c0.2-0.3,0.4-0.9,0.5-1.5c0.2-1.1,0.2-2.6,0.3-3.4c0-0.3,0.1-0.5,0.1-0.7
		c0-0.1,0.1-0.2,0.1-0.3l0.1,0.3l0.2,0.3h0l0.2-0.3l0.1-0.1c0.1,0.1,0.2,0.1,0.2,0.2c0.1,0.2,0.3,0.5,0.5,0.8
		c0.4,0.7,0.9,1.5,1.7,2.1c0.5,0.4,1.2,0.8,2,1c1.1,0.3,2.3,0.4,3.5,0.6c1.2,0.2,2.3,0.4,3.1,0.8c0.6,0.2,1.1,0.6,1.4,1
		c0.2,0.3,0.3,0.6,0.3,0.9c0.1,1.1,0.2,2.4,0.2,3.6c0,0.8-0.1,1.6-0.2,2.2c-0.1,0.7-0.4,1.7-0.8,2.1c-0.3,0.3-0.6,1-1,1h0l-4.8-0.3
		l0-0.2c-0.9-0.1-1.5-0.5-1.9-0.9c-0.4-0.4-0.6-1-0.6-1.6c0-0.4,0.1-0.8,0.2-1.1c0.2-0.3,0.4-0.1,0.7-0.3c0.2-0.1,0.4,0.3,0.6,0.3h0
		c1,0,1.6-0.6,1.9-0.6l0.2-3.7l-0.1,0.7c-0.2,0-0.5,0.7-0.9,0.7h0c-0.8,0-1.8-0.7-2.9-0.5c-1,0.3-2,0.3-2.6,1.1
		c-0.4,0.5-0.7,1-0.8,1.9c0,0.7-0.1,1.2-0.1,1.8c0,1.2,0.1,2.2,0.2,3c0.1,0.8,0.3,1.3,0.5,1.7c0.1,0.2,0.2,0.4,0.3,0.4
		c0.1,0.1,0.3,0.2,0.6,0.4c0.3,0.1,0.7,0.4,1.4,0.5c1.4,0.3,3.9,0.6,8.5,0.6h0c0.9,0,1.7-0.3,2.4-0.6c0.7-0.4,1.4-0.9,1.9-1.6
		c1.1-1.3,2-3.2,2.7-5.5c1.3-4.5,1.7-10.5,1.7-16.1c0-6.2-0.5-12-0.7-15.1c-0.1-1-0.1-1.8-0.1-2.1c0-0.7-0.3-1.3-0.6-1.7
		c-0.4-0.4-0.9-0.6-1.5-0.8c-1.1-0.5-2.3-0.4-2.4-0.4h0l-12.3-0.9l-0.8-0.4v0l0.8-0.1c0,0,0.4-0.1,0.4-0.2c0-0.2,0.1-0.4,0.1-0.7
		c-0.2-0.6-0.3-1.3-0.8-1.9c-0.3-0.4-0.7-0.8-1.2-1c-0.5-0.2-1.1-0.4-1.8-0.5c-0.7-0.1-1.5-0.1-2.2-0.1c-0.9,0-1.8,0-2.6,0.1
		c-0.8,0-1.5,0.1-2,0.1c-0.4,0-0.7,0.1-0.9,0.3c-0.2,0.2-0.5,0.5-0.6,0.9c-0.3,0.8-0.4,1.9-0.4,3c0,2.2,0,3.2,0,4.8
		c0,0.6-0.1,1.2-0.4,1.6c-0.2,0.4-0.6,1.2-1,1.4c-0.3,0.1-0.6,0.7-1,0.7h-6.4h0c-0.2,0-0.4,0-0.6,0h0c-0.5,0-1-0.5-1.3-0.4
		c-0.4,0.1-0.6,0-0.7,0.3c-0.1,0.2-0.2,0.3-0.2,0.5c0,0.1,0,0.2,0,0.5C-173.7,215.6-173.6,215.9-173.6,216.3z M-144.3,223.7
		c0.2-0.5,0.6-0.9,1.1-1.2c0.3-0.2,0.8-0.3,1.2-0.3h0c0.4,0,0.7,0,1.1,0.1c0.3,0.2,0.6,0.3,0.8,0.6c0.5,0.5,0.8,1.1,1,1.6
		c0.1,0.4,0.2,0.6,0.2,0.9l0,0.2l-0.1,0.2l-0.2,0.1l-0.2,0c-0.1,0-0.2,0-0.3-0.1c-0.1,0-0.2-0.1-0.3-0.1c-0.2-0.1-0.4-0.1-0.7-0.2
		c-0.5-0.2-1-0.3-1.4-0.3h-0.9v-0.2c0,0-0.2,0.1-0.5,0.2c-0.3,0.1-0.3,0.2-0.6,0.3c-0.2,0.1-0.2,0.1-0.4,0.1l-0.1,0l-0.2-0.1
		l-0.1-0.2l0-0.3C-144.6,224.7-144.5,224.2-144.3,223.7z"/>
	<path fill="#FFFFFF" d="M-169.4,212.3c1.6,0,3.5,0,3.5,0v-0.7c1,0,1-0.3,1.2-0.4c0.2-0.1,0.4-0.3,0.4-0.5c0-0.1,0.1-0.3,0.1-0.4
		c0-0.3,0.1-2.2,0.1-4c0-1.1,0.1-1.7,0.1-2.4l-7.9,8.4c0.1,0,0.2,0,0.3,0C-171,212.3-170.2,212.3-169.4,212.3z"/>
	<rect x="188.9" y="-93.7" fill="#EA6D24" width="75.4" height="75.4"/>
	<path fill="#FFFFFF" d="M241-36.7c-1.1,0.7-2.4-0.1-3.8-0.2c-3.4-0.3-7.7,0-12,0c-4.1,0-8.3-0.2-11.8,0c-1.8,0.1-3.7,0.7-5-0.2
		c-0.4-3.1,3.4-1.5,4.8-2.9c0.3-0.3,0.9-2,1.1-3.2c0.4-3.2,0-8.4,0-13.7c0-4.9,0.3-10.1,0-13.5c-0.1-1.3-0.7-3.1-1.1-3.6
		c-1.1-1.3-4.4-0.3-4-2.7c0.7-1.1,2.2-0.6,3.2-0.6c7.6,0,18.5,0.5,25.6-0.4c0.7-0.1,1.8-0.6,2.5,0.4c0.3,1-0.4,1.9-0.4,3.4
		c-0.1,1.9,1,6-1.3,5.5c-1.1-0.3-0.6-2.5-1.3-3.6c-1.2-2-7.2-2.3-11.1-2.3c-2.2,0-5.5,0-6.9,1.5c-0.3,3.9-0.4,9.2,0,13
		c2.6,0.5,7.6,0.8,10.7,0.4c0.8-0.1,2-0.2,2.5-0.6c1.7-1.2,0.5-3.3,2.1-4.6c2.1,0,1.3,2.3,1.3,4.2c-0.1,1.4-0.1,3.2,0,4.4
		c0.1,1.9,1,4-0.6,4.4c-2.3-0.8-1.2-3.2-3.2-4.4c-3-1.8-8.4-0.1-12.6-0.4c-0.7,2.1-0.4,4.8-0.4,7.6c0,2.5-0.6,5.4,0.4,7.4
		c1.2,2.3,7,1.9,10.3,1.7c3.9-0.3,7.9-1.1,9-3.4c0.9-1.9-0.2-3.3,1.5-4.8c3.9,0.7,1.2,4.2,0.8,7.1C241.2-39.4,241.9-37.9,241-36.7z"
		/>
	<path fill="#87C69F" d="M-35.2,385.8h1.2v-4l2-1.9l3.9,5.9h1.4l-4.5-6.7l4-3.9h-1.6l-5.3,5.2v-9.2h-1.2V385.8z M-37.7,375.3h-1.2
		v6.3c0,0.8-0.2,1.5-0.6,2.2c-0.4,0.7-1.1,1.1-1.9,1.2l-0.2,0l-0.2,0l-0.2,0l-0.2,0h-0.2l-0.2,0c-0.3,0-0.5-0.1-0.8-0.2
		c-0.3-0.1-0.5-0.2-0.7-0.4c-0.2-0.2-0.4-0.5-0.4-0.7c-0.1-0.3-0.1-0.6-0.1-0.9c0-0.1,0-0.2,0-0.3c0-0.1,0-0.2,0-0.3v-6.8H-46v7.1
		c0,0.5,0,0.9,0.1,1.4c0.1,0.5,0.3,0.9,0.6,1.2c0.3,0.3,0.6,0.5,1,0.7c0.4,0.2,0.7,0.3,1.1,0.3l0.2,0l0.2,0c0.1,0,0.2,0,0.4,0
		c0.1,0,0.2,0,0.4-0.1c0.6-0.1,1.2-0.3,1.8-0.6c0.6-0.3,1-0.7,1.3-1.2v1.7h1.2V375.3z M-50.4,385.8h1.3V384h-1.3V385.8z M-55,381.6
		c-0.1,1-0.5,1.8-1.1,2.4c-0.6,0.6-1.4,1-2.4,1c-1.2,0-2.2-0.4-2.7-1.3c-0.6-0.9-0.9-1.9-0.9-3v0l0,0v-0.1v0l0,0v0
		c0-1.1,0.3-2.2,0.9-3c0.6-0.9,1.5-1.3,2.7-1.3h0.4c1.1,0.1,1.9,0.5,2.3,1.4c0.5,0.8,0.7,1.7,0.8,2.7l0,0.2c0,0.1,0,0.2,0,0.3
		c0,0.1,0,0.2,0,0.3c0,0.1,0,0.2,0,0.3c0,0.1,0,0.2,0,0.3C-54.9,381.5-54.9,381.5-55,381.6z M-63.3,380.5c0,1.6,0.4,2.9,1.2,3.9
		c0.8,1.1,2,1.6,3.7,1.6c1.7,0,2.9-0.5,3.7-1.6c0.8-1,1.2-2.4,1.2-3.9v-0.1v-0.1c0-1.2-0.3-2.4-0.9-3.4c-0.6-1-1.6-1.7-2.9-1.8
		l-0.2,0l-0.2,0c-0.1,0-0.3,0-0.4,0c-0.1,0-0.2,0-0.3,0c-1.6,0-2.7,0.5-3.5,1.5C-62.9,377.5-63.3,378.9-63.3,380.5z M-66.7,382.2
		c-0.1,0.8-0.5,1.5-1,2c-0.5,0.6-1.2,0.8-2.1,0.8l-0.1,0l0,0l0,0h0c-1.1,0-1.9-0.4-2.4-1.3c-0.5-0.8-0.8-1.7-0.9-2.6
		c0-0.1,0-0.2,0-0.3c0-0.1,0-0.2,0-0.3v-0.1l0-0.1v-0.1v-0.1c0-1.2,0.4-2.2,1-2.8c0.6-0.7,1.3-1,2.1-1.1l0.2,0l0.2,0h0h0
		c0.6,0,1.2,0.2,1.8,0.7c0.6,0.4,0.9,1.1,1,1.9h1.2c-0.1-1.2-0.5-2.1-1.4-2.7c-0.9-0.6-1.8-0.9-2.8-0.9l-0.2,0l-0.2,0
		c-1,0.1-2,0.6-2.9,1.5c-0.9,0.9-1.3,2.2-1.3,4v0.2l0,0.2v0.2v0.2c0.1,1.5,0.6,2.7,1.5,3.5c0.9,0.8,1.8,1.2,2.9,1.3l0.2,0h0.2h0h0
		c1,0,1.9-0.4,2.8-1c0.9-0.7,1.3-1.6,1.4-2.9H-66.7z M-78.7,385.8h1.3V384h-1.3V385.8z M-86,387.9l4.7-12.6h-1.3l-3.4,9l-3.4-9h-1.3
		l4.1,10.6c-0.1,0.2-0.1,0.4-0.2,0.6c-0.1,0.2-0.1,0.4-0.2,0.7c-0.1,0.3-0.2,0.6-0.4,0.9c-0.1,0.3-0.3,0.5-0.5,0.7
		c-0.1,0.1-0.2,0.1-0.3,0.2c-0.1,0-0.2,0.1-0.3,0.1l-0.2,0l-0.2,0l-0.2,0l-0.2,0h0h0l-0.2,0l-0.1,0v1.1l0.1,0l0.1,0h0.1h0.1
		c0.1,0,0.2,0,0.3,0c0.1,0,0.2,0,0.3,0c0.7,0,1.2-0.2,1.7-0.6C-86.6,389.2-86.3,388.6-86,387.9z M-93.7,381.6
		c-0.1,1-0.5,1.8-1.1,2.4c-0.6,0.6-1.4,1-2.4,1c-1.2,0-2.2-0.4-2.7-1.3c-0.6-0.9-0.9-1.9-0.9-3v0l0,0v-0.1v0l0,0v0
		c0-1.1,0.3-2.2,0.9-3c0.6-0.9,1.5-1.3,2.7-1.3h0.4c1.1,0.1,1.9,0.5,2.3,1.4c0.5,0.8,0.7,1.7,0.8,2.7l0,0.2c0,0.1,0,0.2,0,0.3
		c0,0.1,0,0.2,0,0.3c0,0.1,0,0.2,0,0.3c0,0.1,0,0.2,0,0.3C-93.6,381.5-93.7,381.5-93.7,381.6z M-102,380.5c0,1.6,0.4,2.9,1.2,3.9
		c0.8,1.1,2,1.6,3.7,1.6c1.7,0,2.9-0.5,3.7-1.6c0.8-1,1.2-2.4,1.2-3.9v-0.1v-0.1c0-1.2-0.3-2.4-0.9-3.4c-0.6-1-1.6-1.7-2.9-1.8
		l-0.2,0l-0.2,0c-0.1,0-0.3,0-0.4,0c-0.1,0-0.2,0-0.3,0c-1.6,0-2.7,0.5-3.5,1.5C-101.6,377.5-102,378.9-102,380.5z M-109.1,385.8
		h1.3l3.9-10.6h-1.3l-3.3,9.1l-3.4-9.1h-1.3L-109.1,385.8z M-119.1,384.6c-0.2,0.1-0.4,0.1-0.6,0.2c-0.2,0.1-0.5,0.1-0.7,0.1l-0.2,0
		l-0.2,0h-0.1h-0.1c-0.3,0-0.6-0.1-0.9-0.2c-0.3-0.1-0.6-0.3-0.8-0.5c-0.1-0.1-0.2-0.2-0.3-0.3c-0.1-0.1-0.1-0.2-0.2-0.3
		c0-0.1-0.1-0.2-0.1-0.3l0-0.2c0-0.4,0.2-0.9,0.5-1.3c0.4-0.4,0.7-0.7,1.2-0.8c0.3-0.1,0.7-0.2,1-0.2c0.3-0.1,0.7-0.1,1-0.1l0.1,0
		l0.1,0c0.4,0,0.7-0.1,1.1-0.1c0.4-0.1,0.7-0.1,1.1-0.2v0.8c0,0.7-0.1,1.4-0.3,2C-117.7,383.8-118.2,384.3-119.1,384.6z
		 M-117.2,384.3l0,0.1c0,0.6,0.1,1,0.4,1.2c0.3,0.2,0.7,0.3,1.1,0.3c0.1,0,0.2,0,0.3,0c0.1,0,0.2,0,0.3,0h0.1h0.1v-0.9h-0.1l-0.1,0
		h-0.1l-0.1,0l-0.1,0c-0.3,0-0.5-0.1-0.6-0.2c-0.1-0.2-0.2-0.5-0.2-0.9v-5.6c0-1.1-0.4-1.9-1.2-2.4c-0.8-0.5-1.7-0.8-2.6-0.8h-0.2
		h-0.1c-1,0.1-1.9,0.4-2.7,1c-0.8,0.6-1.2,1.4-1.3,2.5h1.2c0.1-0.8,0.4-1.4,1-1.8c0.6-0.4,1.2-0.6,2-0.6h0.2l0.2,0
		c0.3,0,0.5,0.1,0.8,0.2c0.3,0.1,0.5,0.2,0.7,0.4c0.2,0.1,0.3,0.3,0.4,0.5c0.1,0.2,0.2,0.5,0.2,0.7l0,0.2l0,0.2
		c0,0.3-0.1,0.5-0.2,0.8c-0.1,0.2-0.3,0.4-0.6,0.4c-0.3,0-0.5,0.1-0.8,0.1c-0.3,0-0.5,0.1-0.8,0.1l-0.2,0l-0.2,0
		c-0.5,0.1-1,0.1-1.5,0.2c-0.5,0.1-1,0.2-1.4,0.5c-0.5,0.2-1,0.6-1.3,1.1c-0.3,0.5-0.5,1-0.5,1.6l0,0.2l0,0.2c0,0.2,0.1,0.3,0.1,0.5
		c0.1,0.2,0.1,0.3,0.2,0.5c0.3,0.6,0.7,1,1.2,1.2c0.5,0.2,1,0.4,1.6,0.4c0.2,0,0.4,0,0.5,0c0.2,0,0.4-0.1,0.6-0.1
		c0.6-0.1,1.2-0.3,1.7-0.6S-117.5,384.7-117.2,384.3z M-127.9,382.2c-0.1,0.8-0.5,1.5-1,2c-0.5,0.6-1.2,0.8-2.1,0.8l-0.1,0l0,0l0,0
		h0c-1.1,0-1.9-0.4-2.4-1.3c-0.5-0.8-0.8-1.7-0.9-2.6c0-0.1,0-0.2,0-0.3c0-0.1,0-0.2,0-0.3v-0.1l0-0.1v-0.1v-0.1
		c0-1.2,0.4-2.2,1-2.8c0.6-0.7,1.3-1,2.1-1.1l0.2,0l0.2,0h0h0c0.6,0,1.2,0.2,1.8,0.7c0.6,0.4,0.9,1.1,1,1.9h1.2
		c-0.1-1.2-0.5-2.1-1.4-2.7c-0.9-0.6-1.8-0.9-2.8-0.9l-0.2,0l-0.2,0c-1,0.1-2,0.6-2.9,1.5c-0.9,0.9-1.3,2.2-1.3,4v0.2l0,0.2v0.2v0.2
		c0.1,1.5,0.6,2.7,1.5,3.5c0.9,0.8,1.8,1.2,2.9,1.3l0.2,0h0.2h0h0c1,0,1.9-0.4,2.8-1c0.9-0.7,1.3-1.6,1.4-2.9H-127.9z M-152.4,385.8
		h1.2v-6.6c0-0.8,0.3-1.5,0.8-2.1c0.5-0.6,1.2-1,2-1h0.4c0.8,0,1.3,0.2,1.7,0.7c0.4,0.5,0.5,1.1,0.5,1.8v7.2h1.2v-6.6
		c0-0.8,0.2-1.5,0.7-2.1c0.5-0.6,1.1-1,2-1h0.3c0.8,0,1.3,0.2,1.7,0.6c0.4,0.4,0.5,1,0.5,1.8l0,0l0,0l0,0v7.3h1.3v-7.4
		c0-0.9-0.2-1.7-0.6-2.3c-0.4-0.6-1.1-1-2.1-1.1h-0.1h-0.1l-0.1,0l-0.1,0l-0.2,0l-0.1,0c-0.7,0-1.4,0.2-2,0.5
		c-0.6,0.4-1.1,0.9-1.4,1.6c-0.2-0.7-0.6-1.2-1.1-1.6c-0.5-0.3-1.2-0.5-1.9-0.5c-0.8,0-1.4,0.2-2,0.5c-0.5,0.3-1,0.8-1.4,1.5v-1.8
		h-1.1V385.8z M-163,385.8h1.3v-6.3c0-1,0.3-1.8,0.8-2.5c0.6-0.7,1.4-1,2.4-1c1,0,1.7,0.3,2,0.8c0.3,0.6,0.4,1.3,0.4,2.1v6.8h1.3
		V379c0-1-0.2-1.8-0.5-2.6c-0.3-0.7-1.1-1.2-2.3-1.4l-0.1,0h-0.1c-0.1,0-0.2,0-0.3,0c-0.1,0-0.2,0-0.3,0c-0.7,0-1.4,0.2-2,0.5
		c-0.6,0.3-1.1,0.8-1.6,1.5v-1.7h-1.2V385.8z M-169.1,384.6c-0.2,0.1-0.4,0.1-0.6,0.2c-0.2,0.1-0.5,0.1-0.7,0.1l-0.2,0l-0.2,0h-0.1
		h-0.1c-0.3,0-0.6-0.1-0.9-0.2c-0.3-0.1-0.6-0.3-0.8-0.5c-0.1-0.1-0.2-0.2-0.3-0.3c-0.1-0.1-0.1-0.2-0.2-0.3c0-0.1-0.1-0.2-0.1-0.3
		l0-0.2c0-0.4,0.2-0.9,0.5-1.3c0.4-0.4,0.7-0.7,1.2-0.8c0.3-0.1,0.7-0.2,1-0.2c0.3-0.1,0.7-0.1,1-0.1l0.1,0l0.1,0
		c0.4,0,0.7-0.1,1.1-0.1c0.4-0.1,0.7-0.1,1.1-0.2v0.8c0,0.7-0.1,1.4-0.3,2C-167.7,383.8-168.2,384.3-169.1,384.6z M-167.1,384.3
		l0,0.1c0,0.6,0.1,1,0.4,1.2c0.3,0.2,0.7,0.3,1.1,0.3c0.1,0,0.2,0,0.3,0c0.1,0,0.2,0,0.3,0h0.1h0.1v-0.9h-0.1l-0.1,0h-0.1l-0.1,0
		l-0.1,0c-0.3,0-0.5-0.1-0.6-0.2c-0.1-0.2-0.2-0.5-0.2-0.9v-5.6c0-1.1-0.4-1.9-1.2-2.4s-1.7-0.8-2.6-0.8h-0.2h-0.1
		c-1,0.1-1.9,0.4-2.7,1c-0.8,0.6-1.2,1.4-1.3,2.5h1.2c0.1-0.8,0.4-1.4,1-1.8c0.6-0.4,1.2-0.6,2-0.6h0.2l0.2,0c0.3,0,0.5,0.1,0.8,0.2
		c0.3,0.1,0.5,0.2,0.7,0.4c0.2,0.1,0.3,0.3,0.4,0.5c0.1,0.2,0.2,0.5,0.2,0.7l0,0.2l0,0.2c0,0.3-0.1,0.5-0.2,0.8
		c-0.1,0.2-0.3,0.4-0.6,0.4c-0.3,0-0.5,0.1-0.8,0.1c-0.3,0-0.5,0.1-0.8,0.1l-0.2,0l-0.2,0c-0.5,0.1-1,0.1-1.5,0.2
		c-0.5,0.1-1,0.2-1.4,0.5c-0.5,0.2-1,0.6-1.3,1.1c-0.3,0.5-0.5,1-0.5,1.6l0,0.2l0,0.2c0,0.2,0.1,0.3,0.1,0.5
		c0.1,0.2,0.1,0.3,0.2,0.5c0.3,0.6,0.7,1,1.2,1.2c0.5,0.2,1,0.4,1.6,0.4c0.2,0,0.4,0,0.5,0c0.2,0,0.4-0.1,0.6-0.1
		c0.6-0.1,1.2-0.3,1.7-0.6C-167.9,385-167.5,384.7-167.1,384.3z M-177.9,385.8h1.2v-14.7h-1.2V385.8z M-181.4,385.8h1.2v-14.7h-1.2
		V385.8z M-187.7,384.6c-0.2,0.1-0.4,0.1-0.6,0.2c-0.2,0.1-0.5,0.1-0.7,0.1l-0.2,0l-0.2,0h-0.1h-0.1c-0.3,0-0.6-0.1-0.9-0.2
		c-0.3-0.1-0.6-0.3-0.8-0.5c-0.1-0.1-0.2-0.2-0.3-0.3c-0.1-0.1-0.1-0.2-0.2-0.3c0-0.1-0.1-0.2-0.1-0.3l0-0.2c0-0.4,0.2-0.9,0.5-1.3
		c0.4-0.4,0.7-0.7,1.2-0.8c0.3-0.1,0.7-0.2,1-0.2c0.3-0.1,0.7-0.1,1-0.1l0.1,0l0.1,0c0.4,0,0.7-0.1,1.1-0.1c0.4-0.1,0.7-0.1,1.1-0.2
		v0.8c0,0.7-0.1,1.4-0.3,2C-186.4,383.8-186.9,384.3-187.7,384.6z M-185.8,384.3l0,0.1c0,0.6,0.1,1,0.4,1.2c0.3,0.2,0.7,0.3,1.1,0.3
		c0.1,0,0.2,0,0.3,0c0.1,0,0.2,0,0.3,0h0.1h0.1v-0.9h-0.1l-0.1,0h-0.1l-0.1,0l-0.1,0c-0.3,0-0.5-0.1-0.6-0.2
		c-0.1-0.2-0.2-0.5-0.2-0.9v-5.6c0-1.1-0.4-1.9-1.2-2.4c-0.8-0.5-1.7-0.8-2.6-0.8h-0.2h-0.1c-1,0.1-1.9,0.4-2.7,1
		c-0.8,0.6-1.2,1.4-1.3,2.5h1.2c0.1-0.8,0.4-1.4,1-1.8c0.6-0.4,1.2-0.6,2-0.6h0.2l0.2,0c0.3,0,0.5,0.1,0.8,0.2
		c0.3,0.1,0.5,0.2,0.7,0.4c0.2,0.1,0.3,0.3,0.4,0.5c0.1,0.2,0.2,0.5,0.2,0.7l0,0.2l0,0.2c0,0.3-0.1,0.5-0.2,0.8
		c-0.1,0.2-0.3,0.4-0.6,0.4c-0.3,0-0.5,0.1-0.8,0.1c-0.3,0-0.5,0.1-0.8,0.1l-0.2,0l-0.2,0c-0.5,0.1-1,0.1-1.5,0.2
		c-0.5,0.1-1,0.2-1.4,0.5c-0.5,0.2-1,0.6-1.3,1.1c-0.3,0.5-0.5,1-0.5,1.6l0,0.2l0,0.2c0,0.2,0.1,0.3,0.1,0.5
		c0.1,0.2,0.1,0.3,0.2,0.5c0.3,0.6,0.7,1,1.2,1.2c0.5,0.2,1,0.4,1.6,0.4c0.2,0,0.4,0,0.5,0c0.2,0,0.4-0.1,0.6-0.1
		c0.6-0.1,1.2-0.3,1.7-0.6C-186.6,385-186.2,384.7-185.8,384.3z M-203.2,377.3v-1.8h-1.4v1.8H-203.2z M-204.5,385.8h1.4V384h-1.4
		V385.8z M-212.4,387.9l4.7-12.6h-1.3l-3.4,9l-3.4-9h-1.3l4.1,10.6c-0.1,0.2-0.1,0.4-0.2,0.6c-0.1,0.2-0.1,0.4-0.2,0.7
		c-0.1,0.3-0.2,0.6-0.4,0.9c-0.1,0.3-0.3,0.5-0.5,0.7c-0.1,0.1-0.2,0.1-0.3,0.2c-0.1,0-0.2,0.1-0.3,0.1l-0.2,0l-0.2,0l-0.2,0l-0.2,0
		h0h0l-0.2,0l-0.1,0v1.1l0.1,0l0.1,0h0.1h0.1c0.1,0,0.2,0,0.3,0c0.1,0,0.2,0,0.3,0c0.7,0,1.2-0.2,1.7-0.6
		C-213,389.2-212.6,388.6-212.4,387.9z M-219.9,380.6c0,1.1-0.3,2.2-0.8,3.1c-0.5,0.9-1.4,1.4-2.7,1.4c-1.3,0-2.2-0.5-2.8-1.4
		c-0.5-0.9-0.8-1.9-0.8-3.1l0,0l0,0l0,0c0-1.2,0.3-2.2,0.9-3.1c0.6-0.9,1.5-1.3,2.7-1.3h0.5c1.1,0.1,1.9,0.6,2.4,1.5
		c0.5,0.9,0.7,1.8,0.7,2.9V380.6L-219.9,380.6z M-228.2,385.8h1.2V384c0.4,0.7,0.8,1.2,1.5,1.5c0.6,0.4,1.3,0.5,2,0.6l0.2,0
		c1.6,0,2.8-0.5,3.6-1.6c0.8-1.1,1.2-2.4,1.2-3.9c0-1.5-0.4-2.8-1.1-3.9c-0.7-1.1-1.9-1.7-3.5-1.7c-0.9,0-1.6,0.2-2.2,0.5
		c-0.6,0.4-1.1,0.9-1.6,1.6v-5.9h-1.2V385.8z M-245.7,382.5c0,1.2,0.5,2.1,1.3,2.7c0.9,0.6,1.8,0.9,2.9,0.9c0.2,0,0.3,0,0.5,0
		c0.2,0,0.3,0,0.5-0.1c0.3,0,0.6-0.1,0.9-0.2c0.3-0.1,0.6-0.2,0.9-0.4c0.4-0.3,0.7-0.6,0.9-1c0.2-0.4,0.3-0.9,0.3-1.3v-0.2l0-0.2
		l0-0.2l0-0.2c-0.1-0.6-0.4-1-0.9-1.3c-0.5-0.3-1-0.5-1.5-0.7c-0.1,0-0.2-0.1-0.4-0.1c-0.1,0-0.2-0.1-0.3-0.1l-0.2,0l-0.2,0
		c-0.2,0-0.3-0.1-0.5-0.1c-0.2,0-0.3-0.1-0.5-0.1c-0.4-0.1-0.9-0.3-1.2-0.4c-0.4-0.2-0.6-0.5-0.8-0.8c-0.1-0.1-0.1-0.3-0.1-0.4
		c0-0.1,0-0.2,0-0.4c0-0.5,0.2-0.8,0.7-1.1c0.4-0.3,0.9-0.5,1.4-0.5c0.1,0,0.2,0,0.3,0l0.2,0h0.1l0.2,0c0.1,0,0.3,0,0.4,0
		c0.1,0,0.2,0,0.4,0.1c0.5,0.2,0.9,0.4,1.1,0.8c0.3,0.4,0.4,0.8,0.4,1.3h1.3c-0.1-1.1-0.5-2-1.3-2.5c-0.8-0.6-1.7-0.9-2.6-0.9h0h0
		c-0.1,0-0.2,0-0.3,0c-0.1,0-0.2,0-0.3,0c-0.3,0-0.5,0.1-0.8,0.2c-0.3,0.1-0.5,0.2-0.7,0.3c-0.5,0.3-0.8,0.6-1.1,1.1
		c-0.3,0.5-0.4,0.9-0.4,1.4c0,0.1,0,0.2,0,0.3c0,0.1,0,0.2,0.1,0.3l0,0l0,0.1l0,0.1l0,0.1c0.2,0.6,0.5,1,1,1.3
		c0.5,0.3,1,0.5,1.6,0.7c0.2,0,0.3,0.1,0.5,0.1c0.2,0,0.3,0.1,0.5,0.1l0.1,0l0.1,0c0.1,0,0.2,0,0.4,0.1c0.1,0,0.3,0.1,0.4,0.1
		c0.4,0.1,0.7,0.2,1.1,0.4c0.3,0.2,0.6,0.4,0.7,0.8l0,0.1l0,0.1l0,0.2l0,0.2c0,0.3-0.1,0.7-0.3,1c-0.2,0.3-0.5,0.5-0.8,0.7
		c-0.1,0-0.3,0.1-0.4,0.1c-0.2,0-0.3,0.1-0.5,0.1c-0.1,0-0.2,0-0.3,0.1c-0.1,0-0.2,0-0.3,0c-0.7,0-1.4-0.2-2.1-0.7
		c-0.6-0.4-1-1.1-1-1.9H-245.7z M-256.2,385.8h1.3v-6.3c0-1,0.3-1.8,0.8-2.5c0.6-0.7,1.4-1,2.4-1c1,0,1.7,0.3,2,0.8
		c0.3,0.6,0.4,1.3,0.4,2.1v6.8h1.3V379c0-1-0.2-1.8-0.5-2.6c-0.3-0.7-1.1-1.2-2.3-1.4l-0.1,0h-0.1c-0.1,0-0.2,0-0.3,0
		c-0.1,0-0.2,0-0.3,0c-0.7,0-1.4,0.2-2,0.5c-0.6,0.3-1.1,0.8-1.6,1.5v-1.7h-1.2V385.8z M-259.7,381.6c-0.1,1-0.5,1.8-1.1,2.4
		c-0.6,0.6-1.4,1-2.4,1c-1.2,0-2.2-0.4-2.7-1.3c-0.6-0.9-0.9-1.9-0.9-3v0l0,0v-0.1v0l0,0v0c0-1.1,0.3-2.2,0.9-3
		c0.6-0.9,1.5-1.3,2.7-1.3h0.4c1.1,0.1,1.9,0.5,2.3,1.4c0.5,0.8,0.7,1.7,0.8,2.7l0,0.2c0,0.1,0,0.2,0,0.3c0,0.1,0,0.2,0,0.3
		c0,0.1,0,0.2,0,0.3c0,0.1,0,0.2,0,0.3C-259.6,381.5-259.6,381.5-259.7,381.6z M-268,380.5c0,1.6,0.4,2.9,1.2,3.9
		c0.8,1.1,2,1.6,3.7,1.6c1.7,0,2.9-0.5,3.7-1.6c0.8-1,1.2-2.4,1.2-3.9v-0.1v-0.1c0-1.2-0.3-2.4-0.9-3.4c-0.6-1-1.6-1.7-2.9-1.8
		l-0.2,0l-0.2,0c-0.1,0-0.3,0-0.4,0c-0.1,0-0.2,0-0.3,0c-1.6,0-2.7,0.5-3.5,1.5C-267.6,377.5-268,378.9-268,380.5z M-271.4,382.2
		c-0.1,0.8-0.5,1.5-1,2c-0.5,0.6-1.2,0.8-2.1,0.8l-0.1,0l0,0l0,0h0c-1.1,0-1.9-0.4-2.4-1.3c-0.5-0.8-0.8-1.7-0.9-2.6
		c0-0.1,0-0.2,0-0.3c0-0.1,0-0.2,0-0.3v-0.1l0-0.1v-0.1v-0.1c0-1.2,0.4-2.2,1-2.8c0.6-0.7,1.3-1,2.1-1.1l0.2,0l0.2,0h0h0
		c0.6,0,1.2,0.2,1.8,0.7c0.6,0.4,0.9,1.1,1,1.9h1.2c-0.1-1.2-0.5-2.1-1.4-2.7c-0.9-0.6-1.8-0.9-2.8-0.9l-0.2,0l-0.2,0
		c-1,0.1-2,0.6-2.9,1.5c-0.9,0.9-1.3,2.2-1.3,4v0.2l0,0.2v0.2v0.2c0.1,1.5,0.6,2.7,1.5,3.5c0.9,0.8,1.8,1.2,2.9,1.3l0.2,0h0.2h0h0
		c1,0,1.9-0.4,2.8-1c0.9-0.7,1.3-1.6,1.4-2.9H-271.4z M-281.3,373v-1.8h-1.2v1.8H-281.3z M-282.5,385.8h1.2v-10.6h-1.2V385.8z"/>
</g>
</svg>
